<svg xmlns="http://www.w3.org/2000/svg" width="24" height="24" viewBox="0 0 24 24">
  <g id="abe-dua" transform="translate(-425 -407)">
    <rect id="Rectangle_149" data-name="Rectangle 149" width="24" height="24" transform="translate(425 407)" fill="none"/>
    <path id="Path_564" data-name="Path 564" d="M399.772,468.734a1.435,1.435,0,0,1,.048-.445.161.161,0,0,0-.078-.208c-.182-.108-.365-.215-.547-.324a1.335,1.335,0,0,1-.292-.224.4.4,0,0,1-.018-.551c.048-.058.1-.113.153-.168s.032-.075-.018-.106a1.072,1.072,0,0,0-.5-.136c-.324-.021-.649-.035-.973-.055-.094-.006-.188-.021-.282-.028a.144.144,0,0,1-.13-.1,2.831,2.831,0,0,1-.1-.323,2,2,0,0,0-.133-.4.18.18,0,0,0-.259-.109,3.565,3.565,0,0,0-.537.25c-.084.044-.17.084-.251.133a.1.1,0,0,1-.148-.031,5.535,5.535,0,0,0-.569-.641c-.055-.051-.115-.1-.173-.145a.1.1,0,0,0-.165.025c-.052.076-.1.156-.148.236a.805.805,0,0,1-.094.129.3.3,0,0,1-.356.088,1.212,1.212,0,0,1-.31-.181.467.467,0,0,0-.639.009,3.377,3.377,0,0,1-1.158.543c-.109.03-.156.007-.2-.1a.688.688,0,0,1,.209-.857.888.888,0,0,1,.442-.184,1.556,1.556,0,0,1,.779.077c.17.069.251.036.338-.13a1.436,1.436,0,0,0,.136-.39,1.126,1.126,0,0,1,.118-.325.214.214,0,0,1,.347-.087c.064.044.124.1.186.143a1.179,1.179,0,0,0,.124.086.245.245,0,0,0,.4-.107c.062-.107.113-.221.169-.331a1.118,1.118,0,0,1,.191-.277.322.322,0,0,1,.488-.029,1.856,1.856,0,0,1,.345.411,1.971,1.971,0,0,0,.289.35c.093.086.125.078.169-.038a4.457,4.457,0,0,1,.2-.477.489.489,0,0,1,.555-.292c.1.013.133.08.163.16a.761.761,0,0,0,.47.45c.131.05.162.029.185-.11a1.325,1.325,0,0,1,.121-.438c.066-.121.115-.127.186-.007a8.218,8.218,0,0,0,.743.979c.068.082.134.166.2.251s.064.082.152.022a.786.786,0,0,0,.32-.818,3.256,3.256,0,0,0-.29-.979.185.185,0,0,1,.015-.211.5.5,0,0,0,.121-.274.226.226,0,0,0-.294-.25.691.691,0,0,0-.168.074c-.066.036-.132.073-.2.107a.376.376,0,0,1-.456-.055,1.116,1.116,0,0,0-.235-.159.241.241,0,0,0-.331.055l-.058.06a.545.545,0,0,1-.881-.108,3.231,3.231,0,0,1-.174-.376c-.051-.12-.085-.136-.213-.122s-.248.03-.373.034a.248.248,0,0,0-.219.142c-.094.16-.164.334-.274.485a1.011,1.011,0,0,1-.22.241.214.214,0,0,1-.345-.07.879.879,0,0,1-.1-.322c-.015-.089-.03-.178-.051-.266-.027-.11-.067-.122-.156-.049a1.676,1.676,0,0,0-.268.312,4.188,4.188,0,0,0-.352.6.48.48,0,0,1-.348.272c-.223.049-.224.055-.327-.156a1.976,1.976,0,0,0-.31-.49c-.111-.121-.182-.111-.261.036a3.774,3.774,0,0,0-.253.672,1.867,1.867,0,0,1-.265.636,1.1,1.1,0,0,1-.2.2c-.068.052-.1.039-.127-.044-.042-.141-.067-.286-.114-.426a.423.423,0,0,0-.184-.232.129.129,0,0,0-.168.01.846.846,0,0,0-.259.4c-.09.259-.139.53-.2.8-.02.082-.046.163-.071.244a.771.771,0,0,1-.566.523.154.154,0,0,1-.179-.056,1.2,1.2,0,0,1-.275-.757.332.332,0,0,1,.112-.272.2.2,0,0,1,.261-.02c.141.089.225.047.237-.123a.628.628,0,0,0-.121-.4c-.089-.133-.18-.265-.257-.406a.811.811,0,0,1-.024-.749c.08-.184.183-.355.275-.533a1.476,1.476,0,0,0,.22-.694c0-.172-.071-.223-.227-.161s-.306.134-.465.185c-.03.009-.066.031-.095,0s0-.064.009-.094a5.275,5.275,0,0,0,.235-1.023,1.29,1.29,0,0,0-.1-.689.567.567,0,0,0-.1-.158.121.121,0,0,0-.222.04c-.02.049-.033.1-.054.151a.1.1,0,0,1-.153.059c-.205-.095-.4-.205-.6-.316a3.42,3.42,0,0,0-1.078-.414h-.383c-.116.06-.119.1-.009.181a2.762,2.762,0,0,0,.329.182,2.056,2.056,0,0,1,.38.244.53.53,0,0,1,.181.259c.031.11.014.141-.1.163a2.607,2.607,0,0,0-.319.059c-.065.021-.15.03-.159.115s.078.105.138.136a1.339,1.339,0,0,1,.324.25,2.625,2.625,0,0,1,.52.69c.009.018.018.035.025.054.053.137.025.2-.116.238a.96.96,0,0,0-.37.168c-.072.057-.073.088,0,.143.172.129.36.234.526.372a2.193,2.193,0,0,1,.581.755c.048.1.032.134-.081.139a3.835,3.835,0,0,1-.556-.035,2.27,2.27,0,0,0-.325-.007c-.122,0-.151.069-.082.172a2.048,2.048,0,0,0,.279.314q.358.349.718.7a.182.182,0,0,1,.062.133c.009.274.023.548.028.822,0,.241-.051.28-.279.218a1.483,1.483,0,0,1-1.028-1.255c-.008-.067-.014-.135-.021-.2-.014-.121-.017-.129-.137-.13a.5.5,0,0,1-.492-.42.415.415,0,0,0-.346-.39,1.913,1.913,0,0,1-.26-.091.473.473,0,0,1-.341-.487c-.006-.223-.006-.223-.221-.174a.276.276,0,0,1-.347-.144,1.621,1.621,0,0,1-.2-.572c-.031-.159-.042-.14-.159-.125s-.215.022-.323.032c-.2.019-.277-.036-.329-.229s-.1-.393-.155-.59a.933.933,0,0,0-.1-.241.2.2,0,0,0-.282-.1c-.2.067-.374.174-.562.257a.425.425,0,0,1-.614-.151.464.464,0,0,0-.521-.2,1.6,1.6,0,0,0-1.055.65.823.823,0,0,0-.121.647c.009.059.05.06.093.059l.616-.017a.91.91,0,0,1,.125,0,.245.245,0,0,1,.223.175c.059.171.1.349.172.513a.707.707,0,0,0,.041.084.227.227,0,0,0,.4.009.506.506,0,0,1,.578-.2.388.388,0,0,1,.265.27c.041.126.076.254.115.381a1.346,1.346,0,0,0,.051.134.275.275,0,0,0,.422.169c.066-.029.131-.063.2-.094a.968.968,0,0,1,.276-.092.283.283,0,0,1,.327.186.837.837,0,0,1,.051.214.453.453,0,0,0,.371.405c.054.014.108.025.163.037a.348.348,0,0,1,.2.124,4.033,4.033,0,0,0,.7.664,1.86,1.86,0,0,1,.471.544,1.094,1.094,0,0,0,.066.1.15.15,0,0,0,.181.066.494.494,0,0,1,.221-.027.126.126,0,0,1,.106.084,1.472,1.472,0,0,1,.082.491c0,.083-.045.123-.126.139a.7.7,0,0,1-.579-.2,3.123,3.123,0,0,0-.357-.249.615.615,0,0,0-.262-.076c-.047,0-.094-.009-.141-.016a.432.432,0,0,1-.367-.293c-.03-.079-.049-.162-.076-.242-.039-.117-.073-.133-.186-.082a1.883,1.883,0,0,0-.382.255c-.083.065-.085.065-.151-.017a.822.822,0,0,1-.142-.34.921.921,0,0,0-.1-.269.186.186,0,0,0-.3-.073,4.3,4.3,0,0,0-.362.285l-.047.036a.25.25,0,0,1-.418-.082c-.054-.085-.1-.178-.147-.266-.063-.107-.091-.117-.213-.087-.184.045-.362.109-.542.167s-.225.049-.3-.143a1.537,1.537,0,0,0-.131-.293.324.324,0,0,0-.511-.068,1.31,1.31,0,0,0-.278.4,1.168,1.168,0,0,1-.126.2c-.114.144-.186.161-.343.067-.124-.075-.244-.157-.363-.24a2.434,2.434,0,0,0-.348-.2.533.533,0,0,0-.6.093.064.064,0,0,0,0,.113.607.607,0,0,0,.1.07.09.09,0,0,1,.046.133c-.051.11-.1.22-.157.328-.139.277-.288.548-.418.83-.037.08-.061.164-.09.246v.458c.037.107.058.118.165.077a1.928,1.928,0,0,0,.421-.255,1.851,1.851,0,0,1,.454-.264.4.4,0,0,1,.474.127c.059.068.11.142.163.215a.465.465,0,0,0,.1.1c.085.063.11.055.2-.007a1.443,1.443,0,0,1,.648-.248.121.121,0,0,1,.112.044c.035.04.069.081.1.124a.689.689,0,0,0,.122.139c.092.072.167.047.2-.069a.548.548,0,0,0,.014-.152.186.186,0,0,1,.107-.177,2.558,2.558,0,0,1,.443-.172c.075-.023.128.022.177.07a1.7,1.7,0,0,0,.3.253,1.752,1.752,0,0,0,.279.133.294.294,0,0,0,.33-.073c.2-.19.179-.176.415-.029a2.861,2.861,0,0,1,.537.414.306.306,0,0,0,.336.081,3.327,3.327,0,0,0,.506-.239,1.25,1.25,0,0,1,1.012-.053.71.71,0,0,1,.4.889c-.025.086-.1.1-.168.116-.112.017-.226.03-.339.046a4.86,4.86,0,0,0-.489.1.125.125,0,0,1-.151-.054,1.3,1.3,0,0,0-.14-.168c-.1-.1-.186-.082-.242.045-.035.08-.056.166-.091.246a.246.246,0,0,1-.3.166.14.14,0,0,1-.121-.131c-.011-.07-.02-.14-.033-.209s-.041-.131-.123-.14a.182.182,0,0,0-.2.09,1.783,1.783,0,0,0-.122.27.116.116,0,0,1-.127.084q-.267,0-.533,0a.107.107,0,0,1-.121-.089,1.224,1.224,0,0,0-.106-.276c-.047-.08-.073-.085-.141-.02a3.34,3.34,0,0,0-.307.368,2.136,2.136,0,0,1-.3.327.71.71,0,0,1-.667.137c-.224-.056-.272-.015-.281.221,0,.057-.009.113-.008.169a.489.489,0,0,1-.248.407.175.175,0,0,1-.161.007,1.691,1.691,0,0,0-.512-.051c-.122,0-.17.042-.155.165a.377.377,0,0,1-.208.4,1.911,1.911,0,0,0-.749,1.943,3.26,3.26,0,0,0,.114.337c.007.02.013.049.037.053s.037-.03.048-.05a1.449,1.449,0,0,1,.327-.434,1.33,1.33,0,0,1,.946-.376c.142,0,.283,0,.425,0a.113.113,0,0,0,.128-.08,1.894,1.894,0,0,1,.1-.189.569.569,0,0,1,.523-.318c.083,0,.167,0,.25,0a.135.135,0,0,0,.147-.094c.065-.156.136-.31.209-.462.092-.193.193-.221.374-.111a.582.582,0,0,0,.13.074.1.1,0,0,0,.147-.078.8.8,0,0,0,.019-.211.639.639,0,0,1,.458-.628.777.777,0,0,1,.52.064c.159.074.133.1.267-.059a2.535,2.535,0,0,1,.7-.615.69.69,0,0,1,.184-.077.089.089,0,0,1,.12.082,2.382,2.382,0,0,1,0,.743.242.242,0,0,1-.262.212c-.058,0-.117,0-.175,0-.193,0-.191,0-.15.188a2.361,2.361,0,0,1,.065.546.883.883,0,0,1-.037.242.43.43,0,0,1-.412.335,2.439,2.439,0,0,1-.67-.06c-.066-.013-.088,0-.088.072,0,.254.008.509-.009.763a.273.273,0,0,1-.24.3,3.71,3.71,0,0,1-.646.061c-.122.01-.244.015-.366.017-.064,0-.072.025-.06.084a3.17,3.17,0,0,1,.082.732.66.66,0,0,1-.018.16.249.249,0,0,1-.232.208,1.543,1.543,0,0,1-.25,0c-.161-.014-.322-.009-.483-.009-.1,0-.123.02-.12.126a2.448,2.448,0,0,0,.023.279.232.232,0,0,1-.105.24,1.133,1.133,0,0,1-.365.161,1.118,1.118,0,0,0-.2.073.153.153,0,0,0-.091.165.841.841,0,0,0,.24.545.218.218,0,0,0,.2.069c.126-.022.251-.046.378-.065a.3.3,0,0,1,.334.167c.079.146.133.3.225.444a1.049,1.049,0,0,0,.293.32.381.381,0,0,0,.089.044c.113.036.164.012.209-.1.1-.252.164-.517.25-.774.011-.032.022-.064.032-.1a.271.271,0,0,1,.2-.191.838.838,0,0,0,.4-.224.588.588,0,0,0,.152-.6c-.053-.193-.039-.24.118-.361a.877.877,0,0,1,.676-.176c.162.022.159.022.2-.135a8.072,8.072,0,0,1,.267-.919,1.318,1.318,0,0,1,.366-.538.576.576,0,0,1,.381-.145c.178,0,.356,0,.533-.007.213-.008.271-.1.2-.3a2.285,2.285,0,0,0-.295-.521,1.169,1.169,0,0,1-.123-1.084.63.63,0,0,1,.662-.447.7.7,0,0,1,.447.257,1.287,1.287,0,0,1,.271.629,11.992,11.992,0,0,1,.185,1.386c.063.633.135,1.265.178,1.9a14.443,14.443,0,0,1,.017,1.569,10.108,10.108,0,0,1-.246,1.915,8.307,8.307,0,0,1-.254.852,1.8,1.8,0,0,1-.586.777c-.326.273-.667.527-.973.824a2.664,2.664,0,0,0-.648.873,1.981,1.981,0,0,0-.133.738c0,.122.048.151.159.107a.533.533,0,0,0,.242-.187,1.386,1.386,0,0,0,.254-.52.435.435,0,0,1,.137-.2c.2-.21.387-.437.581-.655a.822.822,0,0,1,.3-.228c.032-.013.071-.037.1-.007s0,.069-.009.1c-.139.336-.313.656-.469.985a6.028,6.028,0,0,0-.275.655.764.764,0,0,0-.045.215c0,.1.033.134.125.1a1.023,1.023,0,0,0,.414-.276,4.552,4.552,0,0,0,.389-.571,3.773,3.773,0,0,1,.359-.5,1.565,1.565,0,0,0,.252-.475c.094-.233.179-.469.292-.694a1.325,1.325,0,0,1,.4-.523,1.016,1.016,0,0,1,.393-.177.286.286,0,0,1,.345.284.823.823,0,0,1-.078.336c-.05.123-.106.243-.156.366a.826.826,0,0,0-.07.42,1.019,1.019,0,0,1-.167.568,8.1,8.1,0,0,0-.37.741c-.014.037-.028.074-.039.112a.458.458,0,0,0,.066.434h.15a.71.71,0,0,0,.435-.45,6,6,0,0,1,.263-.632.891.891,0,0,1,.159-.217c.082-.075.131-.067.184.031a1.649,1.649,0,0,1,.155.595,2.351,2.351,0,0,0,.093.465c.038.112.087.138.238.128a.166.166,0,0,0,.179-.154,1.96,1.96,0,0,0-.027-.565,2.494,2.494,0,0,1-.027-.524c.006-.051.011-.107.063-.131s.095.018.132.051a2.53,2.53,0,0,1,.4.5c.117.172.229.347.363.507a.54.54,0,0,0,.488.18c.073-.005.094-.049.078-.118a.877.877,0,0,0-.089-.21,5.677,5.677,0,0,0-.752-1.034,5.038,5.038,0,0,1-.69-.954,1.508,1.508,0,0,1-.157-.738.454.454,0,0,1,.005-.059c.028-.172.113-.219.272-.153a.684.684,0,0,1,.29.246c.12.167.214.35.321.526a1,1,0,0,0,.346.358,1.067,1.067,0,0,1,.338.358,4.4,4.4,0,0,1,.584,1.461c.024.11.058.218.084.328a.1.1,0,0,0,.129.086.316.316,0,0,0,.324-.41c-.024-.182-.059-.363-.086-.544-.006-.04-.027-.1.009-.12s.074.026.1.052a3.152,3.152,0,0,1,.433.525,1.644,1.644,0,0,0,.5.506.751.751,0,0,0,.2.085.186.186,0,0,0,.231-.252.741.741,0,0,0-.178-.274,1.755,1.755,0,0,1-.309-.4,1.088,1.088,0,0,0-.275-.281c-.253-.239-.479-.5-.714-.76-.173-.189-.372-.348-.556-.524a9.131,9.131,0,0,1-.613-.727c-.352-.416-.7-.838-1.046-1.255a3.077,3.077,0,0,1-.647-1.295c-.131-.553-.275-1.1-.363-1.664a8.968,8.968,0,0,1-.1-1.792,6.215,6.215,0,0,1,.124-1.1,4.477,4.477,0,0,1,.164-.516c.023-.064.058-.068.107-.029a1.06,1.06,0,0,0,.5.2.643.643,0,0,1,.319.155,4.343,4.343,0,0,1,.454.507c.231.282.45.575.692.848.153.172.154.17.3-.007.023-.028.048-.055.073-.081a.36.36,0,0,1,.555.013,1.076,1.076,0,0,1,.193.364c.042.12.08.241.133.357a.71.71,0,0,0,.115.186.25.25,0,0,0,.395.019,1.17,1.17,0,0,0,.112-.126.392.392,0,0,1,.4-.139c.266.048.286.082.255.352a2.4,2.4,0,0,1-.147.694.317.317,0,0,1-.142.18c-.068.034-.028.086.007.115a.458.458,0,0,0,.446.121,2.916,2.916,0,0,0,.391-.168,1.61,1.61,0,0,1,.208-.086c.069-.022.108-.005.131.07a4.976,4.976,0,0,0,.2.583.3.3,0,0,0,.342.2c.08-.01.161-.01.241-.017a.248.248,0,0,1,.248.135,2.638,2.638,0,0,1,.227.509,2.116,2.116,0,0,0,.128.3c.092.167.177.187.328.075a.682.682,0,0,1,.188-.107.265.265,0,0,1,.354.131c.04.068.077.138.116.206.073.129.166.132.249.008a.92.92,0,0,0,.142-.456,2.828,2.828,0,0,0-.076-.859.367.367,0,0,0-.19-.254.954.954,0,0,1-.141-.089.53.53,0,0,1-.164-.531c.017-.126.054-.249.072-.374.024-.167.016-.175-.141-.218-.233-.064-.472-.1-.7-.184a1.331,1.331,0,0,1-.308-.149.217.217,0,0,1-.1-.191c0-.15.016-.3.021-.449a.465.465,0,0,0-.47-.471,1.227,1.227,0,0,0-.347.084.477.477,0,0,1-.561-.167,1.512,1.512,0,0,1-.235-.428c-.086-.221-.145-.452-.242-.669a.148.148,0,0,1-.01-.083,1.116,1.116,0,0,1,.129-.392c.091-.158.228-.156.323,0a1.022,1.022,0,0,1,.125.5c0,.1.007.2.013.3a.217.217,0,0,0,.111.188c.053.031.1.065.159.092a.267.267,0,0,0,.312-.033.793.793,0,0,1,.074-.055.227.227,0,0,1,.313.017,1.879,1.879,0,0,1,.314.394,2.829,2.829,0,0,0,.214.3c.068.075.086.076.16.005.033-.031.056-.026.085,0a.384.384,0,0,1,.069.115c.031.073.062.145.1.216a.3.3,0,0,0,.23.163c.089.016.123,0,.146-.095a1.274,1.274,0,0,0,.017-.4,5.816,5.816,0,0,0-.176-.949.143.143,0,0,1,.067-.177c.138-.093.142-.146.061-.294a.538.538,0,0,0-.445-.309,1.8,1.8,0,0,1-.63-.211.224.224,0,0,1-.134-.215,1.025,1.025,0,0,0-.047-.343.579.579,0,0,0-.434-.393,1.4,1.4,0,0,0-.579.009c-.128.02-.124.017-.185-.093a.907.907,0,0,0-.419-.387.4.4,0,0,0-.324.028.8.8,0,0,1-.4.075.32.32,0,0,1-.23-.12.371.371,0,0,0-.266-.14c-.187-.023-.376-.028-.563-.063a.191.191,0,0,1-.164-.146c-.017-.06-.031-.12-.043-.181a.5.5,0,0,0-.058-.167.177.177,0,0,0-.248-.084c-.2.081-.374.2-.564.293a1.017,1.017,0,0,1-.347.112.353.353,0,0,1-.361-.191.631.631,0,0,1,.415-.965.251.251,0,0,1,.261.086,2.988,2.988,0,0,0,.277.293.109.109,0,0,0,.167,0c.066-.057.125-.12.186-.182a.651.651,0,0,1,.163-.13.2.2,0,0,1,.289.071c.056.084.106.172.156.261a2.267,2.267,0,0,0,.207.318.254.254,0,0,0,.4.073c.279-.17.537-.372.819-.537a1.09,1.09,0,0,1,.2-.094.152.152,0,0,1,.223.117.682.682,0,0,1,.03.175q.01.267.02.534c0,.12.005.12.118.108a1.348,1.348,0,0,0,.407-.119,1.134,1.134,0,0,1,.563-.079.228.228,0,0,1,.2.141c.048.1.1.2.149.3a.228.228,0,0,0,.262.133,1.093,1.093,0,0,0,.337-.119c.212-.105.248-.089.338.133a3.83,3.83,0,0,1,.169.664,2.534,2.534,0,0,0,.092.352.346.346,0,0,0,.287.239,1.732,1.732,0,0,1,.371.093,1.257,1.257,0,0,1,.668.688c.035.074.068.149.1.222.013.027.024.064.059.065s.052-.038.069-.066a1.706,1.706,0,0,0,.1-.277v-.272A3.885,3.885,0,0,1,399.772,468.734ZM389.847,468a.906.906,0,1,1,.8-.9A.854.854,0,0,1,389.847,468Zm1.963.243h.042c.254.014.27.03.312.282a1.435,1.435,0,0,0,.142.424.168.168,0,0,0,.109.1c.291.075.574.177.858.273a2.575,2.575,0,0,0,.853.127.509.509,0,0,1,.318.106,6.245,6.245,0,0,1,.57.469.371.371,0,0,1,.081.107.122.122,0,0,1-.028.161,1.064,1.064,0,0,1-.419.218.2.2,0,0,1-.187-.069.891.891,0,0,1-.239-.556c-.016-.135-.017-.134-.151-.14-.5-.022-1-.02-1.505-.065a3.058,3.058,0,0,1-1.2-.288,1.257,1.257,0,0,1-.354-.279.322.322,0,0,1-.016-.434A.953.953,0,0,1,391.81,468.241Z" transform="translate(47.053 -50.782)"/>
  </g>
</svg>
