<svg xmlns="http://www.w3.org/2000/svg" width="206.267" height="221" viewBox="0 0 206.267 221">
  <g id="adinkrahene" transform="translate(-293 -32)">
    <path id="Path_12" data-name="Path 12" d="M84.2,40c24.457,0,44.2,21.153,44.2,47.357s-19.743,47.357-44.2,47.357S40,113.561,40,87.357,59.743,40,84.2,40Z" transform="translate(311.933 55.143)" fill="none"/>
    <path id="Path_13" data-name="Path 13" d="M84.2,57.364c-15.47,0-27.993,13.418-27.993,29.993S68.73,117.35,84.2,117.35s27.993-13.418,27.993-29.993S99.67,57.364,84.2,57.364M84.2,40c24.457,0,44.2,21.153,44.2,47.357s-19.743,47.357-44.2,47.357S40,113.561,40,87.357,59.743,40,84.2,40Z" transform="translate(311.933 55.143)"/>
    <path id="Path_14" data-name="Path 14" d="M93.667,20c40.664,0,73.667,35.36,73.667,78.929s-33,78.929-73.667,78.929S20,142.5,20,98.929,53,20,93.667,20Z" transform="translate(302.467 43.572)" fill="none"/>
    <path id="Path_15" data-name="Path 15" d="M93.667,37.364c-31.677,0-57.46,27.625-57.46,61.564s25.783,61.564,57.46,61.564,57.46-27.625,57.46-61.564-25.783-61.564-57.46-61.564m0-17.364c40.664,0,73.667,35.36,73.667,78.929s-33,78.929-73.667,78.929S20,142.5,20,98.929,53,20,93.667,20Z" transform="translate(302.467 43.572)"/>
    <path id="Path_16" data-name="Path 16" d="M103.133,0c57.018,0,103.133,49.409,103.133,110.5S160.151,221,103.133,221,0,171.591,0,110.5,46.115,0,103.133,0Z" transform="translate(293 32)" fill="none"/>
    <path id="Path_17" data-name="Path 17" d="M103.133,17.364C55.25,17.364,16.207,59.2,16.207,110.5s39.043,93.136,86.927,93.136S190.06,161.8,190.06,110.5s-39.043-93.136-86.927-93.136m0-17.364c57.018,0,103.133,49.409,103.133,110.5S160.151,221,103.133,221,0,171.591,0,110.5,46.115,0,103.133,0Z" transform="translate(293 32)"/>
  </g>
</svg>
