<svg xmlns="http://www.w3.org/2000/svg" width="24" height="24" viewBox="0 0 24 24"><g transform="translate(-233 -71)"><rect width="24" height="24" transform="translate(233 71)" fill="none"/><g transform="translate(329.667 7.405)"><path d="M-84.667,64.6a11,11,0,0,0-11,11,11,11,0,0,0,11,11,11,11,0,0,0,11-11A11,11,0,0,0-84.667,64.6Zm0,20.128A9.14,9.14,0,0,1-93.8,75.595a9.14,9.14,0,0,1,9.129-9.129,9.139,9.139,0,0,1,9.129,9.129A9.139,9.139,0,0,1-84.667,84.724Z"/><path d="M-55.332,97.6a7.343,7.343,0,0,0-7.334,7.334,7.342,7.342,0,0,0,7.334,7.334A7.342,7.342,0,0,0-48,104.93,7.343,7.343,0,0,0-55.332,97.6Zm0,12.8A5.469,5.469,0,0,1-60.8,104.93a5.47,5.47,0,0,1,5.464-5.464,5.471,5.471,0,0,1,5.464,5.464A5.47,5.47,0,0,1-55.332,110.394Z" transform="translate(-29.37 -29.37)"/><path d="M-25.956,130.6a3.719,3.719,0,0,0-3.715,3.714,3.718,3.718,0,0,0,3.714,3.713,3.718,3.718,0,0,0,3.713-3.713A3.718,3.718,0,0,0-25.956,130.6Zm0,5.558A1.846,1.846,0,0,1-27.8,134.31a1.846,1.846,0,0,1,1.845-1.845,1.846,1.846,0,0,1,1.843,1.845A1.846,1.846,0,0,1-25.956,136.154Z" transform="translate(-58.736 -58.741)"/></g></g></svg>