<svg xmlns="http://www.w3.org/2000/svg" width="24" height="24" viewBox="0 0 24 24">
  <g id="agyindawuru" transform="translate(-233 -359)">
    <rect id="Rectangle_149" data-name="Rectangle 149" width="24" height="24" transform="translate(233 359)" fill="none"/>
    <path id="Path_565" data-name="Path 565" d="M332.519,793.954a5.628,5.628,0,1,0-7.052-7.052,5.628,5.628,0,1,0-7.052,7.052,5.628,5.628,0,1,0,7.052,7.052,5.628,5.628,0,1,0,7.052-7.052Zm-1.681,8.563a3.189,3.189,0,0,1-2.84-4.644l-.8-.8-1.733,1.733-1.733-1.733-.8.8a3.195,3.195,0,1,1-1.387-1.387l.8-.8-1.733-1.733,1.733-1.733-.8-.8a3.2,3.2,0,1,1,1.387-1.387l.8.8,1.733-1.733,1.733,1.733.8-.8a3.2,3.2,0,1,1,1.387,1.387l-.8.8,1.733,1.733-1.733,1.733.8.8a3.191,3.191,0,1,1,1.453,6.031Z" transform="translate(-80.467 -422.954)"/>
  </g>
</svg>
