<svg xmlns="http://www.w3.org/2000/svg" width="24" height="24" viewBox="0 0 24 24">
  <g id="akoben" transform="translate(-137 -215)">
    <path id="Path_175" data-name="Path 175" d="M0,0H24V24H0Z" transform="translate(137 215)" fill="none"/>
    <path id="Path_174" data-name="Path 174" d="M-1271.181-463.208c.82-.31,1.324-.727,1.324-1.186,0-.54-.7-1.023-1.788-1.34,1.091-.317,1.788-.8,1.788-1.34,0-.62-.918-1.164-2.3-1.469.2-.063.4-.134.58-.211,3.181-1.349,3.773-5.087,1.445-8.436s-8.333-5.384-8.519-4.774,6.172,4.395,5.45,8.241-7.025.974-7.493,3.229c-.215,1.036,1.021,1.771,2.728,2.133-.988.316-1.61.775-1.61,1.286,0,.54.7,1.023,1.788,1.34-1.091.317-1.788.8-1.788,1.34,0,.459.5.876,1.324,1.186-1,.331-1.622.8-1.622,1.321,0,1,2.308,1.815,5.155,1.815s5.155-.813,5.155-1.815C-1269.56-462.407-1270.183-462.877-1271.181-463.208Z" transform="translate(1423.715 698.071)"/>
  </g>
</svg>
