<svg xmlns="http://www.w3.org/2000/svg" width="24" height="24" viewBox="0 0 24 24">
  <g id="akoma" transform="translate(-185 -215)">
    <rect id="Rectangle_149" data-name="Rectangle 149" width="24" height="24" transform="translate(185 215)" fill="none"/>
    <path id="Path_181" data-name="Path 181" d="M-1326.359-433.261l-1.09-1.058c-.537-.519-1.068-1.02-1.58-1.5q-.43-.405-.84-.795l-.071-.067c-4.415-4.151-7.6-7.151-7.411-11.651.163-3.852,2.911-6.894,6.257-6.925h.045a5.732,5.732,0,0,1,4.69,2.538,5.731,5.731,0,0,1,4.689-2.538h.035c3.355.031,6.1,3.073,6.267,6.925h0c.194,4.5-3,7.5-7.411,11.651l-.075.071c-.268.255-.548.519-.833.789-.513.485-1.044.986-1.584,1.508Zm-4.725-20.036c-2.233.021-4.152,2.283-4.269,5.043-.156,3.614,2.61,6.215,6.8,10.151l.076.071c.275.262.554.525.838.793q.626.591,1.284,1.219c.439-.421.868-.826,1.286-1.221q.426-.4.832-.787l.08-.075c4.186-3.936,6.952-6.536,6.8-10.15h0c-.117-2.76-2.036-5.023-4.278-5.043h-.026c-1.093,0-2.637.508-3.783,2.929l-.907,1.916-.907-1.916c-1.146-2.421-2.69-2.929-3.783-2.929Z" transform="translate(1523.359 671.261)"/>
  </g>
</svg>
