<svg xmlns="http://www.w3.org/2000/svg" width="230.997" height="231" viewBox="0 0 230.997 231">
  <path id="akoma-ntoso" d="M149.224,7842.566l24.406-24.405-27.294-27.295a41.54,41.54,0,0,1-35.715,0l-27.3,27.3,24.407,24.407s-49.688,47.938-82.983,14.643,14.643-82.985,14.643-82.985L63.8,7798.633l27.295-27.295a41.53,41.53,0,0,1,0-35.716l-27.294-27.3-24.407,24.407s-47.941-49.687-14.643-82.982,82.983,14.643,82.983,14.643L83.325,7688.8,110.62,7716.1a41.538,41.538,0,0,1,35.72,0l27.295-27.295-24.407-24.407s49.688-47.944,82.983-14.646-14.643,82.985-14.643,82.985l-24.407-24.407-27.295,27.295a41.533,41.533,0,0,1,0,35.717l27.294,27.294,24.408-24.406s47.941,49.688,14.643,82.985a38.172,38.172,0,0,1-27.882,11.769C176.6,7868.985,149.224,7842.566,149.224,7842.566Z" transform="translate(-12.981 -7637.98)"/>
</svg>
