<svg xmlns="http://www.w3.org/2000/svg" width="24" height="24" viewBox="0 0 24 24"><g transform="translate(-473 -71)"><rect width="24" height="24" transform="translate(473 71)" fill="none"/><path d="M8.936,65.613s4.566,4.731,1.4,7.9-7.9-1.394-7.9-1.394L4.752,69.8l-2.6-2.6a3.954,3.954,0,0,1-3.4,0l-2.6,2.6,2.324,2.324s-4.732,4.567-7.9,1.4,1.4-7.9,1.4-7.9l2.325,2.325,2.6-2.6a3.952,3.952,0,0,1,0-3.4l-2.6-2.6L-8.033,61.66s-4.566-4.731-1.4-7.9,7.9,1.394,7.9,1.394l-2.325,2.325,2.6,2.6a3.955,3.955,0,0,1,3.4,0l2.6-2.6L2.427,55.152s4.732-4.566,7.9-1.394-1.4,7.9-1.4,7.9L6.612,59.336l-2.6,2.6a3.952,3.952,0,0,1,0,3.4l2.6,2.6Z" transform="translate(484.549 19.364)"/></g></svg>