<svg xmlns="http://www.w3.org/2000/svg" width="24" height="24" viewBox="0 0 24 24">
  <g id="ananse-ntontan" transform="translate(-137 -263)">
    <rect id="Rectangle_149" data-name="Rectangle 149" width="24" height="24" transform="translate(137 263)" fill="none"/>
    <path id="Path_247" data-name="Path 247" d="M581.659-710.885c1.722-.041,3.982-.076,5.085-.014,1.918.108,1.745.637,1.331,2.556-.448,1.911-.519,2.464-2.293,1.717-1.026-.432-3.066-1.467-4.6-2.264-.049-.025-.213-.12-.248-.138a.882.882,0,0,0-1.1.242.912.912,0,0,0-.011,1.111c.043.056.269.3.331.375,1.091,1.324,2.465,3.019,3.086,3.906,1.113,1.587.6,1.78-1.141,2.649-1.753.836-2.224,1.124-2.754-.747-.3-1.058-.759-3.244-1.1-4.944-.024-.117-.081-.445-.094-.494a.869.869,0,0,0-.839-.659.868.868,0,0,0-.822.6c-.022.066-.1.5-.131.653-.341,1.694-.8,3.855-1.093,4.906-.531,1.871-1,1.583-2.754.747-1.738-.868-2.253-1.061-1.141-2.649.6-.852,1.889-2.451,2.957-3.749.126-.153.447-.529.48-.574a.912.912,0,0,0-.024-1.091.883.883,0,0,0-.946-.3c-.083.025-.574.286-.749.376-1.471.759-3.249,1.654-4.185,2.048-1.774.746-1.845.194-2.293-1.717-.414-1.919-.587-2.448,1.331-2.556,1-.056,2.938-.033,4.573,0,.142,0,.545.022.607.018a.931.931,0,0,0,.85-.729.944.944,0,0,0-.49-1.05c-.042-.021-.393-.174-.528-.237-1.5-.693-3.294-1.541-4.179-2.036-1.682-.941-1.3-1.341-.106-2.888,1.222-1.524,1.522-1.991,2.8-.538.619.7,1.694,2.1,2.64,3.349.125.165.483.679.561.754a.955.955,0,0,0,1.086.176.981.981,0,0,0,.533-1.038c-.008-.048-.113-.461-.154-.625-.391-1.585-.829-3.435-.993-4.41-.323-1.92.224-1.867,2.162-1.884,1.938.018,2.485-.035,2.162,1.884-.166.988-.613,2.873-1.008,4.472-.029.119-.119.436-.13.479a.982.982,0,0,0,.514,1.129h0a.955.955,0,0,0,1.146-.24c.045-.053.256-.357.326-.45.988-1.312,2.167-2.847,2.826-3.6,1.279-1.453,1.579-.986,2.8.538,1.194,1.547,1.576,1.947-.106,2.888-.93.52-2.863,1.43-4.405,2.14-.055.025-.272.116-.305.133a.944.944,0,0,0-.487,1.048.932.932,0,0,0,.8.724A1.618,1.618,0,0,0,581.659-710.885Zm-4.317-2.349a2.2,2.2,0,0,0-2.2,2.2,2.2,2.2,0,0,0,2.2,2.2,2.2,2.2,0,0,0,2.2-2.2A2.2,2.2,0,0,0,577.342-713.235Zm4.073.62" transform="translate(-428.342 986.035)"/>
  </g>
</svg>
