<svg xmlns="http://www.w3.org/2000/svg" width="24" height="24" viewBox="0 0 24 24">
  <g id="ani-bere-enso-gya" transform="translate(-281 -359)">
    <rect id="Rectangle_149" data-name="Rectangle 149" width="24" height="24" transform="translate(281 359)" fill="none"/>
    <g id="Group_196" data-name="Group 196" transform="translate(-2590.476 -991.972)">
      <path id="Path_485" data-name="Path 485" d="M2883.476,1362.177l-4.7-4.7,4.7-4.7,4.7,4.7Zm-2.352-4.7,2.352,2.352,2.353-2.352-2.353-2.352Z"/>
      <rect id="Rectangle_168-6" data-name="Rectangle 168-6" width="1.712" height="1.712" transform="translate(2882.266 1357.472) rotate(-45)"/>
      <path id="Path_486" data-name="Path 486" d="M2888.976,1367.677l-4.7-4.7,4.7-4.7,4.7,4.7Zm-2.352-4.7,2.352,2.352,2.353-2.352-2.353-2.352Z"/>
      <rect id="Rectangle_168-7" data-name="Rectangle 168-7" width="1.712" height="1.712" transform="translate(2887.766 1362.972) rotate(-45)"/>
      <path id="Path_487" data-name="Path 487" d="M2877.976,1367.677l-4.7-4.7,4.7-4.7,4.7,4.7Zm-2.352-4.7,2.352,2.352,2.353-2.352-2.353-2.352Z"/>
      <rect id="Rectangle_168-10" data-name="Rectangle 168-10" width="1.712" height="1.712" transform="translate(2876.766 1362.972) rotate(-45)"/>
      <path id="Path_488" data-name="Path 488" d="M2883.476,1373.177l-4.7-4.7,4.7-4.7,4.7,4.7Zm-2.352-4.7,2.352,2.352,2.353-2.352-2.353-2.352Z"/>
      <rect id="Rectangle_168-11" data-name="Rectangle 168-11" width="1.712" height="1.712" transform="translate(2882.266 1368.472) rotate(-45)"/>
      <path id="Path_489" data-name="Path 489" d="M2891.329,1351.972l-2.353,2.352-2.352-2.352h-2.352l4.7,4.7,4.7-4.7Z"/>
      <path id="Path_490" data-name="Path 490" d="M2887.766,1351.972l1.21,1.211,1.211-1.211h-2.421Z"/>
      <path id="Path_491" data-name="Path 491" d="M2880.329,1351.972h0l-2.353,2.352-2.352-2.352h-2.352l4.7,4.7,4.7-4.7h-2.352Z"/>
      <path id="Path_492" data-name="Path 492" d="M2876.766,1351.972l1.21,1.211,1.211-1.211Z"/>
      <path id="Path_493" data-name="Path 493" d="M2894.476,1359.824l-2.352-2.352,2.352-2.352v-2.352l-4.7,4.7,4.7,4.7Z"/>
      <path id="Path_494" data-name="Path 494" d="M2894.476,1356.262l-1.21,1.21,1.21,1.211Z"/>
      <path id="Path_495" data-name="Path 495" d="M2894.476,1370.824l-2.352-2.352,2.352-2.352h0v-2.352h0l-4.7,4.7,4.7,4.7v-2.353Z"/>
      <path id="Path_496" data-name="Path 496" d="M2894.476,1367.262l-1.21,1.21,1.21,1.211Z"/>
      <path id="Path_497" data-name="Path 497" d="M2872.476,1369.683h0l1.211-1.211-1.211-1.21Z"/>
      <path id="Path_498" data-name="Path 498" d="M2872.476,1363.768v2.352l2.353,2.352-2.353,2.352v2.353l4.7-4.7Z"/>
      <path id="Path_499" data-name="Path 499" d="M2872.476,1358.683h0l1.211-1.211-1.211-1.21Z"/>
      <path id="Path_500" data-name="Path 500" d="M2874.829,1357.472l-2.353,2.352v2.353l4.7-4.7-4.7-4.7v2.352Z"/>
      <path id="Path_501" data-name="Path 501" d="M2879.187,1373.972l-1.211-1.21-1.21,1.21h2.421Z"/>
      <path id="Path_502" data-name="Path 502" d="M2886.624,1373.972l2.352-2.352,2.353,2.352h2.352l-4.7-4.7-4.705,4.7Z"/>
      <path id="Path_503" data-name="Path 503" d="M2890.187,1373.972l-1.211-1.21-1.21,1.21h2.421Z"/>
      <path id="Path_504" data-name="Path 504" d="M2877.976,1371.62l2.353,2.352h2.352l-4.7-4.7-4.7,4.7h2.352Z"/>
    </g>
  </g>
</svg>
