<svg xmlns="http://www.w3.org/2000/svg" width="24" height="24" viewBox="0 0 24 24">
  <g id="asase-ye-duru" transform="translate(-233 -215)">
    <rect id="Rectangle_149" data-name="Rectangle 149" width="24" height="24" transform="translate(233 215)" fill="none"/>
    <path id="Path_192" data-name="Path 192" d="M-3564.145,43.487a3.265,3.265,0,0,0,1.218-1.367c.6-1.239.037-2.993-1.637-5.071a22.769,22.769,0,0,0-4.216-3.956,9.144,9.144,0,0,0-.913-.606,5.225,5.225,0,0,0-.912.606,22.778,22.778,0,0,0-4.216,3.956c-1.674,2.078-2.241,3.832-1.637,5.071a3.266,3.266,0,0,0,1.218,1.367,3.267,3.267,0,0,0-1.218,1.367c-.6,1.239-.037,2.993,1.637,5.071a22.778,22.778,0,0,0,4.216,3.956,5.214,5.214,0,0,0,.912.606,9.143,9.143,0,0,0,.913-.606,22.769,22.769,0,0,0,4.216-3.956c1.675-2.078,2.241-3.832,1.637-5.071A3.266,3.266,0,0,0-3564.145,43.487Zm-9.622-5.611a21.725,21.725,0,0,1,4.075-3.8,21.746,21.746,0,0,1,4.075,3.8c1.274,1.581,1.826,2.953,1.478,3.669a2,2,0,0,1-1.47,1.11,3.4,3.4,0,0,1-2.471-.446,1.362,1.362,0,0,1-.55-.993.942.942,0,0,1,.386-.728,1.233,1.233,0,0,1,1.129-.231,1.2,1.2,0,0,1,.8.858.674.674,0,0,0,.834.452h0a.663.663,0,0,0,.458-.823,2.528,2.528,0,0,0-1.708-1.758,2.606,2.606,0,0,0-2.387.489,2.514,2.514,0,0,0-.577.682,2.518,2.518,0,0,0-.577-.682,2.606,2.606,0,0,0-2.387-.489,2.528,2.528,0,0,0-1.708,1.758.663.663,0,0,0,.458.823h0a.674.674,0,0,0,.834-.452h0a1.2,1.2,0,0,1,.8-.858,1.233,1.233,0,0,1,1.129.231.942.942,0,0,1,.386.728,1.363,1.363,0,0,1-.55.993,3.393,3.393,0,0,1-2.471.446,2,2,0,0,1-1.47-1.11C-3575.593,40.829-3575.041,39.458-3573.767,37.876Zm5.207,5.611a2.608,2.608,0,0,0-.392.266,3.033,3.033,0,0,0-.74.9,3.035,3.035,0,0,0-.74-.9,2.6,2.6,0,0,0-.392-.266,2.6,2.6,0,0,0,.392-.266,3.036,3.036,0,0,0,.74-.9,3.034,3.034,0,0,0,.74.9A2.608,2.608,0,0,0-3568.56,43.487Zm2.943,5.611a21.742,21.742,0,0,1-4.075,3.8,21.721,21.721,0,0,1-4.075-3.8c-1.274-1.581-1.826-2.953-1.478-3.669a2,2,0,0,1,1.47-1.11,3.392,3.392,0,0,1,2.471.446,1.363,1.363,0,0,1,.55.993.942.942,0,0,1-.386.728,1.233,1.233,0,0,1-1.129.231,1.2,1.2,0,0,1-.8-.858h0a.674.674,0,0,0-.834-.452h0a.663.663,0,0,0-.458.824,2.528,2.528,0,0,0,1.708,1.758,2.606,2.606,0,0,0,2.387-.489,2.517,2.517,0,0,0,.577-.682,2.513,2.513,0,0,0,.577.682,2.605,2.605,0,0,0,2.387.489,2.528,2.528,0,0,0,1.708-1.758.663.663,0,0,0-.458-.824.674.674,0,0,0-.834.452,1.2,1.2,0,0,1-.8.858,1.233,1.233,0,0,1-1.129-.231.942.942,0,0,1-.386-.728,1.361,1.361,0,0,1,.55-.993,3.4,3.4,0,0,1,2.471-.446,2,2,0,0,1,1.47,1.11C-3563.79,46.145-3564.343,47.517-3565.617,49.1Z" transform="translate(3814.691 183.513)"/>
  </g>
</svg>
