<svg xmlns="http://www.w3.org/2000/svg" width="24" height="24" viewBox="0 0 24 24">
  <g id="bese-saka" transform="translate(-41 -215)">
    <rect id="Rectangle_149" data-name="Rectangle 149" width="24" height="24" transform="translate(41 215)" fill="none"/>
    <path id="Path_166" data-name="Path 166" d="M-1106.747-105.967a7.151,7.151,0,0,0,3.809-2.038c2.406-2.406,2.823-5.888.933-7.778s-5.373-1.472-7.778.933a7.15,7.15,0,0,0-2.038,3.809,7.151,7.151,0,0,0-2.038-3.809c-2.405-2.405-5.888-2.824-7.778-.933s-1.472,5.373.933,7.778a7.151,7.151,0,0,0,3.809,2.038,7.151,7.151,0,0,0-3.809,2.038c-2.406,2.406-2.823,5.888-.933,7.778s5.373,1.472,7.778-.933a7.151,7.151,0,0,0,2.038-3.809,7.15,7.15,0,0,0,2.038,3.809c2.405,2.405,5.888,2.824,7.778.933s1.472-5.373-.933-7.778A7.151,7.151,0,0,0-1106.747-105.967Zm-1.48-7.535c1.718-1.718,3.993-2.229,5.082-1.141s.578,3.363-1.141,5.082h0c-1.456,1.456-3.312,2.045-4.506,1.528a9.513,9.513,0,0,1,1.415-1.651,2.61,2.61,0,0,1,1.692-.831h.028l.036,0,0,0a1.027,1.027,0,0,0,.715-.289,1.345,1.345,0,0,0-.207-1.867,1.345,1.345,0,0,0-1.867-.207,1.027,1.027,0,0,0-.289.715l0,0s0,.013,0,.037v.028a2.608,2.608,0,0,1-.831,1.692,9.519,9.519,0,0,1-1.651,1.415C-1110.272-110.19-1109.683-112.045-1108.227-113.5Zm-11.128,3.941h0c-1.718-1.718-2.229-3.993-1.141-5.082s3.363-.578,5.082,1.141c1.456,1.456,2.045,3.312,1.528,4.507a9.514,9.514,0,0,1-1.651-1.415,2.608,2.608,0,0,1-.831-1.692v-.028c0-.024,0-.037,0-.037l0,0a1.027,1.027,0,0,0-.289-.715,1.345,1.345,0,0,0-1.867.207,1.345,1.345,0,0,0-.208,1.867,1.027,1.027,0,0,0,.715.289l0,0,.036,0h.028a2.61,2.61,0,0,1,1.692.831,9.507,9.507,0,0,1,1.415,1.651C-1116.044-107.516-1117.9-108.1-1119.356-109.56Zm3.941,11.128c-1.718,1.718-3.993,2.229-5.082,1.141s-.578-3.363,1.141-5.082c1.456-1.456,3.312-2.045,4.506-1.528a9.508,9.508,0,0,1-1.415,1.651,2.61,2.61,0,0,1-1.692.831h-.028l-.036,0,0,0a1.027,1.027,0,0,0-.715.289,1.345,1.345,0,0,0,.208,1.867,1.345,1.345,0,0,0,1.867.207,1.027,1.027,0,0,0,.289-.715l0,0s0-.013,0-.037v-.028a2.608,2.608,0,0,1,.831-1.692,9.508,9.508,0,0,1,1.651-1.415C-1113.37-101.744-1113.958-99.888-1115.415-98.432Zm3.594-5.481a2.053,2.053,0,0,1-2.053-2.053,2.053,2.053,0,0,1,2.053-2.053,2.053,2.053,0,0,1,2.053,2.053A2.053,2.053,0,0,1-1111.821-103.914Zm8.675,6.622c-1.089,1.088-3.363.578-5.082-1.141-1.456-1.456-2.045-3.312-1.528-4.507a9.513,9.513,0,0,1,1.651,1.415,2.608,2.608,0,0,1,.831,1.692v.028c0,.024,0,.037,0,.037l0,0a1.027,1.027,0,0,0,.289.715,1.345,1.345,0,0,0,1.867-.207,1.345,1.345,0,0,0,.207-1.867,1.027,1.027,0,0,0-.715-.289l0,0-.036,0h-.028a2.61,2.61,0,0,1-1.692-.831,9.513,9.513,0,0,1-1.415-1.651c1.194-.516,3.05.072,4.506,1.528C-1102.568-100.655-1102.057-98.38-1103.146-97.292Z" transform="translate(1164.821 332.967)"/>
  </g>
</svg>
