<svg xmlns="http://www.w3.org/2000/svg" width="24" height="24" viewBox="0 0 24 24">
  <g id="dame-dame" transform="translate(-137 -167)">
    <rect id="Rectangle_149" data-name="Rectangle 149" width="24" height="24" transform="translate(137 167)" fill="none"/>
    <path id="Path_134" data-name="Path 134" d="M648.915,143.255a11,11,0,1,0,11,11A11,11,0,0,0,648.915,143.255Zm9.505,10.669h-2.806v-1.489h-3.225V150.7h-1.737v-3.225h-1.489v-2.726a9.51,9.51,0,0,1,9.257,9.177Zm-3.467-.827v2.316h-2.564V153.1Zm-7.279-2.4v-2.564h2.316V150.7Zm2.316,7.113v2.564h-2.316v-2.564Zm-7.8-10.282a9.445,9.445,0,0,1,6.312-2.776v2.72h-1.488V150.7h-1.737v1.737H642.05v1.489h-2.64A9.443,9.443,0,0,1,642.189,147.529Zm3.087,5.568v2.316h-2.564V153.1Zm-5.866,1.488h2.64v1.489h3.226v1.737h1.737v3.226H648.5v2.72a9.51,9.51,0,0,1-9.091-9.172Zm16.23,6.395a9.445,9.445,0,0,1-6.477,2.783v-2.726h1.489v-3.226h1.737v-1.737h3.225v-1.489h2.806A9.44,9.44,0,0,1,655.64,160.98Z" transform="translate(-499.915 24.745)"/>
  </g>
</svg>
