<svg xmlns="http://www.w3.org/2000/svg" width="24" height="24" viewBox="0 0 24 24">
  <g id="denkyem" transform="translate(-425 -311)">
    <rect id="Rectangle_149" data-name="Rectangle 149" width="24" height="24" transform="translate(425 311)" fill="none"/>
    <path id="Path_413" data-name="Path 413" d="M-1575.256-36.7c.084-1.491-.435-1.472-.335-2.064s.294-.708.109-.9-.485.432-.669.395-.584-.743-.893-.606-.03.733-.122.855-.792.092-.812.324.512.544.512.544.471-.056.522,1.077-2.319,1.628-3.595,1.507c-.9-.086-.744-.636-.609-1.276s.714-1.165.744-2.176-.857-2.668-1.844-2.663-1.873,1.664-1.844,2.663.609,1.536.745,2.176.288,1.191-.609,1.276c-1.276.122-3.646-.373-3.6-1.506s.521-1.077.521-1.077.532-.311.512-.544-.719-.2-.811-.324.186-.718-.122-.855-.709.569-.893.606-.483-.588-.669-.395.008.308.109.9-.419.573-.335,2.064,1.985,1.751,2.029,2.933-1.227,2.047-1.069,4.332a6.653,6.653,0,0,0,1.534,3.768c-.718.027-2.117.082-2.325,1.454s.312,1.21.348,1.716-.478,1.645.092,1.313.536-.756.705-.655.708,1.071.929.782-.274-.9-.189-1.024.794.151,1.089-.079-.64-.487-.9-.972a.818.818,0,0,1,.355-1.169,1.221,1.221,0,0,1,.436-.145c.192-.035,1.551-.069,1.931-.063a1.051,1.051,0,0,1,.949.644l.015.035a4.166,4.166,0,0,1,.242,1.431c.056,2.063-.911,2.459-.635,2.691s2.44-1.149,2.433-3.025a2.291,2.291,0,0,1,.347-1.421.911.911,0,0,1,.325-.273.8.8,0,0,1,.325-.078,7.362,7.362,0,0,1,2.424.2.818.818,0,0,1,.355,1.169c-.262.485-1.2.743-.9.972s1-.05,1.089.079-.411.736-.189,1.024.76-.682.929-.782.136.324.705.655.056-.807.092-1.313.556-.344.347-1.716-1.607-1.427-2.325-1.454a6.655,6.655,0,0,0,1.534-3.768c.158-2.284-1.113-3.15-1.069-4.332S-1575.34-35.207-1575.256-36.7Zm-10.2,10.3a3.925,3.925,0,0,1-1.464-3.344,3.952,3.952,0,0,1,1.464-3.344,29.2,29.2,0,0,0-.372,3.344A32.24,32.24,0,0,0-1585.454-26.394Zm2.056.417c-.2-.062-1.135-.117-1.135-3.777s1.135-3.732,1.135-3.732Zm2.3,0v-7.509s1.135.072,1.135,3.732S-1580.9-26.039-1581.095-25.977Zm2.056-.417a32.283,32.283,0,0,0,.372-3.344,29.161,29.161,0,0,0-.372-3.344,3.952,3.952,0,0,1,1.464,3.344A3.925,3.925,0,0,1-1579.039-26.394Z" transform="translate(2019.246 353.682)"/>
  </g>
</svg>
