<svg xmlns="http://www.w3.org/2000/svg" width="24" height="24" viewBox="0 0 24 24">
  <g id="duafe" transform="translate(-185 -167)">
    <rect id="Rectangle_149" data-name="Rectangle 149" width="24" height="24" transform="translate(185 167)" fill="none"/>
    <path id="Path_138" data-name="Path 138" d="M117.287,159.083a3.436,3.436,0,0,0,1.967-2.839c0-2.117-2.686-3.834-6-3.834s-6,1.716-6,3.834a3.436,3.436,0,0,0,1.967,2.839c-5,1.142-4.967,4.335-4.967,4.335v9.65a1.4,1.4,0,0,0,2.8,0v-6.784a.5.5,0,0,1,1,0v6.784a1.4,1.4,0,0,0,2.8,0v-6.784a.5.5,0,0,1,1,0v6.784a1.4,1.4,0,0,0,2.8,0v-6.784a.5.5,0,0,1,1,0v6.784a1.4,1.4,0,0,0,2.8,0v-6.784a.5.5,0,0,1,1,0v6.784a1.4,1.4,0,0,0,2.8,0v-9.65S122.291,160.225,117.287,159.083Zm-6.88-4.051a.839.839,0,0,0-.053.293c0,.847,1.3,1.534,2.9,1.534s2.9-.687,2.9-1.534a.839.839,0,0,0-.053-.293c.712.312,1.153.74,1.153,1.212,0,.953-1.791,1.726-4,1.726s-4-.773-4-1.726C109.254,155.772,109.694,155.344,110.407,155.032Z" transform="translate(83.746 15.59)"/>
  </g>
</svg>
