<svg xmlns="http://www.w3.org/2000/svg" width="213.001" height="231.001" viewBox="0 0 213.001 231.001">
  <path id="duafe" d="M199.118,10214a8,8,0,0,1-8-8v-97.114a6.008,6.008,0,0,0-6-6h-5.506a6.008,6.008,0,0,0-6,6V10207a7,7,0,0,1-7,7h-6.424a7,7,0,0,1-7-7v-98.113a6.008,6.008,0,0,0-6-6h-5.506a6.008,6.008,0,0,0-6,6V10207a7,7,0,0,1-7,7h-6.426a7,7,0,0,1-7-7v-98.113a6.007,6.007,0,0,0-6-6h-5.506a6.008,6.008,0,0,0-6,6V10207a7,7,0,0,1-7,7H84.322a7,7,0,0,1-7-7v-98.113a6.007,6.007,0,0,0-6-6H65.815a6.008,6.008,0,0,0-6,6V10207a7,7,0,0,1-7,7H46.389a7,7,0,0,1-7-7v-98.113a6.009,6.009,0,0,0-6-6H27.884a6.008,6.008,0,0,0-6,6V10206a8,8,0,0,1-8,8H8a8,8,0,0,1-8-8v-120.817a13,13,0,0,1,13-13H67.109v-11.091a79.646,79.646,0,0,1-12.189-5.717,50.232,50.232,0,0,1-15.631-13.474,26.619,26.619,0,0,1,0-33.009,50.19,50.19,0,0,1,15.631-13.478,87.813,87.813,0,0,1,23.188-9.085,122.64,122.64,0,0,1,56.786,0,87.777,87.777,0,0,1,23.183,9.085,50.231,50.231,0,0,1,15.634,13.478,26.628,26.628,0,0,1,0,33.009,50.244,50.244,0,0,1-15.634,13.474,79.685,79.685,0,0,1-12.189,5.717v11.091H200a13,13,0,0,1,13,13V10206a8,8,0,0,1-8,8Zm-124.6-206.178a30.713,30.713,0,0,0-9.692,7.9,14.948,14.948,0,0,0,0,19.349,30.707,30.707,0,0,0,9.692,7.9A56.357,56.357,0,0,0,88.9,10048.3a80.311,80.311,0,0,0,35.208,0,56.341,56.341,0,0,0,14.378-5.329,30.637,30.637,0,0,0,9.69-7.9,14.94,14.94,0,0,0,0-19.349,30.7,30.7,0,0,0-9.69-7.9,52.022,52.022,0,0,0-9.031-3.848c3.012,2.784,4.768,6.129,4.768,9.729,0,9.687-12.737,17.541-28.448,17.541s-28.448-7.854-28.448-17.541a12.912,12.912,0,0,1,3.973-8.949A50.338,50.338,0,0,0,74.52,10007.822Z" transform="translate(0 -9982.999)"/>
</svg>
