<svg xmlns="http://www.w3.org/2000/svg" width="24" height="24" viewBox="0 0 24 24">
  <g id="dwennimmen" transform="translate(-185 -263)">
    <rect id="Rectangle_149" data-name="Rectangle 149" width="24" height="24" transform="translate(185 263)" fill="none"/>
    <path id="Path_276" data-name="Path 276" d="M1270.167,1159.873v-1.108l-.045.019a9.348,9.348,0,0,1-3,.714,7.3,7.3,0,0,1-3.2-.448,4.545,4.545,0,0,1-2.618-2.607,5.05,5.05,0,0,1-.275-2.846,3.943,3.943,0,0,1,1.586-2.465,4.316,4.316,0,0,1,4.021-.556,3.718,3.718,0,0,1,2.388,2.616,3.552,3.552,0,0,1-1.624,3.948,3.076,3.076,0,0,1-3.791-.547,2.751,2.751,0,0,1-.666-2.737,2.316,2.316,0,0,1,1.891-1.678,1.975,1.975,0,0,1,2.429,2.142,1.51,1.51,0,0,1-1.495,1.347,1.082,1.082,0,0,1-1.1-1.067.717.717,0,0,1,.52-.623c.195-.052.249.039.278.089a.513.513,0,0,0,.882-.526,1.228,1.228,0,0,0-1.424-.555,1.753,1.753,0,0,0-1.283,1.6,2.073,2.073,0,0,0,2.032,2.107,2.259,2.259,0,0,0,1.708-.581,2.819,2.819,0,0,0,.891-1.607,3,3,0,0,0-3.625-3.334,3.337,3.337,0,0,0-2.69,2.4,3.8,3.8,0,0,0,.948,3.776,4.369,4.369,0,0,0,2.972,1.249,4.041,4.041,0,0,0,2.038-.563,4.518,4.518,0,0,0,1.849-2.071,4.7,4.7,0,0,0-.859-5.079,5.043,5.043,0,0,0-1.911-1.264,5.34,5.34,0,0,0-4.977.683,1.938,1.938,0,1,1-3.694,0,5.34,5.34,0,0,0-4.977-.683,5.044,5.044,0,0,0-1.911,1.264,4.7,4.7,0,0,0-.859,5.079,4.518,4.518,0,0,0,1.849,2.071,4.039,4.039,0,0,0,2.038.563,4.37,4.37,0,0,0,2.972-1.249,3.8,3.8,0,0,0,.948-3.776,3.337,3.337,0,0,0-2.69-2.4,3,3,0,0,0-3.625,3.334,2.819,2.819,0,0,0,.891,1.607,2.258,2.258,0,0,0,1.708.581,2.073,2.073,0,0,0,2.032-2.107,1.752,1.752,0,0,0-1.283-1.6,1.228,1.228,0,0,0-1.424.555.513.513,0,0,0,.882.526c.029-.049.083-.141.278-.089a.717.717,0,0,1,.52.623,1.082,1.082,0,0,1-1.1,1.066,1.51,1.51,0,0,1-1.495-1.347,1.975,1.975,0,0,1,2.429-2.142,2.315,2.315,0,0,1,1.891,1.678,2.752,2.752,0,0,1-.666,2.737,3.076,3.076,0,0,1-3.791.547,3.552,3.552,0,0,1-1.624-3.948,3.719,3.719,0,0,1,2.388-2.616,4.316,4.316,0,0,1,4.021.556,3.943,3.943,0,0,1,1.586,2.465,5.049,5.049,0,0,1-.275,2.846,4.544,4.544,0,0,1-2.618,2.607,7.3,7.3,0,0,1-3.2.448,9.348,9.348,0,0,1-3-.714l-.045-.019v.519h0v2.1h0v.419l.045-.019a9.351,9.351,0,0,1,3-.714,7.3,7.3,0,0,1,3.2.448,4.544,4.544,0,0,1,2.618,2.607,5.049,5.049,0,0,1,.275,2.846,3.942,3.942,0,0,1-1.586,2.465,4.316,4.316,0,0,1-4.021.556,3.719,3.719,0,0,1-2.388-2.616,3.552,3.552,0,0,1,1.624-3.948,3.076,3.076,0,0,1,3.791.547,2.752,2.752,0,0,1,.666,2.737,2.315,2.315,0,0,1-1.891,1.678,1.975,1.975,0,0,1-2.429-2.142,1.51,1.51,0,0,1,1.495-1.347,1.082,1.082,0,0,1,1.1,1.067.716.716,0,0,1-.52.623c-.195.052-.249-.039-.278-.089a.513.513,0,0,0-.882.526,1.228,1.228,0,0,0,1.424.555,1.752,1.752,0,0,0,1.283-1.6,2.073,2.073,0,0,0-2.032-2.107,2.257,2.257,0,0,0-1.708.581,2.819,2.819,0,0,0-.891,1.607,3,3,0,0,0,3.625,3.334,3.337,3.337,0,0,0,2.69-2.4,3.8,3.8,0,0,0-.948-3.776,4.37,4.37,0,0,0-2.972-1.249,4.04,4.04,0,0,0-2.038.563,4.518,4.518,0,0,0-1.849,2.071,4.7,4.7,0,0,0,.859,5.079,5.044,5.044,0,0,0,1.911,1.264,5.341,5.341,0,0,0,4.977-.683,1.938,1.938,0,1,1,3.694,0,5.341,5.341,0,0,0,4.977.683,5.043,5.043,0,0,0,1.911-1.264,4.7,4.7,0,0,0,.859-5.079,4.517,4.517,0,0,0-1.849-2.071,4.039,4.039,0,0,0-2.038-.563,4.37,4.37,0,0,0-2.972,1.249,3.8,3.8,0,0,0-.948,3.776,3.337,3.337,0,0,0,2.69,2.4,3,3,0,0,0,3.625-3.334,2.82,2.82,0,0,0-.891-1.607,2.258,2.258,0,0,0-1.708-.581,2.073,2.073,0,0,0-2.032,2.107,1.753,1.753,0,0,0,1.283,1.6,1.228,1.228,0,0,0,1.424-.555.513.513,0,0,0-.882-.526c-.029.049-.084.141-.278.089a.717.717,0,0,1-.52-.623,1.082,1.082,0,0,1,1.1-1.067,1.51,1.51,0,0,1,1.495,1.347,1.975,1.975,0,0,1-2.429,2.142,2.316,2.316,0,0,1-1.891-1.678,2.752,2.752,0,0,1,.666-2.737,3.076,3.076,0,0,1,3.791-.547,3.552,3.552,0,0,1,1.624,3.948,3.718,3.718,0,0,1-2.388,2.616,4.316,4.316,0,0,1-4.021-.556,3.943,3.943,0,0,1-1.586-2.465,5.05,5.05,0,0,1,.275-2.846,4.544,4.544,0,0,1,2.618-2.607,7.3,7.3,0,0,1,3.2-.448,9.348,9.348,0,0,1,3,.714l.045.019v-1.108h0v-.822Zm-10,2.211a1.9,1.9,0,1,1,1.9-1.9A1.9,1.9,0,0,1,1260.167,1162.084Z" transform="translate(-1063.167 -885.284)"/>
  </g>
</svg>
