<svg xmlns="http://www.w3.org/2000/svg" width="24" height="24" viewBox="0 0 24 24">
  <g id="ese-ne-tekrema" transform="translate(-233 -311)">
    <rect id="Rectangle_149" data-name="Rectangle 149" width="24" height="24" transform="translate(233 311)" fill="none"/>
    <path id="Path_383" data-name="Path 383" d="M326.246,2071.685c-1.4,0-2.668,1.088-3.623,2.873-.956-1.784-2.227-2.873-3.623-2.873-2.969,0-5.377,4.925-5.377,11s2.407,11,5.377,11c1.4,0,2.668-1.088,3.623-2.873.956,1.785,2.227,2.873,3.623,2.873,2.97,0,5.377-4.925,5.377-11S329.216,2071.685,326.246,2071.685Zm-9.13,11.4a1.222,1.222,0,0,0,.97.885c1.007.179,2.376-1.032,3.2-.455a1.694,1.694,0,0,1,0,2.576c-.76.511-2.331-.6-2.9-.6a1.255,1.255,0,0,0-1.31,1.368,1.4,1.4,0,0,0,1.468,1.525c.773.021,2.079-1.235,2.95-.306s.069,2.033-.942,2.508c-.29.136-1.62.683-2.4.222a4.485,4.485,0,0,1-1.861-2.583,13.836,13.836,0,0,1-.768-3.943,28.7,28.7,0,0,1,.026-3.564,13.334,13.334,0,0,1,.742-3.581,4.483,4.483,0,0,1,1.861-2.583c.78-.461,2.11.085,2.4.221,1.011.475,1.813,1.579.942,2.508s-2.177-.327-2.95-.306a1.405,1.405,0,0,0-1.468,1.525,1.255,1.255,0,0,0,1.31,1.368c.573.008,2.144-1.108,2.9-.6a1.694,1.694,0,0,1,0,2.576c-.822.577-2.19-.633-3.2-.454a1.246,1.246,0,0,0-1,.973A1.448,1.448,0,0,0,317.116,2083.085Zm11.843,5.144a4.485,4.485,0,0,1-1.861,2.583c-.78.461-2.11-.085-2.4-.222-1.011-.475-1.813-1.578-.942-2.508s2.177.327,2.95.306a1.4,1.4,0,0,0,1.468-1.525,1.255,1.255,0,0,0-1.31-1.368c-.573-.008-2.144,1.108-2.9.6a1.694,1.694,0,0,1,0-2.576c.822-.577,2.19.634,3.2.455a1.222,1.222,0,0,0,.97-.885,1.449,1.449,0,0,0,.027-.712,1.246,1.246,0,0,0-1-.973c-1.007-.179-2.376,1.032-3.2.454a1.694,1.694,0,0,1,0-2.576c.76-.511,2.331.6,2.9.6a1.255,1.255,0,0,0,1.31-1.368,1.4,1.4,0,0,0-1.468-1.525c-.773-.021-2.079,1.235-2.95.306s-.069-2.033.942-2.508c.29-.136,1.62-.683,2.4-.221a4.483,4.483,0,0,1,1.861,2.583,13.331,13.331,0,0,1,.743,3.581,28.705,28.705,0,0,1,.026,3.564A13.831,13.831,0,0,1,328.96,2088.229Z" transform="translate(-77.623 -1759.686)"/>
  </g>
</svg>
