<svg xmlns="http://www.w3.org/2000/svg" width="24" height="24" viewBox="0 0 24 24">
  <g id="fawohodie" transform="translate(-89 -311)">
    <rect id="Rectangle_149" data-name="Rectangle 149" width="24" height="24" transform="translate(89 311)" fill="none"/>
    <g id="Group_149" data-name="Group 149" transform="translate(-334 273.999)">
      <path id="Path_348" data-name="Path 348" d="M-671.944,4624.132c.011-.091.023-.184.036-.281q.027-.2.061-.419l.013-.083a13.445,13.445,0,0,1,3.737-7.687.2.2,0,0,0,0-.3c-.173-.159-.336-.323-.494-.492l-.071-.073c-.027-.029-.053-.061-.08-.09-.061-.068-.123-.137-.182-.206-.144-.17-.281-.345-.412-.521-.023-.03-.047-.06-.069-.091s-.045-.064-.068-.1q-.3-.422-.557-.861c-.025-.041-.048-.085-.072-.127q-.184-.325-.345-.653c-.122-.248-.235-.5-.339-.745-.034-.081-.067-.162-.1-.244q-.148-.372-.272-.739c-.039-.115-.076-.23-.112-.344-.111-.354-.207-.7-.288-1.034v0c-.085-.349-.154-.682-.212-1a17.722,17.722,0,0,1-.246-1.89.6.6,0,0,1,.6-.644h6.388l.137.136h0l3.874,3.839,3.874-3.839h0l.137-.136h6.388a.6.6,0,0,1,.6.644,17.722,17.722,0,0,1-.246,1.89c-.058.314-.127.647-.212,1v0a16.053,16.053,0,0,1-.672,2.117c-.032.082-.065.163-.1.244-.1.248-.217.5-.339.745q-.161.328-.345.653c-.024.042-.047.086-.072.127q-.256.439-.557.861c-.023.033-.045.065-.068.1s-.046.061-.069.091c-.131.177-.268.352-.412.521-.059.069-.12.138-.181.206-.027.029-.052.061-.08.09l-.071.073c-.158.169-.322.333-.494.492a.2.2,0,0,0,0,.3,13.061,13.061,0,0,1,3.628,7.084c.119.6.194,1.14.242,1.578.022.205.038.389.05.547a.6.6,0,0,1-.6.644h-6.388l-4.011-3.974-4.011,3.974h-6.388a.6.6,0,0,1-.6-.644C-672,4624.664-671.978,4624.415-671.944,4624.132Zm10.5-4.146a.6.6,0,0,1,.848,0l.565.56,3.6,3.567h4.47a.4.4,0,0,0,.4-.459c-.312-2.03-1.2-5.249-3.711-7.271l-.541-.38a.6.6,0,0,1,0-.981l.541-.38c2.513-2.021,3.4-5.239,3.711-7.271a.4.4,0,0,0-.4-.46h-4.469l-3.6,3.568-.565.56a.6.6,0,0,1-.424.174.6.6,0,0,1-.424-.174l-.565-.56-3.6-3.568h-4.469a.4.4,0,0,0-.4.46c.312,2.031,1.2,5.25,3.711,7.271l.541.38a.6.6,0,0,1,0,.981l-.541.38c-2.513,2.021-3.4,5.24-3.711,7.271a.4.4,0,0,0,.4.459h4.47l3.6-3.567Z" transform="translate(1096.017 -4566.512)"/>
      <path id="Path_353" data-name="Path 353" d="M-271.792,5009.481a6.935,6.935,0,0,0,7.218,5.5,6.936,6.936,0,0,0,7.218-5.5h-1.852l-4.6,4.468-.21.2a.8.8,0,0,1-1.121,0l-.21-.2-4.6-4.468h-1.852m-.374-1.1h2.675l4.637,4.508a.4.4,0,0,0,.561,0l4.637-4.508h2.675a.8.8,0,0,1,.786.964,8.055,8.055,0,0,1-8.377,6.736,8.055,8.055,0,0,1-8.377-6.736A.8.8,0,0,1-272.166,5008.38Z" transform="translate(699.57 -4967.28)"/>
      <path id="Path_354" data-name="Path 354" d="M-271.792,5014.981a6.935,6.935,0,0,1,7.218-5.5,6.935,6.935,0,0,1,7.218,5.5h-1.852l-4.6-4.469-.21-.2a.8.8,0,0,0-1.121,0l-.21.2-4.6,4.469h-1.852m-.374,1.1h2.675l4.637-4.509a.4.4,0,0,1,.561,0l4.637,4.509h2.675a.8.8,0,0,0,.786-.964,8.054,8.054,0,0,0-8.377-6.736,8.054,8.054,0,0,0-8.377,6.736A.8.8,0,0,0-272.166,5016.081Z" transform="translate(699.57 -4959.179)"/>
    </g>
  </g>
</svg>
