<svg xmlns="http://www.w3.org/2000/svg" width="24" height="24" viewBox="0 0 24 24">
  <g id="fofo" transform="translate(-281 -215)">
    <rect id="Rectangle_149" data-name="Rectangle 149" width="24" height="24" transform="translate(281 215)" fill="none"/>
    <path id="Path_195" data-name="Path 195" d="M-1063.71,1041.261a2.035,2.035,0,0,0,1.631-2.359,2.013,2.013,0,0,0-2.318-1.654l-.012,0a2.017,2.017,0,0,0-1.567,1.393l-3,.536a.723.723,0,0,1-.74-.273c-.223-.387.162-.794.162-.794l0,0,1.946-2.349a2,2,0,0,0,1.975-.678,2.054,2.054,0,0,0-.248-2.869,1.993,1.993,0,0,0-2.81.225l-.022.027a2.056,2.056,0,0,0-.317,2.088l-1.93,2.33,0,0s-.345.446-.766.293-.386-.712-.386-.712v-3.044a2.038,2.038,0,0,0,1.083-1.806,2.023,2.023,0,0,0-2.011-2.036h0a2.024,2.024,0,0,0-2.011,2.036h0a2.038,2.038,0,0,0,1.083,1.806v3.052l0-.012s.023.563-.4.717-.754-.3-.754-.3v0l-1.927-2.326a2.056,2.056,0,0,0-.316-2.088,1.993,1.993,0,0,0-2.806-.274l-.027.022a2.055,2.055,0,0,0-.248,2.869,2,2,0,0,0,1.975.678l1.952,2.356-.019-.015s.379.418.156.805-.768.256-.768.256l.006,0-2.965-.53a2.018,2.018,0,0,0-1.568-1.393,2.013,2.013,0,0,0-2.327,1.64l0,.012a2.035,2.035,0,0,0,1.631,2.359,2,2,0,0,0,1.944-.766l2.976.531h-.006s.559.076.637.516-.424.691-.424.691l.012,0-2.625,1.535a1.988,1.988,0,0,0-2.085-.047,2.051,2.051,0,0,0-.736,2.782,2,2,0,0,0,2.719.763l.028-.016a2.042,2.042,0,0,0,1-1.852l2.6-1.522h0s.477-.3.82-.014.119.8.119.8l0,0-1.032,2.872a2.015,2.015,0,0,0-1.627,1.321,2.043,2.043,0,0,0,1.2,2.61,2,2,0,0,0,2.569-1.2l.007-.021a2.054,2.054,0,0,0-.408-2.072l1.028-2.86,0,.012s.172-.537.619-.537.606.537.606.537l0-.016,1.029,2.864a2.055,2.055,0,0,0-.408,2.072,2,2,0,0,0,2.556,1.224l.021-.008a2.043,2.043,0,0,0,1.2-2.61,2.015,2.015,0,0,0-1.627-1.321l-1.031-2.868,0,0s-.213-.522.129-.81.81.022.81.022l-.009-.008,2.61,1.526a2.041,2.041,0,0,0,1,1.852,2,2,0,0,0,2.732-.719l.015-.027a2.051,2.051,0,0,0-.736-2.781,1.987,1.987,0,0,0-2.085.047l-2.623-1.534.007,0s-.5-.262-.422-.7.634-.5.634-.5h0l2.977-.532A2,2,0,0,0-1063.71,1041.261Z" transform="translate(1366.047 -813.581)"/>
  </g>
</svg>
