<svg xmlns="http://www.w3.org/2000/svg" width="24" height="24" viewBox="0 0 24 24">
  <g id="funtunfunefu-denkyemfunefu" transform="translate(-329 -311)">
    <rect id="Rectangle_149" data-name="Rectangle 149" width="24" height="24" transform="translate(329 311)" fill="none"/>
    <path id="Path_393" data-name="Path 393" d="M-999.513,209.48c-.232-.192-.8.617-1.877.592a5.373,5.373,0,0,1-2.408-.7,4.337,4.337,0,0,0-1.469-.255.347.347,0,0,1-.34-.355,1.574,1.574,0,0,1,.591-1.194c.935-.785,2.1.437,2.446-.228s-.6-1.905-2.654-1.273a2.934,2.934,0,0,0-1.921,2.489,4.157,4.157,0,0,0-1.259-1.7,2.541,2.541,0,0,0,.523-.156,4.329,4.329,0,0,0,2.148-1.583,2.008,2.008,0,0,0,.173-1.958c-.407-.821-1.458-1.432-1.6-.624s.786,1.332.038,2.045a3.336,3.336,0,0,1-2.1.864l.021-.661a7.848,7.848,0,0,0,.484-2.358c-.038-.939-1.49-3.181-1.734-3.05-.244-.131-1.7,2.111-1.734,3.05a7.849,7.849,0,0,0,.483,2.358l.021.661a3.335,3.335,0,0,1-2.1-.864c-.748-.713.184-1.236.038-2.045s-1.2-.2-1.6.624a2.007,2.007,0,0,0,.173,1.958,4.328,4.328,0,0,0,2.148,1.583,2.541,2.541,0,0,0,.523.156,4.262,4.262,0,0,0-1.446,2.252,2.538,2.538,0,0,0-.177-1.308,4.327,4.327,0,0,0-1.583-2.148,2.007,2.007,0,0,0-1.958-.173c-.821.407-1.432,1.458-.624,1.6s1.332-.786,2.045-.038a3.336,3.336,0,0,1,.864,2.1l-.661-.021a7.848,7.848,0,0,0-2.358-.484c-.939.038-3.181,1.49-3.05,1.734-.131.244,2.111,1.7,3.05,1.734a7.849,7.849,0,0,0,2.358-.483l.661-.021a3.335,3.335,0,0,1-.864,2.1c-.713.748-1.236-.184-2.045-.038s-.2,1.2.624,1.6a2.007,2.007,0,0,0,1.958-.173,4.327,4.327,0,0,0,1.583-2.148,2.537,2.537,0,0,0,.177-1.308,4.3,4.3,0,0,0,1.294,2.125,2.784,2.784,0,0,0-2.1,1.84c-.632,2.055.608,3,1.273,2.654s-.557-1.511.228-2.446a1.6,1.6,0,0,1,1.5-.575.352.352,0,0,1,.3.309q.041.343.058.688c.064,1.321-.342,2.36.108,3.641s1.537,1.67,1.73,1.438-.617-.8-.592-1.877a5.373,5.373,0,0,1,.7-2.408,4.342,4.342,0,0,0,.255-1.469.348.348,0,0,1,.355-.34,1.574,1.574,0,0,1,1.194.591c.785.935-.437,2.1.227,2.446s1.9-.6,1.273-2.654a2.783,2.783,0,0,0-2.1-1.84,4.2,4.2,0,0,0,1.107-1.572,2.934,2.934,0,0,0,1.921,2.489c2.055.632,3-.608,2.654-1.273s-1.511.557-2.446-.228a1.6,1.6,0,0,1-.575-1.5.353.353,0,0,1,.309-.3q.343-.041.688-.058c1.321-.064,2.36.342,3.641-.108S-999.282,209.672-999.513,209.48Zm-12.086-1.551.043,1.334-.959-.031A2.748,2.748,0,0,1-1011.6,207.929Zm-.916,3.578,1.03-.033.047,1.446A2.675,2.675,0,0,1-1012.515,211.506Zm3.054,1.413.049-1.513,1.072-.034A2.715,2.715,0,0,1-1009.462,212.919Zm.115-3.585.045-1.406a2.789,2.789,0,0,1,.96,1.438Z" transform="translate(1351.45 112.631)"/>
  </g>
</svg>
