<?xml version="1.0" encoding="utf-8"?>
<!-- Generator: Adobe Illustrator 25.0.1, SVG Export Plug-In . SVG Version: 6.00 Build 0)  -->
<svg version="1.1" id="Layer_1" xmlns="http://www.w3.org/2000/svg" xmlns:xlink="http://www.w3.org/1999/xlink" x="0px" y="0px"
	 viewBox="0 0 140 140" style="enable-background:new 0 0 140 140;" xml:space="preserve">
<style type="text/css">
	.st0{fill:none;}
</style>
<path class="st0" d="M70,40c16.6,0,30,13.4,30,30s-13.4,30-30,30S40,86.6,40,70S53.4,40,70,40z"/>
<path d="M70,51c-10.5,0-19,8.5-19,19s8.5,19,19,19s19-8.5,19-19S80.5,51,70,51 M70,40c16.6,0,30,13.4,30,30s-13.4,30-30,30
	S40,86.6,40,70S53.4,40,70,40z"/>
<path class="st0" d="M70,20c27.6,0,50,22.4,50,50s-22.4,50-50,50S20,97.6,20,70S42.4,20,70,20z"/>
<path d="M70,31c-21.5,0-39,17.5-39,39s17.5,39,39,39s39-17.5,39-39S91.5,31,70,31 M70,20c27.6,0,50,22.4,50,50s-22.4,50-50,50
	S20,97.6,20,70S42.4,20,70,20z"/>
<path class="st0" d="M70,0c38.7,0,70,31.3,70,70s-31.3,70-70,70S0,108.7,0,70S31.3,0,70,0z"/>
<path d="M70,11c-32.5,0-59,26.5-59,59s26.5,59,59,59s59-26.5,59-59S102.5,11,70,11 M70,0c38.7,0,70,31.3,70,70s-31.3,70-70,70
	S0,108.7,0,70S31.3,0,70,0z"/>
</svg>
