<svg xmlns="http://www.w3.org/2000/svg" width="24" height="24" viewBox="0 0 24 24">
  <g id="Group_108" data-name="Group 108" transform="translate(-329 -167)">
    <rect id="Rectangle_149" data-name="Rectangle 149" width="24" height="24" transform="translate(329 167)" fill="none"/>
    <path id="Path_151" data-name="Path 151" d="M-873,539.677c0-3.106-2.673-5.777-6.509-6.969.083-.207.376-.831.937-.948.674-.14,1.135-.191,1.341-.274s.962-.459.932-1.084-1.923-.648-3.145-.388c-1.107.234-1.781,1.937-1.9,2.255q-.549-.094-1.118-.15v-2.2a.432.432,0,0,0-.44-.424h-2.2a.432.432,0,0,0-.44.424v2.2q-.569.055-1.117.15c-.112-.306-.787-2.024-1.9-2.26-1.222-.259-3.115-.236-3.145.388s.726,1,.932,1.084.667.134,1.341.274c.565.118.858.749.939.952-3.837,1.192-6.511,3.864-6.511,6.97s2.673,5.777,6.509,6.969c-.083.207-.376.831-.937.947-.674.141-1.135.192-1.341.275s-.962.459-.931,1.084,1.922.647,3.144.388c1.107-.235,1.781-1.937,1.9-2.256.366.063.739.114,1.118.15v1.842a.432.432,0,0,0,.44.424h2.2a.432.432,0,0,0,.44-.424v-1.842c.379-.036.751-.087,1.117-.149.112.3.787,2.024,1.9,2.259,1.222.259,3.114.237,3.144-.388s-.725-1-.931-1.083-.667-.135-1.341-.275c-.565-.117-.858-.749-.939-.952C-875.674,545.455-873,542.782-873,539.677Zm-19.067,0c0-2.96,2.809-5.425,6.527-5.967v11.933C-889.258,545.1-892.067,542.636-892.067,539.677Zm9.607,5.966V533.71c3.718.542,6.527,3.007,6.527,5.967S-878.742,545.1-882.46,545.643Z" transform="translate(1225 -360.5)"/>
  </g>
</svg>
