<svg xmlns="http://www.w3.org/2000/svg" width="184.311" height="231.002" viewBox="0 0 184.311 231.002">
  <path id="hye-won-hye" d="M92.155,7856v0c-.239-.656-2.415-6.581-5.181-12.432a61.233,61.233,0,0,0-4.734-8.549c-1.8-2.578-3.349-3.886-4.619-3.886-2.005.007-4.281,1.676-7.163,3.789-5.192,3.806-12.3,9.019-23.557,9.074h-.108a35.045,35.045,0,0,1-14.736-3.849A58.656,58.656,0,0,1,16.8,7829.382,57.392,57.392,0,0,1,4.84,7812.86,48.937,48.937,0,0,1,0,7791.737a106.041,106.041,0,0,1,6.725-37.156,78.943,78.943,0,0,1,6.732-14.078H41.778a48.38,48.38,0,0,1,8.17,6.544,33.386,33.386,0,0,1,5.621,7.257,18.731,18.731,0,0,1,2.559,9.093,40.249,40.249,0,0,1-1.07,9.308,32.5,32.5,0,0,1-2.853,7.753c-2.449,4.606-5.654,7.327-8.794,7.465h-.063c-.051,0-.1,0-.147,0-2.847,0-4.8-2.564-6.87-5.278l-.112-.148-.284-.368-.016-.02-.209-.272c-2.379-3.081-5.073-6.088-9.5-6.088-.084,0-.171,0-.255,0a7.778,7.778,0,0,0-6.043,2.839c-1.71,2.06-2.756,5.2-3.11,9.346a53.793,53.793,0,0,0,.682,12.692,47.085,47.085,0,0,0,6.117,16.981,22,22,0,0,0,4.826,5.626,9.137,9.137,0,0,0,5.464,2.2c.089,0,.178,0,.267,0,4.392,0,9.306-1.835,13.837-5.168a41.5,41.5,0,0,0,7.761-7.595,64.16,64.16,0,0,0,7.4-11.937,76.931,76.931,0,0,0,5.513-17.589,194.636,194.636,0,0,0,2.925-19.8c1.258-12.519,1.359-22.757,1.359-22.85h8.6l-8.6,0c0-.083-.093-10.247-1.359-22.848a194.469,194.469,0,0,0-2.925-19.8,76.931,76.931,0,0,0-5.513-17.589,64.247,64.247,0,0,0-7.4-11.94,41.539,41.539,0,0,0-7.761-7.593c-4.527-3.332-9.441-5.167-13.837-5.167-.089,0-.178,0-.267,0a9.122,9.122,0,0,0-5.464,2.2,21.935,21.935,0,0,0-4.826,5.626,47.046,47.046,0,0,0-6.117,16.979,53.793,53.793,0,0,0-.682,12.692c.354,4.143,1.4,7.287,3.11,9.346a7.774,7.774,0,0,0,6.043,2.841c.084,0,.171,0,.255,0,4.433,0,7.125-3.008,9.5-6.089q.145-.186.289-.374l.054-.07.165-.216.111-.145c2.07-2.716,4.024-5.279,6.871-5.279l.148,0h.062c3.141.138,6.346,2.858,8.794,7.465a32.484,32.484,0,0,1,2.853,7.751,40.242,40.242,0,0,1,1.07,9.308,18.713,18.713,0,0,1-2.559,9.092,33.3,33.3,0,0,1-5.621,7.257,48.134,48.134,0,0,1-8.17,6.544H13.456a79.366,79.366,0,0,1-6.732-14.077A106.041,106.041,0,0,1,0,7689.265a48.915,48.915,0,0,1,4.84-21.12A57.416,57.416,0,0,1,16.8,7651.62a58.75,58.75,0,0,1,15.256-10.768A35.044,35.044,0,0,1,46.792,7637H46.9c11.263.059,18.368,5.271,23.556,9.077l.011.007c2.878,2.109,5.152,3.775,7.152,3.779,1.271,0,2.825-1.307,4.619-3.883a61.342,61.342,0,0,0,4.734-8.552c2.773-5.865,4.943-11.775,5.182-12.43.1.258,2.328,6.389,5.183,12.43a61.572,61.572,0,0,0,4.734,8.552c1.794,2.576,3.349,3.883,4.621,3.883,2,0,4.271-1.67,7.149-3.779l.011-.007c5.19-3.806,12.3-9.019,23.556-9.077h.108a35.044,35.044,0,0,1,14.736,3.849,58.739,58.739,0,0,1,15.258,10.768,57.439,57.439,0,0,1,11.958,16.525,48.914,48.914,0,0,1,4.84,21.12,105.975,105.975,0,0,1-6.722,37.157,78.924,78.924,0,0,1-6.734,14.077h-28.32a48.4,48.4,0,0,1-8.173-6.544,33.291,33.291,0,0,1-5.619-7.257,18.716,18.716,0,0,1-2.561-9.092,40.236,40.236,0,0,1,1.072-9.308,32.484,32.484,0,0,1,2.853-7.751c2.448-4.606,5.652-7.327,8.792-7.465h.06l.152,0c2.847,0,4.8,2.563,6.87,5.278l.112.146c.17.225.337.443.506.66,2.378,3.081,5.07,6.089,9.5,6.089.087,0,.171,0,.258,0a7.782,7.782,0,0,0,6.043-2.841c1.708-2.058,2.754-5.2,3.108-9.346a53.8,53.8,0,0,0-.679-12.692,47.1,47.1,0,0,0-6.12-16.979,21.91,21.91,0,0,0-4.824-5.626,9.134,9.134,0,0,0-5.464-2.2c-.089,0-.178,0-.27,0-4.394,0-9.307,1.835-13.834,5.167a41.537,41.537,0,0,0-7.761,7.593,64.255,64.255,0,0,0-7.4,11.94,76.694,76.694,0,0,0-5.513,17.589,193.119,193.119,0,0,0-2.925,19.8c-1.165,11.575-1.338,21.03-1.361,22.808v.04l-11.053,0c0-29.812-2.757-54.065-6.145-54.065s-6.144,24.254-6.144,54.065h0a357.245,357.245,0,0,0,1.8,38.213c1.162,10.224,2.7,15.853,4.342,15.853,3.388,0,6.144-24.254,6.144-54.065h11.054v.04c.023,1.778.2,11.235,1.361,22.81a193.286,193.286,0,0,0,2.925,19.8,76.694,76.694,0,0,0,5.513,17.589,64.137,64.137,0,0,0,7.4,11.938,41.494,41.494,0,0,0,7.761,7.595c4.531,3.333,9.444,5.168,13.834,5.168.092,0,.181,0,.27,0a9.148,9.148,0,0,0,5.464-2.2,21.963,21.963,0,0,0,4.824-5.626,47.134,47.134,0,0,0,6.12-16.981,53.793,53.793,0,0,0,.679-12.692c-.354-4.145-1.4-7.289-3.108-9.346a7.786,7.786,0,0,0-6.043-2.839h-.016c-.081,0-.161,0-.242,0-4.429,0-7.123,3.007-9.5,6.088l-.307.4-.01.013-.19.248-.111.147c-2.07,2.715-4.024,5.279-6.871,5.279-.049,0-.1,0-.15,0H138.9c-3.138-.138-6.343-2.858-8.792-7.465a32.5,32.5,0,0,1-2.853-7.753,40.248,40.248,0,0,1-1.072-9.308,18.734,18.734,0,0,1,2.561-9.093,33.36,33.36,0,0,1,5.619-7.257,48.162,48.162,0,0,1,8.173-6.544h28.32a79.507,79.507,0,0,1,6.734,14.078,105.975,105.975,0,0,1,6.722,37.156,48.936,48.936,0,0,1-4.84,21.123,57.433,57.433,0,0,1-11.958,16.522,58.664,58.664,0,0,1-15.258,10.768A35.045,35.045,0,0,1,137.519,7844h-.108c-11.248-.056-18.357-5.265-23.548-9.068l-.008-.006c-2.882-2.113-5.158-3.782-7.161-3.789-1.271,0-2.826,1.308-4.621,3.886a61.422,61.422,0,0,0-4.734,8.549c-2.766,5.851-4.942,11.775-5.181,12.432Z" transform="translate(0 -7625.002)"/>
</svg>
