<svg xmlns="http://www.w3.org/2000/svg" width="24" height="24" viewBox="0 0 24 24"><g transform="translate(-233 -167)"><rect width="24" height="24" transform="translate(233 167)" fill="none"/><path d="M139.146,155.568c0-2.931-3.18-4.986-5.089-4.977s-2.73,1.224-3.333,1.225-1.578-2.368-1.578-2.368-.975,2.37-1.577,2.368-1.425-1.217-3.334-1.225-5.087,2.046-5.089,4.977a8.747,8.747,0,0,0,1.46,4.88,8.741,8.741,0,0,0-1.46,4.879c0,2.931,3.18,4.987,5.089,4.978s2.731-1.224,3.334-1.226,1.577,2.369,1.577,2.369.975-2.37,1.578-2.369,1.424,1.217,3.333,1.226,5.088-2.047,5.089-4.978a8.732,8.732,0,0,0-1.46-4.879A8.738,8.738,0,0,0,139.146,155.568Zm-12.929,10.616c-1.025,1.846-2.359,2.365-3.177,2.352s-1.566-1.186-1.78-2.362-.086-2.346.919-2.369,1.192,1.185,1.895,1.159,1.381-1.091,1.38-2.336-1.755-2.17-1.774-2.18c.019-.01,1.773-.943,1.774-2.181s-.677-2.308-1.38-2.335-.89,1.181-1.895,1.158-1.133-1.194-.919-2.369.963-2.349,1.78-2.362,2.152.506,3.177,2.352,1.063,5.716,1.063,5.737S127.238,164.343,126.217,166.184Zm2.929-.587c-.368,0-.667-2.306-.667-5.149s.3-5.149.667-5.149.667,2.305.667,5.149S129.514,165.6,129.146,165.6Zm5.466-5.149c-.019.01-1.772.942-1.774,2.18s.677,2.309,1.38,2.336.89-1.181,1.9-1.159,1.134,1.194.919,2.369-.963,2.35-1.78,2.362-2.152-.506-3.176-2.352-1.064-5.716-1.064-5.736.042-3.9,1.064-5.737,2.358-2.365,3.176-2.352,1.566,1.187,1.78,2.362.086,2.347-.919,2.369-1.192-1.185-1.9-1.158-1.381,1.09-1.38,2.335S134.593,160.438,134.612,160.448Z" transform="translate(115.854 18.552)"/></g></svg>