<svg xmlns="http://www.w3.org/2000/svg" width="221" height="221" viewBox="0 0 221 221">
  <g id="kete-pa" transform="translate(-89 -652)">
    <g id="Group_1" data-name="Group 1" transform="translate(89 663.677)">
      <rect id="Rectangle_18" data-name="Rectangle 18" width="221" height="10" rx="5" transform="translate(0 0.323)"/>
      <rect id="Rectangle_18-2" data-name="Rectangle 18" width="221" height="10" rx="5" transform="translate(0 21.323)"/>
      <rect id="Rectangle_18-3" data-name="Rectangle 18" width="221" height="11" rx="5.5" transform="translate(0 41.323)"/>
      <rect id="Rectangle_18-4" data-name="Rectangle 18" width="221" height="11" rx="5.5" transform="translate(0 62.323)"/>
      <rect id="Rectangle_18-5" data-name="Rectangle 18" width="221" height="11" rx="5.5" transform="translate(0 83.323)"/>
      <rect id="Rectangle_18-6" data-name="Rectangle 18" width="221" height="10" rx="5" transform="translate(0 104.323)"/>
      <rect id="Rectangle_18-7" data-name="Rectangle 18" width="221" height="10" rx="5" transform="translate(0 125.323)"/>
      <rect id="Rectangle_18-8" data-name="Rectangle 18" width="221" height="10" rx="5" transform="translate(0 146.323)"/>
      <rect id="Rectangle_18-9" data-name="Rectangle 18" width="221" height="11" rx="5.5" transform="translate(0 166.323)"/>
      <rect id="Rectangle_18-10" data-name="Rectangle 18" width="221" height="11" rx="5.5" transform="translate(0 187.323)"/>
    </g>
    <g id="Group_2" data-name="Group 2" transform="translate(298.763 652) rotate(90)">
      <rect id="Rectangle_18-11" data-name="Rectangle 18" width="221" height="11" rx="5.5" transform="translate(0 -0.237)"/>
      <rect id="Rectangle_18-12" data-name="Rectangle 18" width="221" height="11" rx="5.5" transform="translate(0 20.763)"/>
      <rect id="Rectangle_18-13" data-name="Rectangle 18" width="221" height="10" rx="5" transform="translate(0 41.763)"/>
      <rect id="Rectangle_18-14" data-name="Rectangle 18" width="221" height="10" rx="5" transform="translate(0 62.763)"/>
      <rect id="Rectangle_18-15" data-name="Rectangle 18" width="221" height="10" rx="5" transform="translate(0 83.763)"/>
      <rect id="Rectangle_18-16" data-name="Rectangle 18" width="221" height="11" rx="5.5" transform="translate(0 103.763)"/>
      <rect id="Rectangle_18-17" data-name="Rectangle 18" width="221" height="11" rx="5.5" transform="translate(0 124.763)"/>
      <rect id="Rectangle_18-18" data-name="Rectangle 18" width="221" height="11" rx="5.5" transform="translate(0 145.763)"/>
      <rect id="Rectangle_18-19" data-name="Rectangle 18" width="221" height="10" rx="5" transform="translate(0 166.763)"/>
      <rect id="Rectangle_18-20" data-name="Rectangle 18" width="221" height="10" rx="5" transform="translate(0 187.763)"/>
    </g>
  </g>
</svg>
