<svg xmlns="http://www.w3.org/2000/svg" width="221" height="221" viewBox="0 0 221 221">
  <g id="kintinkantan" transform="translate(-143 -544)">
    <path id="Subtraction_3" data-name="Subtraction 3" d="M57.5,115A57.514,57.514,0,0,1,35.119,4.52,57.515,57.515,0,0,1,79.882,110.482,57.141,57.141,0,0,1,57.5,115Zm0-98.57a40.943,40.943,0,1,0,15.987,3.228A40.815,40.815,0,0,0,57.5,16.43Z" transform="translate(143 544)"/>
    <path id="Subtraction_6" data-name="Subtraction 6" d="M57.5,115A57.514,57.514,0,0,1,35.119,4.52,57.515,57.515,0,0,1,79.882,110.482,57.141,57.141,0,0,1,57.5,115Zm0-98.57a40.943,40.943,0,1,0,15.987,3.228A40.815,40.815,0,0,0,57.5,16.43Z" transform="translate(143 650)"/>
    <path id="Subtraction_4" data-name="Subtraction 4" d="M57.5,115A57.514,57.514,0,0,1,35.119,4.52,57.515,57.515,0,0,1,79.882,110.482,57.141,57.141,0,0,1,57.5,115Zm0-98.57a40.943,40.943,0,1,0,15.987,3.228A40.815,40.815,0,0,0,57.5,16.43Z" transform="translate(249 544)"/>
    <path id="Subtraction_7" data-name="Subtraction 7" d="M57.5,115A57.514,57.514,0,0,1,35.119,4.52,57.515,57.515,0,0,1,79.882,110.482,57.141,57.141,0,0,1,57.5,115Zm0-98.57a40.943,40.943,0,1,0,15.987,3.228A40.815,40.815,0,0,0,57.5,16.43Z" transform="translate(196 597)"/>
    <path id="Subtraction_5" data-name="Subtraction 5" d="M57.5,115A57.514,57.514,0,0,1,35.119,4.52,57.515,57.515,0,0,1,79.882,110.482,57.141,57.141,0,0,1,57.5,115Zm0-98.57a40.943,40.943,0,1,0,15.987,3.228A40.815,40.815,0,0,0,57.5,16.43Z" transform="translate(249 650)"/>
  </g>
</svg>
