<svg xmlns="http://www.w3.org/2000/svg" width="24" height="24" viewBox="0 0 24 24"><g transform="translate(-185 -71)"><rect width="24" height="24" transform="translate(185 71)" fill="none"/><path d="M40.194,74.282l.028-.011A5.728,5.728,0,1,0,32.7,66.807l0-.009a5.718,5.718,0,1,0-7.49,7.474l-.007,0a5.728,5.728,0,1,0,7.5,7.474,5.717,5.717,0,1,0,7.491-7.466Zm-7.5,3.071a5.71,5.71,0,0,0-3.065-3.071l.028-.011A5.71,5.71,0,0,0,32.7,71.193a5.748,5.748,0,0,0,3.065,3.079l-.007,0A5.727,5.727,0,0,0,32.7,77.362Zm1.5-6.891c.036.014.072.027.108.043a4.078,4.078,0,0,1,2.214,2.278A4.089,4.089,0,0,1,34.2,70.462Zm-5.282,2.32a4.09,4.09,0,0,1,2.323-2.322A4.089,4.089,0,0,1,28.915,72.782Zm.109,3a4.078,4.078,0,0,1,2.214,2.278,4.089,4.089,0,0,1-2.323-2.32C28.951,75.754,28.988,75.767,29.023,75.782Zm7.5-.044A4.089,4.089,0,0,1,34.2,78.06,4.09,4.09,0,0,1,36.519,75.738Zm1.474-10.833a4.076,4.076,0,0,1,.293,8.143,5.718,5.718,0,0,0-4.356-4.357A4.078,4.078,0,0,1,37.992,64.906ZM23.356,68.988A4.08,4.08,0,0,1,31.5,68.68a5.68,5.68,0,0,0-4.387,4.367A4.077,4.077,0,0,1,23.356,68.988Zm4.085,14.627a4.076,4.076,0,0,1-.329-8.14A5.735,5.735,0,0,0,31.5,79.869,4.078,4.078,0,0,1,27.441,83.615Zm10.562,0a4.078,4.078,0,0,1-4.07-3.748,5.677,5.677,0,0,0,4.362-4.394A4.076,4.076,0,0,1,38,83.615Z" transform="translate(164.297 8.724)"/></g></svg>