<svg xmlns="http://www.w3.org/2000/svg" width="24" height="24" viewBox="0 0 24 24">
  <g id="kuronti-ne-akwamu" transform="translate(-425 -359)">
    <rect id="Rectangle_149" data-name="Rectangle 149" width="24" height="24" transform="translate(425 359)" fill="none"/>
    <path id="Path_493" data-name="Path 493" d="M-31.7,1268.844H-43.387v22h22v-22Zm0,13.979h.917v.917H-31.7Zm3.208,2.063h-.917v-.917h.917Zm.229-.917h.917v.917h-.917Zm-1.375.917h-.917v-.917h.917Zm0,.229v.917h-.917v-.917Zm.229,0h.917v.917h-.917Zm1.146,0h.917v.917h-.917Zm1.146,0h.917v.917h-.917Zm0-.229v-.917h.917v.917Zm0-1.146v-.917h.917v.917Zm-.229,0h-.917v-.917h.917Zm-1.146,0h-.917v-.917h.917Zm-1.146,0h-.917v-.917h.917Zm-2.062.229h.917v.917H-31.7Zm0,1.146h.917v.917H-31.7Zm0,1.146h.917v.917H-31.7Zm1.146,0h.917v.917h-.917Zm1.146,0h.917v.917h-.917Zm1.146,0h.917v.917h-.917Zm1.146,0h.917v.917h-.917Zm1.146,0h.917v.917h-.917Zm0-.229v-.917h.917v.917Zm0-1.146v-.917h.917v.917Zm0-1.146v-.917h.917v.917Zm0-1.146v-.917h.917v.917Zm-.229,0h-.917v-.917h.917Zm-1.146,0h-.917v-.917h.917Zm-1.146,0h-.917v-.917h.917Zm-1.146,0h-.917v-.917h.917Zm-1.146,0H-31.7v-.917h.917Zm-.917,4.813h.917v.917H-31.7Zm1.146,0h.917v.917h-.917Zm1.146,0h.917v.917h-.917Zm1.146,0h.917v.917h-.917Zm1.146,0h.917v.917h-.917Zm1.146,0h.917v.917h-.917Zm1.146,0h.917v.917h-.917Zm0-.229v-.917h.917v.917Zm0-1.146v-.917h.917v.917Zm0-1.146v-.917h.917v.917Zm0-1.146v-.917h.917v.917Zm0-1.146v-.917h.917v.917Zm0-1.146v-.917h.917v.917Zm-.229,0h-.917v-.917h.917Zm-1.146,0h-.917v-.917h.917Zm-1.146,0h-.917v-.917h.917Zm-1.146,0h-.917v-.917h.917Zm-1.146,0h-.917v-.917h.917Zm-1.146,0H-31.7v-.917h.917Zm-6.875-7.792v.917h-.917v-.917Zm-.917-.229v-.917h.917v.917Zm-.229,1.146h-.917v-.917h.917Zm0,.229v.917h-.917v-.917Zm.229,0h.917v.917h-.917Zm1.146,0h.917v.917h-.917Zm0-.229v-.917h.917v.917Zm0-1.146v-.917h.917v.917Zm0-1.146v-.917h.917v.917Zm-.229,0h-.917v-.917h.917Zm-1.146,0h-.917v-.917h.917Zm0,.229v.917h-.917v-.917Zm-1.146.917h-.917v-.917h.917Zm0,.229v.917h-.917v-.917Zm0,1.146v.917h-.917v-.917Zm0,1.146v.917h-.917v-.917Zm.229,0h.917v.917h-.917Zm1.146,0h.917v.917h-.917Zm1.146,0h.917v.917h-.917Zm1.146,0h.917v.917h-.917Zm0-.229v-.917h.917v.917Zm0-1.146v-.917h.917v.917Zm0-1.146v-.917h.917v.917Zm0-1.146v-.917h.917v.917Zm0-1.146v-.917h.917v.917Zm-.229,0h-.917v-.917h.917Zm-1.146,0h-.917v-.917h.917Zm-1.146,0h-.917v-.917h.917Zm-1.146,0h-.917v-.917h.917Zm0,.229v.917h-.917v-.917Zm-1.146.917h-.917v-.917h.917Zm0,.229v.917h-.917v-.917Zm0,1.146v.917h-.917v-.917Zm0,1.146v.917h-.917v-.917Zm0,1.146v.917h-.917v-.917Zm0,1.146v.917h-.917v-.917Zm.229,0h.917v.917h-.917Zm1.146,0h.917v.917h-.917Zm1.146,0h.917v.917h-.917Zm1.146,0h.917v.917h-.917Zm1.146,0h.917v.917h-.917Zm1.146,0h.917v.917h-.917Zm0-.229v-.917h.917v.917Zm0-1.146v-.917h.917v.917Zm0-1.146v-.917h.917v.917Zm0-1.146v-.917h.917v.917Zm0-1.146v-.917h.917v.917Zm0-1.146v-.917h.917v.917Zm-5.958-.917v.917h-.917v-.917Zm-.917,8.021h.917v.917h.229v-.917h.917v.917h.229v-.917h.917v.917h.229v-.917h.917v.917h.229v-.917h.917v.917h.229v-.917h.917v.917h.229v-.917h.917v.917h.229v-.917h.917v-.229h-.917v-.917h.917v-.229h-.917v-.917h.917v-.229h-.917v-.917h.917v-.229h-.917v-.917h.917v-.229h-.917v-.917h.917v-.229h-.917v-.917h.917v-.229h-.917v-.917h.917v8.938h-8.937Zm8.938,11.229h-8.937v-8.937h8.938Zm10.313,0H-31.7v-.917h.917v.917h.229v-.917h.917v.917h.229v-.917h.917v.917h.229v-.917h.917v.917h.229v-.917h.917v.917h.229v-.917h.917v.917h.229v-.917h.917v.917h.229v-.917h.917v-.229h-.917v-.917h.917v-.229h-.917v-.917h.917v-.229h-.917v-.917h.917v-.229h-.917v-.917h.917v-.229h-.917v-.917h.917v-.229h-.917v-.917h.917v-.229h-.917v-.917h.917Zm-8.938-10.312v-8.937h8.938v8.938Z" transform="translate(469.387 -908.844)"/>
  </g>
</svg>
