<svg xmlns="http://www.w3.org/2000/svg" width="209" height="220.999" viewBox="0 0 209 220.999">
  <path id="mate-masie" d="M133.147,7841.463a54.386,54.386,0,0,1-17.355-12.371,57.792,57.792,0,0,1-11.292-17.359,57.757,57.757,0,0,1-11.294,17.359,54.361,54.361,0,0,1-17.355,12.371,52.034,52.034,0,0,1-42.505,0,54.386,54.386,0,0,1-17.355-12.371,57.853,57.853,0,0,1-11.7-18.352,60.993,60.993,0,0,1,0-44.943,57.834,57.834,0,0,1,11.7-18.35A54.41,54.41,0,0,1,32.415,7735.5a54.5,54.5,0,0,1-16.426-11.944,57.858,57.858,0,0,1-11.7-18.353,60.993,60.993,0,0,1,0-44.943,57.855,57.855,0,0,1,11.7-18.35,54.359,54.359,0,0,1,17.355-12.372,52.045,52.045,0,0,1,42.505,0,54.334,54.334,0,0,1,17.355,12.372A57.753,57.753,0,0,1,104.5,7659.27a57.787,57.787,0,0,1,11.292-17.358,54.359,54.359,0,0,1,17.355-12.372,52.039,52.039,0,0,1,42.5,0,54.334,54.334,0,0,1,17.355,12.372,57.822,57.822,0,0,1,11.7,18.35,60.962,60.962,0,0,1,0,44.943,57.824,57.824,0,0,1-11.7,18.353,54.479,54.479,0,0,1-16.425,11.944,54.386,54.386,0,0,1,16.425,11.946,57.8,57.8,0,0,1,11.7,18.35,60.962,60.962,0,0,1,0,44.943,57.82,57.82,0,0,1-11.7,18.352,54.361,54.361,0,0,1-17.355,12.371,52.029,52.029,0,0,1-42.5,0Zm-58-33.332a22.015,22.015,0,0,1-9.726,18.476,36.4,36.4,0,0,0,3.9-1.485,37.686,37.686,0,0,0,12.021-8.57,40,40,0,0,0,8.107-12.714,42.277,42.277,0,0,0,0-31.136,39.971,39.971,0,0,0-8.107-12.713,37.683,37.683,0,0,0-12.021-8.574,36.064,36.064,0,0,0-29.448,0,37.683,37.683,0,0,0-12.021,8.574,40.039,40.039,0,0,0-8.11,12.713,42.276,42.276,0,0,0,0,31.136,40.043,40.043,0,0,0,8.11,12.714,37.686,37.686,0,0,0,12.021,8.57,35.936,35.936,0,0,0,3.9,1.483,22.006,22.006,0,0,1-9.726-18.474c0-12,9.2-21.724,20.547-21.724S75.144,7796.133,75.144,7808.131Zm99.8,0a22.012,22.012,0,0,1-9.726,18.474,35.939,35.939,0,0,0,3.9-1.483,37.686,37.686,0,0,0,12.021-8.57,40.03,40.03,0,0,0,8.105-12.714,42.246,42.246,0,0,0,0-31.136,40,40,0,0,0-8.105-12.713,37.683,37.683,0,0,0-12.021-8.574,36.064,36.064,0,0,0-29.448,0,37.692,37.692,0,0,0-12.023,8.574,40.072,40.072,0,0,0-8.107,12.713,42.246,42.246,0,0,0,0,31.136,40.077,40.077,0,0,0,8.107,12.714,37.7,37.7,0,0,0,12.023,8.57,35.578,35.578,0,0,0,3.9,1.483,22.006,22.006,0,0,1-9.726-18.474c0-12,9.2-21.724,20.547-21.724S174.949,7796.133,174.949,7808.131Zm-81.744-60.684A57.724,57.724,0,0,1,104.5,7764.8a57.758,57.758,0,0,1,11.292-17.357,54.41,54.41,0,0,1,16.426-11.946,54.5,54.5,0,0,1-16.426-11.944A57.784,57.784,0,0,1,104.5,7706.2a57.75,57.75,0,0,1-11.294,17.36A54.48,54.48,0,0,1,76.78,7735.5,54.387,54.387,0,0,1,93.206,7747.447ZM75.144,7702.6a22.017,22.017,0,0,1-9.719,18.471,36.9,36.9,0,0,0,3.9-1.483,37.7,37.7,0,0,0,12.021-8.57,39.984,39.984,0,0,0,8.107-12.716,42.271,42.271,0,0,0,0-31.134,39.965,39.965,0,0,0-8.107-12.714,37.662,37.662,0,0,0-12.021-8.572,36.043,36.043,0,0,0-29.448,0,37.661,37.661,0,0,0-12.021,8.572,40.032,40.032,0,0,0-8.11,12.714,42.271,42.271,0,0,0,0,31.134,40.03,40.03,0,0,0,8.11,12.716,37.7,37.7,0,0,0,12.021,8.57,36.033,36.033,0,0,0,3.9,1.48,22.006,22.006,0,0,1-9.719-18.468c0-12,9.2-21.729,20.547-21.729S75.144,7690.6,75.144,7702.6Zm99.8,0a22.012,22.012,0,0,1-9.719,18.468,36.216,36.216,0,0,0,3.9-1.48,37.7,37.7,0,0,0,12.021-8.57,40.017,40.017,0,0,0,8.105-12.716,42.241,42.241,0,0,0,0-31.134,40,40,0,0,0-8.105-12.714,37.661,37.661,0,0,0-12.021-8.572,36.043,36.043,0,0,0-29.448,0,37.671,37.671,0,0,0-12.023,8.572,40.066,40.066,0,0,0-8.107,12.714,42.241,42.241,0,0,0,0,31.134,40.064,40.064,0,0,0,8.107,12.716,37.71,37.71,0,0,0,12.023,8.57,36,36,0,0,0,3.893,1.48,22.01,22.01,0,0,1-9.717-18.468c0-12,9.2-21.729,20.547-21.729S174.949,7690.6,174.949,7702.6Z" transform="translate(0 -7625.002)"/>
</svg>
