<svg xmlns="http://www.w3.org/2000/svg" width="24" height="24" viewBox="0 0 24 24"><g transform="translate(-425 -71)"><rect width="24" height="24" transform="translate(425 71)" fill="none"/><path d="M128.04,171.271v-.5a5.4,5.4,0,1,0-5.308-8.181,5.4,5.4,0,1,0-5.307,8.181v.5a5.4,5.4,0,1,0,5.307,8.18,5.4,5.4,0,1,0,5.308-8.18Zm-5.308,2.526a5.392,5.392,0,0,0-3.892-2.526v-.5a5.4,5.4,0,0,0,3.892-2.523,5.4,5.4,0,0,0,3.893,2.523v.5A5.393,5.393,0,0,0,122.732,173.8Zm3.893-12.006v1.472a.868.868,0,0,0-.425.718,1.157,1.157,0,0,0,2.265,0,.868.868,0,0,0-.425-.718v-1.472a3.7,3.7,0,1,1-1.415,0Zm-12.193,3.632a3.706,3.706,0,0,1,2.993-3.632v1.472a.868.868,0,0,0-.425.718,1.157,1.157,0,0,0,2.265,0,.868.868,0,0,0-.425-.718v-1.472a3.7,3.7,0,1,1-4.408,3.632Zm3.7,14.9a3.7,3.7,0,0,1-.707-7.332v1.469a.868.868,0,0,0-.425.718,1.157,1.157,0,0,0,2.265,0,.868.868,0,0,0-.425-.718v-1.468a3.7,3.7,0,0,1-.708,7.331Zm9.2,0a3.7,3.7,0,0,1-.707-7.332v1.469a.868.868,0,0,0-.425.718,1.157,1.157,0,0,0,2.265,0,.868.868,0,0,0-.425-.718v-1.468a3.7,3.7,0,0,1-.708,7.331Z" transform="translate(314.268 -88.023)"/></g></svg>