<svg xmlns="http://www.w3.org/2000/svg" width="214.653" height="231" viewBox="0 0 214.653 231">
  <g id="me-ware-wo" transform="translate(-317.679 -491.559)">
    <g id="Layer_2" data-name="Layer 2" transform="translate(317.679 491.559)">
      <g id="Layer_2-2" data-name="Layer 2">
        <path id="Path_19" data-name="Path 19" d="M56.8,17.908A38.891,38.891,0,1,1,17.908,56.8,38.891,38.891,0,0,1,56.8,17.908M56.8,0a56.8,56.8,0,1,0,56.8,56.8A56.8,56.8,0,0,0,56.8,0Z"/>
      </g>
    </g>
    <g id="Layer_2-3" data-name="Layer 2" transform="translate(418.733 491.559)">
      <g id="Layer_2-4" data-name="Layer 2">
        <path id="Path_19-2" data-name="Path 19" d="M56.8,17.908A38.891,38.891,0,1,1,17.908,56.8,38.891,38.891,0,0,1,56.8,17.908M56.8,0a56.8,56.8,0,1,0,56.8,56.8A56.8,56.8,0,0,0,56.8,0Z"/>
      </g>
    </g>
    <g id="Layer_2-5" data-name="Layer 2" transform="translate(418.733 608.96)">
      <g id="Layer_2-6" data-name="Layer 2">
        <path id="Path_19-3" data-name="Path 19" d="M56.8,17.908A38.891,38.891,0,1,1,17.908,56.8,38.891,38.891,0,0,1,56.8,17.908M56.8,0a56.8,56.8,0,1,0,56.8,56.8A56.8,56.8,0,0,0,56.8,0Z"/>
      </g>
    </g>
    <g id="Layer_2-7" data-name="Layer 2" transform="translate(317.679 608.96)">
      <g id="Layer_2-8" data-name="Layer 2">
        <path id="Path_19-4" data-name="Path 19" d="M56.8,17.908A38.891,38.891,0,1,1,17.908,56.8,38.891,38.891,0,0,1,56.8,17.908M56.8,0a56.8,56.8,0,1,0,56.8,56.8A56.8,56.8,0,0,0,56.8,0Z"/>
      </g>
    </g>
    <path id="Union_12" data-name="Union 12" d="M0,28.98a9.106,9.106,0,0,1,4.457-7.54V0H19.318V21.439a9.107,9.107,0,0,1,4.46,7.541c0,5.334-5.325,9.659-11.891,9.659S0,34.314,0,28.98Z" transform="translate(362.739 504.103)"/>
    <path id="Union_13" data-name="Union 13" d="M0,28.98a9.106,9.106,0,0,1,4.457-7.54V0H19.318V21.439a9.107,9.107,0,0,1,4.46,7.541c0,5.334-5.325,9.659-11.891,9.659S0,34.314,0,28.98Z" transform="translate(463.793 504.103)"/>
    <path id="Union_14" data-name="Union 14" d="M0,49.785a9.106,9.106,0,0,1,4.457-7.54V0H19.318V42.244a9.107,9.107,0,0,1,4.46,7.541c0,5.334-5.325,9.659-11.891,9.659S0,55.119,0,49.785Z" transform="translate(463.793 600.699)"/>
    <path id="Union_15" data-name="Union 15" d="M0,48.3a9.106,9.106,0,0,1,4.457-7.54V0H19.318V40.758a9.107,9.107,0,0,1,4.46,7.541c0,5.334-5.325,9.659-11.891,9.659S0,53.633,0,48.3Z" transform="translate(362.739 602.185)"/>
  </g>
</svg>
