<svg xmlns="http://www.w3.org/2000/svg" width="24" height="24" viewBox="0 0 24 24">
  <g id="menso-wo-kenten" transform="translate(-473 -359)">
    <rect id="Rectangle_149" data-name="Rectangle 149" width="24" height="24" transform="translate(473 359)" fill="none"/>
    <g id="Group_186" data-name="Group 186" transform="translate(462.686 -995.796)">
      <path id="Path_501" data-name="Path 501" d="M31.314,1361.3h-6l-3-5.5-3,5.5h-6l3,5.5-3,5.5h6l3,5.5,3-5.5h6l-3-5.5Zm-1.154,10.3H24.926l-.193.353-2.419,4.436-2.419-4.436-.193-.353H14.468l2.427-4.449.19-.349-.19-.349L14.468,1362H19.7l.193-.353,2.419-4.436,2.419,4.436.193.353H30.16l-2.427,4.449-.19.349.19.349Z"/>
      <path id="Path_502" data-name="Path 502" d="M28.415,1363.051H24.348l-2.034-3.745-2.034,3.745H16.213l2.034,3.745-2.034,3.745H20.28l2.034,3.744,2.034-3.744h4.067l-2.034-3.745Zm-1.151,6.787H23.959l-.192.355-1.453,2.674-1.452-2.674-.193-.355H17.364l1.464-2.694.189-.348-.189-.348-1.464-2.695h3.305l.193-.354,1.452-2.675,1.453,2.675.192.354h3.305l-1.464,2.695-.189.348.189.348Z"/>
      <path id="Path_503" data-name="Path 503" d="M25.739,1364.689H23.456l-1.142-2.106-1.142,2.106H18.889l1.142,2.107-1.142,2.106h2.283l1.142,2.107,1.142-2.107h2.283L24.6,1366.8Zm-1.723,2.454.573,1.057H23.067l-.193.355-.56,1.034-.56-1.034-.192-.355H20.039l.573-1.057.188-.347-.188-.347-.573-1.057h1.523l.192-.355.56-1.034.56,1.034.193.355h1.522l-.573,1.057-.188.347Z"/>
    </g>
  </g>
</svg>
