<svg xmlns="http://www.w3.org/2000/svg" width="24" height="24" viewBox="0 0 24 24"><g transform="translate(-137 -119)"><rect width="24" height="24" transform="translate(137 119)" fill="none"/><g transform="translate(-173.869 -15.653)"><path d="M311.869,135.653v22h22v-22Zm21.487,21.487H312.382V136.166h20.973Z"/><path d="M350.009,155.646H331.837v18.167h18.172Zm-2.408.513-.725.725h-12l-.725-.725Zm-10.915,14.728.667-.667h7.041l.667.667Zm8.851.476.762.762H335.448l.762-.762Zm-7.708-1.619.667-.667h4.754l.667.667Zm1.239-1.238.667-.667h2.277l.667.667Zm1.239-1.238.567-.566.567.566Zm-.617-2.475,1.183-1.183,1.183,1.183-1.183,1.183Zm.422-2.669h1.523l-.762.761Zm-.572-.572-.667-.667h4l-.667.667Zm-1.143-1.143-.667-.667h6.288l-.667.667Zm-1.143-1.143-.667-.667h8.574l-.667.667Zm-1.239-1.238-.667-.667H346.4l-.667.667Zm-3.665-1.868h1.071l7.09,7.088-1.183,1.183-6.978-6.976Zm0,2.02,6.615,6.613-6.615,6.613Zm0,15.121v-1.169l6.978-6.976,1.183,1.183-2.168,2.167h-.015v.015l-4.781,4.78Zm1.922,0,.7-.7h11.805l.7.7Zm15.224,0h-1.3l-6.964-6.962,1.183-1.183,7.076,7.074Zm0-1.8-6.713-6.712,6.713-6.712Zm0-14.148-7.076,7.074-1.184-1.183,7.09-7.088h1.17Z" transform="translate(-18.054 -18.077)"/></g></g></svg>