<svg xmlns="http://www.w3.org/2000/svg" width="24" height="24" viewBox="0 0 24 24">
  <g id="mmere-dane" transform="translate(-185 -119)">
    <rect id="Rectangle_149" data-name="Rectangle 149" width="24" height="24" transform="translate(185 119)" fill="none"/>
    <path id="Path_133" data-name="Path 133" d="M397.948,183.894a12.681,12.681,0,0,0,0-15.349,10.039,10.039,0,0,0-.86-.937l1.512-2.388H384.468l1.512,2.388a10.175,10.175,0,0,0-.86.937,12.681,12.681,0,0,0,0,15.349,10.175,10.175,0,0,0,.86.937l-1.512,2.389H398.6l-1.512-2.389A9.913,9.913,0,0,0,397.948,183.894Zm-6.414-16.6a1.254,1.254,0,1,1-1.247,1.254A1.251,1.251,0,0,1,391.534,167.289Zm-5.109,15.457a10.847,10.847,0,0,1,0-13.054q.246-.3.51-.574l3.728,5.888h-5.031v2.427h5.031l-3.728,5.888C386.76,183.14,386.589,182.949,386.425,182.746Zm5.109,2.4a1.254,1.254,0,1,1,1.248-1.254A1.25,1.25,0,0,1,391.534,185.15Zm4.6-1.829-3.728-5.888h5.108v-2.427H392.4l3.727-5.888c.177.181.347.372.512.575a10.851,10.851,0,0,1,0,13.055Q396.4,183.051,396.133,183.321Z" transform="translate(-194.534 -45.22)"/>
  </g>
</svg>
