<svg xmlns="http://www.w3.org/2000/svg" width="232" height="272" viewBox="0 0 232 272">
  <g id="mmere-dane" transform="translate(-447 -911)">
    <path id="Subtraction_14" data-name="Subtraction 14" d="M182,138H0L91,0l91,138h0ZM91,81.4a15.337,15.337,0,0,0-10.905,4.541A15.537,15.537,0,0,0,85,111.2a15.358,15.358,0,0,0,16.91-3.323A15.535,15.535,0,0,0,97,82.623,15.258,15.258,0,0,0,91,81.4Z" transform="translate(471 1045)"/>
    <path id="Subtraction_15" data-name="Subtraction 15" d="M182,0H0L91,138,182,0h0ZM91,56.6a15.337,15.337,0,0,1-10.905-4.541A15.536,15.536,0,0,1,85,26.8a15.359,15.359,0,0,1,16.91,3.323A15.535,15.535,0,0,1,97,55.377,15.258,15.258,0,0,1,91,56.6Z" transform="translate(471 911)"/>
    <rect id="Rectangle_74" data-name="Rectangle 74" width="153" height="30" transform="translate(486 1032)"/>
    <g id="Ellipse_36" transform="translate(447 911.773)">
      <ellipse id="Ellipse_39" data-name="Ellipse 39" cx="116" cy="135" rx="116" ry="135" transform="translate(0 0.228)" fill="none"/>
      <path id="Path_32" data-name="Path 32" d="M115.907,270.45c-31.295,0-60.658-14.3-82.6-40.336C11.823,204.692,0,171,0,135.225S11.823,65.758,33.3,40.336C55.249,14.3,84.612,0,115.907,0s60.658,14.3,82.6,40.336c21.481,25.422,33.3,59.113,33.3,94.889s-11.823,69.467-33.3,94.889C176.565,256.155,147.2,270.45,115.907,270.45Zm0-248.041c-51.54,0-93.5,50.613-93.5,112.816s41.958,112.816,93.5,112.816,93.5-50.613,93.5-112.816S167.447,22.409,115.907,22.409Z"/>
    </g>
  </g>
</svg>
