<svg xmlns="http://www.w3.org/2000/svg" width="24" height="24" viewBox="0 0 24 24">
  <g id="mmusuyidee" transform="translate(-233 -119)">
    <rect id="Rectangle_149" data-name="Rectangle 149" width="24" height="24" transform="translate(233 119)" fill="none"/>
    <path id="Path_114" data-name="Path 114" d="M22.609,122.189c1.509-5.324,7.915-8.772,7.915-8.772H20.381v9.089h0v-9.089H10.238s6.406,3.449,7.915,8.772c-5.323-1.509-8.772-7.915-8.772-7.915V134.56s3.449-6.406,8.772-7.915c-1.509,5.323-7.915,8.772-7.915,8.772H20.381v-9.089h0v9.089H30.524s-6.406-3.449-7.915-8.772c5.323,1.509,8.772,7.915,8.772,7.915V114.274S27.932,120.68,22.609,122.189Z" transform="translate(224.619 6.583)"/>
  </g>
</svg>
