<svg xmlns="http://www.w3.org/2000/svg" width="24" height="24" viewBox="0 0 24 24">
  <g id="mpatapo" transform="translate(-281 -311)">
    <rect id="Rectangle_149" data-name="Rectangle 149" width="24" height="24" transform="translate(281 311)" fill="none"/>
    <path id="mpatapo-2" data-name="mpatapo" d="M43.911,922.668h1.1a4.7,4.7,0,0,0,4.7-4.7h0a4.7,4.7,0,0,0-4.7-4.7h0a4.7,4.7,0,0,0-4.7,4.7v1.1H37.126v-1.1a4.7,4.7,0,0,0-4.7-4.7h0a4.7,4.7,0,0,0-4.7,4.7h0a4.7,4.7,0,0,0,4.7,4.7h1.1v3.181h-1.1a4.7,4.7,0,0,0-4.7,4.7h0a4.7,4.7,0,0,0,4.7,4.7h0a4.7,4.7,0,0,0,4.7-4.7v-1.1h3.181v1.1a4.7,4.7,0,0,0,4.7,4.7h0a4.7,4.7,0,0,0,4.7-4.7h0a4.7,4.7,0,0,0-4.7-4.7h-1.1v-3.181Zm0-3.6v-1.1a1.1,1.1,0,1,1,1.1,1.1Zm-6.785,1.2h3.181v1.2H37.126Zm0,2.4h3.182v3.181H37.126Zm-4.7-1.2a3.5,3.5,0,1,1,3.5-3.5v1.1h0v1.2h0v1.2h0v1.2h0v3.181h-1.2v-3.181h0v-1.2h0v-1.2h0v-1.423h0v-.879a2.3,2.3,0,0,0-2.3-2.3h0a2.3,2.3,0,0,0-2.3,2.3h0a2.3,2.3,0,0,0,2.3,2.3h1.1v1.2Zm1.1-3.5v1.1h-1.1a1.1,1.1,0,1,1,1.1-1.1Zm10.389,9.087h1.1a3.5,3.5,0,1,1-3.5,3.5v-1.1h1.2v1.1a2.3,2.3,0,0,0,2.3,2.3h0a2.3,2.3,0,0,0,2.3-2.3h0a2.3,2.3,0,0,0-2.3-2.3H32.422a2.3,2.3,0,0,0-2.3,2.3h0a2.3,2.3,0,0,0,2.3,2.3h0a2.3,2.3,0,0,0,2.3-2.3v-1.1h1.2v1.1a3.5,3.5,0,1,1-3.5-3.5h11.49Zm0,3.5v-1.1h1.1a1.1,1.1,0,1,1-1.1,1.1Zm-10.389-1.1v1.1a1.1,1.1,0,1,1-1.1-1.1Zm9.187-11.49v1.1h0v1.2h0v1.2h0v1.2h0v3.181h-1.2v-3.181h0v-1.2h0v-1.2h0v-1.2h0v-1.1a3.5,3.5,0,1,1,3.5,3.5h-1.1v-1.2h1.1a2.3,2.3,0,0,0,2.3-2.3h0a2.3,2.3,0,0,0-2.3-2.3h0A2.3,2.3,0,0,0,42.71,917.964Z" transform="translate(254.283 -601.15)"/>
  </g>
</svg>
