<svg xmlns="http://www.w3.org/2000/svg" width="24" height="24" viewBox="0 0 24 24">
  <g id="nea-ope-se-obedi-hene" transform="translate(-329 -263)">
    <rect id="Rectangle_149" data-name="Rectangle 149" width="24" height="24" transform="translate(329 263)" fill="none"/>
    <g id="Group_146" data-name="Group 146" transform="translate(-66.02 -621.25)">
      <path id="Path_293" data-name="Path 293" d="M435.086,924.316V905.25H416.02v19.066h19.066Zm-.587-13.833-.263.368a9.517,9.517,0,0,0-.631-1.164l.894-1.251Zm0-4.646v.833l-1.526,2.136a9.574,9.574,0,0,0-4.127-2.969Zm-.967,6-.581.813a7.645,7.645,0,0,0-.519-1.321l.523-.732A8.474,8.474,0,0,1,433.532,911.835Zm-1.181-2.16-.494.692a7.693,7.693,0,0,0-12.582-.037l-.491-.692a8.5,8.5,0,0,1,13.567.037Zm-13.384,4.034a6.611,6.611,0,0,1,.412-1.457l6.173,8.7,1.5-2.1h.038V918.8l4.65-6.508a6.614,6.614,0,0,1,.406,1.479l-5.417,7.581a6.714,6.714,0,0,1-2.345,0Zm3.8,7.137a6.687,6.687,0,0,1-3.86-5.444Zm-2.86-9.621a6.7,6.7,0,0,1,4.1-2.936v8.723Zm5.13,7.235V908.129q.254-.019.513-.02t.513.02v10.341l-.512.716Zm2.053-1.427V908.29a6.7,6.7,0,0,1,4.125,2.971Zm5.1-1.554a6.689,6.689,0,0,1-3.825,5.353Zm-15.583-9.644h5.653a9.573,9.573,0,0,0-4.095,2.929l-1.558-2.2Zm2.087,5.45a7.65,7.65,0,0,0-.522,1.3l-.576-.813a8.48,8.48,0,0,1,.578-1.223Zm-2.087-2.944.921,1.3a9.549,9.549,0,0,0-.631,1.149l-.291-.41Zm0,15.386v-5.653a9.582,9.582,0,0,0,5.653,5.653Zm.44-8.946a8.507,8.507,0,0,1,.182-1.75l.668.941a7.7,7.7,0,0,0,5.888,8.3l.667.941A8.519,8.519,0,0,1,417.047,914.783ZM425.555,923l-.373-.527q.185.009.372.009t.378-.009Zm1.781-.726a7.713,7.713,0,0,0,5.917-7.491c0-.25-.012-.5-.036-.74l.675-.944a8.51,8.51,0,0,1-7.23,10.118Zm7.164-4.2v5.653h-5.653A9.583,9.583,0,0,0,434.5,918.076Z" transform="translate(-18.533 -18.533)"/>
      <path id="Path_294" data-name="Path 294" d="M591.02,885.25v1.027h6.673v6.673h1.027v-7.7Z" transform="translate(-180.701 0)"/>
      <path id="Path_295" data-name="Path 295" d="M397.047,886.277h6.673V885.25h-7.7v7.7h1.027Z" transform="translate(0 0)"/>
      <path id="Path_296" data-name="Path 296" d="M397.047,1080.25H396.02v7.7h7.7v-1.027h-6.673Z" transform="translate(0 -180.701)"/>
      <path id="Path_297" data-name="Path 297" d="M597.693,1086.923H591.02v1.027h7.7v-7.7h-1.027Z" transform="translate(-180.701 -180.701)"/>
    </g>
  </g>
</svg>
