<svg xmlns="http://www.w3.org/2000/svg" width="24" height="24" viewBox="0 0 24 24">
  <g id="nea-onnim" transform="translate(-425 -167)">
    <rect id="Rectangle_149" data-name="Rectangle 149" width="24" height="24" transform="translate(425 167)" fill="none"/>
    <path id="nea-onnim-no-sua-a-ohu" d="M-2605.413,1112.379v-1.023h-8.016v6.992h-2.473v-6.992h-1.023v6.992h-2.473v-6.992h-8.015v1.023h6.992v2.473h-6.992v1.023h6.992v2.473h-6.992v8.016h6.992v2.473h-6.992v1.023h6.992v2.473h-6.992v1.023h8.015v-6.992h2.473v6.992h1.023v-6.992h2.473v6.992h8.016v-1.023h-6.992v-2.473h6.992v-1.023h-6.992v-2.473h6.992v-8.016h-6.992v-2.473h6.992v-1.023h-6.992v-2.473Zm-8.016,6.992v2.643h-5.969v-2.643Zm-6.992,0v5.969h-2.473v-5.969Zm-5.969,0h2.473v5.969h-2.473Zm9.465,5.969h-2.473v-2.3h5.969v2.3h-3.5Zm10.489-5.969v5.969h-2.473v-5.969Zm-3.5,5.969h-2.473v-5.969h2.473Z" transform="translate(3053.413 -943.355)"/>
  </g>
</svg>
