<svg xmlns="http://www.w3.org/2000/svg" width="198.001" height="231" viewBox="0 0 198.001 231">
  <path id="nkonsonkonson" d="M138.857,7856c-7.508,0-14.824-2.71-21.744-8.056-6.684-5.164-12.778-12.6-18.113-22.11-5.336,9.509-11.431,16.947-18.113,22.11-6.92,5.346-14.235,8.056-21.744,8.056a32.009,32.009,0,0,1-11.92-2.347,42.1,42.1,0,0,1-11.1-6.729,63.644,63.644,0,0,1-10.046-10.649,95.355,95.355,0,0,1-8.753-14.1,150.68,150.68,0,0,1-12.675-36.714,219.762,219.762,0,0,1,0-89.915,150.67,150.67,0,0,1,12.675-36.713,95.355,95.355,0,0,1,8.753-14.1,63.64,63.64,0,0,1,10.046-10.649,42.1,42.1,0,0,1,11.1-6.729A32.028,32.028,0,0,1,59.143,7625c7.508,0,14.824,2.71,21.744,8.056,6.684,5.164,12.778,12.6,18.113,22.11,5.336-9.509,11.431-16.947,18.113-22.11,6.92-5.346,14.235-8.056,21.744-8.056a32.029,32.029,0,0,1,11.92,2.347,42.1,42.1,0,0,1,11.1,6.729,63.64,63.64,0,0,1,10.046,10.649,95.368,95.368,0,0,1,8.753,14.1,150.67,150.67,0,0,1,12.675,36.713A212.871,212.871,0,0,1,198,7740.5a212.887,212.887,0,0,1-4.648,44.958,150.676,150.676,0,0,1-12.675,36.714,95.317,95.317,0,0,1-8.753,14.1,63.64,63.64,0,0,1-10.046,10.649,42.1,42.1,0,0,1-11.1,6.729A32.009,32.009,0,0,1,138.857,7856Zm-25.749-53.036a3.648,3.648,0,0,0-3.2,1.549c-.67.92-.76,2.618-.261,4.913a33.715,33.715,0,0,0,2.857,7.6,49.851,49.851,0,0,0,8.774,12.417c3.878,3.887,7.749,5.968,11.2,6.021h.169c6.173,0,13.822-5.024,19.962-13.108a53.86,53.86,0,0,0,7.632-14.057,46.547,46.547,0,0,0,.065-32.974,93.351,93.351,0,0,0-6.92-15.134,143.005,143.005,0,0,0-13.443-19.7,142.644,142.644,0,0,0,13.443-19.692,93.376,93.376,0,0,0,6.92-15.134,46.551,46.551,0,0,0-.065-32.977,53.859,53.859,0,0,0-7.633-14.058c-6.141-8.085-13.791-13.107-19.964-13.107l-.165,0c-3.447.052-7.319,2.133-11.2,6.02a49.851,49.851,0,0,0-8.774,12.418,33.722,33.722,0,0,0-2.858,7.605c-.5,2.295-.409,3.993.261,4.914a3.65,3.65,0,0,0,3.2,1.546,16.95,16.95,0,0,0,3.581-.575l.012,0,.33-.075a20.288,20.288,0,0,1,4.56-.651,10,10,0,0,1,7.3,3.155c5.756,5.7,3.651,13.311,1.566,18.536a101.4,101.4,0,0,1-6.178,11.028c-6.371,9.188-10.486,15.42-12.23,18.526a31.547,31.547,0,0,0-3.878,11.236H108a11.876,11.876,0,0,0,.038,1.285,11.705,11.705,0,0,0-.038,1.284h.169a31.505,31.505,0,0,0,3.878,11.239c1.748,3.116,5.863,9.35,12.23,18.527a101.728,101.728,0,0,1,6.178,11.027c2.085,5.227,4.19,12.834-1.566,18.539a9.993,9.993,0,0,1-7.3,3.152,20.358,20.358,0,0,1-4.561-.65l-.33-.076A16.933,16.933,0,0,0,113.108,7802.964ZM64.073,7645.531c-6.173,0-13.823,5.023-19.964,13.108a53.828,53.828,0,0,0-7.633,14.057,46.541,46.541,0,0,0-.064,32.977,93.4,93.4,0,0,0,6.92,15.134A142.787,142.787,0,0,0,56.776,7740.5a142.968,142.968,0,0,0-13.443,19.7,93.369,93.369,0,0,0-6.92,15.134,46.536,46.536,0,0,0,.063,32.974,53.86,53.86,0,0,0,7.632,14.057c6.14,8.084,13.789,13.106,19.962,13.108h.169c3.448-.053,7.32-2.135,11.2-6.021a49.873,49.873,0,0,0,8.776-12.419,33.709,33.709,0,0,0,2.857-7.6c.5-2.293.409-3.991-.261-4.911a3.652,3.652,0,0,0-3.2-1.549,16.984,16.984,0,0,0-3.585.575l-.34.079a20.326,20.326,0,0,1-4.559.65,10,10,0,0,1-7.3-3.152c-5.757-5.705-3.651-13.312-1.566-18.539a102.681,102.681,0,0,1,6.178-11.027c4.374-6.3,10.046-14.63,12.23-18.527a31.57,31.57,0,0,0,3.881-11.239h.166a12.161,12.161,0,0,0-.035-1.284,12.291,12.291,0,0,0,.035-1.285h-.166a31.588,31.588,0,0,0-3.881-11.236c-1.725-3.077-5.954-9.482-12.23-18.526a102.228,102.228,0,0,1-6.178-11.028c-2.084-5.226-4.189-12.833,1.566-18.536a10,10,0,0,1,7.3-3.155,20.262,20.262,0,0,1,4.559.651l.329.075.012,0a16.955,16.955,0,0,0,3.581.575,3.655,3.655,0,0,0,3.2-1.546c.67-.92.76-2.619.261-4.913a33.705,33.705,0,0,0-2.857-7.6,49.865,49.865,0,0,0-8.776-12.42c-3.878-3.887-7.751-5.969-11.2-6.021Z" transform="translate(0 -7625)"/>
</svg>
