<svg xmlns="http://www.w3.org/2000/svg" width="24" height="24" viewBox="0 0 24 24"><g transform="translate(-281 -119)"><rect width="24" height="24" transform="translate(281 119)" fill="none"/><path d="M39.907,61.152c-1.551,0-2.964,1.088-4.026,2.873-1.062-1.784-2.475-2.873-4.026-2.873-3.3,0-5.974,4.925-5.974,11s2.675,11,5.974,11c1.551,0,2.964-1.088,4.026-2.873,1.062,1.785,2.475,2.873,4.026,2.873,3.3,0,5.974-4.925,5.974-11S43.206,61.152,39.907,61.152ZM34.842,72.274h-.017a2.9,2.9,0,0,1-.392,1.07c-.221.371-.787,1.156-1.235,1.764a9.625,9.625,0,0,0-.624,1.05,1.461,1.461,0,0,0,.158,1.766,1.187,1.187,0,0,0,1.2.238c.3-.065.554-.129.719.086.363.47-1.029,2.93-2.28,2.948h-.017c-1.25,0-3.1-1.927-3.1-4.205,0-2,1.882-4.291,2.358-4.839-.476-.548-2.358-2.84-2.358-4.839,0-2.288,1.862-4.223,3.112-4.205s2.642,2.478,2.28,2.948c-.166.214-.419.15-.719.085a1.187,1.187,0,0,0-1.2.238,1.461,1.461,0,0,0-.158,1.766A9.6,9.6,0,0,0,33.2,69.2c.448.609,1.014,1.393,1.235,1.764a2.9,2.9,0,0,1,.392,1.07h.017a2,2,0,0,0,0,.245Zm7.533,4.717c0,2.278-1.845,4.205-3.1,4.205h-.017c-1.25-.018-2.643-2.478-2.28-2.948.166-.215.419-.15.719-.086a1.187,1.187,0,0,0,1.2-.238,1.46,1.46,0,0,0,.159-1.766,9.626,9.626,0,0,0-.624-1.05c-.448-.609-1.014-1.393-1.235-1.764a2.9,2.9,0,0,1-.392-1.07H36.79a2,2,0,0,0,0-.245h.017a2.9,2.9,0,0,1,.392-1.07c.221-.371.787-1.155,1.235-1.764a9.593,9.593,0,0,0,.624-1.05,1.461,1.461,0,0,0-.158-1.765,1.188,1.188,0,0,0-1.2-.238c-.3.065-.553.129-.719-.085-.363-.47,1.029-2.931,2.28-2.948s3.112,1.917,3.112,4.205c0,2-1.882,4.291-2.358,4.839C40.493,72.7,42.375,74.992,42.375,76.991Z" transform="translate(257.119 58.848)"/></g></svg>