<svg xmlns="http://www.w3.org/2000/svg" width="231" height="231" viewBox="0 0 231 231">
  <g id="nkyimu" transform="translate(-628 -85)">
    <g id="Group_30" data-name="Group 30" transform="translate(628 85)">
      <g id="Group_29" data-name="Group 29" transform="translate(5.711 2.907)">
        <g id="Group_27" data-name="Group 27" transform="translate(0)">
          <g id="Group_22" data-name="Group 22" transform="translate(221.433 198.515) rotate(135)">
            <rect id="Rectangle_76" data-name="Rectangle 76" width="4.051" height="280.742" transform="translate(0 0)"/>
            <rect id="Rectangle_76-2" data-name="Rectangle 76" width="4.051" height="280.742" transform="translate(9.453 0)"/>
            <rect id="Rectangle_76-3" data-name="Rectangle 76" width="4.051" height="280.742" transform="translate(18.907 0)"/>
            <rect id="Rectangle_76-4" data-name="Rectangle 76" width="4.051" height="280.742" transform="translate(28.36 0)"/>
          </g>
          <g id="Group_23" data-name="Group 23" transform="translate(123.598 4.554)">
            <rect id="Rectangle_76-5" data-name="Rectangle 76" width="4.051" height="67.869" transform="translate(91.078 49.693) rotate(135)"/>
            <rect id="Rectangle_76-6" data-name="Rectangle 76" width="4.051" height="98.825" transform="translate(97.895 69.879) rotate(135)"/>
            <rect id="Rectangle_76-7" data-name="Rectangle 76" width="4.051" height="106.471" transform="translate(91.211 76.564) rotate(135)"/>
            <rect id="Rectangle_76-8" data-name="Rectangle 76" width="4.051" height="124.94" transform="translate(91.211 89.933) rotate(135)"/>
          </g>
          <g id="Group_26" data-name="Group 26" transform="translate(4.868 122.726)">
            <rect id="Rectangle_76-9" data-name="Rectangle 76" width="4.051" height="127.587" transform="translate(93.483 90.218) rotate(135)"/>
            <rect id="Rectangle_76-10" data-name="Rectangle 76" width="4.051" height="103.155" transform="translate(76.765 86.869) rotate(135)"/>
            <rect id="Rectangle_76-11" data-name="Rectangle 76" width="4.051" height="95.057" transform="translate(70.08 93.553) rotate(135)"/>
            <rect id="Rectangle_76-12" data-name="Rectangle 76" width="4.051" height="70.726" transform="translate(52.891 89.733) rotate(135)"/>
          </g>
        </g>
        <g id="Group_28" data-name="Group 28" transform="translate(5.614 4.681)">
          <g id="Group_24" data-name="Group 24" transform="translate(0 0)">
            <rect id="Rectangle_76-13" data-name="Rectangle 76" width="4.051" height="170.072" transform="translate(120.259 0) rotate(45)"/>
            <rect id="Rectangle_76-14" data-name="Rectangle 76" width="4.051" height="188.681" transform="translate(133.418 0.21) rotate(45)"/>
            <rect id="Rectangle_76-15" data-name="Rectangle 76" width="4.051" height="203.243" transform="translate(143.715 3.283) rotate(45)"/>
            <rect id="Rectangle_76-16" data-name="Rectangle 76" width="4.051" height="226.39" transform="translate(160.082 0.285) rotate(45)"/>
          </g>
          <g id="Group_25" data-name="Group 25" transform="translate(45.834 48.165)">
            <rect id="Rectangle_76-17" data-name="Rectangle 76" width="4.051" height="226.206" transform="translate(159.952) rotate(45)"/>
            <rect id="Rectangle_76-18" data-name="Rectangle 76" width="4.051" height="203.247" transform="translate(158.042 15.279) rotate(45)"/>
            <rect id="Rectangle_76-19" data-name="Rectangle 76" width="4.051" height="203.247" transform="translate(164.726 21.963) rotate(45)"/>
            <rect id="Rectangle_76-20" data-name="Rectangle 76" width="4.051" height="169.485" transform="translate(160.906 39.152) rotate(45)"/>
          </g>
        </g>
      </g>
      <path id="Subtraction_16" data-name="Subtraction 16" d="M231,231H0V0H231V231ZM24.175,24.172V206.824h182.65V24.172Z"/>
    </g>
  </g>
</svg>
