<svg xmlns="http://www.w3.org/2000/svg" width="248.764" height="230.999" viewBox="0 0 248.764 230.999">
  <path id="nsaa" d="M149.259,7856v-63.968H99.508V7856H0v-99.508H63.968v-31.982H0V7625H99.508v63.972h49.751V7625h99.5v99.5H184.8v31.982h63.968V7856Zm17.769-17.769H231v-63.968H167.027Zm-149.259,0H81.736v-63.968H17.769Zm149.259-63.968v-24.875h-33.76v24.875h33.76Zm-85.291-17.771v17.771H115.5v-24.875H81.736v-17.772H115.5v-24.876h17.769v24.876h33.76v-24.876H81.74v-63.967H17.769v63.967H81.74v17.77h0Zm85.291-49.752H231v-63.967H167.027Z" transform="translate(0 -7625)"/>
</svg>
