<svg xmlns="http://www.w3.org/2000/svg" width="24" height="24" viewBox="0 0 24 24">
  <g id="nsoromma" transform="translate(-419 -215)">
    <rect id="Rectangle_149" data-name="Rectangle 149" width="24" height="24" transform="translate(419 215)" fill="none"/>
    <path id="nsoromma-2" data-name="nsoromma" d="M-1020,908.953l-4.691-.762a1.6,1.6,0,0,1-1.044-2.519l2.779-3.856a.281.281,0,0,0-.392-.393l-3.856,2.778a1.6,1.6,0,0,1-2.519-1.043l-.762-4.692a.281.281,0,0,0-.555,0l-.762,4.692a1.6,1.6,0,0,1-2.519,1.043l-3.856-2.778a.281.281,0,0,0-.393.393l2.779,3.856a1.6,1.6,0,0,1-1.044,2.519l-4.691.762a.281.281,0,0,0,0,.555l4.691.762a1.6,1.6,0,0,1,1.043,2.519l-2.779,3.856a.281.281,0,0,0,.393.393l3.856-2.779a1.6,1.6,0,0,1,2.519,1.043l.762,4.692a.281.281,0,0,0,.555,0l.762-4.691a1.6,1.6,0,0,1,2.519-1.043l3.856,2.778a.281.281,0,0,0,.392-.392l-2.779-3.856a1.6,1.6,0,0,1,1.043-2.519l4.692-.762A.281.281,0,0,0-1020,908.953Zm-10.764,3.545a3.268,3.268,0,0,1-3.267-3.267,3.267,3.267,0,0,1,3.267-3.267,3.267,3.267,0,0,1,3.267,3.267A3.268,3.268,0,0,1-1030.765,912.5Z" transform="translate(1461.765 -682.23)"/>
  </g>
</svg>
