<svg xmlns="http://www.w3.org/2000/svg" width="192.001" height="231" viewBox="0 0 192.001 231">
  <path id="nyame-biribi-wo-soro" d="M134.4,7856c-7.214,0-14.249-2.64-20.91-7.847-6.434-5.029-12.318-12.284-17.488-21.564-5.171,9.281-11.057,16.536-17.49,21.564C71.848,7853.36,64.813,7856,57.6,7856a30.466,30.466,0,0,1-11.609-2.347,40.809,40.809,0,0,1-10.812-6.729,62.978,62.978,0,0,1-9.784-10.649,95.759,95.759,0,0,1-8.524-14.1,153.406,153.406,0,0,1-12.344-36.714,225.534,225.534,0,0,1,0-89.915,153.411,153.411,0,0,1,12.344-36.713,95.81,95.81,0,0,1,8.524-14.1,62.978,62.978,0,0,1,9.784-10.649,40.809,40.809,0,0,1,10.812-6.729A30.484,30.484,0,0,1,57.6,7625c7.214,0,14.249,2.64,20.911,7.847,6.435,5.028,12.319,12.284,17.49,21.563,5.17-9.28,11.055-16.534,17.488-21.562,6.661-5.207,13.7-7.847,20.91-7.847a30.485,30.485,0,0,1,11.609,2.347,40.81,40.81,0,0,1,10.812,6.729,62.98,62.98,0,0,1,9.784,10.649,95.809,95.809,0,0,1,8.525,14.1,153.4,153.4,0,0,1,12.345,36.713A218.353,218.353,0,0,1,192,7740.5a218.37,218.37,0,0,1-4.527,44.958,153.4,153.4,0,0,1-12.345,36.714,95.758,95.758,0,0,1-8.525,14.1,62.98,62.98,0,0,1-9.784,10.649,40.809,40.809,0,0,1-10.812,6.729A30.466,30.466,0,0,1,134.4,7856Zm.685-211.752c-3.882,0-8.147,2.181-12.01,6.141a43.532,43.532,0,0,0-9.4,15.918,62.268,62.268,0,0,0-2.755,11.083,73.467,73.467,0,0,0-.822,12.874,52.849,52.849,0,0,0,4.464,19.546,78.9,78.9,0,0,0,9.236,15.86,92.588,92.588,0,0,0,13.385,14.642,92.316,92.316,0,0,0-13.317,14.552,79.044,79.044,0,0,0-9.278,15.891,52.878,52.878,0,0,0-4.49,19.605,73.483,73.483,0,0,0,.823,12.875,62.242,62.242,0,0,0,2.755,11.083,43.525,43.525,0,0,0,9.4,15.918c3.862,3.959,8.126,6.14,12.008,6.14a.524.524,0,0,0,.068,0,12.2,12.2,0,0,0,7.757-3.016,28.767,28.767,0,0,0,6.54-8.429c3.763-6.836,7.078-16.67,10.134-30.063,5.537-24.266,6.672-39.358,6.672-54.554s-1.135-30.289-6.672-54.555c-3.056-13.391-6.371-23.225-10.134-30.062a28.792,28.792,0,0,0-6.54-8.43,12.209,12.209,0,0,0-7.757-3.017Zm-77.1,0a12.209,12.209,0,0,0-7.757,3.017,28.792,28.792,0,0,0-6.54,8.43c-3.763,6.837-7.078,16.671-10.134,30.062-5.539,24.274-6.674,39.365-6.674,54.555s1.135,30.279,6.674,54.554c3.056,13.393,6.371,23.227,10.134,30.063a28.8,28.8,0,0,0,6.54,8.429,12.2,12.2,0,0,0,7.757,3.016.486.486,0,0,0,.065,0c3.883,0,8.148-2.181,12.011-6.141a43.536,43.536,0,0,0,9.4-15.918,62.261,62.261,0,0,0,2.755-11.083,73.458,73.458,0,0,0,.822-12.874,52.878,52.878,0,0,0-4.49-19.605,79.043,79.043,0,0,0-9.278-15.891,93.257,93.257,0,0,0-13.318-14.551,92.647,92.647,0,0,0,13.386-14.643,78.9,78.9,0,0,0,9.236-15.86,52.849,52.849,0,0,0,4.464-19.546,73.469,73.469,0,0,0-.822-12.875,62.248,62.248,0,0,0-2.755-11.084,43.535,43.535,0,0,0-9.4-15.919c-3.861-3.958-8.125-6.138-12.005-6.138Z" transform="translate(0 -7625)"/>
</svg>
