<svg xmlns="http://www.w3.org/2000/svg" width="24" height="24" viewBox="0 0 24 24"><g transform="translate(-89 -167)"><rect width="24" height="24" transform="translate(89 167)" fill="none"/><path d="M135.84,210.524a1.8,1.8,0,0,0-1.515-1.515,3.15,3.15,0,0,0-1.3.062,5.228,5.228,0,0,0-1.426.592c-.13.078-.257.161-.382.247l-4.492-4.492,4.492-4.491c.124.086.251.169.381.247a5.249,5.249,0,0,0,1.427.593,3.149,3.149,0,0,0,1.3.061,1.8,1.8,0,0,0,1.515-1.515,3.149,3.149,0,0,0-.062-1.3,5.279,5.279,0,0,0-.592-1.427,7.191,7.191,0,0,0-2.473-2.473,5.279,5.279,0,0,0-1.427-.592,3.15,3.15,0,0,0-1.3-.062,1.8,1.8,0,0,0-1.515,1.515,3.15,3.15,0,0,0,.062,1.3,5.278,5.278,0,0,0,.592,1.427c.078.13.161.257.247.381l-4.491,4.492-4.491-4.492c.086-.124.169-.251.246-.381a5.25,5.25,0,0,0,.593-1.427,3.15,3.15,0,0,0,.062-1.3,1.8,1.8,0,0,0-1.515-1.515,3.15,3.15,0,0,0-1.3.062,5.25,5.25,0,0,0-1.427.593,7.171,7.171,0,0,0-2.473,2.472,5.279,5.279,0,0,0-.592,1.427,3.15,3.15,0,0,0-.062,1.3,1.8,1.8,0,0,0,1.515,1.515,3.167,3.167,0,0,0,1.3-.061,5.262,5.262,0,0,0,1.426-.593c.131-.078.257-.161.382-.247l4.492,4.491-4.492,4.492c-.125-.086-.252-.169-.382-.247a5.221,5.221,0,0,0-1.427-.592,3.145,3.145,0,0,0-1.3-.062,1.8,1.8,0,0,0-1.516,1.515,3.15,3.15,0,0,0,.062,1.3,5.25,5.25,0,0,0,.593,1.427,7.183,7.183,0,0,0,2.473,2.473,5.265,5.265,0,0,0,1.427.592,3.146,3.146,0,0,0,1.3.062,1.8,1.8,0,0,0,1.516-1.515,3.15,3.15,0,0,0-.062-1.3,5.25,5.25,0,0,0-.593-1.427c-.078-.13-.161-.257-.247-.381l4.492-4.492,4.492,4.492c-.086.124-.17.251-.247.381a5.249,5.249,0,0,0-.593,1.427,3.15,3.15,0,0,0-.062,1.3,1.8,1.8,0,0,0,1.516,1.515,3.146,3.146,0,0,0,1.3-.062,5.265,5.265,0,0,0,1.427-.592,7.183,7.183,0,0,0,2.473-2.473,5.282,5.282,0,0,0,.593-1.427A3.133,3.133,0,0,0,135.84,210.524Zm-1.655,1.734a3.482,3.482,0,0,1-2.464,2.464,1.241,1.241,0,0,1-1.593-1.594,3.232,3.232,0,0,1,.7-1.343h0l.007-.007-5.95-5.95h0l-5.95,5.95.007.007h0a3.244,3.244,0,0,1,.7,1.343,1.241,1.241,0,0,1-1.593,1.594,3.483,3.483,0,0,1-2.464-2.463,1.241,1.241,0,0,1,1.594-1.594,3.228,3.228,0,0,1,1.344.7h0l.005.006,5.233-5.233h0l.717-.718-5.949-5.949-.007.007h0a3.234,3.234,0,0,1-1.342.7,1.241,1.241,0,0,1-1.594-1.594,3.483,3.483,0,0,1,2.463-2.463,1.241,1.241,0,0,1,1.594,1.594,3.234,3.234,0,0,1-.7,1.344h0l0,.006,5.232,5.232h0l.718.718h0l.717-.717h0l5.232-5.232-.006-.006h0a3.228,3.228,0,0,1-.7-1.344,1.241,1.241,0,0,1,1.594-1.594,3.483,3.483,0,0,1,2.463,2.463,1.241,1.241,0,0,1-1.594,1.594,3.244,3.244,0,0,1-1.343-.7h0l-.007-.007-5.95,5.95.718.717h0l5.233,5.233.005-.006h0a3.247,3.247,0,0,1,1.345-.7,1.241,1.241,0,0,1,1.594,1.593Z" transform="translate(-23.88 -26.419)"/></g></svg>