<svg xmlns="http://www.w3.org/2000/svg" width="232.015" height="232.015" viewBox="0 0 232.015 232.015">
  <path id="nyame-nnwu-na-mawu" d="M178.757,10223.219a18.925,18.925,0,0,1-15.909-15.909,32.971,32.971,0,0,1,.647-13.647,55.189,55.189,0,0,1,6.221-14.979q1.226-2.057,2.584-4.025l-47.151-47.15L78,10174.663q1.354,1.963,2.58,4.021a55.027,55.027,0,0,1,6.225,14.979,33.1,33.1,0,0,1,.647,13.647,18.927,18.927,0,0,1-15.909,15.909,33.072,33.072,0,0,1-13.647-.646,55.028,55.028,0,0,1-14.984-6.226,75.241,75.241,0,0,1-25.962-25.96,55.09,55.09,0,0,1-6.225-14.98,33.1,33.1,0,0,1-.651-13.647,18.949,18.949,0,0,1,15.917-15.917,33.058,33.058,0,0,1,13.643.651,55.016,55.016,0,0,1,14.984,6.221q2.051,1.226,4.017,2.58l47.151-47.15L58.637,10061q-1.97,1.359-4.025,2.584a55.145,55.145,0,0,1-14.98,6.221,33.03,33.03,0,0,1-13.647.651,18.941,18.941,0,0,1-15.909-15.914,33.1,33.1,0,0,1,.647-13.647,55.159,55.159,0,0,1,6.225-14.983,75.269,75.269,0,0,1,25.962-25.962,55.381,55.381,0,0,1,14.98-6.225,33.144,33.144,0,0,1,13.651-.647,18.949,18.949,0,0,1,15.913,15.913,33.1,33.1,0,0,1-.651,13.647,54.911,54.911,0,0,1-6.225,14.983q-1.22,2.046-2.576,4.018l47.147,47.144,47.143-47.144q-1.354-1.963-2.576-4.018a55.152,55.152,0,0,1-6.225-14.983,33.1,33.1,0,0,1-.647-13.647,18.945,18.945,0,0,1,15.913-15.913,33.125,33.125,0,0,1,13.647.647,55.278,55.278,0,0,1,14.98,6.225,75.282,75.282,0,0,1,25.966,25.967,55.142,55.142,0,0,1,6.221,14.983,33.094,33.094,0,0,1,.647,13.647,18.924,18.924,0,0,1-15.909,15.909,33.079,33.079,0,0,1-13.647-.648,55.141,55.141,0,0,1-14.98-6.224c-1.367-.817-2.712-1.678-4.021-2.584l-47.147,47.147,47.151,47.15q1.964-1.354,4.017-2.58a54.991,54.991,0,0,1,14.98-6.221,33.076,33.076,0,0,1,13.647-.651,18.948,18.948,0,0,1,15.913,15.914,33.115,33.115,0,0,1-.647,13.65,55.262,55.262,0,0,1-6.225,14.98,75.241,75.241,0,0,1-25.962,25.96,55.129,55.129,0,0,1-14.984,6.226,33.046,33.046,0,0,1-13.647.646Zm-148.286-56.978c-3.161,3.165-4.23,8.034-3.014,13.725a36.556,36.556,0,0,0,25.865,25.864c5.69,1.225,10.568.151,13.728-3.011s4.226-8.033,3.006-13.72a33.969,33.969,0,0,0-7.31-14.1l0,0-.074-.072,62.468-62.469,0,0,0,0,62.468,62.469-.077.072.008,0a33.984,33.984,0,0,0-7.314,14.1c-1.22,5.689-.151,10.567,3.01,13.723s8.038,4.23,13.725,3.011a36.55,36.55,0,0,0,25.865-25.864c1.22-5.69.151-10.56-3.014-13.725s-8.034-4.228-13.725-3.006a34,34,0,0,0-14.116,7.321l-.058.058-54.943-54.939,0,0-7.531-7.531,62.468-62.467.074.073.008,0a33.928,33.928,0,0,0,14.1,7.311c5.687,1.22,10.564.151,13.725-3.006s4.23-8.039,3.006-13.729a36.551,36.551,0,0,0-25.865-25.864c-5.69-1.22-10.56-.146-13.721,3.014s-4.23,8.038-3.01,13.725a34.032,34.032,0,0,0,7.321,14.12l.058.058-54.933,54.934-7.531,7.534h0l-7.531-7.53,0,0-54.935-54.935.058-.058a33.942,33.942,0,0,0,7.321-14.12c1.22-5.69.155-10.562-3.006-13.725s-8.034-4.233-13.725-3.014a36.558,36.558,0,0,0-25.865,25.864c-1.22,5.69-.151,10.564,3.01,13.725s8.034,4.23,13.725,3.011a33.923,33.923,0,0,0,14.1-7.313l0,.008.074-.078,62.468,62.469-7.531,7.53-54.941,54.94-.058-.058a33.963,33.963,0,0,0-14.116-7.321,21.049,21.049,0,0,0-4.413-.493A12.8,12.8,0,0,0,30.471,10166.241Z" transform="translate(-9.14 -9992.137)" stroke="rgba(0,0,0,0)" stroke-miterlimit="10" stroke-width="1"/>
</svg>
