<svg xmlns="http://www.w3.org/2000/svg" width="24" height="24" viewBox="0 0 24 24">
  <g id="nyame-ye-ohene" transform="translate(-185 -311)">
    <rect id="Rectangle_149" data-name="Rectangle 149" width="24" height="24" transform="translate(185 311)" fill="none"/>
    <g id="Group_151" data-name="Group 151" transform="translate(-3154.767 582.591)">
      <path id="Path_373" data-name="Path 373" d="M3361.954-259a1.1,1.1,0,0,1,0-1.173l.643-1.025a1.106,1.106,0,0,0-.356-1.528l-1.037-.653a1.112,1.112,0,0,1-.52-1.055l.125-1.2a1.125,1.125,0,0,0-1-1.225l-1.23-.148a1.139,1.139,0,0,1-.933-.729l-.422-1.136a1.146,1.146,0,0,0-1.437-.679l-1.178.389a1.156,1.156,0,0,1-1.161-.26l-.888-.849a1.159,1.159,0,0,0-1.595,0l-.888.849a1.159,1.159,0,0,1-1.161.26l-1.178-.389a1.148,1.148,0,0,0-1.438.678l-.421,1.137a1.137,1.137,0,0,1-.934.729l-1.229.149a1.124,1.124,0,0,0-1,1.224l.125,1.2a1.11,1.11,0,0,1-.519,1.055l-1.037.653a1.106,1.106,0,0,0-.356,1.528l.643,1.025a1.1,1.1,0,0,1,0,1.173l-.643,1.024a1.106,1.106,0,0,0,.356,1.529l1.037.652a1.112,1.112,0,0,1,.519,1.056l-.125,1.2a1.126,1.126,0,0,0,1,1.225l1.229.149a1.139,1.139,0,0,1,.934.728l.421,1.137a1.148,1.148,0,0,0,1.438.678l1.177-.389a1.16,1.16,0,0,1,1.162.26l.888.849a1.158,1.158,0,0,0,1.594,0l.888-.849a1.16,1.16,0,0,1,1.162-.26l1.177.389a1.148,1.148,0,0,0,1.438-.678l.421-1.137a1.139,1.139,0,0,1,.934-.728l1.229-.149a1.124,1.124,0,0,0,1-1.224l-.125-1.2a1.112,1.112,0,0,1,.519-1.056l1.037-.652a1.106,1.106,0,0,0,.356-1.529Zm-10.21,7.957a8.7,8.7,0,0,1-8.782-8.61,8.7,8.7,0,0,1,8.782-8.609,8.7,8.7,0,0,1,8.783,8.609A8.7,8.7,0,0,1,3351.744-251.047Z"/>
      <path id="Path_374" data-name="Path 374" d="M3356.058-257.837c-1.3,1.941-3.532,2.421-3.794,1.333s2.573-.8,2.977-1.759a1.021,1.021,0,0,0-1.292-1.379c-.8.226-1.886.891-1.42-.136s3.129-.771,2.759-2.4-2.161.441-2.581.168c-.375-.243-.069-.7.41-1.281.931-1,1.9-.918,2.021-1.8s-.635-1.666-1.885-1.469-1.229,1.528-1.886,1.469-.262-1.567-1.2-1.88a1.326,1.326,0,0,0-1.832.969,1.3,1.3,0,0,0,.341,1.1,4.867,4.867,0,0,0-3.367,3.631,9.349,9.349,0,0,0,.5,6.344,10.551,10.551,0,0,1,1.662-6.418c1.3-1.941,3.532-2.421,3.794-1.333s-2.573.8-2.978,1.759a1.022,1.022,0,0,0,1.292,1.379c.8-.226,1.886-.891,1.42.136s-3.129.771-2.759,2.4,2.161-.44,2.582-.168c.374.243.068.7-.411,1.28-.931,1-1.9.919-2.02,1.8s.635,1.665,1.884,1.469,1.23-1.528,1.886-1.469.262,1.567,1.2,1.88a1.326,1.326,0,0,0,1.832-.968,1.308,1.308,0,0,0-.34-1.1,4.868,4.868,0,0,0,3.366-3.631,9.343,9.343,0,0,0-.5-6.344A10.552,10.552,0,0,1,3356.058-257.837Z"/>
    </g>
  </g>
</svg>
