<svg xmlns="http://www.w3.org/2000/svg" width="24" height="24" viewBox="0 0 24 24"><g transform="translate(-281 -167)"><rect width="24" height="24" transform="translate(281 167)" fill="none"/><path d="M138.477,169.682c-1.536,0-2.938,1.059-4,2.8-1.061-1.742-2.463-2.8-4-2.8-3.313,0-6,4.924-6,11s2.687,11,6,11c1.537,0,2.939-1.06,4-2.8,1.062,1.742,2.464,2.8,4,2.8,3.314,0,6-4.925,6-11S141.791,169.682,138.477,169.682Zm-7.96,20.13c-1.169-.006-1.953-1.582-2.544-3.953a19.74,19.74,0,0,1,0-10.391c.591-2.371,1.374-3.946,2.544-3.953s2.674,1.721,2.61,4.382-2.82,4.765-2.822,4.767,2.757,2.1,2.822,4.766S131.687,189.819,130.517,189.812Zm10.583-3.953c-.591,2.371-1.375,3.947-2.544,3.954s-2.675-1.721-2.61-4.383,2.82-4.765,2.821-4.766-2.757-2.106-2.821-4.767,1.44-4.389,2.61-4.382,1.953,1.582,2.544,3.953a19.74,19.74,0,0,1,0,10.391Z" transform="translate(158.523 -1.682)"/></g></svg>