<svg xmlns="http://www.w3.org/2000/svg" width="24" height="24" viewBox="0 0 24 24"><g transform="translate(-41 -167)"><rect width="24" height="24" transform="translate(41 167)" fill="none"/><path d="M124.423,187.176a5.241,5.241,0,0,0-4-4.812v-3.413a.513.513,0,0,0-.52-.508h0a.514.514,0,0,0-.52.508v8.3h0a.512.512,0,0,0,.43.5l.093.023a4.964,4.964,0,0,1,2.665,1.648,4.955,4.955,0,0,1-2.665,1.655l-.077.019a.514.514,0,0,0-.446.505v4.054a5.991,5.991,0,0,1-1.921,0V191.6a.512.512,0,0,0-.386-.493l-.007,0-.123-.03a4.963,4.963,0,0,1-2.666-1.655,4.966,4.966,0,0,1,2.666-1.648l.123-.03h0a.511.511,0,0,0,.394-.494v-8.3a.513.513,0,0,0-.52-.508h0a.514.514,0,0,0-.52.508v3.413a5.242,5.242,0,0,0-4,4.812,4.5,4.5,0,0,0,.606,2.246,4.474,4.474,0,0,0-.606,2.239,5.229,5.229,0,0,0,4,4.8v3.475a.52.52,0,0,0,1.04,0v-3.249a7.1,7.1,0,0,0,.964.067,7,7,0,0,0,.957-.066v3.246a.52.52,0,0,0,1.04,0v-3.471a5.232,5.232,0,0,0,4-4.8,4.473,4.473,0,0,0-.608-2.239A4.493,4.493,0,0,0,124.423,187.176Zm-10.96,0a4.147,4.147,0,0,1,2.957-3.737v3.423a6.044,6.044,0,0,0-2.7,1.626A3.461,3.461,0,0,1,113.463,187.176Zm0,4.485a3.424,3.424,0,0,1,.258-1.3,6.053,6.053,0,0,0,2.7,1.633v3.392A4.135,4.135,0,0,1,113.463,191.661Zm6.957-4.8v-3.421a4.146,4.146,0,0,1,2.963,3.737,3.446,3.446,0,0,1-.262,1.314A6.05,6.05,0,0,0,120.42,186.86Zm2.963,4.8a4.137,4.137,0,0,1-2.963,3.725v-3.392a6.045,6.045,0,0,0,2.7-1.637A3.413,3.413,0,0,1,123.383,191.661Z" transform="translate(-65.423 -10.443)"/></g></svg>