<svg xmlns="http://www.w3.org/2000/svg" width="150" height="280" viewBox="0 0 150 280">
  <g id="nyansapo" transform="translate(-1571 -430)">
    <path id="Union_28" data-name="Union 28" d="M0,168.233c0-27.822,20.19-52.064,49.968-61.086V6.478a6.5,6.5,0,0,1,13,0V112.1a6.486,6.486,0,0,1-5.188,6.345c-.429.1-.856.211-1.281.321C30.707,125.48,13,145.39,13,168.233c0,28.569,27.813,51.815,62,51.815s62-23.245,62-51.815c0-22.946-17.887-42.821-43.5-49.471q-.519-.136-1.042-.263a6.485,6.485,0,0,1-5.488-6.4V6.478a6.5,6.5,0,0,1,13,0V107.122c29.607,8.953,50.032,33.17,50.032,61.11C150,203.945,116.354,233,75,233S0,203.945,0,168.233Z" transform="translate(1571 430)"/>
    <g id="Group_57" data-name="Group 57" transform="translate(1571 477.292)">
      <path id="Union_26" data-name="Union 26" d="M0,226.186V120.179a6.5,6.5,0,0,1,5.672-6.449q.43-.106.857-.218c25.613-6.674,43.5-26.62,43.5-49.651,0-24.557-20.406-45.167-47.739-50.586a4.99,4.99,0,0,0,.538-2.3A49.323,49.323,0,0,0,2.68,5.416C2.481,3.6,2.035,1.815,1.85,0,36.62,5.637,63.03,32.111,63.03,63.861,63.03,91.9,42.607,116.21,13,125.2v100.99a6.5,6.5,0,1,1-13,0Z" transform="translate(86.97 0)"/>
      <path id="Union_27" data-name="Union 27" d="M49.95,226.011V124.97C20.182,115.909,0,91.584,0,63.666,0,32.282,25.8,6.046,59.983,0c-.138,4.413-.174,8.831-.185,13.251C32.938,18.95,13,39.389,13,63.666c0,22.924,17.706,42.9,43.5,49.646q.766.2,1.542.385c.027.006.053.013.078.021A6.5,6.5,0,0,1,62.949,120V226.011a6.5,6.5,0,1,1-13,0Z" transform="translate(0 0.196)"/>
    </g>
  </g>
</svg>
