<svg xmlns="http://www.w3.org/2000/svg" width="24" height="24" viewBox="0 0 24 24">
  <g id="okuafo-pa" transform="translate(-377 -407)">
    <rect id="Rectangle_149" data-name="Rectangle 149" width="24" height="24" transform="translate(377 407)" fill="none"/>
    <path id="Path_560" data-name="Path 560" d="M-542.057,406.574c-1.4,1.892-3.284,3.428-5.28,3.369l-.536-1.88.022.073c4.5,1.464,3.994-2.6,1.5-2.549,1.1-.833.125-1.864-.5-1.684s-.729.477-.944.493-.819-.7-.908-.682-.146.22-.3.4l-.426-1.495h0l-.355-1.245c.978-.347,2.365.275,3.387-.711s1.565-2.971,2.3-4.715a8.614,8.614,0,0,1-4.016.827c-1.792-.045-2.953-.281-3.353-1.295l-.079-.276c-.049-1.032,2.009-.965,5.537-.875-.575-.608-1.379-1.718-6.071-1.416l-.043,0c-.078-.541.342-1-.071-1.208a1.679,1.679,0,0,0-1.779.514c-.232.394.253.439.61,1l-.025,0a5.984,5.984,0,0,0-4.679,5.441c1.4-1.892,3.285-3.428,5.28-3.369l.536,1.88-.021-.073c-4.5-1.464-3.994,2.6-1.5,2.549-1.1.833-.125,1.864.5,1.685s.729-.477.944-.493.819.7.908.682.146-.22.3-.4l.426,1.494h0l.355,1.245c-.978.347-2.365-.275-3.387.711s-1.565,2.971-2.3,4.715a8.614,8.614,0,0,1,4.016-.827c1.792.045,2.953.281,3.353,1.295l.079.276c.048,1.032-2.009.964-5.537.875.575.608,1.379,1.718,6.071,1.416l.042,0c.078.541-.342,1,.071,1.208a1.679,1.679,0,0,0,1.779-.514c.232-.394-.253-.439-.61-1l.025,0A5.984,5.984,0,0,0-542.057,406.574Zm-8.821-9.058-.1-.373c.1-.041,1.13.126,1.254.392a8.252,8.252,0,0,1-.345,2.8Zm.492,10.188a8.251,8.251,0,0,1,.345-2.8l.8,2.823.1.373C-549.234,408.137-550.261,407.97-550.386,407.7Z" transform="translate(939.057 16.381)"/>
  </g>
</svg>
