<svg xmlns="http://www.w3.org/2000/svg" width="24" height="24" viewBox="0 0 24 24">
  <g id="onyankopon-adom-nti-biribiara-beye-yie" transform="translate(-425 -263)">
    <rect id="Rectangle_149" data-name="Rectangle 149" width="24" height="24" transform="translate(425 263)" fill="none"/>
    <path id="Path_319" data-name="Path 319" d="M1662.762,296.311a7.606,7.606,0,0,0-3.852-1,7.331,7.331,0,0,0-3.648.88,1.018,1.018,0,0,1-1.977,0,7.316,7.316,0,0,0-3.618-.88h-.03a7.606,7.606,0,0,0-3.852,1,5.089,5.089,0,0,0-2.511,4.59c-.02,2.745,1.746,6.316,5.25,10.615a59.885,59.885,0,0,0,5.177,5.566h0a.841.841,0,0,0,1.146,0h0a59.885,59.885,0,0,0,5.177-5.566c3.5-4.3,5.27-7.871,5.25-10.615A5.089,5.089,0,0,0,1662.762,296.311Zm-10.321,1.392a3.387,3.387,0,0,1,.99.764,1.028,1.028,0,0,1,.21.459.584.584,0,0,0,.631.447c.5,0,.613-.323.629-.434.085-.587.784-.994,1.2-1.237a6.341,6.341,0,0,1,5.369-.115,11.938,11.938,0,0,0-2.04,1.075,9.862,9.862,0,0,0-2.289,2.251,5.123,5.123,0,0,0-5.742,0,9.875,9.875,0,0,0-2.289-2.251,11.935,11.935,0,0,0-2.04-1.075A6.342,6.342,0,0,1,1652.441,297.7Zm2.453,6.832.155-2.483,2.328,2.328Zm2.483,1.4-2.328,2.328-.155-2.483Zm-6.208-1.552,2.328-2.328.155,2.483Zm2.483,1.4-.155,2.483-2.328-2.328Zm-8.672-4.87v-.019a3.682,3.682,0,0,1,.325-1.629,10.461,10.461,0,0,1,2.6,1.211,8.116,8.116,0,0,1,1.975,2.051,5.12,5.12,0,0,0,.9,6.378,2.133,2.133,0,0,1-.411.631l-.009.009c-.236.257-.469.492-.666.686C1646.59,306.381,1644.96,303.161,1644.98,300.906Zm9.513,14.117a.312.312,0,0,1-.441,0c-.716-.708-1.841-1.859-3.057-3.25.239-.231.538-.531.846-.866a4.154,4.154,0,0,0,.666-.945,5.143,5.143,0,0,0,3.53,0,4.15,4.15,0,0,0,.666.945c.308.335.607.634.846.866C1656.335,313.165,1655.209,314.316,1654.493,315.024Zm9.072-14.117c.02,2.254-1.609,5.474-4.714,9.319-.2-.194-.431-.43-.667-.686l-.009-.009a2.13,2.13,0,0,1-.411-.631,5.12,5.12,0,0,0,.9-6.378,8.124,8.124,0,0,1,1.976-2.051,10.461,10.461,0,0,1,2.6-1.211,3.683,3.683,0,0,1,.325,1.629v.019Z" transform="translate(-1217.273 -31.307)"/>
  </g>
</svg>
