<svg xmlns="http://www.w3.org/2000/svg" width="24" height="24" viewBox="0 0 24 24"><g transform="translate(-425 -119)"><rect width="24" height="24" transform="translate(425 119)" fill="none"/><g transform="translate(359.476 61.7)"><rect width="20.814" height="1.35" transform="translate(66.524 63.3)"/><rect width="20.814" height="1.35" transform="translate(67.71 73.95)"/><path d="M87.466,72.3l-3.423-6h3.295V64.95H66.524V66.3h.994l3.423,6H67.71v1.35H88.524V72.3Zm-6-6-.465.814-.464-.814Zm-.815,1.429-.525.92-.525-.92.525-.921ZM79.72,66.3l-.465.815-.464-.815Zm-1.751,0L75.72,70.242l-.525-.92L76.919,66.3Zm-1.75,0-1.374,2.408L73.471,66.3Zm-3.449,0,1.724,3.022-.525.92L71.72,66.3Zm-1.128,6-3.423-6h1.05l3.423,6Zm-1.673-6H71.02l2.6,4.556-.525.921Zm3.527,6,.473-.829.474.829Zm.824-1.444.525-.92.525.92-.525.921Zm.927,1.444.473-.829.473.829Zm.824-1.444,2.309-4.048.525.921L76.6,71.777ZM77,72.3l2.257-3.957.526.92L78.048,72.3Zm1.751,0,1.382-2.423L81.513,72.3Zm3.465,0-1.733-3.037.525-.92L83.264,72.3Zm1.751,0-2.608-4.571.525-.921L85.015,72.3Zm1.75,0-3.423-6h1.051l3.423,6Z"/></g></g></svg>