<svg xmlns="http://www.w3.org/2000/svg" width="24" height="24" viewBox="0 0 24 24"><g transform="translate(-473 -119)"><rect width="24" height="24" transform="translate(473 119)" fill="none"/><path d="M133.831,129.81a5.8,5.8,0,0,0,4.062-5.5,5.58,5.58,0,0,0-2.95-5.025,4.349,4.349,0,0,0-2.387-.475,4.992,4.992,0,0,0-4.091,2.515,2.906,2.906,0,0,0-.2.451q-.683-.067-1.372-.07c-.458,0-.916.025-1.371.07a3,3,0,0,0-.2-.451,4.993,4.993,0,0,0-4.092-2.515,4.351,4.351,0,0,0-2.387.475,5.582,5.582,0,0,0-2.95,5.025,5.8,5.8,0,0,0,4.063,5.5,5.8,5.8,0,0,0-4.063,5.5,5.585,5.585,0,0,0,2.95,5.026,4.332,4.332,0,0,0,2.366.474h.021a4.99,4.99,0,0,0,4.092-2.514,3.033,3.033,0,0,0,.206-.469,9.892,9.892,0,0,0,2.731,0,2.94,2.94,0,0,0,.206.469,4.989,4.989,0,0,0,4.091,2.514h.021a4.332,4.332,0,0,0,2.366-.474,5.583,5.583,0,0,0,2.95-5.026A5.8,5.8,0,0,0,133.831,129.81Zm-12.6,9.268c-1.1-.011-3.091-.751-3.027-3.768s5.895-5.5,5.895-5.5-5.83-2.483-5.895-5.5,1.927-3.755,3.027-3.767a2.075,2.075,0,0,1,2.217,2.279c-.089,1.589-2.217,1.487-2.217,1.487s1.139,1.609,2.656,1.139a2.3,2.3,0,0,0,.743-.4,13.659,13.659,0,0,1-.038,9.486,2.283,2.283,0,0,0-.705-.367c-1.518-.47-2.656,1.138-2.656,1.138s2.128-.1,2.217,1.488A2.076,2.076,0,0,1,121.23,139.078Zm11.326,0a2.075,2.075,0,0,1-2.216-2.279c.089-1.589,2.216-1.488,2.216-1.488s-1.138-1.608-2.656-1.138a2.266,2.266,0,0,0-.7.364,13.6,13.6,0,0,1-.038-9.48,2.3,2.3,0,0,0,.739.393c1.518.47,2.656-1.138,2.656-1.138s-2.127.1-2.216-1.488a2.075,2.075,0,0,1,2.216-2.279c1.1.011,3.092.751,3.027,3.767s-5.894,5.5-5.894,5.5,5.83,2.484,5.894,5.5S133.657,139.066,132.556,139.078Z" transform="translate(358.107 1.19)"/></g></svg>