<svg xmlns="http://www.w3.org/2000/svg" width="219.845" height="230.998" viewBox="0 0 219.845 230.998">
  <path id="pempamsie" d="M166.478,10214c-14.024-.022-32.132-9.6-40.917-26.4a31.764,31.764,0,0,1-2.018-4.778,94.268,94.268,0,0,1-27.242,0,31.752,31.752,0,0,1-2.018,4.778c-8.785,16.806-26.89,26.38-40.914,26.4h-.208c-13.873,0-19.53-2.52-23.66-4.985-12.22-7.3-29.5-22.983-29.5-52.765,0-45.536,40.624-57.748,40.624-57.748S0,10086.286,0,10040.747c0-29.778,17.282-45.464,29.5-52.759,4.15-2.479,9.841-5.015,23.868-4.988s32.129,9.6,40.914,26.4a31.746,31.746,0,0,1,1.961,4.605,127.25,127.25,0,0,1,27.357,0,31.752,31.752,0,0,1,1.96-4.605c8.785-16.806,26.892-26.38,40.917-26.4s19.717,2.509,23.868,4.988c12.217,7.295,29.5,22.98,29.5,52.762,0,45.536-40.622,57.75-40.622,57.75s40.622,12.212,40.622,57.748c0,29.781-17.282,45.467-29.5,52.765-4.13,2.466-9.787,4.985-23.663,4.985Zm-22.166-42.126c-.887,16.68,11.161,24.047,22.166,23.932s30.914-7.886,30.266-39.556S137.8,10098.5,137.8,10098.5s58.3-26.08,58.942-57.75-19.261-39.437-30.266-39.556-23.052,7.255-22.166,23.932,22.166,15.624,22.166,15.624-11.384,16.89-26.562,11.955a22.446,22.446,0,0,1-7.35-4.081c-4.371,14.387-8.3,32.067-8.3,49.112,0,17.531,4.162,35.737,8.68,50.336a22.329,22.329,0,0,1,6.975-3.777c15.178-4.935,26.562,11.953,26.562,11.953s-.269-.014-.747-.014C161.954,10156.234,145.1,10157.066,144.313,10171.872Zm-90.943-170.678c-11.007.118-30.914,7.885-30.268,39.553s58.942,57.753,58.942,57.753-58.3,26.08-58.942,57.748,19.261,39.438,30.268,39.556,23.052-7.252,22.163-23.932-22.163-15.624-22.163-15.624,11.381-16.888,26.562-11.953a22.334,22.334,0,0,1,7.008,3.8c4.505-14.549,8.646-32.719,8.646-50.363,0-17.153-3.914-34.806-8.271-49.143a22.461,22.461,0,0,1-7.383,4.109c-15.18,4.937-26.562-11.956-26.562-11.956s21.273,1.059,22.163-15.621c.882-16.546-10.97-23.933-21.9-23.933Z" transform="translate(0 -9983)"/>
</svg>
