<svg xmlns="http://www.w3.org/2000/svg" width="24" height="24" viewBox="0 0 24 24">
  <g id="sankofa-one" transform="translate(-89 -359)">
    <rect id="Rectangle_149" data-name="Rectangle 149" width="24" height="24" transform="translate(89 359)" fill="none"/>
    <g id="Group_168" data-name="Group 168" transform="translate(2001.971 237.902)">
      <ellipse id="Ellipse_79" data-name="Ellipse 79" cx="0.813" cy="0.778" rx="0.813" ry="0.778" transform="translate(-1902.726 129.713)"/>
      <path id="Path_475" data-name="Path 475" d="M-1893.3,130.787c-.082-.4,2.594-.763,2.818-1.947s-3.414,1.456-3.821,1.247,2.462-1.8,2.269-3.4-3.389,3.714-3.857,3.338,2.66-3.373,2.12-5.161-2.594,3.934-4.147,5.543a6.77,6.77,0,0,1-6.365,1.513,6.775,6.775,0,0,1-4.551-2.8c-.754-1.192-.347-3.072,2.023-3.119s3.776,3.862,3.776,3.862l.424-1.447,1.01.929s.348-.4.318-1.943-.4-4.785-4.478-4.255-6.843,5.542-6.078,9.314,5.158,7.391,8.645,7.743a6.605,6.605,0,0,0,.756.034v1.874h-1.512a.5.5,0,0,0-.51.488.5.5,0,0,0,.51.488h6.728a.5.5,0,0,0,.51-.488.5.5,0,0,0-.51-.488h-1.512V139.1h-.046a2.5,2.5,0,0,1,2.152-.205,17.233,17.233,0,0,1-.227-2.064c.054-.047,1.5.525,1.565.489s-.418-1.329-.219-1.5,1.1.088,1.211.068-.207-.935-.429-1.255,1.05-.277,1.057-.472-.445-.646-.871-.78,1.438-.391,1.622-.535-.495-.834-.348-.88,2.4-.079,3.194-.8S-1893.221,131.188-1893.3,130.787Zm-17.791.573c-.24-.9,1.059-1.562,1.735-1.026A2.258,2.258,0,0,0-1911.094,131.36Zm.5,1.567c-.515-1.229,1.19-2.394,2.249-1.758A3.167,3.167,0,0,0-1910.6,132.927Zm.948,1.847c-1.017-1.382.745-3.308,2.255-2.816A3.932,3.932,0,0,0-1909.649,134.774Zm1.457,1.729c-1.413-1.763.791-4.383,2.8-3.815A5.142,5.142,0,0,0-1908.192,136.5Zm8.243,5.618h-1.285V140.1a6.772,6.772,0,0,0,1.285-.441Zm-1.148-3.306c-2.429.658-5.356-1.7-5.16-1.894.91-1.27,3.611,1.712,4.886,1.042s-4.656-1.635-4.506-2.617,6.307,2.272,6.708,1.469-6.242-1.765-5.8-2.605,6.984,2,7.284,1.007-6.594-1.362-6.673-2,7.245-.048,7.68.9S-1898.668,138.157-1901.1,138.815Zm4.94-5.993c-.155.4-1.646-.159-1.654-.908s1.374-1.45,1.624-1.111-.537.639-.559,1.129C-1896.768,132.458-1896,132.425-1896.156,132.822Zm1.608-.746c-.084.077-.691-.15-.865-.36s.636-.921.722-.552S-1894.464,132-1894.548,132.076Z" transform="translate(0 0)"/>
    </g>
  </g>
</svg>
