<svg xmlns="http://www.w3.org/2000/svg" width="24" height="24" viewBox="0 0 24 24">
  <g id="sepow" transform="translate(-89 -407)">
    <rect id="Rectangle_149" data-name="Rectangle 149" width="24" height="24" transform="translate(89 407)" fill="none"/>
    <path id="Path_507" data-name="Path 507" d="M-147.545,1621.459l-7-12.195-7,12.195h2.364a5.985,5.985,0,0,0-1.364,3.8,6.007,6.007,0,0,0,6,6,6.006,6.006,0,0,0,6-6,5.979,5.979,0,0,0-1.363-3.8Zm-7,7.581a3.781,3.781,0,0,1-3.778-3.778,3.782,3.782,0,0,1,3.778-3.778v0a3.782,3.782,0,0,1,3.778,3.78A3.781,3.781,0,0,1-154.545,1629.04Zm0-15.24,3.1,5.4h-6.2Z" transform="translate(255.545 -1201.262)"/>
  </g>
</svg>
