<svg xmlns="http://www.w3.org/2000/svg" width="24" height="24" viewBox="0 0 24 24">
  <g id="tamfo-bebre" transform="translate(-473 -263)">
    <rect id="Rectangle_149" data-name="Rectangle 149" width="24" height="24" transform="translate(473 263)" fill="none"/>
    <path id="Path_331" data-name="Path 331" d="M878.95,1692.576a3.226,3.226,0,0,0-1.737-2.352l-.036-.017a3.684,3.684,0,0,0-4.04.69,3.809,3.809,0,0,0-.794,1.084,17.988,17.988,0,0,1,0-5.382,3.809,3.809,0,0,0,.788,1.073,3.63,3.63,0,0,0,2.514,1.008,3.887,3.887,0,0,0,1.527-.318l.036-.017a3.225,3.225,0,0,0,1.736-2.353,3.6,3.6,0,0,0-.789-2.93,2.561,2.561,0,0,0-3.547-.512,2.336,2.336,0,0,0-.4,3.175,1.825,1.825,0,0,0,2.107.732,1.253,1.253,0,0,0,.8-1.356.527.527,0,0,0-.575-.483.538.538,0,0,0-.466.6c.015.145-.029.189-.12.224a.817.817,0,0,1-.883-.335,1.232,1.232,0,0,1,.209-1.72,1.577,1.577,0,0,1,2.112.421,2.488,2.488,0,0,1,.523,2,2.132,2.132,0,0,1-1.158,1.563,2.674,2.674,0,0,1-2.918-.494,3.267,3.267,0,0,1-.713-3.444,17.43,17.43,0,0,1,2.824-5.143,16.88,16.88,0,0,1-13.9,0,17.434,17.434,0,0,1,2.833,5.168,3.26,3.26,0,0,1-.72,3.419,2.674,2.674,0,0,1-2.918.494,2.132,2.132,0,0,1-1.158-1.563,2.488,2.488,0,0,1,.523-2,1.578,1.578,0,0,1,2.112-.421,1.232,1.232,0,0,1,.209,1.72.818.818,0,0,1-.883.335c-.091-.035-.135-.08-.12-.224a.538.538,0,0,0-.466-.6.528.528,0,0,0-.575.483,1.253,1.253,0,0,0,.8,1.356,1.825,1.825,0,0,0,2.107-.732,2.336,2.336,0,0,0-.4-3.175,2.561,2.561,0,0,0-3.547.512,3.6,3.6,0,0,0-.789,2.93,3.225,3.225,0,0,0,1.736,2.353l.036.017a3.886,3.886,0,0,0,1.527.318,3.63,3.63,0,0,0,2.514-1.008,3.8,3.8,0,0,0,.787-1.07,17.988,17.988,0,0,1,0,5.376,3.809,3.809,0,0,0-.792-1.082,3.684,3.684,0,0,0-4.04-.69l-.036.017a3.226,3.226,0,0,0-1.737,2.352,3.6,3.6,0,0,0,.789,2.929,2.941,2.941,0,0,0,2.145,1.02,2.113,2.113,0,0,0,1.4-.508,2.335,2.335,0,0,0,.4-3.174,1.824,1.824,0,0,0-2.107-.732,1.253,1.253,0,0,0-.8,1.355.529.529,0,0,0,.575.483.538.538,0,0,0,.466-.6c-.015-.145.029-.189.12-.224a.817.817,0,0,1,.883.335,1.231,1.231,0,0,1-.21,1.72,1.577,1.577,0,0,1-2.112-.421,2.487,2.487,0,0,1-.522-2,2.133,2.133,0,0,1,1.158-1.563,2.674,2.674,0,0,1,2.917.495,3.283,3.283,0,0,1,.694,3.509s0,0,0,.005a17.428,17.428,0,0,1-2.8,5.071,16.881,16.881,0,0,1,13.9,0,17.426,17.426,0,0,1-2.795-5.059c0-.006,0-.012,0-.017a3.283,3.283,0,0,1,.694-3.509,2.674,2.674,0,0,1,2.917-.495,2.132,2.132,0,0,1,1.158,1.563,2.487,2.487,0,0,1-.522,2,1.577,1.577,0,0,1-2.112.421,1.231,1.231,0,0,1-.21-1.72.817.817,0,0,1,.883-.335c.091.035.135.08.12.224a.538.538,0,0,0,.466.6.529.529,0,0,0,.575-.483,1.253,1.253,0,0,0-.8-1.355,1.824,1.824,0,0,0-2.107.732,2.335,2.335,0,0,0,.4,3.174,2.113,2.113,0,0,0,1.4.508,2.942,2.942,0,0,0,2.145-1.02A3.6,3.6,0,0,0,878.95,1692.576Zm-7.343,4.347a11.222,11.222,0,0,0-5.215,0,25.56,25.56,0,0,0,0-15.277,11.226,11.226,0,0,0,5.215,0,25.558,25.558,0,0,0,0,15.277Z" transform="translate(-384 -1414.284)"/>
  </g>
</svg>
