<svg xmlns="http://www.w3.org/2000/svg" width="24" height="24" viewBox="0 0 24 24">
  <g id="uac-nkanea" transform="translate(-137 -407)">
    <rect id="Rectangle_149" data-name="Rectangle 149" width="24" height="24" transform="translate(137 407)" fill="none"/>
    <g id="Group_197" data-name="Group 197" transform="translate(302.665 -1191.634)">
      <path id="Path_508" data-name="Path 508" d="M-161.971,1602.328h7.184v6.286h2.694v-1.8h4.49v-2.694h-4.49v-4.49h-12.571v7.633h2.694Z"/>
      <path id="Path_509" data-name="Path 509" d="M-145.359,1599.634H-150.3v2.694h4.939v7.184h-6.286v2.694h1.8v4.49h2.694v-4.49h4.49v-12.571Z"/>
      <path id="Path_510" data-name="Path 510" d="M-145.359,1618.94h-7.184v-6.286h-2.694v1.8h-4.49v2.694h4.49v4.49h12.571V1614h-2.694Z"/>
      <path id="Path_511" data-name="Path 511" d="M-161.971,1611.756h6.286v-2.694h-1.8v-4.49h-2.694v4.49h-4.49v12.571h7.633v-2.694h-4.939Z"/>
    </g>
  </g>
</svg>
