<svg xmlns="http://www.w3.org/2000/svg" width="24" height="24" viewBox="0 0 24 24">
  <g id="wo-nsa-da-mu" transform="translate(-377 -167)">
    <rect id="Rectangle_149" data-name="Rectangle 149" width="24" height="24" transform="translate(377 167)" fill="none"/>
    <path id="Path_155" data-name="Path 155" d="M-1175.24,459.431c-1.559,0-2.978,1.1-4.04,2.913-1.062-1.808-2.481-2.913-4.04-2.913-3.292,0-5.96,4.925-5.96,11s2.668,11,5.96,11c1.559,0,2.978-1.1,4.04-2.913,1.062,1.808,2.481,2.913,4.04,2.913,3.292,0,5.96-4.925,5.96-11S-1171.948,459.431-1175.24,459.431Zm-4.04,12.4a1.4,1.4,0,0,1-1.388-1.4,1.4,1.4,0,0,1,1.388-1.4,1.4,1.4,0,0,1,1.388,1.4A1.4,1.4,0,0,1-1179.28,471.833Zm-3.585,7.52c-2.017,0-3.652-3.995-3.652-8.922s1.635-8.922,3.652-8.922c1.258,0,2.367,1.556,3.024,3.922h-2.939l2.029,2.551a2.873,2.873,0,0,0-1.365,2.449,2.873,2.873,0,0,0,1.365,2.449l-2.029,2.551h2.939C-1180.5,477.8-1181.606,479.353-1182.865,479.353Zm7.169,0c-1.258,0-2.367-1.556-3.024-3.922h2.939l-1.964-2.593a2.873,2.873,0,0,0,1.3-2.407,2.872,2.872,0,0,0-1.3-2.407l1.964-2.593h-2.939c.657-2.366,1.765-3.922,3.024-3.922,2.017,0,3.652,3.995,3.652,8.922S-1173.678,479.353-1175.7,479.353Z" transform="translate(1568.28 -291.432)"/>
  </g>
</svg>
