<svg width="24" height="24" viewBox="0 0 24 24" fill="none" xmlns="http://www.w3.org/2000/svg">
<path d="M18.2431 3.37796L16.162 1.29691L11.9999 5.45901L7.83807 1.29691L5.75702 3.37796L3.37909 1.00003L1.00092 3.37796L3.37909 5.75589L1.29803 7.83694L5.4599 11.9991L1.29803 16.1609L3.37909 18.242L1.00092 20.6199L3.37909 22.9981L5.75702 20.6199L7.83807 22.701L11.9999 18.5391L16.162 22.701L18.2431 20.6199L20.621 22.9981L22.999 20.6199L20.621 18.242L22.7021 16.1609L18.54 11.9991L22.7021 7.83694L20.621 5.75589L22.999 3.37796L20.621 1.00003L18.2431 3.37796ZM18.2431 7.83694L14.081 11.9991L18.2431 16.1609L16.162 18.242L11.9999 14.0801L7.83807 18.242L5.75702 16.1609L9.91888 11.9991L5.75702 7.83694L7.83807 5.75589L11.9999 9.918L16.162 5.75589L18.2431 7.83694Z" fill="black"/>
</svg>
