<svg xmlns="http://www.w3.org/2000/svg" width="24" height="24" viewBox="0 0 24 24">
  <g id="aban" transform="translate(-185 -359)">
    <rect id="Rectangle_149" data-name="Rectangle 149" width="24" height="24" transform="translate(185 359)" fill="none"/>
    <path id="Path_481" data-name="Path 481" d="M2513.506,3969.283l-2.081-2.081h0l-4.162,4.162-4.162-4.162h0l-2.081,2.081-2.378-2.378-2.378,2.378,2.378,2.378-2.081,2.081h0l4.162,4.162-4.162,4.162h0l2.081,2.081-2.378,2.378,2.378,2.378,2.378-2.378,2.081,2.081h0l4.162-4.162,4.162,4.162h0l2.081-2.081,2.378,2.378,2.378-2.378-2.378-2.378,2.081-2.081h0l-4.162-4.162,4.162-4.162h0l-2.081-2.081,2.378-2.378-2.378-2.378Zm0,4.459-4.162,4.162,4.162,4.162-2.081,2.081-4.162-4.162-4.162,4.162-2.081-2.081,4.162-4.162-4.162-4.162,2.081-2.081,4.162,4.162,4.162-4.162Z" transform="translate(-2310.263 -3606.905)"/>
  </g>
</svg>
