<svg width="24" height="24" viewBox="0 0 24 24" fill="none" xmlns="http://www.w3.org/2000/svg">
<path d="M21.825 10.952C21.8176 10.8021 21.8338 10.6519 21.873 10.507C21.8892 10.4689 21.8902 10.4261 21.8756 10.3874C21.8611 10.3487 21.8322 10.317 21.795 10.299C21.613 10.191 21.43 10.084 21.248 9.97498C21.1408 9.91415 21.0425 9.83877 20.956 9.75098C20.8829 9.67897 20.8403 9.58165 20.8369 9.4791C20.8336 9.37654 20.8698 9.27661 20.938 9.19998C20.986 9.14198 21.038 9.08698 21.091 9.03198C21.144 8.97698 21.123 8.957 21.073 8.92599C20.92 8.84046 20.7483 8.79374 20.573 8.78998C20.249 8.76898 19.924 8.75499 19.6 8.73499C19.506 8.72899 19.412 8.714 19.318 8.707C19.2888 8.70554 19.2606 8.69518 19.2374 8.67731C19.2141 8.65944 19.1969 8.63491 19.188 8.60699C19.1483 8.50142 19.1149 8.39356 19.088 8.284C19.0579 8.14635 19.0133 8.01225 18.955 7.88397C18.9476 7.85802 18.9345 7.83407 18.9166 7.81387C18.8987 7.79367 18.8766 7.77774 18.8517 7.76727C18.8268 7.75681 18.7999 7.75208 18.773 7.75342C18.746 7.75475 18.7197 7.76213 18.696 7.77499C18.5104 7.84329 18.3308 7.92691 18.159 8.02499C18.075 8.06899 17.989 8.10899 17.908 8.15799C17.8966 8.16668 17.8834 8.1728 17.8694 8.17596C17.8555 8.17912 17.841 8.17924 17.8269 8.1763C17.8129 8.17336 17.7996 8.16744 17.7881 8.15894C17.7765 8.15043 17.767 8.13952 17.76 8.12698C17.5872 7.89893 17.397 7.68463 17.191 7.48599C17.136 7.43499 17.076 7.38597 17.018 7.34097C17.0069 7.3287 16.993 7.31938 16.9774 7.31381C16.9618 7.30825 16.9451 7.30664 16.9288 7.30911C16.9124 7.31159 16.897 7.31808 16.8837 7.328C16.8705 7.33793 16.8599 7.35099 16.853 7.366C16.801 7.442 16.753 7.52199 16.705 7.60199C16.678 7.648 16.6466 7.69121 16.611 7.73099C16.5698 7.78296 16.5124 7.8198 16.448 7.83572C16.3836 7.85165 16.3157 7.84577 16.255 7.819C16.1433 7.77439 16.0388 7.71339 15.945 7.638C15.8573 7.558 15.7424 7.51441 15.6237 7.51608C15.505 7.51775 15.3914 7.56454 15.306 7.64697C14.9581 7.90008 14.5651 8.08439 14.148 8.18997C14.039 8.21997 13.992 8.197 13.948 8.09C13.8769 7.9453 13.8589 7.78023 13.8971 7.6236C13.9353 7.46696 14.0273 7.32873 14.157 7.233C14.2847 7.13236 14.4376 7.06869 14.599 7.04898C14.861 7.00784 15.1292 7.03435 15.378 7.12598C15.548 7.19498 15.629 7.162 15.716 6.996C15.7799 6.87324 15.8257 6.74186 15.852 6.60599C15.8744 6.49223 15.9142 6.38259 15.97 6.28098C15.9817 6.24747 16.0015 6.21742 16.0277 6.19348C16.0539 6.16955 16.0856 6.15249 16.12 6.14386C16.1544 6.13523 16.1905 6.13529 16.2249 6.14404C16.2592 6.15279 16.2909 6.16997 16.317 6.194C16.381 6.238 16.441 6.29397 16.503 6.33698C16.5425 6.36826 16.5839 6.39698 16.627 6.42297C16.6574 6.451 16.6943 6.4709 16.7345 6.4808C16.7746 6.4907 16.8166 6.49029 16.8565 6.47961C16.8964 6.46894 16.933 6.44832 16.9628 6.41971C16.9926 6.3911 17.0147 6.35542 17.027 6.31598C17.089 6.20898 17.14 6.09499 17.196 5.98499C17.2453 5.88355 17.3097 5.79015 17.387 5.70798C17.4151 5.671 17.4509 5.64055 17.4918 5.61868C17.5328 5.59682 17.578 5.58405 17.6243 5.5813C17.6707 5.57854 17.7171 5.58586 17.7604 5.60272C17.8036 5.61958 17.8427 5.64559 17.875 5.67899C18.0093 5.79855 18.1255 5.93701 18.22 6.09C18.3025 6.2174 18.3995 6.33482 18.509 6.43997C18.602 6.52597 18.634 6.51798 18.678 6.40198C18.7354 6.23924 18.8022 6.07998 18.878 5.92499C18.9216 5.81899 19.0011 5.73169 19.1025 5.67831C19.204 5.62494 19.3209 5.6089 19.433 5.633C19.533 5.646 19.566 5.713 19.596 5.793C19.6362 5.89809 19.6992 5.99293 19.7805 6.07074C19.8618 6.14855 19.9593 6.20738 20.066 6.24298C20.197 6.29298 20.228 6.272 20.251 6.133C20.2658 5.98112 20.3068 5.83292 20.372 5.69498C20.438 5.57398 20.487 5.56799 20.558 5.68799C20.7809 6.03241 21.0292 6.35966 21.301 6.66699C21.369 6.74899 21.435 6.833 21.501 6.918C21.567 7.003 21.565 6.99997 21.653 6.93997C21.7817 6.85097 21.8809 6.72559 21.9379 6.57986C21.9949 6.43413 22.0072 6.27469 21.973 6.12198C21.9284 5.78242 21.8306 5.45203 21.683 5.14297C21.6636 5.11049 21.6547 5.07285 21.6574 5.03513C21.6601 4.9974 21.6742 4.9614 21.698 4.93198C21.7654 4.85515 21.8076 4.75954 21.819 4.65799C21.8251 4.61971 21.8212 4.5805 21.8077 4.54416C21.7943 4.50781 21.7717 4.47554 21.7422 4.45044C21.7127 4.42533 21.6772 4.40825 21.6392 4.40082C21.6011 4.39338 21.5618 4.39585 21.525 4.40799C21.466 4.42507 21.4095 4.44997 21.357 4.48199C21.291 4.51799 21.225 4.55499 21.157 4.58899C21.0856 4.6315 21.0021 4.64917 20.9196 4.63922C20.8371 4.62927 20.7603 4.59226 20.701 4.534C20.6298 4.47121 20.5508 4.41779 20.466 4.375C20.4145 4.33936 20.3512 4.32515 20.2894 4.33542C20.2276 4.34569 20.1722 4.37961 20.135 4.42999L20.077 4.48999C20.0184 4.55405 19.9453 4.60315 19.8638 4.63324C19.7824 4.66333 19.6949 4.67353 19.6087 4.66296C19.5225 4.6524 19.4401 4.62138 19.3683 4.57251C19.2965 4.52364 19.2374 4.45831 19.196 4.38199C19.13 4.26051 19.0719 4.13491 19.022 4.00598C18.971 3.88598 18.937 3.86997 18.809 3.88397C18.681 3.89797 18.561 3.914 18.436 3.918C18.3899 3.91897 18.345 3.93277 18.3063 3.95786C18.2676 3.98294 18.2367 4.01831 18.217 4.06C18.123 4.22 18.053 4.39398 17.943 4.54498C17.8832 4.6367 17.8089 4.71809 17.723 4.78598C17.6981 4.80997 17.6676 4.82756 17.6344 4.83722C17.6012 4.84688 17.5661 4.84831 17.5322 4.84143C17.4982 4.83455 17.4665 4.81955 17.4396 4.7977C17.4128 4.77585 17.3917 4.74779 17.378 4.71597C17.3242 4.6161 17.2903 4.50676 17.278 4.39398C17.263 4.30498 17.248 4.21599 17.227 4.12799C17.2 4.01799 17.16 4.00598 17.071 4.07898C16.9692 4.17158 16.8792 4.27638 16.803 4.39099C16.6692 4.58088 16.5515 4.78158 16.451 4.991C16.419 5.06089 16.3707 5.12207 16.3102 5.1694C16.2496 5.21674 16.1785 5.24884 16.103 5.263C15.88 5.312 15.879 5.31799 15.776 5.10699C15.6973 4.92931 15.5929 4.76418 15.466 4.61697C15.355 4.49597 15.284 4.50598 15.205 4.65298C15.0995 4.86843 15.0148 5.09345 14.952 5.32498C14.9039 5.55159 14.814 5.76727 14.687 5.961C14.6292 6.03599 14.562 6.1032 14.487 6.16098C14.419 6.21298 14.387 6.19997 14.36 6.11697C14.318 5.97597 14.293 5.83098 14.246 5.69098C14.2146 5.594 14.1493 5.51162 14.062 5.45898C14.0374 5.44027 14.007 5.431 13.9762 5.43283C13.9453 5.43467 13.9162 5.44749 13.894 5.46899C13.7711 5.57476 13.6812 5.71359 13.635 5.86899C13.545 6.12799 13.496 6.39898 13.435 6.66898C13.415 6.75098 13.389 6.83199 13.364 6.91299C13.3238 7.04216 13.2504 7.15847 13.151 7.25027C13.0517 7.34208 12.9299 7.40611 12.798 7.43597C12.7662 7.44765 12.7314 7.44851 12.699 7.43839C12.6666 7.42826 12.6385 7.40772 12.619 7.37997C12.4429 7.16686 12.3457 6.89946 12.344 6.62299C12.3405 6.57209 12.3488 6.52108 12.3683 6.47391C12.3877 6.42674 12.4177 6.38467 12.456 6.35098C12.4899 6.31684 12.5349 6.29603 12.5828 6.29236C12.6307 6.28869 12.6784 6.3024 12.717 6.33099C12.858 6.41999 12.942 6.37798 12.954 6.20798C12.9605 6.06474 12.9178 5.92359 12.833 5.80798C12.744 5.67498 12.653 5.54298 12.576 5.40198C12.5121 5.28827 12.4765 5.16082 12.4723 5.03043C12.4681 4.90003 12.4955 4.77056 12.552 4.65298C12.632 4.46898 12.735 4.298 12.827 4.12C12.9571 3.91066 13.0328 3.67207 13.047 3.42599C13.047 3.25399 12.976 3.20298 12.82 3.26498C12.664 3.32698 12.514 3.39898 12.355 3.44998C12.325 3.45898 12.289 3.48098 12.26 3.44998C12.231 3.41898 12.26 3.38599 12.269 3.35599C12.3812 3.02365 12.4599 2.68094 12.504 2.33298C12.5344 2.09849 12.4999 1.86014 12.404 1.64398C12.3797 1.58614 12.3459 1.53276 12.304 1.48599C12.2913 1.46519 12.2726 1.44871 12.2503 1.43872C12.2281 1.42873 12.2033 1.4257 12.1793 1.43002C12.1553 1.43435 12.1332 1.44583 12.1158 1.46295C12.0984 1.48008 12.0867 1.50206 12.082 1.526C12.062 1.575 12.049 1.626 12.028 1.677C12.0242 1.69263 12.0166 1.7071 12.006 1.71918C11.9953 1.73126 11.9819 1.74058 11.9669 1.74637C11.9519 1.75216 11.9357 1.75425 11.9197 1.75244C11.9037 1.75063 11.8883 1.74499 11.875 1.73599C11.67 1.64099 11.475 1.53098 11.275 1.41998C10.9417 1.22188 10.5772 1.08188 10.197 1.00598H9.814C9.698 1.06598 9.69502 1.10598 9.80502 1.18698C9.91043 1.25505 10.0203 1.31586 10.134 1.36899C10.2692 1.43612 10.3967 1.51794 10.514 1.61298C10.5993 1.6789 10.6624 1.76925 10.695 1.87198C10.726 1.98198 10.709 2.01297 10.595 2.03497C10.4875 2.048 10.381 2.06772 10.276 2.09399C10.211 2.11499 10.126 2.12398 10.117 2.20898C10.108 2.29398 10.195 2.314 10.255 2.345C10.3752 2.41124 10.4845 2.49556 10.579 2.595C10.7893 2.7947 10.965 3.02783 11.099 3.28497C11.108 3.30297 11.117 3.31999 11.124 3.33899C11.177 3.47599 11.149 3.539 11.008 3.577C10.8741 3.60595 10.7479 3.66323 10.638 3.745C10.566 3.802 10.565 3.833 10.638 3.888C10.81 4.017 10.998 4.12198 11.164 4.25998C11.4107 4.46603 11.609 4.72378 11.745 5.01498C11.793 5.11498 11.777 5.14899 11.664 5.15399C11.4781 5.15582 11.2922 5.14412 11.108 5.11899C11 5.10889 10.8914 5.10656 10.783 5.112C10.661 5.112 10.632 5.181 10.701 5.284C10.783 5.39795 10.8765 5.50316 10.98 5.59799C11.2187 5.83066 11.458 6.06397 11.698 6.29797C11.717 6.31463 11.7323 6.33507 11.743 6.35797C11.7537 6.38087 11.7595 6.40574 11.76 6.431C11.769 6.705 11.783 6.97899 11.788 7.25299C11.788 7.49399 11.737 7.53298 11.509 7.47098C11.2343 7.38425 10.9908 7.21939 10.8082 6.99652C10.6256 6.77365 10.5119 6.50241 10.481 6.21597C10.473 6.14897 10.467 6.08099 10.46 6.01599C10.446 5.89499 10.443 5.88699 10.323 5.88599C10.2045 5.88562 10.09 5.84319 9.99994 5.76627C9.90983 5.68935 9.84998 5.58292 9.83102 5.46597C9.82661 5.37121 9.78986 5.28083 9.7269 5.20987C9.66394 5.13891 9.57858 5.09166 9.48502 5.07599C9.39628 5.05194 9.30937 5.02153 9.22501 4.98499C9.12104 4.95505 9.0305 4.89038 8.96844 4.80176C8.90639 4.71314 8.87658 4.60592 8.884 4.49799C8.878 4.27499 8.87799 4.27497 8.66299 4.32397C8.59766 4.34821 8.52558 4.34684 8.46121 4.32013C8.39685 4.29342 8.34499 4.24337 8.31601 4.17999C8.21398 4.00359 8.14612 3.80954 8.116 3.608C8.085 3.449 8.074 3.468 7.957 3.483C7.84 3.498 7.742 3.50498 7.634 3.51498C7.434 3.53398 7.35702 3.47898 7.30502 3.28598C7.25302 3.09298 7.20499 2.89298 7.14999 2.69598C7.12811 2.61136 7.09448 2.53024 7.05002 2.45499C7.0394 2.42878 7.02333 2.40514 7.0029 2.38559C6.98247 2.36604 6.95814 2.35103 6.93149 2.34158C6.90484 2.33213 6.87651 2.32844 6.84833 2.33075C6.82015 2.33306 6.79276 2.34132 6.76801 2.35498C6.56801 2.42198 6.39402 2.529 6.20602 2.612C6.15673 2.64556 6.1009 2.66835 6.04221 2.67892C5.98351 2.6895 5.92327 2.68761 5.86536 2.67337C5.80744 2.65913 5.75318 2.63287 5.70609 2.59628C5.65899 2.55969 5.62012 2.5136 5.59201 2.461C5.53862 2.37566 5.45891 2.30997 5.36493 2.2739C5.27095 2.23782 5.1678 2.23329 5.07101 2.26099C4.86078 2.29374 4.65918 2.3681 4.47803 2.47971C4.29688 2.59132 4.13982 2.73793 4.01602 2.91098C3.95242 3.00469 3.90882 3.11053 3.888 3.22186C3.86718 3.33319 3.86958 3.44762 3.89502 3.55798C3.90402 3.61698 3.94501 3.61797 3.98801 3.61697L4.604 3.59998C4.64562 3.59711 4.68739 3.59711 4.729 3.59998C4.77973 3.60244 4.82843 3.6206 4.86838 3.65195C4.90833 3.6833 4.93755 3.72631 4.952 3.77499C5.011 3.94599 5.05202 4.12399 5.12402 4.28799C5.13582 4.31687 5.1495 4.34491 5.16501 4.37198C5.18359 4.40859 5.21175 4.43946 5.24649 4.46133C5.28124 4.4832 5.32126 4.49526 5.3623 4.49619C5.40335 4.49711 5.44389 4.48687 5.47958 4.46658C5.51528 4.4463 5.54479 4.41672 5.565 4.38098C5.62632 4.28914 5.71601 4.21989 5.82037 4.18378C5.92473 4.14767 6.03804 4.1467 6.14301 4.181C6.20655 4.19965 6.26425 4.23423 6.31064 4.28149C6.35702 4.32876 6.39056 4.38711 6.40802 4.45099C6.44902 4.57699 6.48401 4.705 6.52301 4.832C6.53762 4.87754 6.55464 4.92224 6.57401 4.96597C6.58365 5.00973 6.60386 5.05048 6.63284 5.08466C6.66183 5.11883 6.69873 5.14542 6.74033 5.16208C6.78193 5.17874 6.82696 5.18496 6.87152 5.18024C6.91608 5.17552 6.95882 5.15998 6.996 5.13498C7.062 5.10598 7.12701 5.07199 7.19601 5.04099C7.28285 4.99659 7.37591 4.96556 7.47202 4.94897C7.53984 4.93453 7.61062 4.94551 7.6709 4.9798C7.73118 5.01409 7.77676 5.0693 7.79901 5.13498C7.82535 5.20376 7.8425 5.27573 7.85001 5.349C7.85895 5.44782 7.90011 5.54097 7.96713 5.61414C8.03416 5.6873 8.12335 5.73644 8.22101 5.754C8.27501 5.768 8.329 5.77899 8.384 5.79099C8.46305 5.80784 8.53377 5.85167 8.58401 5.91498C8.78994 6.16353 9.02493 6.38645 9.284 6.57898C9.47491 6.72793 9.63491 6.91272 9.755 7.12299C9.77516 7.1575 9.7972 7.19089 9.82101 7.22299C9.83863 7.25349 9.86641 7.27681 9.89951 7.28888C9.9326 7.30095 9.9689 7.301 10.002 7.289C10.0727 7.2633 10.1483 7.25406 10.223 7.26199C10.2468 7.26447 10.2695 7.2737 10.2882 7.28857C10.307 7.30345 10.3212 7.32335 10.329 7.34598C10.384 7.5038 10.4118 7.66984 10.411 7.83698C10.411 7.91998 10.366 7.95998 10.285 7.97598C10.1796 7.98872 10.0728 7.97734 9.97247 7.94269C9.87216 7.90804 9.78106 7.85105 9.70602 7.776C9.59296 7.6848 9.47365 7.60157 9.349 7.52698C9.26846 7.48235 9.17893 7.45639 9.08701 7.45099C9.04001 7.45099 8.99301 7.442 8.94601 7.435C8.8631 7.42675 8.78432 7.3947 8.71921 7.34271C8.65409 7.29073 8.60541 7.22103 8.57901 7.142C8.54901 7.063 8.53002 6.97999 8.50302 6.89999C8.46402 6.78299 8.43002 6.76699 8.31702 6.81799C8.17976 6.88709 8.05145 6.97273 7.935 7.073C7.852 7.138 7.85 7.138 7.784 7.056C7.71154 6.95487 7.66299 6.83859 7.642 6.71597C7.62293 6.62163 7.58921 6.53088 7.54202 6.44699C7.53148 6.41837 7.51404 6.39277 7.49127 6.37247C7.46851 6.35217 7.44111 6.33778 7.41147 6.33057C7.38183 6.32335 7.35087 6.32354 7.32132 6.33112C7.29177 6.33869 7.26452 6.35342 7.242 6.37399C7.11633 6.46246 6.99549 6.5576 6.88 6.659L6.83301 6.69498C6.80405 6.72638 6.76753 6.74984 6.72693 6.76312C6.68633 6.7764 6.64299 6.77907 6.60107 6.77084C6.55916 6.76262 6.52006 6.74379 6.48749 6.71616C6.45491 6.68852 6.42995 6.65299 6.41501 6.61298C6.36101 6.52798 6.31501 6.43498 6.26801 6.34698C6.20501 6.23998 6.17702 6.22998 6.05502 6.25998C5.87102 6.30498 5.693 6.369 5.513 6.427C5.333 6.485 5.28801 6.476 5.21301 6.284C5.17969 6.18203 5.13577 6.08382 5.082 5.991C5.05727 5.94766 5.02287 5.9106 4.98148 5.88275C4.94008 5.8549 4.89281 5.837 4.84335 5.83041C4.7939 5.82383 4.74359 5.82876 4.69635 5.84482C4.64911 5.86087 4.60622 5.88762 4.57101 5.92297C4.45415 6.03775 4.35984 6.17346 4.293 6.323C4.25787 6.39375 4.21568 6.46075 4.16702 6.52298C4.05302 6.66698 3.98101 6.684 3.82401 6.59C3.70001 6.515 3.58 6.43298 3.461 6.34998C3.3507 6.27384 3.23431 6.20697 3.11301 6.14999C3.01542 6.10259 2.90568 6.08607 2.79846 6.10269C2.69125 6.11931 2.59166 6.16826 2.513 6.24298C2.50275 6.24843 2.4942 6.25659 2.48822 6.26654C2.48224 6.27649 2.47906 6.28789 2.47906 6.2995C2.47906 6.31111 2.48224 6.32248 2.48822 6.33243C2.4942 6.34238 2.50275 6.35053 2.513 6.35599C2.5439 6.38262 2.57741 6.40608 2.61301 6.42599C2.62575 6.43051 2.63732 6.43782 2.64685 6.44742C2.65638 6.45701 2.66361 6.46864 2.66803 6.48141C2.67245 6.49419 2.67393 6.50781 2.67236 6.52124C2.6708 6.53467 2.66623 6.54757 2.659 6.55899C2.608 6.66899 2.55901 6.77899 2.50201 6.88699C2.36301 7.16399 2.21401 7.43498 2.08401 7.71698C2.04701 7.79698 2.02302 7.88098 1.99402 7.96298V8.42099C2.03102 8.52799 2.052 8.53899 2.159 8.49799C2.30965 8.43132 2.45115 8.34562 2.58002 8.24298C2.71803 8.13385 2.87089 8.04495 3.034 7.97897C3.11589 7.94449 3.20696 7.93828 3.29279 7.96127C3.37861 7.98427 3.45432 8.03518 3.508 8.10599C3.567 8.17399 3.61802 8.24798 3.67102 8.32098C3.69906 8.35922 3.73276 8.39295 3.771 8.42099C3.856 8.48399 3.88101 8.476 3.97101 8.414C4.16362 8.27986 4.38606 8.19472 4.61902 8.16599C4.6399 8.16291 4.66123 8.16535 4.68088 8.17307C4.70053 8.18078 4.71781 8.19352 4.73102 8.20999C4.76602 8.24999 4.80002 8.29098 4.83102 8.33398C4.86526 8.38559 4.90627 8.43235 4.953 8.47299C5.045 8.54499 5.12002 8.51999 5.15302 8.40399C5.16475 8.35423 5.16947 8.30306 5.16702 8.25198C5.16534 8.2152 5.17459 8.17876 5.19363 8.14725C5.21268 8.11574 5.24067 8.09058 5.27402 8.07498C5.41603 8.00403 5.56433 7.94645 5.71701 7.90298C5.79201 7.87998 5.84501 7.92499 5.89401 7.97299C5.98391 8.06862 6.08457 8.15351 6.194 8.22598C6.2829 8.27845 6.37629 8.32295 6.47302 8.35898C6.52886 8.38223 6.59048 8.3877 6.64954 8.37463C6.70859 8.36157 6.76219 8.33062 6.80301 8.28598C7.00301 8.09598 6.98202 8.10999 7.21802 8.25699C7.4128 8.37321 7.59305 8.51219 7.755 8.67099C7.79632 8.71678 7.85053 8.749 7.91049 8.76346C7.97045 8.77791 8.03336 8.77392 8.091 8.75198C8.26608 8.68667 8.43536 8.60674 8.59702 8.513C8.75265 8.434 8.92311 8.38846 9.09741 8.37933C9.27171 8.37021 9.44597 8.39768 9.60901 8.45999C9.77656 8.52912 9.91132 8.65969 9.98569 8.82498C10.0601 8.99027 10.0684 9.17776 10.009 9.349C9.984 9.435 9.909 9.449 9.841 9.465C9.729 9.482 9.61501 9.49499 9.50201 9.51099C9.33741 9.53592 9.17418 9.56931 9.013 9.61099C8.98549 9.62113 8.95531 9.62126 8.9277 9.61139C8.9001 9.60152 8.87684 9.58225 8.862 9.55698C8.82013 9.49714 8.77332 9.44095 8.72202 9.38898C8.62202 9.28898 8.53601 9.30699 8.48001 9.43399C8.44501 9.51399 8.42401 9.59999 8.38901 9.67999C8.37043 9.74126 8.32872 9.79286 8.27271 9.82385C8.21669 9.85485 8.15079 9.86278 8.08902 9.84598C8.05677 9.84161 8.02703 9.82615 8.00494 9.80225C7.98286 9.77834 7.96982 9.74749 7.96802 9.715C7.95702 9.645 7.948 9.57498 7.935 9.50598C7.922 9.43698 7.89401 9.375 7.81201 9.366C7.77342 9.35721 7.73302 9.36123 7.69693 9.37747C7.66084 9.39371 7.63102 9.42129 7.612 9.45599C7.56391 9.54245 7.52313 9.63275 7.49002 9.72598C7.48254 9.75295 7.46557 9.77631 7.44223 9.79175C7.41889 9.80719 7.39075 9.81367 7.36301 9.81C7.18501 9.81 7.00735 9.81 6.83002 9.81C6.8022 9.81403 6.77392 9.80694 6.75128 9.79028C6.72864 9.77363 6.71345 9.74873 6.70901 9.72098C6.68496 9.62503 6.64935 9.53236 6.603 9.44498C6.556 9.36498 6.53001 9.35999 6.46201 9.42499C6.35099 9.54014 6.24839 9.66314 6.155 9.793C6.06662 9.91212 5.96609 10.0217 5.85501 10.12C5.76422 10.1969 5.65555 10.2497 5.539 10.2737C5.42245 10.2976 5.30177 10.2919 5.18802 10.257C4.96402 10.201 4.91601 10.242 4.90701 10.478C4.90701 10.535 4.89802 10.591 4.89902 10.647C4.89583 10.7303 4.87135 10.8115 4.82794 10.8828C4.78453 10.954 4.72362 11.0129 4.651 11.054C4.62669 11.068 4.59937 11.0759 4.57135 11.0771C4.54333 11.0783 4.51545 11.0728 4.49002 11.061C4.32295 11.018 4.15027 11.0008 3.978 11.01C3.856 11.01 3.808 11.052 3.823 11.175C3.83605 11.2552 3.82288 11.3374 3.7854 11.4095C3.74792 11.4816 3.68816 11.5396 3.61502 11.575C3.31565 11.7917 3.08554 12.0907 2.95261 12.4355C2.81967 12.7804 2.78958 13.1564 2.866 13.518C2.89784 13.6323 2.93591 13.7448 2.98001 13.855C2.98701 13.875 2.993 13.904 3.017 13.908C3.041 13.912 3.054 13.878 3.065 13.858C3.14566 13.694 3.2566 13.5467 3.392 13.424C3.51727 13.3023 3.66529 13.2064 3.82761 13.1419C3.98992 13.0774 4.16336 13.0455 4.33801 13.048C4.48001 13.048 4.621 13.048 4.763 13.048C4.79045 13.0528 4.81869 13.0473 4.84232 13.0325C4.86594 13.0177 4.8833 12.9948 4.89102 12.968C4.92077 12.9032 4.95413 12.8401 4.991 12.779C5.03881 12.6817 5.11346 12.6 5.20612 12.5437C5.29877 12.4873 5.40559 12.4587 5.51401 12.461C5.59701 12.461 5.68101 12.461 5.76401 12.461C5.79567 12.4653 5.82782 12.4581 5.85474 12.4409C5.88165 12.4237 5.90159 12.3975 5.91101 12.367C5.97601 12.211 6.047 12.057 6.12 11.905C6.212 11.712 6.31302 11.684 6.49402 11.794C6.53399 11.8241 6.57769 11.849 6.62402 11.868C6.63851 11.8758 6.65468 11.8799 6.67114 11.88C6.68761 11.88 6.70384 11.876 6.71838 11.8683C6.73293 11.8606 6.74534 11.8494 6.75452 11.8358C6.7637 11.8221 6.76935 11.8064 6.771 11.79C6.78666 11.7208 6.79306 11.6498 6.79001 11.579C6.78668 11.4385 6.82974 11.3009 6.91254 11.1873C6.99533 11.0738 7.11325 10.9907 7.24802 10.951C7.42353 10.9115 7.60731 10.9341 7.76801 11.015C7.92701 11.089 7.901 11.115 8.035 10.956C8.22833 10.7095 8.46569 10.501 8.73502 10.341C8.7923 10.3065 8.85427 10.2806 8.91901 10.264C8.93235 10.259 8.94671 10.2573 8.96085 10.2591C8.97498 10.2608 8.98849 10.2659 9.00024 10.2739C9.012 10.282 9.02163 10.2927 9.02838 10.3052C9.03513 10.3178 9.03877 10.3317 9.039 10.346C9.07787 10.5921 9.07787 10.8428 9.039 11.089C9.03146 11.1515 8.9999 11.2085 8.95099 11.2481C8.90208 11.2877 8.83967 11.3066 8.77701 11.301C8.71901 11.301 8.66002 11.301 8.60202 11.301C8.40902 11.301 8.411 11.301 8.452 11.489C8.49485 11.6678 8.51667 11.8511 8.517 12.035C8.51596 12.117 8.50352 12.1984 8.48001 12.277C8.45875 12.3709 8.40661 12.4549 8.33191 12.5157C8.25721 12.5764 8.16429 12.6103 8.06802 12.612C7.84299 12.623 7.6175 12.6029 7.39801 12.552C7.33201 12.539 7.31 12.552 7.31 12.624C7.31 12.878 7.318 13.133 7.30099 13.387C7.30859 13.4585 7.28765 13.5302 7.24271 13.5863C7.19776 13.6425 7.13247 13.6787 7.061 13.687C6.84787 13.7261 6.63171 13.7466 6.41501 13.748C6.29301 13.758 6.17101 13.763 6.04901 13.765C5.98501 13.765 5.97701 13.79 5.98901 13.849C6.0447 14.089 6.07222 14.3346 6.07101 14.581C6.07157 14.6349 6.06552 14.6886 6.05301 14.741C6.04377 14.7969 6.01575 14.848 5.97357 14.8858C5.93139 14.9236 5.87758 14.9459 5.82101 14.949C5.73782 14.9557 5.65421 14.9557 5.57101 14.949C5.41001 14.935 5.24901 14.94 5.08801 14.94C4.98801 14.94 4.96502 14.96 4.96802 15.066C4.97036 15.1593 4.97801 15.2525 4.991 15.345C4.99971 15.3909 4.99435 15.4384 4.97562 15.4812C4.95688 15.5241 4.92566 15.5602 4.88602 15.585C4.77483 15.6598 4.65123 15.7143 4.521 15.746C4.45216 15.7639 4.38521 15.7884 4.32101 15.819C4.28961 15.8324 4.26359 15.8559 4.2471 15.8858C4.23061 15.9157 4.22459 15.9503 4.23001 15.984C4.24086 16.1888 4.32621 16.3827 4.47 16.529C4.49474 16.5565 4.52608 16.5773 4.56107 16.5894C4.59606 16.6015 4.63356 16.6044 4.67001 16.598C4.79601 16.576 4.921 16.552 5.048 16.533C5.11436 16.519 5.18351 16.5279 5.24417 16.5582C5.30483 16.5885 5.35342 16.6385 5.38202 16.7C5.46102 16.846 5.51499 17 5.60699 17.144C5.68129 17.2699 5.78109 17.3789 5.89999 17.464C5.92761 17.4825 5.95755 17.4973 5.98901 17.508C6.10201 17.544 6.153 17.52 6.198 17.408C6.298 17.156 6.362 16.891 6.448 16.634C6.459 16.602 6.47001 16.57 6.48001 16.534C6.49313 16.4871 6.51861 16.4446 6.5538 16.411C6.58899 16.3774 6.63261 16.3539 6.68002 16.343C6.83159 16.307 6.9701 16.2294 7.08002 16.119C7.15863 16.043 7.21448 15.9466 7.24133 15.8406C7.26818 15.7346 7.26495 15.6232 7.23199 15.519C7.17899 15.326 7.19301 15.279 7.35001 15.158C7.44462 15.0839 7.55345 15.0301 7.66974 14.9998C7.78603 14.9695 7.90728 14.9635 8.026 14.982C8.188 15.004 8.18501 15.004 8.22601 14.847C8.29676 14.5356 8.38591 14.2288 8.49301 13.928C8.56813 13.7209 8.69396 13.5359 8.85901 13.39C8.96409 13.2968 9.09959 13.2453 9.24002 13.245C9.41802 13.245 9.59601 13.245 9.77301 13.238C9.98601 13.23 10.044 13.138 9.97302 12.938C9.89797 12.7521 9.79877 12.577 9.67801 12.417C9.57091 12.2599 9.50373 12.0791 9.4823 11.8902C9.46087 11.7013 9.48584 11.51 9.55502 11.333C9.5967 11.1934 9.68543 11.0726 9.80612 10.9911C9.92682 10.9097 10.072 10.8725 10.217 10.886C10.3933 10.9117 10.5531 11.0036 10.664 11.143C10.8095 11.3243 10.9031 11.5417 10.935 11.772C11.0236 12.23 11.0853 12.6928 11.12 13.158C11.183 13.791 11.255 14.423 11.298 15.058C11.3321 15.5803 11.3378 16.1041 11.315 16.627C11.2943 17.2717 11.2119 17.913 11.069 18.542C10.9996 18.8303 10.9148 19.1147 10.815 19.394C10.6947 19.7019 10.492 19.9707 10.229 20.171C9.903 20.444 9.56201 20.698 9.25601 20.995C8.9823 21.2384 8.76169 21.5355 8.608 21.868C8.51709 22.1033 8.47195 22.3538 8.47501 22.606C8.47501 22.728 8.523 22.757 8.634 22.713C8.7312 22.6756 8.81534 22.6106 8.87601 22.526C8.99632 22.3725 9.08287 22.1953 9.13 22.006C9.1558 21.9277 9.2033 21.8583 9.267 21.806C9.467 21.596 9.65402 21.369 9.84802 21.151C9.92902 21.0528 10.0317 20.9747 10.148 20.923C10.18 20.91 10.219 20.886 10.248 20.916C10.277 20.946 10.248 20.985 10.239 21.016C10.1 21.352 9.92602 21.672 9.77002 22.001C9.66556 22.2137 9.57371 22.4324 9.495 22.656C9.46972 22.7251 9.45458 22.7975 9.45001 22.871C9.45001 22.971 9.48301 23.005 9.57501 22.971C9.73362 22.9145 9.87583 22.8196 9.98901 22.695C10.133 22.5148 10.263 22.3239 10.378 22.124C10.4839 21.9478 10.6039 21.7806 10.737 21.624C10.8478 21.4814 10.933 21.3207 10.989 21.149C11.083 20.916 11.168 20.68 11.281 20.455C11.3682 20.2498 11.5058 20.0699 11.681 19.932C11.7978 19.8455 11.9319 19.7852 12.074 19.755C12.116 19.7461 12.1595 19.7468 12.2011 19.757C12.2428 19.7673 12.2817 19.7867 12.3148 19.814C12.348 19.8413 12.3745 19.8757 12.3925 19.9146C12.4106 19.9536 12.4196 19.9961 12.419 20.039C12.417 20.1553 12.3904 20.2698 12.341 20.375C12.291 20.498 12.235 20.618 12.185 20.741C12.1254 20.8725 12.1012 21.0173 12.115 21.161C12.1168 21.3627 12.0587 21.5603 11.948 21.729C11.8121 21.9695 11.6886 22.2169 11.578 22.47C11.564 22.507 11.55 22.544 11.539 22.582C11.5128 22.6541 11.5051 22.7316 11.5166 22.8074C11.5282 22.8832 11.5585 22.955 11.605 23.016H11.755C11.8571 22.9792 11.9494 22.9195 12.0248 22.8415C12.1002 22.7635 12.1567 22.6692 12.19 22.566C12.2656 22.3505 12.3534 22.1395 12.453 21.934C12.4947 21.854 12.5483 21.7808 12.612 21.717C12.694 21.642 12.743 21.65 12.796 21.748C12.8845 21.9348 12.9371 22.1367 12.951 22.343C12.9663 22.5007 12.9974 22.6565 13.044 22.808C13.082 22.92 13.131 22.946 13.282 22.936C13.3039 22.9377 13.3259 22.9352 13.3468 22.9284C13.3677 22.9216 13.387 22.9107 13.4037 22.8964C13.4203 22.882 13.4339 22.8645 13.4438 22.8449C13.4536 22.8253 13.4595 22.8039 13.461 22.782C13.4794 22.5933 13.4703 22.403 13.434 22.217C13.4066 22.0437 13.3976 21.8681 13.407 21.693C13.413 21.642 13.418 21.586 13.47 21.562C13.522 21.538 13.565 21.58 13.602 21.613C13.756 21.762 13.8904 21.93 14.002 22.113C14.119 22.285 14.231 22.46 14.365 22.62C14.4246 22.6887 14.5006 22.7411 14.5859 22.7726C14.6712 22.8041 14.7631 22.8135 14.853 22.8C14.926 22.795 14.947 22.751 14.931 22.682C14.9106 22.6084 14.8807 22.5378 14.842 22.472C14.6311 22.1001 14.3788 21.7532 14.09 21.438C13.8235 21.148 13.5919 20.8279 13.4 20.484C13.286 20.2553 13.232 20.0013 13.243 19.746C13.2434 19.7262 13.2451 19.7065 13.248 19.687C13.276 19.515 13.361 19.468 13.52 19.534C13.638 19.5869 13.7385 19.6722 13.81 19.78C13.93 19.947 14.024 20.13 14.131 20.306C14.2143 20.4526 14.3333 20.5757 14.477 20.664C14.6161 20.7554 14.7318 20.8779 14.815 21.022C15.0959 21.4699 15.2937 21.9649 15.399 22.483C15.423 22.593 15.457 22.701 15.483 22.811C15.4844 22.8258 15.4891 22.84 15.4967 22.8528C15.5044 22.8655 15.5147 22.8764 15.5271 22.8846C15.5394 22.8929 15.5535 22.8983 15.5681 22.9004C15.5828 22.9025 15.5978 22.9013 15.612 22.897C15.6634 22.9007 15.7149 22.8917 15.7621 22.8709C15.8092 22.8502 15.8506 22.8181 15.8825 22.7777C15.9145 22.7373 15.936 22.6897 15.9453 22.639C15.9547 22.5883 15.9515 22.5361 15.936 22.487C15.912 22.305 15.877 22.124 15.85 21.943C15.844 21.903 15.823 21.843 15.859 21.823C15.895 21.803 15.933 21.849 15.959 21.875C16.1219 22.0339 16.267 22.2099 16.392 22.4C16.5197 22.6031 16.6904 22.7758 16.892 22.906C16.9542 22.9439 17.0216 22.9725 17.092 22.991C17.1264 23.003 17.1635 23.0047 17.1988 22.9958C17.2341 22.987 17.266 22.9679 17.2906 22.9411C17.3151 22.9143 17.3313 22.8808 17.3371 22.8449C17.3429 22.809 17.338 22.7722 17.323 22.739C17.2848 22.6355 17.224 22.5419 17.145 22.465C17.0233 22.3473 16.9192 22.2125 16.836 22.065C16.7622 21.9554 16.669 21.8602 16.561 21.784C16.308 21.545 16.082 21.284 15.847 21.024C15.674 20.835 15.475 20.676 15.291 20.5C15.0742 20.2685 14.8696 20.0258 14.678 19.773C14.326 19.357 13.978 18.935 13.632 18.518C13.3164 18.1439 13.0946 17.7 12.985 17.223C12.854 16.67 12.71 16.123 12.622 15.559C12.5288 14.9665 12.4953 14.3662 12.522 13.767C12.5305 13.3974 12.572 13.0292 12.646 12.667C12.6902 12.4918 12.745 12.3195 12.81 12.151C12.833 12.087 12.868 12.083 12.917 12.122C13.0637 12.2306 13.2359 12.2995 13.417 12.322C13.5358 12.3427 13.6463 12.3964 13.736 12.477C13.9004 12.6339 14.0522 12.8034 14.19 12.984C14.421 13.266 14.64 13.559 14.882 13.832C15.035 14.004 15.036 14.002 15.182 13.825C15.205 13.797 15.23 13.77 15.255 13.744C15.2897 13.7039 15.3329 13.672 15.3814 13.6505C15.4299 13.629 15.4826 13.6185 15.5356 13.6198C15.5886 13.621 15.6407 13.634 15.6881 13.6577C15.7356 13.6814 15.7772 13.7153 15.81 13.757C15.8972 13.8648 15.9627 13.9884 16.003 14.121C16.045 14.241 16.083 14.362 16.136 14.478C16.1645 14.5456 16.2033 14.6083 16.251 14.664C16.2729 14.6953 16.3017 14.7211 16.3351 14.7396C16.3685 14.758 16.4057 14.7686 16.4438 14.7704C16.482 14.7722 16.52 14.7653 16.5551 14.7502C16.5901 14.735 16.6212 14.712 16.646 14.683C16.6863 14.6437 16.7237 14.6016 16.758 14.557C16.8044 14.4979 16.8667 14.4535 16.9376 14.4288C17.0085 14.4042 17.085 14.4004 17.158 14.418C17.424 14.466 17.444 14.5 17.413 14.77C17.3986 15.0073 17.3491 15.2412 17.266 15.464C17.2428 15.5396 17.1922 15.6038 17.124 15.644C17.056 15.678 17.096 15.73 17.131 15.759C17.188 15.8169 17.2592 15.8586 17.3376 15.8799C17.416 15.9011 17.4986 15.9012 17.577 15.88C17.7112 15.8336 17.842 15.7774 17.968 15.712C18.0353 15.6785 18.1047 15.6498 18.176 15.626C18.245 15.604 18.284 15.621 18.307 15.696C18.3616 15.8943 18.4284 16.089 18.507 16.279C18.53 16.3482 18.5773 16.4067 18.6403 16.4435C18.7032 16.4803 18.7774 16.4929 18.849 16.479C18.929 16.469 19.01 16.469 19.09 16.462C19.1402 16.4566 19.1908 16.4666 19.2351 16.4908C19.2794 16.5149 19.3153 16.5519 19.338 16.597C19.4314 16.7582 19.5075 16.9288 19.565 17.106C19.5999 17.2091 19.6427 17.3094 19.693 17.406C19.785 17.573 19.87 17.593 20.021 17.481C20.0776 17.4355 20.1411 17.3994 20.209 17.374C20.2408 17.3591 20.2753 17.3507 20.3104 17.3492C20.3455 17.3477 20.3805 17.3532 20.4134 17.3654C20.4464 17.3776 20.4765 17.3962 20.5022 17.4202C20.5279 17.4442 20.5486 17.473 20.563 17.505C20.603 17.573 20.64 17.643 20.679 17.711C20.752 17.84 20.845 17.843 20.928 17.719C21.0147 17.5821 21.0636 17.4249 21.07 17.263C21.0887 16.9745 21.0631 16.6848 20.994 16.404C20.9834 16.3501 20.9607 16.2994 20.9279 16.2554C20.895 16.2114 20.8527 16.1754 20.804 16.15C20.7545 16.1245 20.7073 16.0947 20.663 16.061C20.5892 15.9963 20.5348 15.9124 20.5058 15.8187C20.4769 15.7249 20.4745 15.625 20.499 15.53C20.516 15.404 20.553 15.281 20.571 15.156C20.595 14.989 20.587 14.981 20.43 14.938C20.197 14.874 19.958 14.838 19.73 14.754C19.6214 14.7178 19.5178 14.6677 19.422 14.605C19.3901 14.5846 19.3642 14.5563 19.3466 14.5228C19.3291 14.4893 19.3206 14.4518 19.322 14.414C19.322 14.264 19.338 14.114 19.343 13.965C19.3438 13.903 19.3322 13.8415 19.3089 13.784C19.2856 13.7266 19.251 13.6744 19.2072 13.6305C19.1634 13.5866 19.1113 13.5519 19.0539 13.5285C18.9965 13.5051 18.935 13.4933 18.873 13.494C18.7539 13.5049 18.637 13.5332 18.526 13.578C18.4272 13.6164 18.3185 13.6209 18.2169 13.5906C18.1153 13.5604 18.0267 13.4972 17.965 13.411C17.864 13.282 17.7846 13.1375 17.73 12.983C17.644 12.762 17.585 12.531 17.488 12.314C17.4768 12.2879 17.4733 12.259 17.478 12.231C17.4963 12.0934 17.54 11.9605 17.607 11.839C17.698 11.681 17.835 11.683 17.93 11.839C18.0137 11.9922 18.0568 12.1644 18.055 12.339C18.055 12.439 18.062 12.539 18.068 12.639C18.0683 12.6773 18.0786 12.7149 18.0981 12.748C18.1176 12.781 18.1456 12.8083 18.179 12.827C18.232 12.858 18.279 12.892 18.338 12.919C18.3868 12.9471 18.4433 12.9591 18.4994 12.9532C18.5554 12.9472 18.6081 12.9237 18.65 12.886C18.6736 12.8662 18.6983 12.8479 18.724 12.831C18.7683 12.793 18.8256 12.7736 18.8839 12.7768C18.9422 12.78 18.997 12.8055 19.037 12.848C19.1589 12.9646 19.2645 13.0971 19.351 13.242C19.4158 13.3465 19.4872 13.4467 19.565 13.542C19.633 13.617 19.651 13.618 19.725 13.547C19.758 13.516 19.781 13.521 19.81 13.547C19.8396 13.581 19.8629 13.6199 19.879 13.662C19.91 13.735 19.941 13.807 19.979 13.878C20.0011 13.9219 20.0336 13.9598 20.0737 13.9882C20.1138 14.0166 20.1603 14.0347 20.209 14.041C20.298 14.057 20.332 14.041 20.355 13.946C20.3817 13.8144 20.3875 13.6794 20.372 13.546C20.3397 13.2253 20.2809 12.9079 20.196 12.597C20.1837 12.5644 20.1837 12.5284 20.196 12.4958C20.2084 12.4632 20.2322 12.4363 20.263 12.42C20.401 12.327 20.405 12.274 20.324 12.126C20.2838 12.0397 20.2214 11.9657 20.1432 11.9114C20.0651 11.8571 19.9739 11.8245 19.879 11.817C19.6577 11.7864 19.4441 11.7148 19.249 11.606C19.2076 11.5879 19.1726 11.5576 19.1487 11.5193C19.1248 11.4809 19.113 11.4362 19.115 11.391C19.1189 11.2748 19.103 11.1588 19.068 11.048C19.0371 10.9498 18.9806 10.8616 18.9044 10.7926C18.8281 10.7235 18.7347 10.676 18.634 10.655C18.4425 10.6176 18.2453 10.6207 18.055 10.664C17.927 10.684 17.931 10.681 17.87 10.571C17.7756 10.4003 17.6287 10.2646 17.451 10.184C17.3981 10.1657 17.3419 10.1588 17.286 10.1636C17.2302 10.1684 17.176 10.1849 17.127 10.212C17.0024 10.271 16.8646 10.2969 16.727 10.287C16.6824 10.2842 16.6389 10.272 16.5993 10.2513C16.5597 10.2307 16.5248 10.2019 16.497 10.167C16.4649 10.1264 16.4246 10.093 16.3788 10.0688C16.333 10.0447 16.2827 10.0305 16.231 10.027C16.044 10.004 15.855 9.99899 15.668 9.96399C15.629 9.95948 15.5923 9.94303 15.5629 9.9169C15.5336 9.89077 15.513 9.85624 15.504 9.81799C15.487 9.75799 15.473 9.69799 15.461 9.63699C15.4517 9.57832 15.4321 9.52178 15.403 9.47C15.3932 9.44741 15.3787 9.4271 15.3605 9.41043C15.3423 9.39376 15.3209 9.38108 15.2976 9.37317C15.2742 9.36526 15.2495 9.36232 15.2249 9.36453C15.2004 9.36674 15.1766 9.37404 15.155 9.38599C14.955 9.46699 14.781 9.58599 14.591 9.67899C14.483 9.73692 14.3655 9.77486 14.244 9.79099C14.1715 9.80049 14.0978 9.78721 14.0331 9.75299C13.9684 9.71877 13.916 9.6653 13.883 9.59998C13.8263 9.51287 13.792 9.41313 13.7831 9.30957C13.7742 9.20601 13.791 9.10183 13.8321 9.00635C13.8732 8.91086 13.9372 8.82699 14.0185 8.76221C14.0997 8.69742 14.1958 8.65372 14.298 8.63498C14.3452 8.62239 14.395 8.62382 14.4413 8.6391C14.4877 8.65437 14.5286 8.68282 14.559 8.72098C14.6447 8.82477 14.7372 8.92266 14.836 9.01398C14.8462 9.02617 14.859 9.036 14.8734 9.04272C14.8879 9.04945 14.9036 9.05292 14.9195 9.05292C14.9354 9.05292 14.9512 9.04945 14.9656 9.04272C14.98 9.036 14.9928 9.02617 15.003 9.01398C15.069 8.95698 15.128 8.894 15.189 8.832C15.236 8.78019 15.2911 8.73629 15.352 8.702C15.3752 8.68619 15.4015 8.67543 15.4291 8.67044C15.4567 8.66545 15.4851 8.66634 15.5123 8.67303C15.5396 8.67973 15.5651 8.6921 15.5873 8.70932C15.6095 8.72654 15.6278 8.74822 15.641 8.77298C15.697 8.85698 15.747 8.945 15.797 9.034C15.857 9.14559 15.9262 9.25196 16.004 9.35199C16.0216 9.38731 16.0472 9.41803 16.0787 9.44174C16.1103 9.46545 16.1469 9.4815 16.1857 9.48859C16.2246 9.49567 16.2645 9.49361 16.3024 9.48257C16.3403 9.47154 16.3751 9.45181 16.404 9.42499C16.683 9.25499 16.941 9.053 17.223 8.888C17.2863 8.84997 17.3533 8.81845 17.423 8.79398C17.4449 8.78221 17.4693 8.776 17.4942 8.77588C17.5191 8.77576 17.5436 8.78173 17.5656 8.79327C17.5876 8.80482 17.6064 8.82161 17.6205 8.84213C17.6345 8.86265 17.6432 8.88628 17.646 8.91098C17.6636 8.96776 17.6737 9.02661 17.676 9.086C17.6827 9.264 17.6893 9.44199 17.696 9.62C17.696 9.74 17.701 9.74 17.814 9.728C17.9551 9.71005 18.0925 9.66987 18.221 9.60898C18.3989 9.53527 18.5927 9.5081 18.784 9.53C18.8273 9.53206 18.8691 9.54641 18.9045 9.57138C18.94 9.59635 18.9675 9.63091 18.984 9.67099C19.032 9.77099 19.084 9.87098 19.133 9.97098C19.154 10.0205 19.1918 10.061 19.2397 10.0853C19.2877 10.1097 19.3427 10.1163 19.395 10.104C19.5131 10.0831 19.627 10.0429 19.732 9.98499C19.944 9.87999 19.98 9.89598 20.07 10.118C20.1461 10.3338 20.2026 10.556 20.239 10.782C20.2612 10.9014 20.292 11.019 20.331 11.134C20.351 11.1971 20.3886 11.2532 20.4395 11.2955C20.4904 11.3379 20.5523 11.3648 20.618 11.373C20.7447 11.3902 20.8692 11.4214 20.989 11.466C21.2938 11.598 21.534 11.8454 21.657 12.154C21.692 12.228 21.725 12.303 21.757 12.376C21.77 12.403 21.781 12.44 21.816 12.441C21.851 12.442 21.868 12.403 21.885 12.375C21.9263 12.2857 21.9597 12.193 21.985 12.098V11.826C21.8984 11.5417 21.8447 11.2485 21.825 10.952ZM11.9 10.218C11.7175 10.2395 11.5329 10.205 11.3705 10.1191C11.2081 10.0333 11.0756 9.90004 10.9907 9.73715C10.9057 9.57427 10.8723 9.38941 10.8948 9.20709C10.9174 9.02477 10.9948 8.85361 11.1169 8.71631C11.2389 8.579 11.3998 8.48205 11.5782 8.43829C11.7566 8.39454 11.9442 8.40605 12.1159 8.47131C12.2876 8.53658 12.4354 8.6525 12.5398 8.80371C12.6441 8.95492 12.7 9.13429 12.7 9.31799C12.7126 9.54326 12.6355 9.76435 12.4856 9.93298C12.3357 10.1016 12.1252 10.2041 11.9 10.218ZM13.863 10.461H13.905C14.159 10.475 14.175 10.491 14.217 10.743C14.2419 10.8909 14.2898 11.0339 14.359 11.167C14.3683 11.1909 14.383 11.2123 14.4019 11.2296C14.4208 11.2469 14.4434 11.2598 14.468 11.267C14.759 11.342 15.042 11.444 15.326 11.54C15.6012 11.63 15.8896 11.6729 16.179 11.667C16.2939 11.6654 16.406 11.7028 16.497 11.773C16.6961 11.9179 16.8864 12.0745 17.067 12.242C17.1003 12.2724 17.1277 12.3087 17.148 12.349C17.1641 12.3745 17.1701 12.4051 17.1649 12.4349C17.1598 12.4646 17.1438 12.4914 17.12 12.51C16.9984 12.6131 16.8553 12.6876 16.701 12.728C16.6665 12.7339 16.6311 12.7306 16.5983 12.7184C16.5655 12.7063 16.5364 12.6858 16.514 12.659C16.3719 12.5072 16.2874 12.3105 16.275 12.103C16.259 11.968 16.258 11.969 16.124 11.963C15.624 11.941 15.124 11.943 14.619 11.898C14.2036 11.8845 13.7953 11.7865 13.419 11.61C13.2852 11.5391 13.1652 11.4446 13.065 11.331C13.0087 11.2737 12.9758 11.1974 12.9728 11.1171C12.9699 11.0368 12.997 10.9583 13.049 10.897C13.1364 10.7609 13.2569 10.6493 13.3994 10.5727C13.5418 10.4961 13.7013 10.4569 13.863 10.459V10.461Z" fill="black"/>
</svg>
