<svg width="24" height="24" viewBox="0 0 24 24" fill="none" xmlns="http://www.w3.org/2000/svg">
<path fill-rule="evenodd" clip-rule="evenodd" d="M16.5 5.5C16.5 4.89227 16.3769 4.29084 16.1381 3.73198C15.8994 3.17312 15.5499 2.66842 15.1107 2.24832C14.6716 1.82821 14.1519 1.50141 13.583 1.28762C13.0141 1.07384 12.4078 0.977499 11.8007 1.00442C11.1936 1.03133 10.5982 1.18095 10.0504 1.44424C9.5027 1.70753 9.01397 2.07904 8.61373 2.53636C8.21349 2.99368 7.91002 3.52733 7.72164 4.10513C7.57455 4.55631 7.5 5.0271 7.5 5.5H5.5V7.5C4.89227 7.5 4.29084 7.6231 3.73198 7.86187C3.17312 8.10064 2.66842 8.45014 2.24832 8.88928C1.82821 9.32843 1.50141 9.84811 1.28762 10.417C1.07384 10.9859 0.977499 11.5922 1.00442 12.1993C1.03133 12.8064 1.18095 13.4018 1.44424 13.9496C1.70753 14.4973 2.07904 14.986 2.53636 15.3863C2.99368 15.7865 3.52733 16.09 4.10513 16.2784C4.55631 16.4255 5.0271 16.5 5.5 16.5V18.5H7.5C7.5 18.9729 7.57455 19.4437 7.72164 19.8949C7.91002 20.4727 8.21349 21.0063 8.61373 21.4636C9.01397 21.921 9.5027 22.2925 10.0504 22.5558C10.5982 22.819 11.1936 22.9687 11.8007 22.9956C12.4078 23.0225 13.0141 22.9262 13.583 22.7124C14.1519 22.4986 14.6716 22.1718 15.1107 21.7517C15.5499 21.3316 15.8994 20.8269 16.1381 20.268C16.3769 19.7092 16.5 19.1077 16.5 18.5H18.5V16.5C18.9729 16.5 19.4437 16.4255 19.8949 16.2784C20.4727 16.09 21.0063 15.7865 21.4636 15.3863C21.921 14.986 22.2925 14.4973 22.5558 13.9496C22.819 13.4018 22.9687 12.8064 22.9956 12.1993C23.0225 11.5922 22.9262 10.9859 22.7124 10.417C22.4986 9.84811 22.1718 9.32843 21.7517 8.88928C21.3316 8.45014 20.8269 8.10064 20.268 7.86187C19.7092 7.6231 19.1077 7.5 18.5 7.5V5.5H16.5ZM5.5 14.3275V9.67253C5.18567 9.67254 4.8746 9.7362 4.58556 9.8597C4.29651 9.9832 4.03547 10.164 3.81818 10.3911C3.6009 10.6182 3.43187 10.887 3.3213 11.1812C3.21073 11.4755 3.1609 11.7891 3.17482 12.1031C3.18874 12.4171 3.26613 12.725 3.4023 13.0083C3.53848 13.2916 3.73063 13.5444 3.96716 13.7514C4.20369 13.9584 4.47971 14.1154 4.77855 14.2128C5.01191 14.2889 5.25541 14.3275 5.5 14.3275ZM19.2214 14.2128C18.9881 14.2889 18.7446 14.3275 18.5 14.3275V9.67253C18.8143 9.67254 19.1254 9.7362 19.4144 9.8597C19.7035 9.9832 19.9645 10.164 20.1818 10.3911C20.3991 10.6182 20.5681 10.887 20.6787 11.1812C20.7893 11.4755 20.8391 11.7891 20.8252 12.1031C20.8113 12.4171 20.7339 12.725 20.5977 13.0083C20.4615 13.2916 20.2694 13.5444 20.0328 13.7514C19.7963 13.9584 19.5203 14.1154 19.2214 14.2128ZM14.3275 18.5H9.67253C9.67253 18.7446 9.71109 18.9881 9.78717 19.2214C9.88461 19.5203 10.0416 19.7963 10.2486 20.0328C10.4556 20.2694 10.7084 20.4615 10.9917 20.5977C11.275 20.7339 11.5829 20.8113 11.8969 20.8252C12.2109 20.8391 12.5245 20.7893 12.8188 20.6787C13.113 20.5681 13.3818 20.3991 13.6089 20.1818C13.836 19.9645 14.0168 19.7035 14.1403 19.4144C14.2638 19.1254 14.3275 18.8143 14.3275 18.5ZM9.78717 4.77855C9.71109 5.01191 9.67253 5.25541 9.67253 5.5H14.3275C14.3275 5.18567 14.2638 4.8746 14.1403 4.58556C14.0168 4.29651 13.836 4.03547 13.6089 3.81818C13.3818 3.6009 13.113 3.43187 12.8188 3.3213C12.5245 3.21073 12.2109 3.1609 11.8969 3.17482C11.5829 3.18874 11.275 3.26613 10.9917 3.4023C10.7084 3.53848 10.4556 3.73063 10.2486 3.96716C10.0416 4.20369 9.88461 4.47971 9.78717 4.77855ZM8.83333 7.5H9.66667V8.33333H8.83333V7.5ZM8.83333 8.83333H9.66667V9.66667H8.83333V8.83333ZM8.33333 7.5V8.33333H7.5V7.5H8.33333ZM8.33333 8.83333H7.5V9.66667H8.33333V8.83333ZM11 8.83333H10.1667V9.66667H11V8.83333ZM11 8.33333H10.1667V7.5H11V8.33333ZM7.5 11H8.33333V10.1667H7.5V11ZM8.83333 11H9.66667V10.1667H8.83333V11ZM10.1667 11H11V10.1667H10.1667V11ZM13 13V13.8333H13.8333V13H13ZM13 14.3333V15.1667H13.8333V14.3333H13ZM13 15.6667V16.5H13.8333V15.6667H13ZM13 11V10.1667H13.8333V11H13ZM7.5 13V13.8333H8.33333V13H7.5ZM8.83333 13V13.8333H9.66667V13H8.83333ZM10.1667 13V13.8333H11V13H10.1667ZM11 14.3333H10.1667V15.1667H11V14.3333ZM11 15.6667H10.1667V16.5H11V15.6667ZM16.5 10.1667V11H15.6667V10.1667H16.5ZM15.1667 10.1667V11H14.3333V10.1667H15.1667ZM15.6667 13H16.5V13.8333H15.6667V13ZM14.3333 13H15.1667V13.8333H14.3333V13ZM13 9.66667H13.8333V8.83333H13V9.66667ZM13 8.33333H13.8333V7.5H13V8.33333ZM14.3333 7.5H15.1667V8.33333H14.3333V7.5ZM14.3333 8.83333H15.1667V9.66667H14.3333V8.83333ZM16.5 8.83333H15.6667V9.66667H16.5V8.83333ZM15.6667 8.33333H16.5V7.5H15.6667V8.33333ZM15.1667 14.3333H14.3333V15.1667H15.1667V14.3333ZM15.6667 14.3333H16.5V15.1667H15.6667V14.3333ZM15.1667 15.6667H14.3333V16.5H15.1667V15.6667ZM15.6667 16.5V15.6667H16.5V16.5H15.6667ZM8.83333 14.3333H9.66667V15.1667H8.83333V14.3333ZM8.33333 14.3333H7.5V15.1667H8.33333V14.3333ZM7.5 15.6667H8.33333V16.5H7.5V15.6667ZM8.83333 15.6667H9.66667V16.5H8.83333V15.6667Z" fill="black"/>
</svg>
