<svg xmlns="http://www.w3.org/2000/svg" width="24" height="24" viewBox="0 0 24 24">
  <g id="adwo" transform="translate(-329 -407)">
    <rect id="Rectangle_149" data-name="Rectangle 149" width="24" height="24" transform="translate(329 407)" fill="none"/>
    <path id="Path_551" data-name="Path 551" d="M-766.228,386.7c1.743-.743,2.8-1.724,2.8-2.8,0-2.32-4.925-4.2-11-4.2s-11,1.88-11,4.2c0,1.076,1.06,2.057,2.8,2.8-1.743.743-2.8,1.724-2.8,2.8,0,2.319,4.925,4.2,11,4.2s11-1.881,11-4.2C-763.424,388.423-764.485,387.442-766.228,386.7Zm-17.054-2.611c0-1.092,3.054-2.61,8.858-2.61s8.857,1.518,8.857,2.61-1.585,1.958-3.263,1.958a4.335,4.335,0,0,1-2.8-1.1,3.83,3.83,0,0,1-2.8,1.1,3.827,3.827,0,0,1-2.8-1.1,4.339,4.339,0,0,1-2.8,1.1C-781.7,386.046-783.282,385.181-783.282,384.088Zm12.4,2.611-.75.466-.75-.466.75-.467Zm-5.594,0-.75.466-.75-.466.75-.467Zm2.047,5.221c-5.8,0-8.858-1.518-8.858-2.611s1.585-1.958,3.264-1.958a4.344,4.344,0,0,1,2.8,1.1,3.831,3.831,0,0,1,2.8-1.1,3.834,3.834,0,0,1,2.8,1.1,4.34,4.34,0,0,1,2.8-1.1c1.678,0,3.263.866,3.263,1.958S-768.621,391.92-774.424,391.92Z" transform="translate(1115.424 32.301)"/>
  </g>
</svg>
