<svg width="24" height="24" viewBox="0 0 24 24" fill="none" xmlns="http://www.w3.org/2000/svg">
<path d="M20.196 12.001C21.939 11.258 22.996 10.277 22.996 9.20099C22.996 6.88099 18.071 5.00101 11.996 5.00101C5.92103 5.00101 0.996033 6.88099 0.996033 9.20099C0.996033 10.277 2.05602 11.258 3.79602 12.001C2.05302 12.744 0.996033 13.725 0.996033 14.801C0.996033 17.12 5.92103 19.001 11.996 19.001C18.071 19.001 22.996 17.12 22.996 14.801C23 13.724 21.939 12.743 20.196 12.001ZM3.14203 9.38998C3.14203 8.29798 6.196 6.78 12 6.78C17.804 6.78 20.857 8.29798 20.857 9.38998C20.857 10.482 19.272 11.348 17.594 11.348C16.5593 11.3273 15.5661 10.9371 14.794 10.248C14.4257 10.6108 13.9877 10.8954 13.5065 11.0844C13.0253 11.2735 12.5108 11.3631 11.994 11.348C11.4772 11.3633 10.9626 11.2737 10.4814 11.0847C10.0001 10.8956 9.56223 10.611 9.19403 10.248C8.42174 10.9368 7.42863 11.327 6.39398 11.348C4.72398 11.347 3.14203 10.483 3.14203 9.38998ZM15.542 12.001L14.792 12.467L14.042 12.001L14.792 11.534L15.542 12.001ZM9.948 12.001L9.198 12.467L8.448 12.001L9.198 11.534L9.948 12.001ZM11.995 17.222C6.19499 17.222 3.13702 15.704 3.13702 14.611C3.13702 13.518 4.722 12.653 6.401 12.653C7.43556 12.6745 8.42846 13.0645 9.20099 13.753C9.56933 13.3902 10.0073 13.1057 10.4885 12.9167C10.9697 12.7276 11.4842 12.6379 12.001 12.653C12.5178 12.6381 13.0322 12.7279 13.5134 12.9169C13.9946 13.1059 14.4326 13.3903 14.801 13.753C15.5734 13.0642 16.5664 12.6741 17.601 12.653C19.279 12.653 20.864 13.519 20.864 14.611C20.864 15.703 17.803 17.221 12 17.221L11.995 17.222Z" fill="black"/>
</svg>
