<svg width="24" height="24" viewBox="0 0 24 24" fill="none" xmlns="http://www.w3.org/2000/svg">
<path d="M19.052 12C19.9759 11.7108 20.8097 11.1882 21.4726 10.4827C22.1355 9.77717 22.6053 8.91253 22.8364 7.97239C23.0675 7.03225 23.0522 6.04844 22.792 5.11595C22.5317 4.18345 22.0353 3.33384 21.3507 2.64927C20.6661 1.9647 19.8166 1.46831 18.8841 1.20805C17.9516 0.947791 16.9677 0.932496 16.0276 1.16361C15.0874 1.39473 14.2228 1.86444 13.5173 2.52738C12.8117 3.19033 12.2891 4.02403 12 4.94798C11.7109 4.02403 11.1882 3.19033 10.4827 2.52738C9.77715 1.86444 8.91255 1.39473 7.97241 1.16361C7.03227 0.932496 6.0484 0.947791 5.1159 1.20805C4.18341 1.46831 3.33383 1.9647 2.64926 2.64927C1.96469 3.33384 1.46829 4.18345 1.20803 5.11595C0.947777 6.04844 0.932452 7.03225 1.16357 7.97239C1.39469 8.91253 1.86443 9.77717 2.52737 10.4827C3.19031 11.1882 4.02405 11.7108 4.94799 12C4.02405 12.2891 3.19031 12.8117 2.52737 13.5173C1.86443 14.2228 1.39469 15.0874 1.16357 16.0276C0.932452 16.9677 0.947777 17.9516 1.20803 18.8841C1.46829 19.8166 1.96469 20.6662 2.64926 21.3507C3.33383 22.0353 4.18341 22.5317 5.1159 22.792C6.0484 23.0522 7.03227 23.0675 7.97241 22.8364C8.91255 22.6053 9.77715 22.1356 10.4827 21.4726C11.1882 20.8097 11.7109 19.9759 12 19.052C12.2891 19.9759 12.8117 20.8097 13.5173 21.4726C14.2228 22.1356 15.0874 22.6053 16.0276 22.8364C16.9677 23.0675 17.9516 23.0522 18.8841 22.792C19.8166 22.5317 20.6661 22.0353 21.3507 21.3507C22.0353 20.6662 22.5317 19.8166 22.792 18.8841C23.0522 17.9516 23.0675 16.9677 22.8364 16.0276C22.6053 15.0874 22.1355 14.2228 21.4726 13.5173C20.8097 12.8117 19.9759 12.2891 19.052 12ZM17.371 20.563C16.8245 20.5634 16.287 20.4233 15.8102 20.1562C15.3334 19.8891 14.9333 19.504 14.6481 19.0378C14.363 18.5715 14.2025 18.0398 14.182 17.4937C14.1615 16.9476 14.2816 16.4053 14.531 15.919L13.731 15.119L11.998 16.852L10.265 15.119L9.46499 15.919C9.81209 16.5966 9.90581 17.3759 9.72927 18.1165C9.55274 18.8571 9.11755 19.5103 8.5021 19.9584C7.88665 20.4066 7.13142 20.6202 6.3724 20.5609C5.61339 20.5016 4.90049 20.1732 4.36215 19.6349C3.82381 19.0965 3.49539 18.3836 3.43606 17.6246C3.37674 16.8656 3.59041 16.1103 4.03857 15.4949C4.48673 14.8794 5.13994 14.4442 5.88052 14.2677C6.6211 14.0911 7.40039 14.1849 8.078 14.532L8.87799 13.732L7.14499 11.999L8.87799 10.266L8.078 9.46598C7.39939 9.81403 6.61877 9.90829 5.87683 9.73173C5.13488 9.55517 4.48038 9.11944 4.03128 8.50303C3.58218 7.88662 3.368 7.13008 3.42733 6.36973C3.48667 5.60938 3.8156 4.89522 4.35488 4.35594C4.89417 3.81665 5.60833 3.48766 6.36868 3.42832C7.12903 3.36899 7.88557 3.58323 8.50198 4.03233C9.11839 4.48143 9.55415 5.13591 9.73071 5.87785C9.90727 6.61979 9.81304 7.40041 9.46499 8.07902L10.265 8.87901L11.998 7.14598L13.731 8.87901L14.531 8.07902C14.1829 7.40041 14.0887 6.61979 14.2653 5.87785C14.4418 5.13591 14.8776 4.48143 15.494 4.03233C16.1104 3.58323 16.8669 3.36899 17.6273 3.42832C18.3876 3.48766 19.1018 3.81665 19.6411 4.35594C20.1804 4.89522 20.5093 5.60938 20.5686 6.36973C20.628 7.13008 20.4138 7.88662 19.9647 8.50303C19.5156 9.11944 18.8611 9.55517 18.1191 9.73173C17.3772 9.90829 16.5966 9.81403 15.918 9.46598L15.118 10.266L16.851 11.999L15.118 13.732L15.918 14.532C16.3477 14.3119 16.8217 14.1921 17.3044 14.1817C17.7871 14.1714 18.2658 14.2706 18.7045 14.4721C19.1433 14.6736 19.5306 14.972 19.8373 15.3448C20.144 15.7177 20.3621 16.1553 20.4752 16.6246C20.5883 17.094 20.5934 17.5829 20.4901 18.0545C20.3869 18.5261 20.1779 18.9681 19.8791 19.3473C19.5802 19.7264 19.1992 20.0329 18.7648 20.2434C18.3303 20.454 17.8538 20.5633 17.371 20.563Z" fill="black"/>
</svg>
