<svg width="24" height="24" viewBox="0 0 24 24" fill="none" xmlns="http://www.w3.org/2000/svg">
<path d="M15.534 19.863C16.354 19.553 16.8579 19.136 16.8579 18.677C16.8579 18.137 16.158 17.654 15.07 17.337C16.161 17.02 16.8579 16.537 16.8579 15.997C16.8579 15.377 15.94 14.833 14.558 14.528C14.758 14.465 14.958 14.394 15.138 14.317C18.319 12.968 18.911 9.23002 16.583 5.88102C14.255 2.53202 8.24998 0.497036 8.06398 1.10704C7.87798 1.71704 14.2359 5.50203 13.5139 9.34803C12.7919 13.194 6.48901 10.322 6.02101 12.577C5.80601 13.613 7.04204 14.348 8.74904 14.71C7.76104 15.026 7.13893 15.485 7.13893 15.996C7.13893 16.536 7.83902 17.019 8.92702 17.336C7.83602 17.653 7.13893 18.136 7.13893 18.676C7.13893 19.135 7.63903 19.552 8.46303 19.862C7.46303 20.193 6.84096 20.662 6.84096 21.183C6.84096 22.183 9.14899 22.998 11.996 22.998C14.843 22.998 17.151 22.185 17.151 21.183C17.155 20.664 16.532 20.194 15.534 19.863Z" fill="black"/>
</svg>
