<svg xmlns="http://www.w3.org/2000/svg" width="24" height="24" viewBox="0 0 24 24">
  <g id="akofena" transform="translate(-89 -263)">
    <rect id="Rectangle_149" data-name="Rectangle 149" width="24" height="24" transform="translate(89 263)" fill="none"/>
    <path id="Path_243" data-name="Path 243" d="M-343.921,635.014c3.133.206,5.261,2.706,6.717,4.308-.247-3.548-2.811-7.7-6.417-7.749-1.546-.022-3.154,1.346-4.583,3.09-1.428-1.744-3.037-3.112-4.583-3.09-3.607.051-6.17,4.2-6.417,7.749,1.456-1.6,3.585-4.1,6.717-4.308a4.66,4.66,0,0,1,3.132,1.18c-.325.467-.636.939-.927,1.4a2.118,2.118,0,0,0-2.571,1.094,2.056,2.056,0,0,0,.6,2.324l-.129.238c-.164.3-.364.693-.574,1.118a1.732,1.732,0,0,0-1.875.979,1.722,1.722,0,0,0,.533,1.977c-.061.159-.11.3-.141.4-.237.794-.423,1.8.113,1.844s.8-.519.97-1.278c.032-.139.072-.311.124-.509a1.927,1.927,0,0,0,.214.013,1.7,1.7,0,0,0,1.6-1,1.732,1.732,0,0,0-.606-2.036c.2-.384.431-.792.7-1.227a2.127,2.127,0,0,0,2.641-1.075,2.024,2.024,0,0,0-.43-2.152c.29-.363.595-.717.912-1.052.317.334.622.689.912,1.052a2.024,2.024,0,0,0-.43,2.152,2.127,2.127,0,0,0,2.641,1.075c.267.435.5.843.7,1.227a1.732,1.732,0,0,0-.606,2.036,1.7,1.7,0,0,0,1.6,1,1.923,1.923,0,0,0,.214-.013c.052.2.092.37.124.509.173.759.434,1.318.97,1.278s.349-1.049.113-1.844c-.031-.105-.08-.242-.141-.4a1.722,1.722,0,0,0,.533-1.977,1.731,1.731,0,0,0-1.875-.979c-.21-.425-.41-.815-.574-1.118l-.129-.238a2.056,2.056,0,0,0,.6-2.324,2.118,2.118,0,0,0-2.571-1.094c-.291-.463-.6-.935-.927-1.4A4.66,4.66,0,0,1-343.921,635.014Zm2.813-1.248h0a.6.6,0,0,1,.63.568h0a.6.6,0,0,1-.568.63h0a.6.6,0,0,1-.63-.568h0A.6.6,0,0,1-341.108,633.766Zm-1.661-1.115h0a.7.7,0,0,1,.735.663h0a.7.7,0,0,1-.663.735h0a.7.7,0,0,1-.735-.663h0A.7.7,0,0,1-342.769,632.651Zm-11.963,1.745h0a.6.6,0,0,1-.63.568h0a.6.6,0,0,1-.568-.63h0a.6.6,0,0,1,.63-.568h0A.6.6,0,0,1-354.732,634.4Zm1.755-1.01h0a.7.7,0,0,1-.735.663h0a.7.7,0,0,1-.663-.735h0a.7.7,0,0,1,.735-.663h0A.7.7,0,0,1-352.976,633.386Zm1.892.2h0a.6.6,0,0,1-.63.568h0a.6.6,0,0,1-.568-.63h0a.6.6,0,0,1,.63-.568h0A.6.6,0,0,1-351.084,633.586ZM-352.34,644.4a.787.787,0,0,1-1.057.312.787.787,0,0,1-.509-.977.787.787,0,0,1,1.057-.312A.787.787,0,0,1-352.34,644.4Zm8.782-.977a.787.787,0,0,1,1.057.312.787.787,0,0,1-.509.977.787.787,0,0,1-1.057-.312h0A.787.787,0,0,1-343.559,643.427Zm-1.135-9.273h0a.6.6,0,0,1-.63-.568h0a.6.6,0,0,1,.568-.63h0a.6.6,0,0,1,.63.568h0A.6.6,0,0,1-344.693,634.154Z" transform="translate(449.204 -364.573)"/>
  </g>
</svg>
