<svg width="24" height="24" viewBox="0 0 24 24" fill="none" xmlns="http://www.w3.org/2000/svg">
<path d="M16.283 7.44124C19.416 7.64724 21.544 10.1473 23 11.7493C22.753 8.20129 20.189 4.04926 16.583 4.00026C15.037 3.97826 13.429 5.34629 12 7.09029C10.572 5.34629 8.96302 3.97826 7.41702 4.00026C3.81002 4.05126 1.247 8.20028 1 11.7493C2.456 10.1493 4.58501 7.64924 7.71701 7.44124C8.87111 7.43316 9.98714 7.85362 10.849 8.62123C10.524 9.08823 10.213 9.56026 9.922 10.0213C9.43368 9.86053 8.90359 9.8829 8.43054 10.0842C7.95749 10.2855 7.57379 10.6519 7.35101 11.1153C7.19503 11.5167 7.16902 11.9569 7.27667 12.3739C7.38433 12.7909 7.62022 13.1636 7.95102 13.4393L7.82202 13.6773C7.65802 13.9773 7.45802 14.3702 7.24802 14.7952C6.87124 14.7284 6.48292 14.7882 6.14371 14.9653C5.8045 15.1424 5.53349 15.4269 5.37302 15.7742C5.23858 16.1174 5.21781 16.4947 5.31375 16.8506C5.40969 17.2065 5.61728 17.5221 5.90601 17.7512C5.84501 17.9102 5.79601 18.0513 5.76501 18.1513C5.52801 18.9453 5.34202 19.9513 5.87802 19.9953C6.41402 20.0393 6.67802 19.4762 6.84802 18.7172C6.88002 18.5782 6.92002 18.4063 6.97202 18.2083C7.04305 18.2166 7.11449 18.2209 7.186 18.2213C7.52165 18.2312 7.85273 18.1415 8.13748 17.9636C8.42223 17.7856 8.64789 17.5273 8.78601 17.2213C8.92541 16.8628 8.94151 16.4681 8.83179 16.0994C8.72206 15.7308 8.49276 15.4092 8.18002 15.1853C8.38002 14.8013 8.611 14.3933 8.88 13.9583C9.37519 14.1379 9.91942 14.1274 10.4073 13.9289C10.8952 13.7303 11.292 13.3577 11.521 12.8833C11.6638 12.5212 11.6993 12.1256 11.623 11.7439C11.5467 11.3622 11.362 11.0107 11.091 10.7313C11.381 10.3683 11.686 10.0143 12.003 9.67928C12.32 10.0133 12.625 10.3683 12.915 10.7313C12.644 11.0107 12.4593 11.3622 12.383 11.7439C12.3068 12.1256 12.3422 12.5212 12.485 12.8833C12.714 13.3577 13.1108 13.7303 13.5987 13.9289C14.0866 14.1274 14.6308 14.1379 15.126 13.9583C15.393 14.3933 15.626 14.8013 15.826 15.1853C15.5133 15.4092 15.2839 15.7308 15.1742 16.0994C15.0645 16.4681 15.0806 16.8628 15.22 17.2213C15.3581 17.5273 15.5838 17.7856 15.8685 17.9636C16.1533 18.1415 16.4844 18.2312 16.82 18.2213C16.8915 18.2209 16.963 18.2166 17.034 18.2083C17.086 18.4083 17.126 18.5782 17.158 18.7172C17.331 19.4762 17.592 20.0353 18.128 19.9953C18.664 19.9553 18.477 18.9463 18.241 18.1513C18.21 18.0463 18.161 17.9092 18.1 17.7512C18.3887 17.5221 18.5963 17.2065 18.6923 16.8506C18.7882 16.4947 18.7674 16.1174 18.633 15.7742C18.4727 15.4267 18.2017 15.1422 17.8624 14.965C17.5232 14.7879 17.1348 14.7282 16.758 14.7952C16.548 14.3702 16.348 13.9803 16.184 13.6773L16.055 13.4393C16.3858 13.1636 16.6217 12.7909 16.7293 12.3739C16.837 11.9569 16.811 11.5167 16.655 11.1153C16.4322 10.6519 16.0485 10.2855 15.5755 10.0842C15.1025 9.8829 14.5723 9.86053 14.084 10.0213C13.793 9.55826 13.484 9.08623 13.157 8.62123C14.0173 7.85501 15.131 7.43464 16.283 7.44124ZM19.096 6.19325C19.2549 6.18509 19.4105 6.24031 19.5286 6.34682C19.6467 6.45333 19.7177 6.6024 19.726 6.76125C19.7342 6.9201 19.6789 7.07573 19.5724 7.19387C19.4659 7.312 19.3169 7.38298 19.158 7.39125C18.9992 7.39942 18.8436 7.3442 18.7254 7.23769C18.6073 7.13118 18.5363 6.98211 18.528 6.82326C18.5198 6.66441 18.5751 6.50884 18.6816 6.3907C18.7881 6.27257 18.9372 6.20153 19.096 6.19325ZM17.435 5.07826C17.6204 5.06874 17.802 5.13325 17.9398 5.25759C18.0776 5.38192 18.1604 5.55591 18.17 5.74129C18.1795 5.92667 18.1151 6.10822 17.9907 6.24605C17.8664 6.38388 17.6924 6.46671 17.507 6.47627C17.3216 6.4858 17.1401 6.42129 17.0022 6.29695C16.8644 6.17262 16.7816 5.99863 16.772 5.81325C16.7625 5.62787 16.827 5.44632 16.9513 5.30849C17.0756 5.17065 17.2496 5.08783 17.435 5.07826ZM5.47202 6.82326C5.46374 6.98211 5.39273 7.13118 5.2746 7.23769C5.15646 7.3442 5.00086 7.39942 4.84201 7.39125C4.68316 7.38298 4.53409 7.312 4.42758 7.19387C4.32107 7.07573 4.26585 6.9201 4.27402 6.76125C4.28229 6.6024 4.3533 6.45333 4.47144 6.34682C4.58957 6.24031 4.74517 6.18509 4.90402 6.19325C4.98303 6.19734 5.06043 6.21699 5.13181 6.25112C5.20318 6.28524 5.26712 6.33318 5.31992 6.39211C5.37271 6.45103 5.41332 6.51982 5.43942 6.5945C5.46553 6.66918 5.4766 6.74831 5.47202 6.82729V6.82326ZM7.22702 5.81325C7.21745 5.99863 7.13463 6.17262 6.9968 6.29695C6.85896 6.42129 6.67739 6.4858 6.492 6.47627C6.30662 6.46671 6.13263 6.38388 6.0083 6.24605C5.88397 6.10822 5.81948 5.92667 5.82901 5.74129C5.83858 5.55591 5.92137 5.38192 6.0592 5.25759C6.19704 5.13325 6.37861 5.06874 6.564 5.07826C6.65587 5.08287 6.74596 5.10553 6.82907 5.14498C6.91218 5.18442 6.9867 5.23986 7.04837 5.30812C7.11004 5.37639 7.15762 5.45613 7.18845 5.5428C7.21927 5.62948 7.23174 5.72138 7.22702 5.81325ZM9.11902 6.01326C9.11075 6.17211 9.03974 6.32118 8.9216 6.42769C8.80346 6.5342 8.64786 6.58942 8.48901 6.58126C8.33017 6.57298 8.18109 6.502 8.07458 6.38387C7.96808 6.26573 7.91285 6.1101 7.92102 5.95125C7.92929 5.7924 8.0003 5.64333 8.11844 5.53682C8.23657 5.43031 8.39214 5.37509 8.55099 5.38326C8.62973 5.38723 8.70695 5.40669 8.77817 5.44051C8.84939 5.47432 8.91322 5.52183 8.96606 5.58034C9.01891 5.63885 9.05971 5.70723 9.08612 5.78151C9.11253 5.85579 9.12306 5.93453 9.11902 6.01326ZM7.86401 16.8273C7.76375 17.0073 7.59687 17.1408 7.39923 17.1992C7.20159 17.2575 6.98896 17.236 6.80701 17.1392C6.6112 17.0754 6.44822 16.9373 6.35306 16.7547C6.2579 16.572 6.23813 16.3593 6.298 16.1622C6.39826 15.9822 6.56515 15.8487 6.76279 15.7904C6.96043 15.732 7.17306 15.7535 7.35501 15.8502C7.55082 15.9141 7.7138 16.0522 7.80896 16.2349C7.90412 16.4175 7.92389 16.6302 7.86401 16.8273ZM16.646 15.8502C16.828 15.7535 17.0406 15.732 17.2383 15.7904C17.4359 15.8487 17.6027 15.9822 17.703 16.1622C17.7629 16.3593 17.7431 16.572 17.6479 16.7547C17.5528 16.9373 17.3898 17.0754 17.194 17.1392C17.012 17.236 16.7994 17.2575 16.6018 17.1992C16.4041 17.1408 16.2373 17.0073 16.137 16.8273C16.0783 16.6309 16.0985 16.4193 16.1934 16.2376C16.2883 16.0559 16.4503 15.9183 16.645 15.8543L16.646 15.8502ZM15.511 6.57729C15.3522 6.58546 15.1966 6.53017 15.0784 6.42366C14.9603 6.31715 14.8893 6.16808 14.881 6.00923C14.8728 5.85038 14.9281 5.69481 15.0346 5.57668C15.1411 5.45854 15.2902 5.38756 15.449 5.37929C15.6079 5.37112 15.7635 5.42634 15.8816 5.53285C15.9997 5.63936 16.0707 5.78844 16.079 5.94728C16.0836 6.02626 16.0725 6.10533 16.0464 6.18001C16.0203 6.25469 15.9797 6.32348 15.9269 6.3824C15.8741 6.44133 15.8102 6.48927 15.7388 6.52339C15.6675 6.55752 15.59 6.57717 15.511 6.58126V6.57729Z" fill="black"/>
</svg>
