<svg width="24" height="24" viewBox="0 0 24 24" fill="none" xmlns="http://www.w3.org/2000/svg">
<path d="M20.39 12C20.416 11.97 23.417 8.55501 21.158 4.69201C18.89 0.81201 13.444 1.001 13.444 1.001C13.444 1.001 18.2669 4.91301 17.6439 7.65901C17.0209 10.405 11.144 12.21 10.599 9.617C10.054 7.024 13.0239 5.97901 13.0239 5.97901C12.333 5.57578 11.5452 5.36856 10.7452 5.37966C9.94529 5.39076 9.16353 5.61975 8.48401 6.042C7.77001 6.44625 7.154 7.0032 6.68018 7.67306C6.20635 8.34291 5.88631 9.10913 5.74292 9.917C4.76239 10.067 3.80263 10.3304 2.88293 10.702C2.63463 10.8218 2.42249 11.0052 2.26794 11.2335C2.11339 11.4618 2.02192 11.727 2.00293 12.002C2.02192 12.2771 2.11339 12.5422 2.26794 12.7705C2.42249 12.9988 2.63463 13.1822 2.88293 13.302C3.80268 13.6735 4.76242 13.9369 5.74292 14.087C5.88625 14.8949 6.20634 15.6612 6.68018 16.331C7.15401 17.0009 7.76996 17.5578 8.48401 17.962C9.16353 18.3842 9.94529 18.6133 10.7452 18.6244C11.5452 18.6355 12.333 18.4282 13.0239 18.025C13.0239 18.025 10.058 16.98 10.599 14.387C11.14 11.794 17.0169 13.599 17.6439 16.345C18.2709 19.091 13.444 23.003 13.444 23.003C13.444 23.003 18.89 23.192 21.158 19.312C23.417 15.445 20.417 12.03 20.39 12Z" fill="black"/>
</svg>
