<svg xmlns="http://www.w3.org/2000/svg" width="24" height="24" viewBox="0 0 24 24">
  <g id="akoko-nan" transform="translate(-89 -215)">
    <rect id="Rectangle_149" data-name="Rectangle 149" width="24" height="24" transform="translate(89 215)" fill="none"/>
    <path id="Path_170" data-name="Path 170" d="M-1348.757-188.312c.026-.03,3.027-3.445.768-7.308-2.268-3.88-7.714-3.691-7.714-3.691s4.823,3.912,4.2,6.658-6.5,4.551-7.045,1.958,2.425-3.638,2.425-3.638a4.4,4.4,0,0,0-4.54.063,5.572,5.572,0,0,0-2.741,3.875,12.8,12.8,0,0,0-2.86.785,1.563,1.563,0,0,0-.88,1.3h0a1.563,1.563,0,0,0,.88,1.3,12.818,12.818,0,0,0,2.86.785,5.571,5.571,0,0,0,2.741,3.875,4.4,4.4,0,0,0,4.54.063s-2.966-1.045-2.425-3.638,6.418-.788,7.045,1.958-4.2,6.658-4.2,6.658,5.446.189,7.714-3.691C-1345.73-184.867-1348.73-188.282-1348.757-188.312Z" transform="translate(1458.147 415.312)"/>
  </g>
</svg>
