<svg width="24" height="24" viewBox="0 0 24 24" fill="none" xmlns="http://www.w3.org/2000/svg">
<path d="M12.0001 23L10.9101 21.942C10.3731 21.423 9.84201 20.922 9.33001 20.442C9.04334 20.172 8.76338 19.907 8.49004 19.647L8.41912 19.58C4.00412 15.429 0.81911 12.429 1.00811 7.92902C1.17111 4.07702 3.91907 1.03503 7.26507 1.00403H7.31011C8.23901 1.01536 9.15119 1.25227 9.96819 1.6944C10.7852 2.13652 11.4825 2.7706 12.0001 3.54202C12.5175 2.77068 13.2146 2.13664 14.0314 1.69452C14.8483 1.2524 15.7603 1.01544 16.689 1.00403H16.7241C20.0791 1.03503 22.824 4.07702 22.991 7.92902C23.185 12.429 19.991 15.429 15.58 19.58L15.5051 19.651C15.2371 19.906 14.9571 20.17 14.6721 20.44C14.159 20.925 13.6281 21.426 13.0881 21.948L12.0001 23ZM7.27508 2.96402C5.04208 2.98502 3.12303 5.24702 3.00603 8.00702C2.85003 11.621 5.61608 14.222 9.80608 18.158L9.88201 18.229C10.157 18.491 10.436 18.754 10.72 19.022C11.1374 19.416 11.5654 19.8224 12.0041 20.241C12.4431 19.82 12.8721 19.415 13.2901 19.02C13.5741 18.7534 13.8513 18.491 14.122 18.233L14.2021 18.158C18.3881 14.222 21.154 11.622 21.002 8.00803C20.885 5.24803 18.9661 2.98503 16.7241 2.96503H16.6981C15.6051 2.96503 14.0611 3.47301 12.9151 5.89401L12.0081 7.81003L11.101 5.89401C9.95501 3.47301 8.41105 2.96503 7.31805 2.96503L7.27508 2.96402Z" fill="black"/>
</svg>
