<svg width="24" height="24" viewBox="0 0 24 24" fill="none" xmlns="http://www.w3.org/2000/svg">
<path d="M20.485 13.977C20.485 13.977 25.051 18.708 21.885 21.877C18.719 25.046 13.985 20.483 13.985 20.483L16.301 18.164L13.701 15.564C13.1699 15.8169 12.5891 15.9481 12.001 15.9481C11.4128 15.9481 10.832 15.8169 10.301 15.564L7.70096 18.164L10.025 20.488C10.025 20.488 5.29296 25.055 2.12496 21.888C-1.04304 18.721 3.52496 13.988 3.52496 13.988L5.84996 16.313L8.44996 13.713C8.19694 13.182 8.06564 12.6012 8.06564 12.013C8.06564 11.4248 8.19694 10.844 8.44996 10.313L5.84996 7.71301L3.51596 10.024C3.51596 10.024 -1.05004 5.29301 2.11596 2.12401C5.28196 -1.04499 10.016 3.51801 10.016 3.51801L7.69096 5.84301L10.291 8.44301C10.822 8.19019 11.4028 8.059 11.991 8.059C12.5791 8.059 13.1599 8.19019 13.691 8.44301L16.291 5.84301L13.976 3.51601C13.976 3.51601 18.708 -1.04999 21.876 2.12201C25.044 5.29401 20.476 10.022 20.476 10.022L18.161 7.70001L15.561 10.3C15.814 10.831 15.9453 11.4118 15.9453 12C15.9453 12.5882 15.814 13.169 15.561 13.7L18.161 16.3L20.485 13.977Z" fill="black"/>
</svg>
