<svg width="24" height="24" viewBox="0 0 24 24" fill="none" xmlns="http://www.w3.org/2000/svg">
<path d="M16.317 12.15C18.039 12.109 20.2991 12.074 21.4021 12.136C23.3201 12.244 23.147 12.773 22.733 14.692C22.285 16.603 22.214 17.156 20.44 16.409C19.414 15.977 17.374 14.942 15.84 14.145C15.791 14.12 15.6271 14.025 15.5921 14.007C15.4093 13.9127 15.1992 13.8853 14.9984 13.9295C14.7975 13.9737 14.6184 14.0867 14.492 14.249C14.3681 14.4071 14.2998 14.6017 14.2978 14.8026C14.2958 15.0035 14.3602 15.1994 14.481 15.36C14.524 15.416 14.75 15.66 14.812 15.735C15.903 17.059 17.277 18.754 17.898 19.641C19.011 21.228 18.498 21.421 16.757 22.29C15.004 23.126 14.533 23.414 14.003 21.543C13.703 20.485 13.244 18.299 12.903 16.599C12.879 16.482 12.822 16.154 12.809 16.105C12.7624 15.9175 12.6545 15.7509 12.5026 15.6316C12.3506 15.5122 12.1633 15.4469 11.97 15.446C11.7873 15.4467 11.6095 15.5051 11.4619 15.6129C11.3143 15.7206 11.2044 15.8722 11.148 16.046C11.126 16.112 11.048 16.546 11.017 16.699C10.676 18.393 10.217 20.554 9.92403 21.605C9.39303 23.476 8.92406 23.188 7.17006 22.352C5.43206 21.484 4.91701 21.291 6.02901 19.703C6.62901 18.851 7.91804 17.252 8.98604 15.954C9.11204 15.801 9.43302 15.4249 9.46602 15.3799C9.58018 15.2198 9.63954 15.0271 9.63521 14.8305C9.63089 14.6339 9.56313 14.444 9.44203 14.289C9.33257 14.15 9.18384 14.047 9.01515 13.9935C8.84647 13.94 8.66564 13.9384 8.49605 13.989C8.41305 14.014 7.92203 14.275 7.74703 14.365C6.27603 15.124 4.49803 16.019 3.56203 16.413C1.78803 17.159 1.71706 16.607 1.26906 14.696C0.855061 12.777 0.682055 12.248 2.60005 12.14C3.60005 12.084 5.53805 12.107 7.17305 12.14C7.31505 12.14 7.71805 12.162 7.78005 12.158C7.98163 12.1451 8.17353 12.067 8.32686 11.9355C8.48019 11.804 8.58661 11.6262 8.63002 11.429C8.67666 11.2244 8.65382 11.0101 8.56508 10.8199C8.47635 10.6298 8.32679 10.4746 8.14003 10.379C8.09803 10.358 7.74702 10.205 7.61202 10.142C6.11202 9.44897 4.31806 8.60096 3.43306 8.10596C1.75106 7.16496 2.13304 6.76496 3.32704 5.21796C4.54904 3.69396 4.84903 3.22699 6.12703 4.67999C6.74603 5.37999 7.82105 6.77999 8.76705 8.02899C8.89205 8.19399 9.25002 8.70796 9.32802 8.78296C9.4688 8.9207 9.64874 9.01158 9.84316 9.04309C10.0376 9.0746 10.2369 9.04521 10.414 8.95898C10.6023 8.86583 10.7557 8.71469 10.8516 8.52783C10.9476 8.34098 10.981 8.12824 10.947 7.92096C10.939 7.87296 10.834 7.45996 10.793 7.29596C10.402 5.71096 9.96407 3.86099 9.80007 2.88599C9.47707 0.965986 10.0241 1.01895 11.9621 1.00195C13.9001 1.01995 14.447 0.966986 14.124 2.88599C13.958 3.87399 13.511 5.75897 13.116 7.35797C13.087 7.47697 12.997 7.79397 12.986 7.83698C12.9287 8.05557 12.9486 8.28725 13.0422 8.49292C13.1358 8.69859 13.2975 8.86569 13.5 8.966C13.6906 9.05886 13.9067 9.08563 14.1142 9.04218C14.3216 8.99872 14.5087 8.88747 14.646 8.72595C14.691 8.67295 14.9021 8.369 14.9721 8.276C15.9601 6.964 17.1391 5.42896 17.7981 4.67596C19.0771 3.22296 19.377 3.68999 20.598 5.21399C21.792 6.76099 22.174 7.16099 20.492 8.10199C19.562 8.62199 17.6291 9.53194 16.0871 10.2419C16.0321 10.2669 15.8151 10.358 15.7821 10.375C15.5963 10.471 15.4476 10.626 15.3595 10.8157C15.2713 11.0054 15.2487 11.219 15.2951 11.423C15.3369 11.6117 15.4363 11.7828 15.5796 11.9125C15.7229 12.0423 15.9031 12.1242 16.095 12.147C16.1689 12.1531 16.2431 12.154 16.317 12.15ZM12 9.80096C11.7111 9.80096 11.4251 9.85788 11.1582 9.96844C10.8912 10.079 10.6487 10.241 10.4444 10.4453C10.2401 10.6496 10.078 10.8921 9.96749 11.1591C9.85693 11.426 9.80007 11.7121 9.80007 12.001C9.80007 12.2899 9.85693 12.576 9.96749 12.8429C10.078 13.1098 10.2401 13.3523 10.4444 13.5566C10.6487 13.7609 10.8912 13.9229 11.1582 14.0335C11.4251 14.1441 11.7111 14.201 12 14.201C12.5835 14.201 13.1431 13.9692 13.5557 13.5566C13.9683 13.144 14.2 12.5845 14.2 12.001C14.2002 11.712 14.1434 11.4258 14.0329 11.1588C13.9224 10.8917 13.7604 10.6491 13.556 10.4447C13.3517 10.2403 13.1092 10.0782 12.8422 9.96753C12.5752 9.85691 12.289 9.80096 12 9.80096Z" fill="black"/>
</svg>
