<svg width="24" height="24" viewBox="0 0 24 24" fill="none" xmlns="http://www.w3.org/2000/svg">
<path d="M6.51703 16.717L11.217 12.002L6.50201 7.302L1.802 12.017L6.51703 16.717ZM4.15601 12.017L6.505 9.659L8.86304 12.009L6.513 14.366L4.15601 12.017Z" fill="black"/>
<path d="M6.50699 10.8337L5.33203 12.012L6.51032 13.1869L7.68528 12.0086L6.50699 10.8337Z" fill="black"/>
<path d="M11.981 11.216L16.6879 6.509L11.981 1.802L7.27393 6.509L11.981 11.216ZM9.62793 6.509L11.981 4.15601L14.3339 6.509L11.981 8.862L9.62793 6.509Z" fill="black"/>
<path d="M11.9806 5.33241L10.804 6.50903L11.9806 7.68566L13.1572 6.50903L11.9806 5.33241Z" fill="black"/>
<path d="M7.30298 17.5L12.0179 22.2L16.718 17.485L12.004 12.785L7.30298 17.5ZM14.363 17.487L12.014 19.844L9.65692 17.495L12.0059 15.138L14.363 17.487Z" fill="black"/>
<path d="M12.008 16.3157L10.833 17.494L12.0113 18.669L13.1863 17.4907L12.008 16.3157Z" fill="black"/>
<path d="M17.4999 16.697L22.1999 11.982L17.4849 7.28198L12.7849 11.997L17.4999 16.697ZM15.1379 11.997L17.4869 9.63599L19.8449 11.986L17.4949 14.343L15.1379 11.997Z" fill="black"/>
<path d="M17.4899 10.8148L16.3149 11.993L17.4932 13.168L18.6682 11.9897L17.4899 10.8148Z" fill="black"/>
<path d="M20.6391 17.476L22.9881 15.119V12.765L18.2881 17.48L23.0031 22.18V19.826L20.6391 17.476Z" fill="black"/>
<path d="M3.38104 17.507L1.03204 19.864V22.217L5.73206 17.502L1.01709 12.802V15.155L3.38104 17.507Z" fill="black"/>
<path d="M2.20392 17.509L1.0249 16.334L1.02991 18.687L2.20392 17.509Z" fill="black"/>
<path d="M1.00409 4.17505L3.36206 6.52405L1.01306 8.88205V11.235L5.71307 6.52005L0.998047 1.82007L1.00409 4.17505Z" fill="black"/>
<path d="M2.18707 6.52606L1.00806 5.35205V7.70505L2.18707 6.52606Z" fill="black"/>
<path d="M6.49396 3.38095L4.13593 1.03195H1.78296L6.49792 5.73196L11.1979 1.01697L8.84497 1.02197L6.49396 3.38095Z" fill="black"/>
<path d="M17.4759 3.36197L15.1189 1.01196L12.7649 1.01697L17.4799 5.71695L22.1799 1.00195H19.8259L17.4759 3.36197Z" fill="black"/>
<path d="M17.4739 2.185L18.6489 1.00598H16.2949L17.4739 2.185Z" fill="black"/>
<path d="M6.48688 2.20401L7.66089 1.02502L5.30786 1.03003L6.48688 2.20401Z" fill="black"/>
<path d="M22.9771 8.84296L20.6201 6.49396L22.9691 4.13596V1.78296L18.269 6.49796L22.9841 11.198L22.9771 8.84296Z" fill="black"/>
<path d="M22.987 16.295L21.812 17.4741L22.991 18.649L22.987 16.295Z" fill="black"/>
<path d="M22.9709 5.31299L21.7959 6.492L22.9749 7.66699L22.9709 5.31299Z" fill="black"/>
<path d="M4.17505 22.997L6.52405 20.6391L8.88208 22.989L11.235 22.984L6.52008 18.2841L1.82007 22.9991H4.1731L4.17505 22.997Z" fill="black"/>
<path d="M12.804 22.981H15.1569L17.507 20.624L19.864 22.973H22.217L17.502 18.2729L12.804 22.981Z" fill="black"/>
<path d="M6.52606 21.816L5.35205 22.994H7.70508L6.52606 21.816Z" fill="black"/>
<path d="M17.509 21.796L16.334 22.975H18.687L17.509 21.796Z" fill="black"/>
</svg>
