<svg width="24" height="24" viewBox="0 0 24 24" fill="none" xmlns="http://www.w3.org/2000/svg">
<path d="M17.358 12.0207C17.358 12.2527 17.1646 12.4408 16.9259 12.4408C16.6873 12.4408 16.4939 12.2527 16.4939 12.0207C16.4939 11.7887 16.6873 11.6006 16.9259 11.6006C17.1646 11.6006 17.358 11.7887 17.358 12.0207Z" fill="black"/>
<path d="M7.07395 12.4408C7.3126 12.4408 7.50604 12.2527 7.50604 12.0207C7.50604 11.7887 7.3126 11.6006 7.07395 11.6006C6.83529 11.6006 6.64185 11.7887 6.64185 12.0207C6.64185 12.2527 6.83529 12.4408 7.07395 12.4408Z" fill="black"/>
<path d="M13.6419 16.0534C13.8806 16.0534 14.074 15.8653 14.074 15.6334C14.074 15.4014 13.8806 15.2133 13.6419 15.2133C13.4033 15.2133 13.2099 15.4014 13.2099 15.6334C13.2099 15.8653 13.4033 16.0534 13.6419 16.0534Z" fill="black"/>
<path d="M10.3579 8.82814C10.5966 8.82814 10.79 8.64005 10.79 8.40805C10.79 8.17606 10.5966 7.98797 10.3579 7.98797C10.1193 7.98797 9.92585 8.17606 9.92585 8.40805C9.92585 8.64005 10.1193 8.82814 10.3579 8.82814Z" fill="black"/>
<path d="M14.074 8.40805C14.074 8.64005 13.8806 8.82814 13.6419 8.82814C13.4033 8.82814 13.2099 8.64005 13.2099 8.40805C13.2099 8.17606 13.4033 7.98797 13.6419 7.98797C13.8806 7.98797 14.074 8.17606 14.074 8.40805Z" fill="black"/>
<path d="M10.79 15.6334C10.79 15.8653 10.5966 16.0534 10.3579 16.0534C10.1193 16.0534 9.92585 15.8653 9.92585 15.6334C9.92585 15.4014 10.1193 15.2133 10.3579 15.2133C10.5966 15.2133 10.79 15.4014 10.79 15.6334Z" fill="black"/>
<path fill-rule="evenodd" clip-rule="evenodd" d="M4.62232 4.37198C4.93177 3.13347 6.92125 2.40749 8.11465 3.347C8.86609 3.9386 8.68927 5.18314 7.76092 5.18314C7.67251 5.18314 7.47348 5.1625 7.49568 5.01232C7.5462 4.67065 7.31886 4.54255 7.09782 4.54255C6.40095 4.54255 6.61239 5.96845 7.8052 5.90937C9.48508 5.82615 9.97133 3.43239 8.20306 2.40736C6.36103 1.33955 3.25195 2.40745 3.25195 5.1833C3.25195 6.67524 4.64513 7.66806 5.44489 8.11508C5.67397 8.24312 5.70907 8.5668 5.49816 8.72147L1 12.0202L5.46965 15.2986C5.67905 15.4521 5.64575 15.7714 5.41889 15.8995C4.61534 16.3533 3.25195 17.3408 3.25195 18.8167C3.25195 21.5926 6.36103 22.6605 8.20306 21.5926C9.97133 20.5676 9.48508 18.1738 7.8052 18.0906C6.61239 18.0315 6.40095 19.4575 7.09782 19.4575C7.31886 19.4575 7.5462 19.3293 7.49568 18.9877C7.47348 18.8375 7.67251 18.8169 7.76092 18.8169C8.68927 18.8169 8.86609 20.0614 8.11465 20.653C6.92125 21.5925 4.93177 20.8665 4.62232 19.628C4.39849 18.7323 4.85257 18.0619 5.45518 17.5856C6.48449 16.7719 7.95346 17.1203 9.01259 17.8972L11.9996 20.088L14.9874 17.8968C16.0464 17.1201 17.515 16.7718 18.5443 17.5852C19.1472 18.0616 19.6016 18.732 19.3777 19.628C19.0682 20.8665 17.0788 21.5925 15.8854 20.653C15.1339 20.0614 15.3107 18.8169 16.2391 18.8169C16.3275 18.8169 16.5265 18.8375 16.5043 18.9877C16.4538 19.3293 16.6811 19.4575 16.9022 19.4575C17.599 19.4575 17.3876 18.0315 16.1948 18.0906C14.5149 18.1738 14.0287 20.5676 15.7969 21.5926C17.639 22.6605 20.7481 21.5926 20.7481 18.8167C20.7481 17.3407 19.3844 16.3531 18.5809 15.8994C18.354 15.7712 18.3207 15.452 18.5301 15.2984L23 12.0202L18.5019 8.72148C18.291 8.56681 18.3261 8.24312 18.5552 8.11507C19.3549 7.66802 20.7481 6.67519 20.7481 5.1833C20.7481 2.40745 17.639 1.33955 15.7969 2.40736C14.0287 3.43239 14.5149 5.82615 16.1948 5.90937C17.3876 5.96845 17.599 4.54255 16.9022 4.54255C16.6811 4.54255 16.4538 4.67065 16.5043 5.01232C16.5265 5.1625 16.3275 5.18314 16.2391 5.18314C15.3107 5.18314 15.1339 3.9386 15.8854 3.347C17.0788 2.40749 19.0682 3.13347 19.3777 4.37198C19.6084 5.29533 19.1188 5.97912 18.4888 6.45787C17.4563 7.24241 16.0157 6.89892 14.9695 6.13166L11.9996 3.95353L9.03003 6.13122C7.98364 6.89858 6.54261 7.24212 5.51023 6.45711C4.88065 5.97838 4.39173 5.29483 4.62232 4.37198ZM16.9256 14.7914L20.7039 12.0204L16.9256 9.24995L13.148 12.0202L16.9256 14.7914ZM10.8519 12.0204L7.07361 9.24995L3.29589 12.0204L7.07361 14.7914L10.8519 12.0204ZM15.7779 15.633L12.6913 13.3699V17.8968L15.7779 15.633ZM8.2219 8.40769L11.3086 10.6719V6.14403L8.2219 8.40769ZM15.7779 8.40769L12.6913 10.6715V6.14448L15.7779 8.40769ZM11.3086 17.8972V13.3694L8.2219 15.633L11.3086 17.8972Z" fill="black"/>
</svg>
