<svg width="24" height="24" viewBox="0 0 24 24" fill="none" xmlns="http://www.w3.org/2000/svg">
<path d="M1.47175 3.43865C1.49879 3.55752 1.55015 3.66954 1.62261 3.76766C1.69508 3.86577 1.78708 3.94788 1.89285 4.00882L4.55892 5.539C4.63975 5.58554 4.70688 5.6525 4.75355 5.73316C4.80023 5.81381 4.8248 5.90531 4.8248 5.99846C4.8248 6.0916 4.80023 6.1831 4.75355 6.26375C4.70688 6.34441 4.63975 6.41137 4.55892 6.45791L1.89285 7.98942C1.78702 8.04996 1.69495 8.13178 1.62246 8.2297C1.54997 8.32762 1.49865 8.43951 1.47175 8.55826L1.00947 10.5936C0.996737 10.6485 0.998198 10.7056 1.01371 10.7597C1.02923 10.8138 1.05829 10.8631 1.09816 10.9029C1.13803 10.9427 1.18739 10.9717 1.24159 10.9872C1.2958 11.0027 1.35306 11.0041 1.40799 10.9914L3.44573 10.53C3.56488 10.5032 3.67716 10.4519 3.77548 10.3796C3.87379 10.3073 3.95601 10.2153 4.01694 10.1097L5.54591 7.4577C5.59253 7.37701 5.65961 7.31 5.74041 7.26341C5.82122 7.21682 5.91288 7.19229 6.0062 7.19229C6.09951 7.19229 6.19117 7.21682 6.27198 7.26341C6.35278 7.31 6.41986 7.37701 6.46648 7.4577L7.9835 10.0871C8.04433 10.1927 8.12633 10.2847 8.22439 10.3573C8.32244 10.4298 8.43444 10.4814 8.55338 10.5088L10.5924 10.9689C10.6474 10.982 10.7048 10.9808 10.7592 10.9655C10.8136 10.9501 10.8632 10.9211 10.9031 10.8812C10.9431 10.8413 10.9721 10.7919 10.9875 10.7376C11.0029 10.6833 11.0041 10.626 10.991 10.5711L10.5274 8.53837C10.4999 8.41965 10.4483 8.30786 10.3756 8.20998C10.3029 8.1121 10.2107 8.03025 10.1049 7.96953L7.4734 6.45791C7.39257 6.41137 7.32544 6.34441 7.27876 6.26375C7.23209 6.1831 7.20751 6.0916 7.20751 5.99846C7.20751 5.90531 7.23209 5.81381 7.27876 5.73316C7.32544 5.6525 7.39257 5.58554 7.4734 5.539L10.1049 4.02871C10.2107 3.9676 10.3028 3.88546 10.3754 3.78738C10.4481 3.6893 10.4998 3.57738 10.5274 3.45854L10.9883 1.42316C11.0014 1.36828 11.0002 1.31097 10.9849 1.25668C10.9695 1.20239 10.9404 1.15294 10.9005 1.11305C10.8605 1.07316 10.811 1.04415 10.7566 1.0288C10.7022 1.01345 10.6448 1.01227 10.5898 1.02536L8.55338 1.48946C8.4344 1.51631 8.32232 1.56754 8.22422 1.6399C8.12612 1.71225 8.04415 1.80416 7.9835 1.90979L6.46515 4.54452C6.41853 4.6252 6.35145 4.69221 6.27065 4.7388C6.18985 4.78539 6.09818 4.80992 6.00487 4.80992C5.91155 4.80992 5.81989 4.78539 5.73909 4.7388C5.65829 4.69221 5.5912 4.6252 5.54458 4.54452L4.01561 1.89256C3.95468 1.78688 3.87247 1.69497 3.77415 1.62262C3.67583 1.55027 3.56355 1.49906 3.4444 1.47222L1.40666 1.00813C1.35178 0.995795 1.29467 0.997521 1.24065 1.01314C1.18662 1.02877 1.13743 1.05778 1.09766 1.09748C1.05788 1.13718 1.02882 1.18628 1.01317 1.24021C0.997517 1.29414 0.995787 1.35115 1.00814 1.40592L1.47175 3.43865Z" fill="black"/>
<path d="M13.4717 3.43865C13.4988 3.55752 13.5501 3.66954 13.6226 3.76766C13.6951 3.86577 13.7871 3.94788 13.8928 4.00882L16.5589 5.539C16.6398 5.58554 16.7069 5.6525 16.7536 5.73316C16.8002 5.81381 16.8248 5.90531 16.8248 5.99846C16.8248 6.0916 16.8002 6.1831 16.7536 6.26375C16.7069 6.34441 16.6398 6.41137 16.5589 6.45791L13.8928 7.98942C13.787 8.04996 13.6949 8.13178 13.6225 8.2297C13.55 8.32762 13.4987 8.43951 13.4717 8.55826L13.0095 10.5936C12.9967 10.6485 12.9982 10.7056 13.0137 10.7597C13.0292 10.8138 13.0583 10.8631 13.0982 10.9029C13.138 10.9427 13.1874 10.9717 13.2416 10.9872C13.2958 11.0027 13.3531 11.0041 13.408 10.9914L15.4457 10.53C15.5649 10.5032 15.6772 10.4519 15.7755 10.3796C15.8738 10.3073 15.956 10.2153 16.0169 10.1097L17.5459 7.4577C17.5925 7.37701 17.6596 7.31 17.7404 7.26341C17.8212 7.21682 17.9129 7.19229 18.0062 7.19229C18.0995 7.19229 18.1912 7.21682 18.272 7.26341C18.3528 7.31 18.4199 7.37701 18.4665 7.4577L19.9835 10.0871C20.0443 10.1927 20.1263 10.2847 20.2244 10.3573C20.3224 10.4298 20.4344 10.4814 20.5534 10.5088L22.5924 10.9689C22.6474 10.982 22.7048 10.9808 22.7592 10.9655C22.8136 10.9501 22.8632 10.9211 22.9031 10.8812C22.9431 10.8413 22.9721 10.7919 22.9875 10.7376C23.0029 10.6833 23.0041 10.626 22.991 10.5711L22.5274 8.53837C22.4999 8.41965 22.4483 8.30786 22.3756 8.20998C22.3029 8.1121 22.2107 8.03025 22.1049 7.96953L19.4734 6.45791C19.3926 6.41137 19.3254 6.34441 19.2788 6.26375C19.2321 6.1831 19.2075 6.0916 19.2075 5.99846C19.2075 5.90531 19.2321 5.81381 19.2788 5.73316C19.3254 5.6525 19.3926 5.58554 19.4734 5.539L22.1049 4.02871C22.2107 3.9676 22.3028 3.88546 22.3754 3.78738C22.4481 3.6893 22.4998 3.57738 22.5274 3.45854L22.9883 1.42316C23.0014 1.36828 23.0002 1.31097 22.9849 1.25668C22.9695 1.20239 22.9404 1.15294 22.9005 1.11305C22.8605 1.07316 22.811 1.04415 22.7566 1.0288C22.7022 1.01345 22.6448 1.01227 22.5898 1.02536L20.5534 1.48946C20.4344 1.51631 20.3223 1.56754 20.2242 1.6399C20.1261 1.71225 20.0441 1.80416 19.9835 1.90979L18.4652 4.54452C18.4185 4.6252 18.3514 4.69221 18.2706 4.7388C18.1898 4.78539 18.0982 4.80992 18.0049 4.80992C17.9116 4.80992 17.8199 4.78539 17.7391 4.7388C17.6583 4.69221 17.5912 4.6252 17.5446 4.54452L16.0156 1.89256C15.9547 1.78688 15.8725 1.69497 15.7741 1.62262C15.6758 1.55027 15.5636 1.49906 15.4444 1.47222L13.4067 1.00813C13.3518 0.995795 13.2947 0.997521 13.2406 1.01314C13.1866 1.02877 13.1374 1.05778 13.0977 1.09748C13.0579 1.13718 13.0288 1.18628 13.0132 1.24021C12.9975 1.29414 12.9958 1.35115 13.0081 1.40592L13.4717 3.43865Z" fill="black"/>
<path d="M1.47175 15.4387C1.49879 15.5575 1.55015 15.6695 1.62261 15.7677C1.69508 15.8658 1.78708 15.9479 1.89285 16.0088L4.55892 17.539C4.63975 17.5855 4.70688 17.6525 4.75355 17.7332C4.80023 17.8138 4.8248 17.9053 4.8248 17.9985C4.8248 18.0916 4.80023 18.1831 4.75355 18.2638C4.70688 18.3444 4.63975 18.4114 4.55892 18.4579L1.89285 19.9894C1.78702 20.05 1.69495 20.1318 1.62246 20.2297C1.54997 20.3276 1.49865 20.4395 1.47175 20.5583L1.00947 22.5936C0.996737 22.6485 0.998198 22.7056 1.01371 22.7597C1.02923 22.8138 1.05829 22.8631 1.09816 22.9029C1.13803 22.9427 1.18739 22.9717 1.24159 22.9872C1.2958 23.0027 1.35306 23.0041 1.40799 22.9914L3.44573 22.53C3.56488 22.5032 3.67716 22.4519 3.77548 22.3796C3.87379 22.3072 3.95601 22.2153 4.01694 22.1097L5.54591 19.4577C5.59253 19.377 5.65961 19.31 5.74041 19.2634C5.82122 19.2168 5.91288 19.1923 6.0062 19.1923C6.09951 19.1923 6.19117 19.2168 6.27198 19.2634C6.35278 19.31 6.41986 19.377 6.46648 19.4577L7.9835 22.0871C8.04433 22.1927 8.12633 22.2847 8.22439 22.3573C8.32244 22.4298 8.43444 22.4814 8.55338 22.5088L10.5924 22.9689C10.6474 22.982 10.7048 22.9808 10.7592 22.9655C10.8136 22.9501 10.8632 22.9211 10.9031 22.8812C10.9431 22.8413 10.9721 22.7919 10.9875 22.7376C11.0029 22.6833 11.0041 22.626 10.991 22.5711L10.5274 20.5384C10.4999 20.4197 10.4483 20.3079 10.3756 20.21C10.3029 20.1121 10.2107 20.0302 10.1049 19.9695L7.4734 18.4579C7.39257 18.4114 7.32544 18.3444 7.27876 18.2638C7.23209 18.1831 7.20751 18.0916 7.20751 17.9985C7.20751 17.9053 7.23209 17.8138 7.27876 17.7332C7.32544 17.6525 7.39257 17.5855 7.4734 17.539L10.1049 16.0287C10.2107 15.9676 10.3028 15.8855 10.3754 15.7874C10.4481 15.6893 10.4998 15.5774 10.5274 15.4585L10.9883 13.4232C11.0014 13.3683 11.0002 13.311 10.9849 13.2567C10.9695 13.2024 10.9404 13.1529 10.9005 13.1131C10.8605 13.0732 10.811 13.0442 10.7566 13.0288C10.7022 13.0135 10.6448 13.0123 10.5898 13.0254L8.55338 13.4895C8.4344 13.5163 8.32232 13.5675 8.22422 13.6399C8.12612 13.7123 8.04415 13.8042 7.9835 13.9098L6.46515 16.5445C6.41853 16.6252 6.35145 16.6922 6.27065 16.7388C6.18985 16.7854 6.09818 16.8099 6.00487 16.8099C5.91155 16.8099 5.81989 16.7854 5.73909 16.7388C5.65829 16.6922 5.5912 16.6252 5.54458 16.5445L4.01561 13.8926C3.95468 13.7869 3.87247 13.695 3.77415 13.6226C3.67583 13.5503 3.56355 13.4991 3.4444 13.4722L1.40666 13.0081C1.35178 12.9958 1.29467 12.9975 1.24065 13.0131C1.18662 13.0288 1.13743 13.0578 1.09766 13.0975C1.05788 13.1372 1.02882 13.1863 1.01317 13.2402C0.997517 13.2941 0.995787 13.3511 1.00814 13.4059L1.47175 15.4387Z" fill="black"/>
<path d="M13.4717 15.4387C13.4988 15.5575 13.5501 15.6695 13.6226 15.7677C13.6951 15.8658 13.7871 15.9479 13.8928 16.0088L16.5589 17.539C16.6398 17.5855 16.7069 17.6525 16.7536 17.7332C16.8002 17.8138 16.8248 17.9053 16.8248 17.9985C16.8248 18.0916 16.8002 18.1831 16.7536 18.2638C16.7069 18.3444 16.6398 18.4114 16.5589 18.4579L13.8928 19.9894C13.787 20.05 13.6949 20.1318 13.6225 20.2297C13.55 20.3276 13.4987 20.4395 13.4717 20.5583L13.0095 22.5936C12.9967 22.6485 12.9982 22.7056 13.0137 22.7597C13.0292 22.8138 13.0583 22.8631 13.0982 22.9029C13.138 22.9427 13.1874 22.9717 13.2416 22.9872C13.2958 23.0027 13.3531 23.0041 13.408 22.9914L15.4457 22.53C15.5649 22.5032 15.6772 22.4519 15.7755 22.3796C15.8738 22.3072 15.956 22.2153 16.0169 22.1097L17.5459 19.4577C17.5925 19.377 17.6596 19.31 17.7404 19.2634C17.8212 19.2168 17.9129 19.1923 18.0062 19.1923C18.0995 19.1923 18.1912 19.2168 18.272 19.2634C18.3528 19.31 18.4199 19.377 18.4665 19.4577L19.9835 22.0871C20.0443 22.1927 20.1263 22.2847 20.2244 22.3573C20.3224 22.4298 20.4344 22.4814 20.5534 22.5088L22.5924 22.9689C22.6474 22.982 22.7048 22.9808 22.7592 22.9655C22.8136 22.9501 22.8632 22.9211 22.9031 22.8812C22.9431 22.8413 22.9721 22.7919 22.9875 22.7376C23.0029 22.6833 23.0041 22.626 22.991 22.5711L22.5274 20.5384C22.4999 20.4197 22.4483 20.3079 22.3756 20.21C22.3029 20.1121 22.2107 20.0302 22.1049 19.9695L19.4734 18.4579C19.3926 18.4114 19.3254 18.3444 19.2788 18.2638C19.2321 18.1831 19.2075 18.0916 19.2075 17.9985C19.2075 17.9053 19.2321 17.8138 19.2788 17.7332C19.3254 17.6525 19.3926 17.5855 19.4734 17.539L22.1049 16.0287C22.2107 15.9676 22.3028 15.8855 22.3754 15.7874C22.4481 15.6893 22.4998 15.5774 22.5274 15.4585L22.9883 13.4232C23.0014 13.3683 23.0002 13.311 22.9849 13.2567C22.9695 13.2024 22.9404 13.1529 22.9005 13.1131C22.8605 13.0732 22.811 13.0442 22.7566 13.0288C22.7022 13.0135 22.6448 13.0123 22.5898 13.0254L20.5534 13.4895C20.4344 13.5163 20.3223 13.5675 20.2242 13.6399C20.1261 13.7123 20.0441 13.8042 19.9835 13.9098L18.4652 16.5445C18.4185 16.6252 18.3514 16.6922 18.2706 16.7388C18.1898 16.7854 18.0982 16.8099 18.0049 16.8099C17.9116 16.8099 17.8199 16.7854 17.7391 16.7388C17.6583 16.6922 17.5912 16.6252 17.5446 16.5445L16.0156 13.8926C15.9547 13.7869 15.8725 13.695 15.7741 13.6226C15.6758 13.5503 15.5636 13.4991 15.4444 13.4722L13.4067 13.0081C13.3518 12.9958 13.2947 12.9975 13.2406 13.0131C13.1866 13.0288 13.1374 13.0578 13.0977 13.0975C13.0579 13.1372 13.0288 13.1863 13.0132 13.2402C12.9975 13.2941 12.9958 13.3511 13.0081 13.4059L13.4717 15.4387Z" fill="black"/>
</svg>
