<svg width="24" height="24" viewBox="0 0 24 24" fill="none" xmlns="http://www.w3.org/2000/svg">
<path d="M17.5459 12C18.0739 11.6698 18.4966 11.1955 18.7639 10.633C19.3639 9.394 18.8009 7.64 17.1269 5.562C15.8954 4.06955 14.4786 2.74017 12.9109 1.606C12.6189 1.38593 12.3139 1.18357 11.9978 1C11.6734 1.1695 11.3678 1.37261 11.0859 1.606C9.51825 2.74024 8.10144 4.06961 6.86984 5.562C5.19584 7.64 4.62888 9.394 5.23288 10.633C5.50024 11.1955 5.92287 11.6698 6.4509 12C5.9229 12.3303 5.50029 12.8046 5.23288 13.367C4.63288 14.606 5.19584 16.36 6.86984 18.438C8.10144 19.9304 9.51825 21.2598 11.0859 22.394C11.3678 22.6275 11.6733 22.8306 11.9978 23C12.3139 22.8164 12.6189 22.6141 12.9109 22.394C14.4786 21.2598 15.8954 19.9305 17.1269 18.438C18.8019 16.36 19.3679 14.606 18.7639 13.367C18.4965 12.8045 18.0739 12.3302 17.5459 12ZM7.9238 6.389C9.1134 4.95267 10.4832 3.67551 11.999 2.589C13.5147 3.67569 14.8842 4.95283 16.0739 6.389C17.3479 7.97 17.9 9.342 17.552 10.058C17.4138 10.3473 17.2082 10.5991 16.9524 10.7923C16.6965 10.9855 16.398 11.1143 16.082 11.168C15.2316 11.3401 14.3474 11.1805 13.6108 10.722C13.4531 10.6058 13.3224 10.4569 13.2275 10.2855C13.1326 10.1142 13.0759 9.92433 13.061 9.729C13.066 9.58634 13.1033 9.44667 13.1701 9.32056C13.237 9.19444 13.3317 9.08517 13.447 9.001C13.6021 8.87346 13.7859 8.78575 13.9826 8.74549C14.1794 8.70523 14.3831 8.71364 14.5759 8.77C14.7715 8.83259 14.9478 8.94435 15.0879 9.09458C15.2279 9.24481 15.3272 9.42848 15.3759 9.628C15.4273 9.79804 15.5437 9.94092 15.6999 10.0256C15.8561 10.1102 16.0394 10.1298 16.2099 10.08C16.2943 10.0564 16.3731 10.0163 16.4419 9.96206C16.5106 9.90781 16.5677 9.84048 16.6103 9.76396C16.6529 9.68744 16.68 9.60325 16.6899 9.51623C16.6998 9.42922 16.6923 9.34111 16.6679 9.257C16.5557 8.84317 16.34 8.46469 16.0412 8.15715C15.7424 7.84962 15.3704 7.62313 14.9599 7.499C14.5523 7.37985 14.1218 7.36212 13.7058 7.44735C13.2898 7.53257 12.9009 7.71817 12.573 7.988C12.3415 8.17906 12.1459 8.41005 11.9958 8.67C11.8457 8.41009 11.6504 8.17912 11.4189 7.988C11.091 7.71817 10.7021 7.53257 10.2861 7.44735C9.87008 7.36212 9.43956 7.37985 9.03195 7.499C8.62153 7.62313 8.24944 7.84962 7.95065 8.15715C7.65186 8.46469 7.43619 8.84317 7.32394 9.257C7.29957 9.34111 7.29211 9.42922 7.30197 9.51623C7.31183 9.60325 7.33873 9.68744 7.38132 9.76396C7.4239 9.84048 7.48127 9.90781 7.55002 9.96206C7.61877 10.0163 7.69763 10.0564 7.78195 10.08C7.95248 10.1298 8.13579 10.1102 8.29196 10.0256C8.44814 9.94092 8.56454 9.79804 8.61594 9.628C8.66471 9.42848 8.76371 9.24481 8.90378 9.09458C9.04385 8.94435 9.22036 8.83259 9.41599 8.77C9.60875 8.71364 9.81224 8.70523 10.009 8.74549C10.2058 8.78575 10.3898 8.87346 10.5449 9.001C10.6602 9.08517 10.7549 9.19444 10.8217 9.32056C10.8886 9.44667 10.9259 9.58634 10.9309 9.729C10.9159 9.92432 10.859 10.1141 10.7641 10.2855C10.6692 10.4568 10.5385 10.6057 10.3808 10.722C9.6445 11.1812 8.76028 11.3408 7.90988 11.168C7.59383 11.1143 7.29535 10.9855 7.03952 10.7923C6.78369 10.5991 6.57804 10.3473 6.43991 10.058C6.09791 9.342 6.6498 7.971 7.9238 6.389ZM13.1308 12C12.9924 12.0766 12.8613 12.1656 12.739 12.266C12.4365 12.5154 12.1852 12.821 11.999 13.166C11.8128 12.821 11.5615 12.5154 11.259 12.266C11.1367 12.1656 11.0054 12.0766 10.8669 12C11.0054 11.9234 11.1367 11.8344 11.259 11.734C11.5615 11.4846 11.8127 11.179 11.999 10.834C12.1852 11.179 12.4365 11.4846 12.739 11.734C12.8613 11.8344 12.9924 11.9234 13.1308 12ZM16.0739 17.611C14.8842 19.0472 13.5147 20.3243 11.999 21.411C10.4832 20.3245 9.11336 19.0474 7.9238 17.611C6.6498 16.03 6.09777 14.658 6.44577 13.942C6.5839 13.6527 6.78955 13.4009 7.04538 13.2077C7.30121 13.0145 7.59994 12.8857 7.91599 12.832C8.76638 12.6591 9.65064 12.8187 10.3869 13.278C10.5446 13.3943 10.6753 13.5432 10.7702 13.7145C10.8651 13.8859 10.922 14.0757 10.937 14.271C10.932 14.4137 10.8945 14.5533 10.8276 14.6794C10.7607 14.8056 10.6663 14.9148 10.551 14.999C10.3959 15.1265 10.2119 15.2143 10.0151 15.2545C9.81835 15.2948 9.61461 15.2864 9.42185 15.23C9.22622 15.1674 9.04995 15.0556 8.90988 14.9054C8.76981 14.7552 8.67057 14.5715 8.6218 14.372C8.5704 14.202 8.454 14.0591 8.29782 13.9744C8.14164 13.8898 7.95834 13.8702 7.78781 13.92C7.70337 13.9436 7.62446 13.9837 7.55563 14.038C7.48681 14.0924 7.42953 14.1598 7.38693 14.2364C7.34434 14.313 7.31738 14.3974 7.30759 14.4845C7.2978 14.5716 7.30528 14.6598 7.3298 14.744C7.44205 15.1578 7.65772 15.5363 7.95651 15.8438C8.2553 16.1514 8.62739 16.3779 9.03781 16.502C9.44542 16.6211 9.87594 16.6389 10.292 16.5537C10.708 16.4684 11.0969 16.2828 11.4248 16.013C11.6562 15.8219 11.8518 15.5909 12.0019 15.331C12.152 15.591 12.3473 15.822 12.5788 16.013C12.9067 16.2829 13.2956 16.4686 13.7116 16.5538C14.1277 16.639 14.5582 16.6212 14.9658 16.502C15.3762 16.3779 15.7483 16.1514 16.0471 15.8438C16.3459 15.5363 16.5616 15.1578 16.6738 14.744C16.6983 14.6598 16.706 14.5716 16.6963 14.4845C16.6865 14.3974 16.6595 14.313 16.6169 14.2364C16.5743 14.1598 16.5168 14.0924 16.448 14.038C16.3791 13.9837 16.3002 13.9436 16.2158 13.92C16.0453 13.8702 15.8622 13.8898 15.706 13.9744C15.5498 14.0591 15.4332 14.202 15.3818 14.372C15.333 14.5715 15.234 14.7552 15.094 14.9054C14.9539 15.0556 14.7776 15.1674 14.582 15.23C14.3892 15.2864 14.1855 15.2948 13.9887 15.2545C13.792 15.2143 13.608 15.1265 13.4529 14.999C13.3376 14.9148 13.2429 14.8056 13.176 14.6794C13.1091 14.5533 13.0718 14.4137 13.0669 14.271C13.0817 14.0757 13.1384 13.8858 13.2334 13.7144C13.3283 13.543 13.4592 13.3942 13.6169 13.278C14.3535 12.8195 15.2375 12.6599 16.0879 12.832C16.4039 12.8857 16.7024 13.0145 16.9582 13.2077C17.2141 13.4009 17.4197 13.6527 17.5578 13.942C17.9008 14.658 17.3479 16.03 16.0739 17.613V17.611Z" fill="black"/>
</svg>
