<svg width="24" height="24" viewBox="0 0 24 24" fill="none" xmlns="http://www.w3.org/2000/svg">
<path fill-rule="evenodd" clip-rule="evenodd" d="M19.1912 1.4025C19.2892 1.16296 19.5191 1 19.7784 1C20.1463 1 20.4334 1.32087 20.3687 1.68237C19.9384 4.08356 18.732 6.16314 17.0609 7.56649C17.0222 7.59899 16.9996 7.64674 16.9996 7.69722V8.64204C16.9996 8.70456 17.0341 8.76199 17.0894 8.79139L22.9102 11.888C23.0299 11.9517 23.0299 12.123 22.9102 12.1866L17.0894 15.2832C17.0341 15.3126 16.9996 15.37 16.9996 15.4326V16.3028C16.9996 16.3533 17.0222 16.401 17.0609 16.4335C18.732 17.8369 19.9384 19.9164 20.3687 22.3176C20.4334 22.6791 20.1463 23 19.7784 23C19.5191 23 19.2892 22.837 19.1912 22.5975C17.8781 19.3881 15.1475 17.1818 11.9921 17.1818C8.83667 17.1818 6.10616 19.3881 4.79301 22.5975C4.695 22.837 4.46506 23 4.20585 23C3.83794 23 3.55077 22.6791 3.61555 22.3176C4.04691 19.9106 5.25812 17.8267 6.93553 16.4233C6.97438 16.3908 6.99708 16.3429 6.99708 16.2923V15.4308C6.99708 15.3683 6.96255 15.3109 6.90728 15.2815L1.0898 12.1866C0.970067 12.123 0.970067 11.9517 1.0898 11.888L6.90728 8.79315C6.96255 8.76375 6.99708 8.70632 6.99708 8.64381V7.70768C6.99708 7.65708 6.97438 7.60925 6.93553 7.57675C5.25812 6.17328 4.04691 4.08942 3.61555 1.68237C3.55077 1.32087 3.83794 1 4.20585 1C4.46506 1 4.695 1.16296 4.79301 1.4025C6.10616 4.61195 8.83667 6.81816 11.9921 6.81816C15.1475 6.81816 17.8781 4.61195 19.1912 1.4025ZM3.97355 11.888C3.85382 11.9517 3.85382 12.123 3.97355 12.1866L6.74781 13.6625C6.86073 13.7226 6.99708 13.6409 6.99708 13.5132V10.5614C6.99708 10.4337 6.86073 10.352 6.74781 10.4121L3.97355 11.888ZM10.3832 14.4013C10.4761 14.5121 10.4254 14.7002 10.2845 14.7327C9.70162 14.8673 9.14031 15.0693 8.60708 15.3315C8.49207 15.388 8.35501 15.3059 8.35501 15.1779V8.82205C8.35501 8.69408 8.49207 8.61201 8.60708 8.66855C9.14031 8.93066 9.70162 9.13274 10.2845 9.26729C10.4254 9.29983 10.4761 9.48793 10.3832 9.59868C10.1202 9.91236 9.96393 10.3049 9.96393 10.7308C9.96393 11.1617 10.124 11.5585 10.3927 11.874C10.454 11.9461 10.454 12.0539 10.3927 12.126C10.124 12.4415 9.96393 12.8383 9.96393 13.2692C9.96393 13.6951 10.1202 14.0876 10.3832 14.4013ZM13.6116 14.4035C13.5186 14.5141 13.569 14.7023 13.7099 14.7351C14.2941 14.8708 14.8567 15.0744 15.391 15.3383C15.506 15.3951 15.6433 15.313 15.6433 15.1849V8.8151C15.6433 8.68697 15.506 8.60491 15.391 8.66174C14.8567 8.92563 14.2941 9.12922 13.7099 9.26494C13.569 9.29767 13.5186 9.48586 13.6116 9.59648C13.8757 9.91052 14.0328 10.3039 14.0328 10.7308C14.0328 11.1617 13.8727 11.5585 13.604 11.874C13.5426 11.9461 13.5426 12.0539 13.604 12.126C13.8727 12.4415 14.0328 12.8383 14.0328 13.2692C14.0328 13.6961 13.8757 14.0895 13.6116 14.4035ZM11.9983 11.4077C12.5658 11.4077 12.846 11.0097 12.846 10.7308C12.846 10.4518 12.5658 10.0538 11.9983 10.0538C11.4309 10.0538 11.1507 10.4518 11.1507 10.7308C11.1507 11.0097 11.4309 11.4077 11.9983 11.4077ZM11.9983 12.5923C11.4309 12.5923 11.1507 12.9903 11.1507 13.2692C11.1507 13.5482 11.4309 13.9462 11.9983 13.9462C12.5658 13.9462 12.846 13.5482 12.846 13.2692C12.846 12.9903 12.5658 12.5923 11.9983 12.5923ZM17.0013 13.514C17.0013 13.6418 17.1376 13.7235 17.2505 13.6634L20.0265 12.1866C20.1462 12.123 20.1462 11.9517 20.0265 11.888L17.2505 10.4112C17.1376 10.3511 17.0013 10.4328 17.0013 10.5606V13.514Z" fill="black"/>
</svg>
