<svg width="24" height="24" viewBox="0 0 24 24" fill="none" xmlns="http://www.w3.org/2000/svg">
<path fill-rule="evenodd" clip-rule="evenodd" d="M11.5532 3.25434C11.7635 2.91522 12.2365 2.91522 12.4468 3.25434L22.9128 20.1352C23.1436 20.5074 22.8891 21 22.466 21H1.53395C1.11085 21 0.85638 20.5074 1.08717 20.1352L11.5532 3.25434ZM12.9595 18.9855H14.5113C14.229 18.6849 13.9741 18.331 13.7465 17.968C13.4703 17.5277 13.2065 17.0287 12.9595 16.5027V18.9855ZM19.5171 18.9855H18.4882C18.773 18.6838 19.0171 18.3017 19.1962 17.8337L19.6959 18.6396C19.7882 18.7885 19.6864 18.9855 19.5171 18.9855ZM15.542 15.2585C15.8449 14.6191 16.3447 14.2421 16.8867 14.1086L12.9595 7.77447V11.0485C13.2518 12.2126 13.7261 13.6942 14.2877 15.0141C14.5971 15.7415 14.924 16.3982 15.25 16.9179C15.581 17.4457 15.8613 17.7508 16.0603 17.8838C16.4299 18.0906 17.2922 18.0392 17.6017 16.8811C17.6962 16.526 17.6608 16.3061 17.6187 16.1906C17.5765 16.0746 17.5108 16.0135 17.4528 15.9831C17.3896 15.9499 17.3309 15.9497 17.291 15.9627C17.2624 15.972 17.2072 15.9983 17.1546 16.1094C16.9319 16.5793 16.3904 16.7698 15.9451 16.5348C15.4998 16.2999 15.3193 15.7284 15.542 15.2585ZM11.0405 16.5025V18.9855H9.48864C9.77096 18.6849 10.0258 18.331 10.2535 17.968C10.5297 17.5277 10.7935 17.0286 11.0405 16.5025ZM11.0405 11.0483C10.7482 12.2124 10.2739 13.6942 9.71231 15.0141C9.40287 15.7415 9.07597 16.3982 8.74999 16.9179C8.41898 17.4457 8.13868 17.7508 7.93967 17.8838C7.57005 18.0906 6.70777 18.0392 6.39827 16.8811C6.30376 16.526 6.33914 16.3061 6.38123 16.1906C6.4235 16.0746 6.48915 16.0135 6.54716 15.9831C6.61032 15.9499 6.66901 15.9497 6.70893 15.9627C6.73753 15.972 6.79272 15.9983 6.84535 16.1094C7.06801 16.5793 7.60952 16.7698 8.05483 16.5348C8.50015 16.2999 8.68065 15.7284 8.45799 15.2585C8.15504 14.6191 7.65529 14.2421 7.11332 14.1086L11.0405 7.77445V11.0483ZM5.51175 18.9855C5.22692 18.6838 4.98288 18.3018 4.80377 17.8337L4.30415 18.6396C4.21183 18.7885 4.31362 18.9855 4.48286 18.9855H5.51175Z" fill="black"/>
</svg>
