<svg xmlns="http://www.w3.org/2000/svg" width="24" height="24" viewBox="0 0 24 24">
  <g id="aya" transform="translate(-329 -215)">
    <rect id="Rectangle_149" data-name="Rectangle 149" width="24" height="24" transform="translate(329 215)" fill="none"/>
    <path id="Path_212" data-name="Path 212" d="M-897.458,1942.092a7.374,7.374,0,0,0-4.431,2.245l-.055-2.156a7.944,7.944,0,0,1,2.205-1.331c1.16-.374,2.569-.625,3.223.148a1.422,1.422,0,0,0,1.693.57c1.045-.419-.532-2.1-3.3-1.99a6.636,6.636,0,0,0-3.839,1.77l-.043-1.678a7.034,7.034,0,0,1,1.926-1.144c1.063-.342,2.354-.573,2.953.136a1.3,1.3,0,0,0,1.551.522c.957-.384-.488-1.923-3.026-1.823a5.984,5.984,0,0,0-3.424,1.542l-.043-1.682a6.044,6.044,0,0,1,1.6-.915c.993-.32,2.2-.536,2.759.127a1.217,1.217,0,0,0,1.449.488c.894-.358-.455-1.8-2.827-1.7a5.393,5.393,0,0,0-3,1.279l-.032-1.257a5.648,5.648,0,0,1,1.514-.876c.908-.292,2.009-.489,2.52.116a1.112,1.112,0,0,0,1.324.446c.817-.327-.416-1.641-2.583-1.556a4.981,4.981,0,0,0-2.792,1.21l-.028-1.108a5.034,5.034,0,0,1,1.364-.8c.778-.25,1.721-.419,2.16.1a.953.953,0,0,0,1.134.382c.7-.281-.356-1.406-2.213-1.333a4.33,4.33,0,0,0-2.46,1.091l-.029-1.119a4.129,4.129,0,0,1,1.048-.578c.729-.235,1.615-.393,2.025.093a.893.893,0,0,0,1.063.358c.657-.263-.333-1.319-2.075-1.251a3.84,3.84,0,0,0-2.075.842l-.022-.865a3.225,3.225,0,0,1,.785-.541c.582-.252,1.3-.449,1.676-.057a.725.725,0,0,0,.9.236c.52-.272-.38-1.115-1.81-.938a3.314,3.314,0,0,0-1.872,1.1,3.312,3.312,0,0,0-1.872-1.1c-1.429-.177-2.33.666-1.81.938a.725.725,0,0,0,.9-.236c.377-.391,1.094-.195,1.676.057a3.226,3.226,0,0,1,.785.541l-.022.865a3.841,3.841,0,0,0-2.075-.842c-1.742-.068-2.733.988-2.075,1.251a.893.893,0,0,0,1.064-.358c.411-.486,1.3-.328,2.025-.093a4.129,4.129,0,0,1,1.048.578l-.029,1.119a4.33,4.33,0,0,0-2.46-1.091c-1.857-.073-2.913,1.052-2.213,1.333a.953.953,0,0,0,1.134-.382c.438-.519,1.382-.35,2.16-.1a5.035,5.035,0,0,1,1.364.8l-.028,1.108a4.981,4.981,0,0,0-2.792-1.21c-2.167-.085-3.4,1.229-2.583,1.556a1.112,1.112,0,0,0,1.324-.446c.512-.605,1.613-.408,2.52-.116a5.648,5.648,0,0,1,1.514.876l-.032,1.257a5.393,5.393,0,0,0-3-1.279c-2.372-.093-3.722,1.345-2.827,1.7a1.217,1.217,0,0,0,1.449-.488c.56-.662,1.766-.447,2.759-.127a6.042,6.042,0,0,1,1.6.915l-.043,1.682a5.984,5.984,0,0,0-3.424-1.542c-2.539-.1-3.983,1.439-3.026,1.823a1.3,1.3,0,0,0,1.551-.522c.6-.709,1.89-.478,2.953-.136a7.044,7.044,0,0,1,1.926,1.144l-.043,1.678a6.637,6.637,0,0,0-3.839-1.77c-2.771-.109-4.347,1.571-3.3,1.99a1.422,1.422,0,0,0,1.693-.57c.654-.774,2.062-.522,3.223-.148a7.947,7.947,0,0,1,2.205,1.331l-.055,2.156a7.374,7.374,0,0,0-4.432-2.245c-2.977-.121-4.671,1.743-3.548,2.208a1.5,1.5,0,0,0,1.819-.632c.7-.859,2.216-.579,3.463-.164a9.241,9.241,0,0,1,2.618,1.689,8.889,8.889,0,0,0-5.068,1.172c-2.374,1.59-2.384,5.379,1.825,4.594,3.549-.662,3.948-2.839,3.986-3.5h.018c.038.666.437,2.842,3.986,3.5,4.209.785,4.2-3,1.825-4.594a8.889,8.889,0,0,0-5.068-1.172,9.241,9.241,0,0,1,2.618-1.689c1.247-.415,2.76-.694,3.463.164a1.5,1.5,0,0,0,1.818.632C-892.787,1943.836-894.481,1941.972-897.458,1942.092Zm-8.346,7.623h0c-2.772.558-3.307-1.615-1.776-2.821s4.474-1.2,4.474-1.2S-903.032,1949.157-905.8,1949.716Zm8.262-2.821c1.531,1.207,1,3.38-1.776,2.821s-2.7-4.021-2.7-4.021S-899.073,1945.688-897.542,1946.894Z" transform="translate(1243.561 -1713.065)"/>
  </g>
</svg>
