<svg width="24" height="24" viewBox="0 0 24 24" fill="none" xmlns="http://www.w3.org/2000/svg">
<path d="M17.1031 14.0271C15.4109 14.2404 13.845 15.0338 12.6721 16.2721L12.6171 14.1161C13.2748 13.5554 14.0195 13.1058 14.8221 12.785C15.982 12.411 17.3911 12.1601 18.0451 12.9331C18.2196 13.2073 18.4828 13.4133 18.7909 13.5171C19.0989 13.6208 19.4332 13.6158 19.7381 13.503C20.7831 13.084 19.2061 11.403 16.4381 11.513C14.9997 11.6688 13.6516 12.2903 12.5991 13.283L12.5561 11.6051C13.1328 11.1233 13.7831 10.737 14.4821 10.461C15.5451 10.119 16.8361 9.88801 17.4351 10.597C17.5947 10.8486 17.8358 11.0376 18.1181 11.1327C18.4005 11.2277 18.7068 11.2229 18.9861 11.119C19.9431 10.735 18.4981 9.19599 15.9601 9.29599C14.6828 9.42928 13.4824 9.9699 12.536 10.838L12.4931 9.15597C12.9765 8.77097 13.5161 8.46246 14.093 8.24106C15.086 7.92106 16.2931 7.70501 16.8521 8.36801C17.0014 8.60272 17.2267 8.77921 17.4904 8.86801C17.754 8.9568 18.0401 8.95258 18.3011 8.85605C19.1951 8.49805 17.8461 7.05597 15.4741 7.15597C14.3661 7.26248 13.3181 7.7093 12.4741 8.43503L12.442 7.17807C12.8982 6.80922 13.409 6.51358 13.9561 6.30197C14.8641 6.00997 15.965 5.81306 16.476 6.41806C16.6125 6.63254 16.8184 6.79381 17.0593 6.87497C17.3002 6.95612 17.5617 6.95218 17.8001 6.86398C18.6171 6.53698 17.3841 5.22307 15.2171 5.30807C14.183 5.4103 13.2067 5.83334 12.4251 6.51803L12.3971 5.41C12.8067 5.07314 13.2671 4.80322 13.7611 4.61007C14.5391 4.36007 15.482 4.19105 15.921 4.71005C16.038 4.89367 16.2143 5.03166 16.4206 5.10116C16.6269 5.17066 16.8509 5.16744 17.0551 5.09201C17.7551 4.81101 16.6991 3.686 14.8421 3.759C13.927 3.85216 13.0654 4.23435 12.382 4.85006L12.3531 3.73105C12.6725 3.4885 13.0255 3.29379 13.4011 3.15304C14.1301 2.91804 15.0161 2.76006 15.4261 3.24606C15.5357 3.41822 15.7009 3.54762 15.8943 3.61276C16.0877 3.6779 16.2976 3.67475 16.489 3.60397C17.146 3.34097 16.1561 2.28499 14.4141 2.35299C13.6541 2.42127 12.9317 2.71445 12.3391 3.19504L12.317 2.33005C12.5505 2.11182 12.8151 1.92948 13.1021 1.78903C13.6841 1.53703 14.402 1.34002 14.778 1.73202C14.8765 1.87068 15.0207 1.97025 15.1852 2.01339C15.3497 2.05654 15.5242 2.04047 15.6781 1.96798C16.1981 1.69598 15.2981 0.852996 13.8681 1.03C13.1383 1.17604 12.4788 1.56349 11.9961 2.12997C11.5134 1.56337 10.8539 1.1759 10.1241 1.03C8.69505 0.852996 7.79405 1.69598 8.31405 1.96798C8.46792 2.04047 8.64239 2.05654 8.80691 2.01339C8.97144 1.97025 9.11557 1.87068 9.21408 1.73202C9.59108 1.34102 10.308 1.53703 10.89 1.78903C11.1771 1.92949 11.4416 2.11183 11.6751 2.33005L11.653 3.19504C11.0604 2.7145 10.338 2.42133 9.57809 2.35299C7.83609 2.28499 6.84508 3.34097 7.50308 3.60397C7.69463 3.67501 7.90473 3.67828 8.09836 3.61313C8.29198 3.54798 8.4574 3.41844 8.56704 3.24606C8.97804 2.76006 9.86707 2.91804 10.5921 3.15304C10.9676 3.29379 11.3206 3.4885 11.64 3.73105L11.6111 4.85006C10.9277 4.23435 10.0662 3.85216 9.15109 3.759C7.29409 3.686 6.23808 4.81101 6.93808 5.09201C7.1423 5.16744 7.36616 5.17066 7.57248 5.10116C7.77879 5.03166 7.95509 4.89367 8.07205 4.71005C8.51005 4.19105 9.45408 4.36007 10.2321 4.61007C10.726 4.80323 11.1863 5.07316 11.596 5.41L11.5681 6.51803C10.7864 5.83334 9.81019 5.4103 8.77609 5.30807C6.60909 5.22307 5.37608 6.53698 6.19308 6.86398C6.43151 6.95218 6.69295 6.95612 6.93387 6.87497C7.17478 6.79381 7.38059 6.63254 7.51706 6.41806C8.02906 5.81306 9.13008 6.00997 10.0371 6.30197C10.5842 6.51358 11.0949 6.80922 11.5511 7.17807L11.5191 8.43503C10.675 7.7093 9.6271 7.26248 8.51907 7.15597C6.14707 7.06297 4.79704 8.50105 5.69204 8.85605C5.95297 8.95258 6.23912 8.9568 6.50277 8.86801C6.76643 8.77921 6.99171 8.60272 7.14108 8.36801C7.70108 7.70601 8.90705 7.92106 9.90005 8.24106C10.477 8.46243 11.0167 8.77094 11.5001 9.15597L11.4571 10.838C10.5107 9.9699 9.31027 9.42928 8.03305 9.29599C5.49405 9.19599 4.05005 10.735 5.00705 11.119C5.28625 11.2229 5.59269 11.2277 5.87503 11.1327C6.15736 11.0376 6.39849 10.8486 6.55807 10.597C7.15807 9.88801 8.44808 10.119 9.51108 10.461C10.21 10.7372 10.8602 11.1234 11.437 11.6051L11.3941 13.283C10.3415 12.2904 8.99346 11.6688 7.55508 11.513C4.78408 11.404 3.20803 13.084 4.25503 13.503C4.55988 13.6158 4.89419 13.6208 5.20224 13.5171C5.51029 13.4133 5.77353 13.2073 5.94809 12.9331C6.60209 12.1591 8.01005 12.411 9.17105 12.785C9.97353 13.1058 10.7183 13.5554 11.3761 14.1161L11.3211 16.2721C10.1479 15.0336 8.58161 14.2402 6.88907 14.0271C3.91207 13.9061 2.21809 15.7701 3.34109 16.2351C3.67026 16.3599 4.03284 16.365 4.36538 16.2495C4.69793 16.1339 4.97923 15.9051 5.16006 15.603C5.86006 14.744 7.37607 15.0241 8.62308 15.4391C9.58504 15.8498 10.4703 16.4209 11.2411 17.128C9.47265 17.0046 7.70774 17.4127 6.17306 18.3C3.79906 19.89 3.78907 23.679 7.99808 22.894C11.5471 22.232 11.946 20.055 11.984 19.394H12.002C12.04 20.06 12.4391 22.236 15.9881 22.894C20.1971 23.679 20.1881 19.894 17.8131 18.3C16.2784 17.4127 14.5135 17.0046 12.7451 17.128C13.5159 16.4209 14.4011 15.8498 15.3631 15.4391C16.6101 15.0241 18.1231 14.745 18.8261 15.603C19.0069 15.9048 19.288 16.1336 19.6203 16.2491C19.9527 16.3646 20.315 16.3597 20.6441 16.2351C21.7741 15.7711 20.0801 13.9071 17.1031 14.0271ZM8.75705 21.65C5.98505 22.208 5.45005 20.0351 6.98105 18.8291C8.51205 17.6231 11.455 17.629 11.455 17.629C11.455 17.629 11.5291 21.092 8.76108 21.651L8.75705 21.65ZM17.0191 18.8291C18.5501 20.0361 18.0191 22.209 15.2431 21.65C12.4671 21.091 12.5431 17.629 12.5431 17.629C12.5431 17.629 15.4881 17.6231 17.0191 18.8291Z" fill="black"/>
</svg>
