<svg width="24" height="24" viewBox="0 0 24 24" fill="none" xmlns="http://www.w3.org/2000/svg">
<path d="M17.0741 12C18.5235 11.7296 19.8538 11.0178 20.883 9.96199C23.289 7.55599 23.706 4.07399 21.816 2.18399C19.926 0.29399 16.4431 0.711988 14.0381 3.11699C12.9823 4.14615 12.2703 5.47656 12 6.92599C11.7296 5.47658 11.0178 4.14619 9.96202 3.11699C7.55702 0.711988 4.07406 0.29299 2.18406 2.18399C0.294064 4.07499 0.712048 7.55699 3.11705 9.96199C4.14625 11.0178 5.4766 11.7296 6.92601 12C5.4766 12.2704 4.14625 12.9822 3.11705 14.038C0.711048 16.444 0.294064 19.926 2.18406 21.816C4.07406 23.706 7.55702 23.288 9.96202 20.883C11.0178 19.8538 11.7296 18.5234 12 17.074C12.2703 18.5234 12.9823 19.8538 14.0381 20.883C16.4431 23.288 19.926 23.707 21.816 21.816C23.706 19.925 23.288 16.443 20.883 14.038C19.8538 12.9822 18.5235 12.2704 17.0741 12ZM15.594 4.46499C17.312 2.74699 19.587 2.23599 20.676 3.32399C21.765 4.41199 21.254 6.68699 19.535 8.40599C18.079 9.86199 16.223 10.451 15.029 9.93399C15.436 9.33138 15.9109 8.77743 16.4441 8.28299C16.8849 7.80488 17.4881 7.50853 18.136 7.45199H18.2001C18.4669 7.45219 18.7233 7.34854 18.915 7.16299C19.1309 6.8863 19.2301 6.53618 19.1914 6.18736C19.1527 5.83855 18.9793 5.51867 18.708 5.29599C18.4853 5.02473 18.1654 4.85124 17.8166 4.81257C17.4678 4.77389 17.1177 4.87309 16.841 5.08899C16.6555 5.28073 16.5518 5.53716 16.552 5.80398C16.552 5.80398 16.552 5.81699 16.552 5.84099V5.86899C16.4956 6.51687 16.1993 7.12032 15.7211 7.56099C15.2266 8.09417 14.6726 8.56893 14.0701 8.97599C13.5491 7.77699 14.138 5.92199 15.594 4.46699V4.46499ZM4.46605 8.40599C2.74805 6.68799 2.23706 4.41299 3.32506 3.32399C4.41306 2.23499 6.68809 2.74599 8.40709 4.46499C9.86309 5.92099 10.452 7.77698 9.93504 8.97198C9.33244 8.56496 8.77849 8.0902 8.28404 7.55698C7.80577 7.11632 7.50934 6.51287 7.45299 5.86499V5.83699C7.45299 5.81299 7.45299 5.79999 7.45299 5.79999C7.45319 5.53316 7.3496 5.27672 7.16404 5.08498C6.88736 4.86909 6.53728 4.7699 6.18846 4.80857C5.83964 4.84724 5.51966 5.02072 5.29698 5.29198C5.02557 5.51452 4.85195 5.83434 4.81309 6.18316C4.77423 6.53198 4.87319 6.88218 5.08897 7.15899C5.28071 7.34455 5.53723 7.4482 5.80406 7.44799H5.86802C6.51585 7.50453 7.11926 7.80087 7.56004 8.27898C8.0933 8.77339 8.56811 9.32735 8.97508 9.92998C7.77708 10.451 5.92107 9.86699 4.46507 8.40699L4.46605 8.40599ZM8.40709 19.534C6.68909 21.252 4.41406 21.763 3.32506 20.675C2.23606 19.587 2.74705 17.312 4.46605 15.593C5.92205 14.137 7.77803 13.548 8.97203 14.065C8.56505 14.6676 8.09024 15.2216 7.55699 15.716C7.11621 16.1941 6.5128 16.4904 5.86497 16.547H5.80101C5.53418 16.5468 5.27778 16.6504 5.08604 16.836C4.87026 17.1128 4.77118 17.463 4.81004 17.8118C4.8489 18.1606 5.02264 18.4805 5.29405 18.703C5.51673 18.9743 5.83659 19.1477 6.18541 19.1864C6.53422 19.2251 6.8843 19.1259 7.16099 18.91C7.34655 18.7182 7.45026 18.4618 7.45006 18.195C7.45006 18.195 7.45006 18.182 7.45006 18.158V18.13C7.50641 17.4821 7.80272 16.8787 8.28099 16.438C8.7754 15.9047 9.32936 15.43 9.93199 15.023C10.451 16.223 9.86299 18.079 8.40599 19.535L8.40709 19.534ZM12.0011 14.053C11.4566 14.053 10.9343 13.8367 10.5493 13.4517C10.1643 13.0667 9.94798 12.5445 9.94798 12C9.94798 11.4555 10.1643 10.9333 10.5493 10.5483C10.9343 10.1633 11.4566 9.94699 12.0011 9.94699C12.2707 9.94699 12.5376 10.0001 12.7867 10.1033C13.0358 10.2064 13.2621 10.3577 13.4527 10.5483C13.6434 10.7389 13.7946 10.9653 13.8978 11.2143C14.001 11.4634 14.0541 11.7304 14.0541 12C14.0541 12.2697 14.0009 12.5367 13.8977 12.7859C13.7945 13.035 13.6431 13.2614 13.4524 13.452C13.2616 13.6427 13.0352 13.7939 12.786 13.897C12.5368 14.0001 12.2697 14.0531 12 14.053H12.0011ZM20.676 20.675C19.587 21.763 17.313 21.253 15.594 19.534C14.138 18.078 13.549 16.222 14.066 15.027C14.6686 15.434 15.2226 15.9088 15.717 16.442C16.1953 16.8826 16.4917 17.4861 16.5481 18.134V18.162C16.5481 18.186 16.5481 18.199 16.5481 18.199C16.5479 18.4658 16.6515 18.7222 16.837 18.914C17.1137 19.1299 17.4638 19.2291 17.8126 19.1904C18.1614 19.1517 18.4814 18.9782 18.7041 18.707C18.9753 18.4843 19.1488 18.1644 19.1875 17.8156C19.2262 17.4668 19.1269 17.1167 18.911 16.84C18.7193 16.6544 18.4629 16.5508 18.196 16.551H18.1321C17.4842 16.4944 16.8808 16.1981 16.44 15.72C15.9068 15.2255 15.432 14.6716 15.025 14.069C16.219 13.553 18.075 14.141 19.531 15.597C21.253 17.312 21.765 19.587 20.676 20.675Z" fill="black"/>
</svg>
