<svg width="24" height="24" viewBox="0 0 24 24" fill="none" xmlns="http://www.w3.org/2000/svg">
<path d="M22.843 14.088C22.8048 14.0328 22.7601 13.9825 22.7099 13.938C22.6841 13.9151 22.6571 13.8938 22.6289 13.874L22.5849 13.8449C22.5526 13.8257 22.5193 13.8083 22.4849 13.793C22.4523 13.7773 22.419 13.7632 22.385 13.7509C22.0102 13.6479 21.611 13.6816 21.2589 13.846C21.2036 13.8673 21.1486 13.8903 21.0939 13.915L20.9859 13.964L20.8799 14.015L20.8279 14.041L20.7279 14.094L20.3929 14.273L20.3049 14.319C20.2479 14.349 20.1929 14.376 20.1409 14.399L20.1029 14.416C20.0289 14.4507 19.9505 14.4752 19.8699 14.489H19.8419C19.8168 14.4908 19.7915 14.4887 19.7669 14.4829C19.7301 14.4717 19.6975 14.4497 19.6732 14.4198C19.649 14.3898 19.6342 14.3534 19.6309 14.315C19.4779 13.615 23.5009 12.6419 22.5809 10.3579C22.5325 10.2328 22.4697 10.1137 22.3939 10.003C22.3639 9.95842 22.3305 9.91631 22.2939 9.87699C22.2603 9.8423 22.2234 9.81084 22.1839 9.78299C22.1476 9.75766 22.1087 9.73618 22.0679 9.71897C21.9491 9.67041 21.8185 9.65857 21.6929 9.68497C21.6482 9.69354 21.604 9.70521 21.5609 9.71994C21.4147 9.77281 21.2764 9.84549 21.1499 9.93595C21.1032 9.96795 21.0569 10.0013 21.0109 10.036L20.9409 10.092C20.8009 10.206 20.661 10.3369 20.523 10.4749L20.4539 10.545L20.3179 10.687L20.2509 10.7589C20.1399 10.8789 20.0319 10.999 19.9279 11.115L19.8059 11.252L19.6879 11.383L19.6309 11.446L19.5219 11.564C19.4329 11.658 19.3509 11.741 19.2769 11.806C19.2469 11.832 19.219 11.8559 19.192 11.8759L19.153 11.905C19.1125 11.9354 19.0661 11.9571 19.0169 11.969C18.9906 11.9748 18.9632 11.9705 18.9399 11.957C18.4759 11.673 19.3679 10.765 20.0649 9.715C20.1519 9.5845 20.2193 9.44196 20.265 9.29197C20.3963 8.7912 20.3733 8.26246 20.1989 7.775C20.1869 7.73833 20.1743 7.7023 20.161 7.66697C20.0781 7.43841 19.9618 7.2234 19.8159 7.02897C19.7355 6.92046 19.6358 6.82761 19.5219 6.75498C19.4845 6.73257 19.4446 6.7148 19.403 6.702C18.771 6.513 17.5869 7.502 17.7889 8.939C17.7949 8.983 17.8003 9.02733 17.8049 9.07199C17.9439 10.405 17.2359 10.763 17.0119 10.763C16.5469 10.763 16.0009 10.076 16.1369 8.77396C16.3589 7.24796 16.9889 4.97999 15.4819 4.10599C15.4368 4.07988 15.3892 4.05811 15.3399 4.04099C15.2925 4.02443 15.2436 4.01237 15.1939 4.00498C15.1699 4.00498 15.1449 3.99898 15.1199 3.99698C15.0707 3.9927 15.0212 3.9927 14.9719 3.99698C14.9469 3.99698 14.923 4.00395 14.898 4.00895C14.6281 4.08144 14.3898 4.24104 14.22 4.46293C14.0502 4.68481 13.9584 4.9566 13.9589 5.236C13.9571 5.36599 13.9736 5.49555 14.0079 5.62095C14.1239 6.04795 14.2809 6.57499 14.3869 7.05899C14.5399 7.76499 14.5869 8.37799 14.2229 8.44999C13.8469 8.52499 13.5789 8.03396 13.3689 7.32596C13.2409 6.89396 13.1359 6.38195 13.0399 5.86795C12.8399 4.80695 12.3559 4.368 11.8659 4.374C11.7449 4.37684 11.6259 4.4044 11.5159 4.45499L11.4589 4.48294C11.2831 4.56778 11.1444 4.71397 11.0689 4.89396C11.025 5.0067 11.004 5.12702 11.0069 5.24796C11.0069 5.26996 11.0069 5.29198 11.0069 5.31498C11.0217 5.49499 11.0629 5.67189 11.1289 5.84C11.1735 5.9582 11.225 6.07367 11.2829 6.18595C11.3442 6.30661 11.4162 6.4323 11.4989 6.56296C11.704 6.86168 11.8578 7.19257 11.9539 7.54197C11.969 7.60766 11.9781 7.67462 11.981 7.74198C11.981 7.75698 11.981 7.77097 11.981 7.78397C11.9805 7.80973 11.9784 7.83547 11.9749 7.861C11.9708 7.89495 11.9634 7.92842 11.9529 7.96097C11.944 7.98874 11.9322 8.01556 11.9179 8.04099L11.9039 8.064C11.8816 8.09734 11.8543 8.12698 11.8229 8.15195C11.7906 8.17621 11.7514 8.18955 11.7109 8.18998C11.4659 8.20098 11.0109 7.88995 10.6489 7.07395C10.2839 6.24295 9.70092 5.074 8.94892 5.064C8.81464 5.06523 8.68277 5.09955 8.56494 5.16398C8.44017 5.21164 8.33773 5.30426 8.27777 5.42362C8.21782 5.54297 8.20465 5.68044 8.24091 5.80899C8.35191 6.33499 8.97092 6.99396 9.09192 7.48996C9.10528 7.5442 9.11466 7.59939 9.11994 7.655C9.11994 7.681 9.11994 7.70498 9.11994 7.72898C9.12039 7.77248 9.11735 7.81596 9.1109 7.85898C9.10297 7.91178 9.08888 7.96346 9.06891 8.01297C9.04505 8.06827 9.00825 8.11701 8.96161 8.15512C8.91497 8.19324 8.85985 8.2196 8.80091 8.23197L8.7229 8.24796L8.65393 8.25895C7.96239 8.25179 7.28341 8.07315 6.67792 7.73899L6.60291 7.70798C6.50291 7.66698 6.40294 7.62597 6.29694 7.58597L6.13892 7.52695C5.86352 7.42505 5.58114 7.34318 5.29395 7.28196C5.04562 7.23012 4.79339 7.19906 4.53992 7.189C4.47325 7.189 4.40657 7.189 4.33991 7.189C4.0504 7.19126 3.76177 7.22105 3.47791 7.27799C2.98365 7.36803 2.50954 7.5458 2.07794 7.80295C2.02594 7.83495 1.97561 7.86832 1.92694 7.90299C1.85428 7.95366 1.7876 8.00597 1.72693 8.05997C1.62576 8.14507 1.53148 8.23804 1.44495 8.33799C1.25233 8.55462 1.11506 8.81471 1.04492 9.09598C1.00772 9.23265 0.99952 9.37558 1.02088 9.5156C1.04223 9.65562 1.0927 9.78961 1.16895 9.90897C1.20713 9.9641 1.25178 10.0145 1.30194 10.059C1.3277 10.0819 1.35473 10.1032 1.38294 10.123L1.42694 10.152C1.45922 10.1713 1.49258 10.1886 1.52692 10.204C1.5595 10.22 1.59291 10.2344 1.62695 10.247C2.00166 10.3501 2.40079 10.3163 2.75293 10.152C2.80826 10.1306 2.86324 10.1076 2.91791 10.083L3.02594 10.034L3.1319 9.98294L3.1839 9.957L3.28394 9.90396L3.43195 9.82499L3.6189 9.72495L3.70691 9.67899C3.76391 9.64899 3.81891 9.62197 3.87091 9.59897L3.90894 9.582C3.98299 9.54737 4.06133 9.52276 4.14191 9.50895H4.16992C4.19508 9.50721 4.22037 9.50928 4.24494 9.51499C4.28178 9.52622 4.31439 9.54822 4.33862 9.57816C4.36286 9.6081 4.37761 9.64458 4.38092 9.68296C4.53392 10.383 0.51091 11.356 1.43091 13.64C1.47966 13.7652 1.54274 13.8843 1.6189 13.995C1.64886 14.0395 1.68233 14.0816 1.71893 14.1209C1.75256 14.1557 1.78937 14.1872 1.82892 14.215C1.86524 14.2403 1.90415 14.2617 1.94495 14.279C2.06373 14.3276 2.19436 14.3394 2.31995 14.313C2.36471 14.3044 2.40878 14.2927 2.45191 14.278C2.59814 14.2251 2.73644 14.1524 2.86292 14.062C2.90958 14.03 2.95626 13.9966 3.00293 13.9619L3.07294 13.906C3.21862 13.7854 3.3581 13.6576 3.49091 13.523L3.55994 13.454L3.69592 13.312L3.76294 13.24C3.87394 13.12 3.98194 12.9999 4.08594 12.8839L4.20795 12.747L4.32593 12.616C4.45556 12.468 4.59276 12.3268 4.73694 12.193C4.76627 12.167 4.79457 12.1436 4.8219 12.123L4.8609 12.094C4.90138 12.0636 4.94772 12.0418 4.99695 12.03C5.02321 12.0242 5.05067 12.0284 5.07392 12.042C5.53792 12.326 4.64592 13.234 3.94892 14.284C3.86201 14.4145 3.79462 14.557 3.7489 14.707C3.70463 14.8551 3.67746 15.0077 3.66791 15.162V15.176C3.65096 15.5319 3.70118 15.8877 3.81592 16.2249C3.82792 16.2616 3.84061 16.2976 3.85394 16.333C3.93678 16.5615 4.05301 16.7765 4.19892 16.971C4.27936 17.0795 4.37901 17.1724 4.49292 17.245C4.53023 17.2678 4.57022 17.2859 4.61194 17.299C5.24394 17.488 6.42795 16.499 6.22595 15.062C6.21995 15.018 6.21457 14.9737 6.2099 14.929C6.0709 13.596 6.77793 13.2379 7.00293 13.2379C7.46793 13.2379 8.01393 13.925 7.87793 15.227C7.65593 16.753 7.0259 19.021 8.5329 19.895C8.57809 19.9211 8.62566 19.9428 8.67493 19.96C8.72235 19.9766 8.77123 19.9886 8.82092 19.9959C8.84559 19.9993 8.87023 20.002 8.8949 20.004C8.94414 20.0083 8.99367 20.0083 9.04291 20.004C9.06791 20.004 9.09195 19.997 9.11695 19.992C9.388 19.9178 9.62672 19.7556 9.7956 19.531C9.96447 19.3064 10.0539 19.0319 10.0499 18.7509C10.0518 18.621 10.0353 18.4914 10.0009 18.366C9.88492 17.938 9.72795 17.411 9.62195 16.928C9.46895 16.222 9.42195 15.609 9.78595 15.537C10.162 15.462 10.43 15.9519 10.64 16.6599C10.768 17.0919 10.8739 17.604 10.9689 18.118C11.1689 19.179 11.6529 19.618 12.1429 19.612C12.2639 19.6091 12.383 19.5816 12.4929 19.531L12.5499 19.503C12.7257 19.4181 12.8644 19.2719 12.9399 19.092C12.9839 18.9792 13.005 18.8589 13.002 18.7379C13.002 18.7159 13.002 18.694 13.002 18.671C12.9871 18.491 12.946 18.3141 12.8799 18.146C12.8353 18.0278 12.7839 17.9122 12.726 17.8C12.6646 17.6793 12.5926 17.5536 12.51 17.4229C12.3038 17.1267 12.1484 16.7982 12.0499 16.451C12.0419 16.415 12.0359 16.38 12.0319 16.351C12.0258 16.3063 12.0232 16.2611 12.0239 16.216C12.0241 16.1902 12.0258 16.1645 12.0289 16.139C12.0331 16.105 12.0404 16.0715 12.0509 16.039C12.0599 16.0112 12.0717 15.9844 12.0859 15.959L12.0999 15.9359C12.1222 15.9026 12.1495 15.8729 12.1809 15.848C12.2132 15.8237 12.2525 15.8103 12.2929 15.81C12.5379 15.799 12.9929 16.11 13.3549 16.926C13.7199 17.757 14.3029 18.9259 15.0549 18.9359C15.1892 18.9346 15.3211 18.9003 15.4389 18.836C15.5637 18.7883 15.6661 18.6957 15.7261 18.5763C15.786 18.457 15.7992 18.3195 15.7629 18.191C15.6519 17.665 15.0329 17.006 14.9119 16.51C14.8985 16.4557 14.8892 16.4006 14.8839 16.3449C14.8839 16.3189 14.8839 16.295 14.8839 16.271C14.8834 16.2271 14.8864 16.1833 14.8929 16.14C14.9008 16.0872 14.9149 16.0355 14.9349 15.986C14.9588 15.9307 14.9956 15.8819 15.0422 15.8438C15.0889 15.8057 15.144 15.7794 15.2029 15.767L15.2419 15.7589C15.2809 15.7509 15.3199 15.744 15.3489 15.74C16.0405 15.7472 16.7194 15.9259 17.325 16.26L17.3999 16.291C17.4999 16.332 17.5999 16.373 17.7059 16.413L17.864 16.472C18.1393 16.5739 18.4217 16.6558 18.7089 16.717C18.9576 16.7688 19.2101 16.7999 19.4639 16.81C19.5306 16.81 19.5973 16.81 19.6639 16.81C19.9534 16.8076 20.2421 16.7778 20.5259 16.721C21.0202 16.6309 21.4943 16.4531 21.9259 16.196C21.9779 16.1633 22.0282 16.13 22.0769 16.096C22.1496 16.0453 22.2163 15.993 22.2769 15.939C22.3785 15.854 22.4731 15.761 22.5599 15.661C22.7524 15.4442 22.8895 15.1842 22.9599 14.903C22.9984 14.7665 23.0079 14.6234 22.9878 14.4831C22.9676 14.3427 22.9183 14.2081 22.843 14.088ZM14.4019 14.8109C13.0629 15.0169 11.0379 15.134 11.2019 14.017C11.3659 12.9 12.7309 13.525 13.0469 13.132C13.3299 12.781 12.9619 12.363 12.2529 12.281C12.1939 12.274 11.9529 12.269 11.8529 12.271H11.6589C8.99894 12.412 7.42393 11.798 7.45093 10.801C7.47793 9.804 8.26393 9.38899 9.60193 9.18399C10.9399 8.97899 12.9659 8.861 12.8019 9.978C12.6379 11.095 11.2729 10.4699 10.9559 10.8629C10.6709 11.2159 11.0459 11.637 11.7639 11.716C11.7839 11.716 11.9149 11.722 12.0189 11.721C12.1939 11.721 12.4329 11.716 12.4819 11.714C15.0589 11.601 16.582 12.214 16.554 13.191C16.526 14.204 15.7399 14.6049 14.4019 14.8109Z" fill="black"/>
</svg>
