<svg xmlns="http://www.w3.org/2000/svg" width="24" height="24" viewBox="0 0 24 24">
  <g id="bi-nka-bi" transform="translate(-377 -311)">
    <rect id="Rectangle_149" data-name="Rectangle 149" width="24" height="24" transform="translate(377 311)" fill="none"/>
    <path id="Path_404" data-name="Path 404" d="M-562.207,877.437a.838.838,0,0,0-.133-.15.9.9,0,0,0-.081-.064l-.044-.029a.953.953,0,0,0-.1-.052,1.052,1.052,0,0,0-.1-.042,1.636,1.636,0,0,0-1.126.095q-.083.032-.165.069l-.108.049-.106.051-.052.026-.1.053-.148.079-.187.1-.088.046c-.057.03-.112.057-.164.08l-.038.017a.91.91,0,0,1-.233.073l-.028,0a.249.249,0,0,1-.075-.006.193.193,0,0,1-.136-.168c-.153-.7,3.87-1.673,2.95-3.957a1.739,1.739,0,0,0-.187-.355,1.029,1.029,0,0,0-.1-.126.777.777,0,0,0-.11-.094.633.633,0,0,0-.116-.064.642.642,0,0,0-.375-.034.976.976,0,0,0-.132.035,1.7,1.7,0,0,0-.411.216q-.07.048-.139.1l-.07.056c-.14.114-.28.245-.418.383l-.069.07-.136.142-.067.072c-.111.12-.219.24-.323.356l-.122.137-.118.131-.057.063-.109.118c-.089.094-.171.177-.245.242-.03.026-.058.05-.085.07l-.039.029a.371.371,0,0,1-.136.064.107.107,0,0,1-.077-.012c-.464-.284.428-1.192,1.125-2.242a1.609,1.609,0,0,0,.2-.423,2.569,2.569,0,0,0-.066-1.517q-.018-.055-.038-.108a2.458,2.458,0,0,0-.345-.638,1.107,1.107,0,0,0-.294-.274.54.54,0,0,0-.119-.053c-.632-.189-1.816.8-1.614,2.237q.009.066.016.133c.139,1.333-.569,1.691-.793,1.691-.465,0-1.011-.687-.875-1.989.222-1.526.852-3.794-.655-4.668a.824.824,0,0,0-.142-.065.8.8,0,0,0-.146-.036c-.024,0-.049-.006-.074-.008a.855.855,0,0,0-.148,0c-.025,0-.049.007-.074.012a1.268,1.268,0,0,0-.939,1.227,1.385,1.385,0,0,0,.049.385c.116.427.273.954.379,1.438.153.706.2,1.319-.164,1.391-.376.075-.644-.416-.854-1.124-.128-.432-.233-.944-.329-1.458-.2-1.061-.684-1.5-1.174-1.494a.887.887,0,0,0-.35.081l-.057.028a.8.8,0,0,0-.39.411.915.915,0,0,0-.062.354c0,.022,0,.044,0,.067a1.852,1.852,0,0,0,.122.525,3.287,3.287,0,0,0,.154.346q.092.181.216.377a3.253,3.253,0,0,1,.455.979,1.1,1.1,0,0,1,.027.2c0,.015,0,.029,0,.042a.66.66,0,0,1-.006.077.537.537,0,0,1-.022.1.436.436,0,0,1-.035.08l-.014.023a.388.388,0,0,1-.081.088.19.19,0,0,1-.112.038c-.245.011-.7-.3-1.062-1.116-.365-.831-.948-2-1.7-2.01a.816.816,0,0,0-.384.1.535.535,0,0,0-.324.645c.111.526.73,1.185.851,1.681a1.14,1.14,0,0,1,.028.165c0,.026,0,.05,0,.074a.819.819,0,0,1-.009.13.683.683,0,0,1-.042.154l0,0a.376.376,0,0,1-.268.219l-.078.016-.069.011a4.179,4.179,0,0,1-1.976-.52l-.075-.031c-.1-.041-.2-.082-.306-.122l-.158-.059a6.1,6.1,0,0,0-.845-.245,4.579,4.579,0,0,0-.754-.093q-.1,0-.2,0a4.564,4.564,0,0,0-.862.089,4.209,4.209,0,0,0-1.4.525q-.078.048-.151.1-.109.076-.2.157a2.51,2.51,0,0,0-.282.278,1.794,1.794,0,0,0-.4.758,1.015,1.015,0,0,0,.124.813.84.84,0,0,0,.133.15.9.9,0,0,0,.081.064l.044.029a.948.948,0,0,0,.1.052,1.067,1.067,0,0,0,.1.043,1.636,1.636,0,0,0,1.126-.095q.083-.032.165-.069l.108-.049.106-.051.052-.026.1-.053.148-.079.187-.1.088-.046c.057-.03.112-.057.164-.08l.038-.017a.915.915,0,0,1,.233-.073l.028,0a.254.254,0,0,1,.075.006.193.193,0,0,1,.136.168c.153.7-3.87,1.673-2.95,3.957a1.74,1.74,0,0,0,.188.355,1.019,1.019,0,0,0,.1.126.767.767,0,0,0,.11.094.633.633,0,0,0,.116.064.641.641,0,0,0,.375.034.973.973,0,0,0,.132-.035,1.7,1.7,0,0,0,.411-.216q.07-.048.14-.1l.07-.056a5.624,5.624,0,0,0,.418-.383l.069-.069.136-.142.067-.072c.111-.12.219-.24.323-.356l.122-.137.118-.131a5.72,5.72,0,0,1,.411-.423q.044-.039.085-.07l.039-.029a.37.37,0,0,1,.136-.064.107.107,0,0,1,.077.012c.464.284-.428,1.192-1.125,2.242a1.61,1.61,0,0,0-.2.423,2.025,2.025,0,0,0-.081.455v.014a2.838,2.838,0,0,0,.148,1.049q.018.055.038.108a2.459,2.459,0,0,0,.345.638,1.106,1.106,0,0,0,.294.274.535.535,0,0,0,.119.054c.632.189,1.816-.8,1.614-2.237q-.009-.066-.016-.133c-.139-1.333.568-1.691.793-1.691.465,0,1.011.687.875,1.989-.222,1.526-.852,3.794.655,4.668a.831.831,0,0,0,.142.065.793.793,0,0,0,.146.036q.037.005.074.008a.843.843,0,0,0,.148,0c.025,0,.049-.007.074-.012A1.268,1.268,0,0,0-575,882.1a1.382,1.382,0,0,0-.049-.385c-.116-.428-.273-.955-.379-1.438-.153-.706-.2-1.319.164-1.391.376-.075.644.415.854,1.123.128.432.234.944.329,1.458.2,1.061.684,1.5,1.174,1.494a.887.887,0,0,0,.35-.081l.057-.028a.8.8,0,0,0,.39-.411.911.911,0,0,0,.062-.354c0-.022,0-.044,0-.067a1.854,1.854,0,0,0-.122-.525,3.281,3.281,0,0,0-.154-.346q-.092-.181-.216-.377A3.258,3.258,0,0,1-573,879.8c-.008-.036-.014-.071-.018-.1a.891.891,0,0,1-.008-.135.662.662,0,0,1,.005-.077.537.537,0,0,1,.022-.1.441.441,0,0,1,.035-.08l.014-.023a.385.385,0,0,1,.081-.088.189.189,0,0,1,.112-.038c.245-.011.7.3,1.062,1.116.365.831.948,2,1.7,2.01a.818.818,0,0,0,.384-.1.535.535,0,0,0,.324-.645c-.111-.526-.73-1.185-.851-1.681a1.135,1.135,0,0,1-.028-.165c0-.026,0-.05,0-.074a.812.812,0,0,1,.009-.131.679.679,0,0,1,.042-.154l0,0a.376.376,0,0,1,.268-.219l.039-.008c.039-.008.078-.015.107-.019a4.18,4.18,0,0,1,1.976.52l.075.031c.1.041.2.082.306.122l.158.059a6.085,6.085,0,0,0,.845.245,4.585,4.585,0,0,0,.755.093q.1,0,.2,0a4.578,4.578,0,0,0,.862-.089,4.209,4.209,0,0,0,1.4-.525q.078-.049.151-.1.109-.076.2-.157a2.506,2.506,0,0,0,.283-.278,1.8,1.8,0,0,0,.4-.758A1.015,1.015,0,0,0-562.207,877.437Zm-8.441.723c-1.339.206-3.364.323-3.2-.794s1.529-.492,1.845-.885c.283-.351-.085-.769-.794-.851-.059-.007-.3-.012-.4-.01l-.194,0c-2.66.141-4.235-.473-4.208-1.47s.813-1.412,2.151-1.617,3.364-.323,3.2.794-1.529.492-1.846.885c-.285.353.09.774.808.853.02,0,.151.006.255.005.175,0,.414-.005.463-.007,2.577-.113,4.1.5,4.072,1.477C-568.524,877.553-569.31,877.954-570.648,878.16Z" transform="translate(962.05 -552.349)"/>
  </g>
</svg>
