<svg width="24" height="24" viewBox="0 0 24 24" fill="none" xmlns="http://www.w3.org/2000/svg">
<path d="M19.0021 12.046C19.0128 10.9668 18.81 9.8961 18.4053 8.89556C18.0006 7.89501 17.402 6.98437 16.644 6.21602L18.1621 4.24804H13.6621C13.9215 3.89909 14.0618 3.47588 14.0621 3.04104C14.0605 2.49805 13.8433 1.97791 13.4583 1.59499C13.0733 1.21207 12.552 0.997702 12.009 0.99903C11.466 0.997702 10.9448 1.21207 10.5598 1.59499C10.1748 1.97791 9.95765 2.49805 9.95606 3.04104C9.95641 3.47587 10.0967 3.89905 10.3561 4.24804H5.85608L7.37409 6.21602C6.61613 6.98437 6.01754 7.89501 5.61286 8.89556C5.20818 9.8961 5.00536 10.9668 5.01606 12.046C5.00477 13.1444 5.21505 14.2338 5.63428 15.249C6.05352 16.2643 6.6731 17.1846 7.45606 17.955L5.85608 20.029H10.1491V22.999H13.8821V20.029H18.1751L16.5751 17.955C17.3557 17.1835 17.9729 16.2627 18.3898 15.2475C18.8068 14.2323 19.0151 13.1435 19.0021 12.046ZM10.402 5.04603H13.6021V8.24602H10.402V5.04603ZM8.81208 16.178C7.7823 15.0503 7.22025 13.573 7.24006 12.046C7.22239 10.5593 7.75445 9.11849 8.73407 8.00004L11.928 12.139L8.81208 16.178ZM12.0001 18.95C11.5227 18.95 11.0649 18.7604 10.7273 18.4228C10.3897 18.0853 10.2001 17.6274 10.2001 17.15C10.2001 16.6726 10.3897 16.2148 10.7273 15.8772C11.0649 15.5397 11.5227 15.35 12.0001 15.35C12.4775 15.35 12.9353 15.5397 13.2728 15.8772C13.6104 16.2148 13.8001 16.6726 13.8001 17.15C13.8001 17.6271 13.6107 18.0846 13.2736 18.4221C12.9364 18.7596 12.4791 18.9495 12.0021 18.95H12.0001ZM12.0721 12.139L15.2661 8.00004C16.2457 9.11849 16.7777 10.5593 16.7601 12.046C16.7799 13.573 16.2178 15.0503 15.1881 16.178L12.0721 12.139Z" fill="black"/>
</svg>
