<svg xmlns="http://www.w3.org/2000/svg" width="24" height="24" viewBox="0 0 24 24">
  <g id="boa-me-na-me-mmoa-wo" transform="translate(-473 -167)">
    <rect id="Rectangle_149" data-name="Rectangle 149" width="24" height="24" transform="translate(473 167)" fill="none"/>
    <path id="Path_156" data-name="Path 156" d="M-804.3,166.368a8.186,8.186,0,0,0-2.358-5.83l1.518-1.968h-4.5a2.025,2.025,0,0,0,.4-1.207,2.048,2.048,0,0,0-2.053-2.042,2.048,2.048,0,0,0-2.053,2.042,2.026,2.026,0,0,0,.4,1.207h-4.5l1.518,1.968a8.186,8.186,0,0,0-2.358,5.83,8.172,8.172,0,0,0,2.44,5.909l-1.6,2.074h4.293v2.97h3.733v-2.97h4.293l-1.6-2.074A8.172,8.172,0,0,0-804.3,166.368Zm-8.6-7h3.2v3.2h-3.2ZM-814.49,170.5a6.012,6.012,0,0,1-1.572-4.132,6.032,6.032,0,0,1,1.494-4.046l3.194,4.139Zm3.188,2.772a1.8,1.8,0,0,1-1.8-1.8,1.8,1.8,0,0,1,1.8-1.8,1.8,1.8,0,0,1,1.8,1.8A1.8,1.8,0,0,1-811.3,173.272Zm.072-6.811,3.194-4.139a6.032,6.032,0,0,1,1.494,4.046,6.012,6.012,0,0,1-1.572,4.132Z" transform="translate(1296.302 12.678)"/>
  </g>
</svg>
