<svg width="24" height="24" viewBox="0 0 24 24" fill="none" xmlns="http://www.w3.org/2000/svg">
<path d="M2.03785 6.36503C2.09733 6.62655 2.21033 6.87298 2.36975 7.08884C2.52917 7.3047 2.73158 7.48534 2.96426 7.61941L8.82962 10.9858C9.00745 11.0882 9.15514 11.2355 9.25782 11.4129C9.3605 11.5904 9.41457 11.7917 9.41457 11.9966C9.41457 12.2015 9.3605 12.4028 9.25782 12.5803C9.15514 12.7577 9.00745 12.905 8.82962 13.0074L2.96426 16.3767C2.73145 16.5099 2.52888 16.6899 2.36941 16.9053C2.20994 17.1208 2.09703 17.3669 2.03785 17.6282L1.02083 22.106C0.992822 22.2266 0.996035 22.3524 1.03017 22.4714C1.06431 22.5904 1.12824 22.6988 1.21595 22.7864C1.30366 22.8739 1.41226 22.9378 1.53151 22.9718C1.65076 23.0059 1.77673 23.0091 1.89757 22.9812L6.38061 21.966C6.64274 21.9069 6.88975 21.7943 7.10605 21.6351C7.32235 21.4759 7.50323 21.2737 7.63726 21.0412L11.001 15.2069C11.1036 15.0294 11.2512 14.882 11.4289 14.7795C11.6067 14.677 11.8083 14.623 12.0136 14.623C12.2189 14.623 12.4206 14.677 12.5983 14.7795C12.7761 14.882 12.9237 15.0294 13.0263 15.2069L16.3637 20.9917C16.4975 21.224 16.6779 21.4264 16.8937 21.586C17.1094 21.7456 17.3558 21.8591 17.6174 21.9193L22.1034 22.9316C22.2243 22.9604 22.3507 22.9578 22.4703 22.924C22.59 22.8902 22.6989 22.8264 22.7869 22.7387C22.8748 22.6509 22.9387 22.5421 22.9725 22.4227C23.0064 22.3032 23.009 22.1771 22.9801 22.0564L21.9602 17.5844C21.8998 17.3232 21.7862 17.0773 21.6262 16.862C21.4663 16.6466 21.2637 16.4665 21.0308 16.333L15.2415 13.0074C15.0636 12.905 14.916 12.7577 14.8133 12.5803C14.7106 12.4028 14.6565 12.2015 14.6565 11.9966C14.6565 11.7917 14.7106 11.5904 14.8133 11.4129C14.916 11.2355 15.0636 11.0882 15.2415 10.9858L21.0308 7.66317C21.2635 7.52871 21.4661 7.348 21.6259 7.13224C21.7858 6.91647 21.8995 6.67023 21.9602 6.40879L22.9743 1.93095C23.0031 1.81022 23.0005 1.68413 22.9667 1.5647C22.9329 1.44526 22.8689 1.33647 22.781 1.24871C22.6931 1.16095 22.5841 1.09714 22.4645 1.06336C22.3448 1.02959 22.2185 1.02699 22.0975 1.0558L17.6174 2.07681C17.3557 2.13588 17.1091 2.24859 16.8933 2.40777C16.6775 2.56695 16.4971 2.76915 16.3637 3.00155L13.0233 8.79794C12.9208 8.97545 12.7732 9.12287 12.5954 9.22536C12.4177 9.32786 12.216 9.38182 12.0107 9.38182C11.8054 9.38182 11.6038 9.32786 11.426 9.22536C11.2482 9.12287 11.1006 8.97545 10.9981 8.79794L7.63434 2.96362C7.5003 2.73114 7.31943 2.52892 7.10313 2.36976C6.88683 2.21059 6.63981 2.09793 6.37768 2.03888L1.89465 1.01788C1.77392 0.990749 1.64828 0.994546 1.52942 1.02892C1.41057 1.06329 1.30235 1.12712 1.21485 1.21446C1.12735 1.3018 1.0634 1.40982 1.02897 1.52847C0.994536 1.64711 0.990732 1.77252 1.01791 1.89303L2.03785 6.36503Z" fill="black"/>
</svg>
