<svg width="24" height="24" viewBox="0 0 24 24" fill="none" xmlns="http://www.w3.org/2000/svg">
<path d="M12 1C9.8244 1 7.69767 1.64514 5.88873 2.85384C4.07979 4.06253 2.6699 5.78049 1.83734 7.79048C1.00478 9.80047 0.786926 12.0122 1.21136 14.146C1.6358 16.2798 2.68348 18.2398 4.22186 19.7782C5.76024 21.3165 7.72021 22.3642 9.854 22.7886C11.9878 23.2131 14.1995 22.9952 16.2095 22.1627C18.2195 21.3301 19.9375 19.9202 21.1462 18.1113C22.3549 16.3023 23 14.1756 23 12C23 9.08262 21.8411 6.28472 19.7782 4.22182C17.7153 2.15892 14.9174 1 12 1ZM21.505 11.669H18.699V10.18H15.474V8.44499H13.737V5.22H12.248V2.49399C14.6696 2.55697 16.9758 3.54165 18.6961 5.24707C20.4164 6.95249 21.421 9.25009 21.505 11.671V11.669ZM18.038 10.842V13.158H15.474V10.845L18.038 10.842ZM10.759 8.442V5.87799H13.075V8.44499L10.759 8.442ZM13.075 15.555V18.119H10.759V15.555H13.075ZM5.27502 5.27299C6.95399 3.58525 9.20837 2.59378 11.587 2.49699V5.217H10.099V8.44499H8.362V10.182H5.13501V11.671H2.49499C2.57107 9.26216 3.56534 6.97358 5.27405 5.274L5.27502 5.27299ZM8.362 10.841V13.157H5.79803V10.845L8.362 10.841ZM5.13605 12.329V13.818H8.362V15.555H10.099V18.781H11.585V21.501C9.19348 21.397 6.92911 20.3948 5.24396 18.6947C3.5588 16.9945 2.57683 14.7214 2.49402 12.329H5.13605ZM18.726 18.724C17.0071 20.4528 14.6863 21.45 12.249 21.507V18.781H13.738V15.555H15.475V13.818H18.7V12.329H21.506C21.4295 14.7378 20.4345 17.0262 18.725 18.725L18.726 18.724Z" fill="black"/>
</svg>
