<svg width="24" height="24" viewBox="0 0 24 24" fill="none" xmlns="http://www.w3.org/2000/svg">
<path d="M18.9899 5.98203C19.0739 4.49103 18.555 4.51003 18.655 3.91803C18.755 3.32603 18.9489 3.21003 18.7639 3.01803C18.5789 2.82603 18.2789 3.45003 18.0949 3.41303C17.9109 3.37603 17.511 2.67003 17.202 2.80703C16.893 2.94403 17.1719 3.54003 17.0799 3.66203C16.9879 3.78403 16.2879 3.75403 16.2679 3.98603C16.2479 4.21803 16.78 4.53003 16.78 4.53003C16.78 4.53003 17.2509 4.47403 17.3019 5.60703C17.3529 6.74003 14.983 7.23503 13.707 7.11403C12.807 7.02803 12.963 6.47803 13.098 5.83803C13.233 5.19803 13.8119 4.67303 13.8419 3.66203C13.8719 2.65103 12.9849 0.994035 11.9979 0.999035C11.0109 1.00403 10.1249 2.66303 10.1539 3.66203C10.1829 4.66103 10.7629 5.19803 10.8989 5.83803C11.0349 6.47803 11.1869 7.02903 10.2899 7.11403C9.01386 7.23603 6.64389 6.74103 6.68989 5.60803C6.73589 4.47503 7.21089 4.53103 7.21089 4.53103C7.21089 4.53103 7.74297 4.22003 7.72297 3.98703C7.70297 3.75403 7.00393 3.78703 6.91193 3.66303C6.81993 3.53903 7.09786 2.94503 6.78986 2.80803C6.48186 2.67103 6.08092 3.37703 5.89692 3.41403C5.71292 3.45103 5.41398 2.82604 5.22798 3.01904C5.04198 3.21204 5.23586 3.32703 5.33686 3.91903C5.43786 4.51103 4.9179 4.49203 5.0019 5.98303C5.0859 7.47403 6.98695 7.73403 7.03095 8.91603C7.07495 10.098 5.80386 10.963 5.96186 13.248C6.06721 14.6334 6.60369 15.951 7.49592 17.016C6.77792 17.043 5.37897 17.098 5.17097 18.47C4.96297 19.842 5.48287 19.68 5.51887 20.186C5.55487 20.692 5.04091 21.831 5.61091 21.499C6.18091 21.167 6.14687 20.743 6.31587 20.844C6.48487 20.945 7.02394 21.915 7.24494 21.626C7.46594 21.337 6.97098 20.726 7.05598 20.602C7.14098 20.478 7.84997 20.753 8.14497 20.523C8.43997 20.293 7.50494 20.036 7.24494 19.551C7.18479 19.4526 7.14613 19.3425 7.13154 19.228C7.11695 19.1136 7.1267 18.9973 7.16023 18.8869C7.19375 18.7765 7.25035 18.6745 7.32612 18.5874C7.40189 18.5004 7.49518 18.4304 7.59992 18.382C7.73477 18.3065 7.88276 18.2573 8.03596 18.237C8.22796 18.202 9.58687 18.168 9.96687 18.174C10.1704 18.1779 10.3686 18.2409 10.5371 18.3552C10.7055 18.4695 10.8372 18.6303 10.916 18.818L10.931 18.853C11.0947 19.3122 11.1766 19.7965 11.1729 20.284C11.2289 22.347 10.2619 22.743 10.5379 22.975C10.8139 23.207 12.9779 21.826 12.9709 19.95C12.9282 19.4512 13.0501 18.9521 13.3179 18.529C13.4033 18.4137 13.5146 18.3202 13.6429 18.256C13.7445 18.2074 13.8553 18.1809 13.968 18.178C14.7815 18.1098 15.6006 18.1774 16.3919 18.378C16.4967 18.4264 16.5899 18.4964 16.6657 18.5834C16.7415 18.6705 16.7981 18.7725 16.8316 18.8829C16.8651 18.9933 16.8749 19.1096 16.8603 19.224C16.8457 19.3385 16.807 19.4486 16.7469 19.547C16.4849 20.032 15.5469 20.29 15.8469 20.519C16.1469 20.748 16.8469 20.469 16.9359 20.598C17.0249 20.727 16.5249 21.334 16.7469 21.622C16.9689 21.91 17.507 20.94 17.676 20.84C17.845 20.74 17.8119 21.164 18.3809 21.495C18.9499 21.826 18.437 20.688 18.473 20.182C18.509 19.676 19.0289 19.838 18.8199 18.466C18.6109 17.094 17.2129 17.039 16.4949 17.012C17.3871 15.9469 17.9234 14.6294 18.0289 13.244C18.1869 10.96 16.9159 10.094 16.9599 8.91203C17.0039 7.73003 18.9059 7.47503 18.9899 5.98203ZM8.78986 16.282C8.29321 15.8849 7.90048 15.3731 7.64546 14.7906C7.39043 14.2081 7.28077 13.5723 7.32588 12.938C7.28307 12.304 7.39377 11.669 7.64863 11.0869C7.90349 10.5047 8.29496 9.99265 8.78986 9.59403C8.60169 10.7006 8.47754 11.8171 8.41792 12.938C8.48408 14.0605 8.60894 15.1787 8.79194 16.288L8.78986 16.282ZM10.8459 16.699C10.6459 16.637 9.71089 16.582 9.71089 12.922C9.71089 9.26203 10.8459 9.19003 10.8459 9.19003V16.699ZM13.1459 16.699V9.19003C13.1459 9.19003 14.281 9.26203 14.281 12.922C14.281 16.582 13.3459 16.643 13.1509 16.705L13.1459 16.699ZM15.202 16.282C15.384 15.1746 15.5081 14.0584 15.5739 12.938C15.5144 11.8171 15.3902 10.7006 15.202 9.59403C15.6969 9.99265 16.0884 10.5047 16.3432 11.0869C16.5981 11.669 16.7088 12.304 16.666 12.938C16.7127 13.5729 16.6042 14.2096 16.35 14.7932C16.0959 15.3768 15.7036 15.8898 15.207 16.288L15.202 16.282Z" fill="black"/>
</svg>
