<svg xmlns="http://www.w3.org/2000/svg" width="24" height="24" viewBox="0 0 24 24">
  <g id="dono-ntoaso" transform="translate(-377 -359)">
    <rect id="Rectangle_149" data-name="Rectangle 149" width="24" height="24" transform="translate(377 359)" fill="none"/>
    <path id="Path_491" data-name="Path 491" d="M-598.971,1164.861a3.444,3.444,0,0,1,3.433-3.44v-2.747a3.444,3.444,0,0,1-3.433-3.44,3.444,3.444,0,0,1,3.433-3.44v-2.746h-12v2.746h.016a3.444,3.444,0,0,1,3.448,3.44,3.444,3.444,0,0,1-3.448,3.44h-.016v2.747h.016a3.444,3.444,0,0,1,3.448,3.44,3.444,3.444,0,0,1-3.448,3.44h-.016v2.746h12V1168.3A3.444,3.444,0,0,1-598.971,1164.861Z" transform="translate(990.538 -789.048)"/>
  </g>
</svg>
