<svg width="24" height="24" viewBox="0 0 24 24" fill="none" xmlns="http://www.w3.org/2000/svg">
<path d="M14.567 16.813C14.5681 15.9021 14.9299 15.0288 15.5732 14.3841C16.2166 13.7394 17.0892 13.3759 18 13.373V10.6259C17.0892 10.623 16.2166 10.2595 15.5732 9.61484C14.9299 8.97014 14.5681 8.09681 14.567 7.186C14.5681 6.2752 14.9299 5.40187 15.5732 4.75717C16.2166 4.11248 17.0892 3.74885 18 3.74594V0.999969H6V3.74594H6.01605C6.46832 3.74542 6.91624 3.83409 7.33429 4.00668C7.75234 4.17928 8.13228 4.43249 8.45245 4.75192C8.77263 5.07136 9.02676 5.45073 9.20032 5.86838C9.37388 6.28602 9.46353 6.73373 9.46405 7.186C9.46353 7.63828 9.37388 8.08599 9.20032 8.50363C9.02676 8.92128 8.77263 9.30065 8.45245 9.62009C8.13228 9.93952 7.75234 10.1927 7.33429 10.3653C6.91624 10.5379 6.46832 10.6265 6.01605 10.6259H6V13.373H6.01605C6.46832 13.3725 6.91624 13.461 7.33429 13.6336C7.75234 13.8062 8.13228 14.0594 8.45245 14.3789C8.77263 14.6983 9.02676 15.0777 9.20032 15.4953C9.37388 15.913 9.46353 16.3607 9.46405 16.813C9.46353 17.2652 9.37388 17.7131 9.20032 18.1307C9.02676 18.5484 8.77263 18.9276 8.45245 19.247C8.13228 19.5665 7.75234 19.8198 7.33429 19.9924C6.91624 20.165 6.46832 20.2535 6.01605 20.253H6V22.999H18V20.252C17.0894 20.2491 16.217 19.8857 15.5736 19.2412C14.9303 18.5967 14.5683 17.7236 14.567 16.813Z" fill="black"/>
</svg>
