<svg width="24" height="24" viewBox="0 0 24 24" fill="none" xmlns="http://www.w3.org/2000/svg">
<path d="M16.033 7.67299C16.5823 7.41554 17.0537 7.01725 17.3991 6.5186C17.7446 6.01995 17.9519 5.43873 18 4.834C18 2.717 15.314 1 12 1C8.68601 1 6.00001 2.716 6.00001 4.834C6.04807 5.43873 6.25539 6.01995 6.60087 6.5186C6.94636 7.01725 7.41771 7.41554 7.96701 7.67299C2.96701 8.81499 3.00001 12.008 3.00001 12.008V21.658C3.00001 22.0293 3.1475 22.3854 3.41006 22.6479C3.67261 22.9105 4.0287 23.058 4.40001 23.058C4.77131 23.058 5.12741 22.9105 5.38996 22.6479C5.65251 22.3854 5.80001 22.0293 5.80001 21.658V14.874C5.80001 14.7414 5.85269 14.6142 5.94645 14.5204C6.04022 14.4267 6.1674 14.374 6.30001 14.374C6.43262 14.374 6.55979 14.4267 6.65356 14.5204C6.74733 14.6142 6.80001 14.7414 6.80001 14.874V21.658C6.80001 22.0293 6.94751 22.3854 7.21006 22.6479C7.47261 22.9105 7.82871 23.058 8.20001 23.058C8.57131 23.058 8.9274 22.9105 9.18995 22.6479C9.45251 22.3854 9.6 22.0293 9.6 21.658V14.874C9.6 14.7414 9.65269 14.6142 9.74646 14.5204C9.84023 14.4267 9.9674 14.374 10.1 14.374C10.2326 14.374 10.3598 14.4267 10.4536 14.5204C10.5473 14.6142 10.6 14.7414 10.6 14.874V21.658C10.6 22.0293 10.7475 22.3854 11.0101 22.6479C11.2726 22.9105 11.6287 23.058 12 23.058C12.3713 23.058 12.7274 22.9105 12.99 22.6479C13.2525 22.3854 13.4 22.0293 13.4 21.658V14.874C13.4 14.7414 13.4527 14.6142 13.5465 14.5204C13.6402 14.4267 13.7674 14.374 13.9 14.374C14.0326 14.374 14.1598 14.4267 14.2536 14.5204C14.3473 14.6142 14.4 14.7414 14.4 14.874V21.658C14.4 22.0293 14.5475 22.3854 14.8101 22.6479C15.0726 22.9105 15.4287 23.058 15.8 23.058C16.1713 23.058 16.5274 22.9105 16.79 22.6479C17.0525 22.3854 17.2 22.0293 17.2 21.658V14.874C17.2 14.7414 17.2527 14.6142 17.3465 14.5204C17.4402 14.4267 17.5674 14.374 17.7 14.374C17.8326 14.374 17.9598 14.4267 18.0536 14.5204C18.1473 14.6142 18.2 14.7414 18.2 14.874V21.658C18.2 22.0293 18.3475 22.3854 18.6101 22.6479C18.8726 22.9105 19.2287 23.058 19.6 23.058C19.9713 23.058 20.3274 22.9105 20.59 22.6479C20.8525 22.3854 21 22.0293 21 21.658V12.008C21 12.008 21.037 8.81499 16.033 7.67299ZM9.15301 3.62199C9.11801 3.71572 9.10006 3.81495 9.1 3.91499C9.1 4.76199 10.4 5.44899 12 5.44899C13.6 5.44899 14.9 4.76199 14.9 3.91499C14.9 3.81495 14.882 3.71572 14.847 3.62199C15.559 3.93399 16 4.362 16 4.834C16 5.787 14.209 6.56 12 6.56C9.79101 6.56 8.00001 5.787 8.00001 4.834C8.00001 4.362 8.44001 3.93399 9.15301 3.62199Z" fill="black"/>
</svg>
