<svg width="24" height="24" viewBox="0 0 24 24" fill="none" xmlns="http://www.w3.org/2000/svg">
<path d="M22 11.589V10.476L21.955 10.495C21.0013 10.8972 19.9876 11.1385 18.955 11.209C17.8682 11.3001 16.7749 11.147 15.755 10.761C15.1601 10.534 14.6196 10.1845 14.1685 9.7352C13.7173 9.28593 13.3655 8.74689 13.136 8.15302C12.7717 7.25038 12.6762 6.26168 12.861 5.30602C13.0529 4.31067 13.6209 3.42753 14.447 2.84002C15.0204 2.42461 15.6871 2.15662 16.3885 2.05966C17.0899 1.9627 17.8044 2.03975 18.469 2.28402C19.0535 2.48699 19.5781 2.83263 19.9953 3.28961C20.4125 3.7466 20.709 4.30047 20.858 4.90102C21.0519 5.64648 20.9984 6.43475 20.7055 7.14716C20.4126 7.85956 19.8961 8.45753 19.234 8.85101C18.6332 9.20202 17.9311 9.33905 17.2424 9.2397C16.5538 9.14036 15.9191 8.81052 15.442 8.30402C15.0944 7.95008 14.849 7.50876 14.7318 7.02677C14.6146 6.54477 14.6298 6.04005 14.776 5.56602C14.8943 5.13286 15.1361 4.74349 15.4718 4.44536C15.8076 4.14723 16.2229 3.95323 16.667 3.88702C16.976 3.81186 17.2986 3.81244 17.6073 3.8887C17.9161 3.96497 18.2018 4.11467 18.4403 4.32507C18.6788 4.53548 18.8629 4.80036 18.9771 5.09719C19.0912 5.39403 19.132 5.71404 19.096 6.03002C19.0563 6.40016 18.8811 6.74256 18.6042 6.9914C18.3273 7.24023 17.9682 7.37793 17.596 7.37802C17.3091 7.38257 17.0321 7.27307 16.8259 7.07358C16.6196 6.87409 16.501 6.6009 16.496 6.31401C16.5098 6.16971 16.5669 6.03298 16.6599 5.92178C16.7529 5.81059 16.8774 5.73013 17.017 5.69102C17.211 5.63902 17.266 5.73002 17.294 5.78002C17.3268 5.84123 17.3717 5.89516 17.426 5.93854C17.4802 5.98192 17.5427 6.01386 17.6096 6.03241C17.6766 6.05097 17.7466 6.05575 17.8154 6.04649C17.8843 6.03724 17.9505 6.01413 18.0102 5.97855C18.0699 5.94297 18.1217 5.89565 18.1626 5.83948C18.2034 5.78331 18.2325 5.71944 18.248 5.65172C18.2635 5.584 18.2651 5.51384 18.2527 5.44549C18.2403 5.37713 18.2142 5.312 18.176 5.25401C18.0363 5.0142 17.8194 4.82878 17.5608 4.72799C17.3022 4.6272 17.0171 4.61699 16.752 4.69901C16.3973 4.79727 16.0826 5.00471 15.8525 5.29191C15.6224 5.57911 15.4885 5.93147 15.47 6.29901C15.4606 6.84781 15.6692 7.37793 16.0502 7.7731C16.4311 8.16828 16.9532 8.39624 17.502 8.40701C17.8113 8.43271 18.1226 8.39438 18.4165 8.29442C18.7104 8.19446 18.9805 8.03501 19.21 7.82602C19.6786 7.40488 19.9924 6.83865 20.101 6.21802C20.1666 5.73851 20.1153 5.25022 19.9514 4.79483C19.7875 4.33945 19.5158 3.93049 19.1596 3.60285C18.8034 3.27521 18.3731 3.03862 17.9057 2.91328C17.4382 2.78793 16.9473 2.77755 16.475 2.88302C15.8438 2.98337 15.2547 3.2629 14.7779 3.68837C14.301 4.11384 13.9564 4.66734 13.785 5.28302C13.5874 5.93969 13.5712 6.63759 13.7381 7.30272C13.905 7.96785 14.2488 8.57543 14.733 9.06102C15.5285 9.84133 16.5919 10.2885 17.706 10.311C18.4235 10.3072 19.1271 10.1129 19.745 9.74802C20.5633 9.26828 21.2101 8.54344 21.594 7.67601C21.9612 6.83745 22.0755 5.90992 21.9229 5.0073C21.7703 4.10468 21.3574 3.26627 20.735 2.59502C20.2035 2.03228 19.5496 1.59944 18.824 1.33002C18.0017 1.02651 17.1174 0.930066 16.2491 1.04918C15.3808 1.16829 14.5551 1.49931 13.845 2.01302C12.973 2.63382 12.3251 3.51988 11.998 4.53902C11.6706 3.51998 11.0228 2.63397 10.151 2.01302C9.44103 1.49931 8.61553 1.1683 7.74736 1.04918C6.87919 0.930064 5.99504 1.02651 5.17297 1.33002C4.44733 1.59944 3.79344 2.03228 3.26196 2.59502C2.63952 3.26627 2.22665 4.10468 2.07405 5.0073C1.92145 5.90992 2.03578 6.83745 2.40297 7.67601C2.78684 8.54344 3.43365 9.26828 4.25197 9.74802C4.8698 10.1129 5.57344 10.3072 6.29097 10.311C7.40506 10.2885 8.46849 9.84133 9.26398 9.06102C9.74818 8.57543 10.092 7.96785 10.2589 7.30272C10.4257 6.63759 10.4096 5.93969 10.212 5.28302C10.0405 4.6672 9.69573 4.11361 9.21866 3.68813C8.74159 3.26265 8.15231 2.98319 7.52097 2.88302C7.04861 2.77755 6.55775 2.78793 6.09027 2.91328C5.62279 3.03862 5.19258 3.27521 4.83635 3.60285C4.48012 3.93049 4.20845 4.33945 4.04453 4.79483C3.8806 5.25022 3.8293 5.73851 3.89497 6.21802C4.00446 6.83834 4.31806 7.4043 4.78596 7.82602C5.01557 8.03486 5.2857 8.19422 5.57954 8.29418C5.87338 8.39413 6.18465 8.43253 6.49397 8.40701C7.04266 8.39598 7.5646 8.16793 7.94547 7.77281C8.32633 7.3777 8.53508 6.84773 8.52597 6.29901C8.50734 5.93134 8.37336 5.57888 8.14305 5.29167C7.91274 5.00446 7.59781 4.79709 7.24297 4.69901C6.97782 4.61699 6.69271 4.6272 6.43411 4.72799C6.17551 4.82878 5.95868 5.0142 5.81897 5.25401C5.78071 5.312 5.75461 5.37713 5.74223 5.44549C5.72985 5.51384 5.73146 5.584 5.74695 5.65172C5.76244 5.71944 5.7915 5.78331 5.83237 5.83948C5.87324 5.89565 5.92506 5.94297 5.98473 5.97855C6.04439 6.01413 6.11064 6.03724 6.17949 6.04649C6.24834 6.05575 6.31836 6.05097 6.3853 6.03241C6.45224 6.01386 6.51473 5.98192 6.56898 5.93854C6.62324 5.89516 6.66814 5.84123 6.70097 5.78002C6.72997 5.73102 6.78397 5.63902 6.97897 5.69102C7.11851 5.73005 7.24291 5.8105 7.33575 5.92174C7.4286 6.03297 7.48552 6.16975 7.49898 6.31401C7.49689 6.45628 7.46676 6.59675 7.41032 6.72736C7.35389 6.85797 7.27225 6.97615 7.17007 7.07517C7.0679 7.17418 6.9472 7.25207 6.81488 7.30438C6.68256 7.35669 6.54123 7.3824 6.39897 7.38002C6.02683 7.37948 5.66797 7.24162 5.39117 6.99288C5.11438 6.74413 4.93912 6.40199 4.89897 6.03201C4.86262 5.71588 4.90323 5.39564 5.01735 5.09859C5.13147 4.80154 5.31571 4.53648 5.55438 4.326C5.79305 4.11552 6.07907 3.96586 6.38806 3.88977C6.69705 3.81369 7.01985 3.81342 7.32896 3.88902C7.77308 3.95523 8.18834 4.14923 8.52411 4.44736C8.85988 4.74549 9.10166 5.13486 9.21997 5.56802C9.36591 6.04207 9.38106 6.54674 9.26382 7.02869C9.14659 7.51064 8.90134 7.95196 8.55397 8.30602C8.07697 8.81267 7.44226 9.14262 6.75352 9.24197C6.06479 9.34133 5.36271 9.2042 4.76196 8.85301C4.09978 8.45953 3.58338 7.86156 3.29048 7.14916C2.99758 6.43675 2.94406 5.64847 3.13797 4.90302C3.28713 4.30254 3.58371 3.74875 4.00085 3.2918C4.418 2.83484 4.94255 2.48915 5.52698 2.28602C6.19157 2.04175 6.90603 1.9647 7.60742 2.06166C8.30881 2.15862 8.97557 2.42661 9.54897 2.84202C10.375 3.42953 10.943 4.31267 11.135 5.30802C11.3197 6.26368 11.2242 7.25238 10.86 8.15502C10.6304 8.74889 10.2786 9.28793 9.82748 9.7372C9.37632 10.1865 8.83581 10.536 8.24097 10.763C7.22102 11.149 6.12769 11.302 5.04097 11.211C4.00837 11.1405 2.99462 10.8992 2.04097 10.497L1.99597 10.478V13.516L2.04097 13.497C2.99447 13.0943 4.0083 12.853 5.04097 12.783C6.12772 12.691 7.22127 12.8441 8.24097 13.231C8.8359 13.4579 9.3765 13.8073 9.82768 14.2566C10.2789 14.7059 10.6306 15.245 10.86 15.839C11.2243 16.7416 11.3198 17.7304 11.135 18.686C10.9428 19.6813 10.3749 20.5644 9.54897 21.152C8.97557 21.5674 8.30881 21.8354 7.60742 21.9324C6.90603 22.0293 6.19157 21.9523 5.52698 21.708C4.94259 21.5048 4.4181 21.1591 4.00096 20.7022C3.58383 20.2452 3.28721 19.6915 3.13797 19.091C2.94389 18.3456 2.99732 17.5572 3.29024 16.8448C3.58315 16.1323 4.09967 15.5344 4.76196 15.141C5.36271 14.7898 6.06479 14.6527 6.75352 14.7521C7.44226 14.8514 8.07697 15.1814 8.55397 15.688C8.90143 16.042 9.14676 16.4833 9.26399 16.9653C9.38123 17.4473 9.36601 17.952 9.21997 18.426C9.10132 18.859 8.85944 19.2482 8.52373 19.5463C8.18802 19.8443 7.77294 20.0384 7.32896 20.105C7.01995 20.1796 6.69751 20.1787 6.38895 20.1022C6.08038 20.0258 5.79479 19.8761 5.55637 19.6658C5.31794 19.4555 5.13371 19.1909 5.01927 18.8943C4.90484 18.5977 4.86357 18.2779 4.89897 17.962C4.93912 17.5921 5.11438 17.2499 5.39117 17.0012C5.66797 16.7524 6.02683 16.6146 6.39897 16.614C6.54107 16.6116 6.68223 16.6373 6.81442 16.6895C6.94661 16.7416 7.06722 16.8193 7.16937 16.9182C7.27152 17.017 7.35321 17.1349 7.40976 17.2653C7.46631 17.3957 7.49663 17.5359 7.49898 17.678C7.48552 17.8223 7.4286 17.9591 7.33575 18.0703C7.24291 18.1815 7.11851 18.262 6.97897 18.301C6.77897 18.353 6.72997 18.262 6.70097 18.212C6.66814 18.1508 6.62324 18.0969 6.56898 18.0535C6.51473 18.0101 6.45224 17.9782 6.3853 17.9596C6.31836 17.9411 6.24834 17.9363 6.17949 17.9455C6.11064 17.9548 6.04439 17.9779 5.98473 18.0135C5.92506 18.0491 5.87324 18.0964 5.83237 18.1526C5.7915 18.2087 5.76244 18.2726 5.74695 18.3403C5.73146 18.408 5.72985 18.4782 5.74223 18.5465C5.75461 18.6149 5.78071 18.68 5.81897 18.738C5.95868 18.9778 6.17551 19.1633 6.43411 19.264C6.69271 19.3648 6.97782 19.375 7.24297 19.293C7.59781 19.1949 7.91274 18.9876 8.14305 18.7004C8.37336 18.4132 8.50734 18.0607 8.52597 17.693C8.53534 17.1441 8.32654 16.6138 7.9454 16.2186C7.56426 15.8234 7.04191 15.5955 6.49297 15.585C6.18362 15.5593 5.87231 15.5976 5.57843 15.6975C5.28455 15.7975 5.01444 15.957 4.78497 16.166C4.31706 16.5877 4.00346 17.1537 3.89397 17.774C3.82653 18.2548 3.87677 18.7447 4.04036 19.2017C4.20395 19.6588 4.47603 20.0693 4.83321 20.3981C5.19039 20.7268 5.62201 20.964 6.09103 21.0892C6.56005 21.2145 7.05245 21.224 7.52597 21.117C8.15727 21.0167 8.74649 20.7372 9.22354 20.3118C9.70059 19.8863 10.0454 19.3328 10.217 18.717C10.4145 18.0603 10.4308 17.3624 10.2639 16.6973C10.097 16.0322 9.75317 15.4246 9.26897 14.939C8.4736 14.1586 7.41003 13.7118 6.29597 13.69C5.57838 13.6933 4.87459 13.8876 4.25697 14.253C3.43866 14.7328 2.79184 15.4576 2.40797 16.325C2.04078 17.1636 1.92646 18.0911 2.07906 18.9937C2.23165 19.8964 2.64452 20.7348 3.26697 21.406C3.79883 21.9681 4.45262 22.4005 5.17796 22.67C6.00006 22.9733 6.88418 23.0697 7.75232 22.9506C8.62046 22.8315 9.44595 22.5006 10.156 21.987C11.0282 21.3665 11.6761 20.4803 12.003 19.461C12.3299 20.4803 12.9779 21.3664 13.85 21.987C14.5602 22.5005 15.3859 22.8313 16.2542 22.9505C17.1224 23.0696 18.0067 22.9733 18.829 22.67C19.5543 22.4005 20.2081 21.9681 20.74 21.406C21.3624 20.7348 21.7753 19.8964 21.9279 18.9937C22.0805 18.0911 21.9662 17.1636 21.599 16.325C21.2151 15.4576 20.5683 14.7328 19.75 14.253C19.1323 13.8876 18.4286 13.6933 17.711 13.69C16.5969 13.7118 15.5333 14.1586 14.738 14.939C14.2538 15.4246 13.91 16.0322 13.7431 16.6973C13.5762 17.3624 13.5924 18.0603 13.79 18.717C13.9616 19.3326 14.3063 19.886 14.7831 20.3114C15.26 20.7368 15.8489 21.0164 16.48 21.117C16.8647 21.2029 17.2626 21.2121 17.6508 21.1441C18.0391 21.0761 18.4102 20.9323 18.7428 20.7208C19.0755 20.5094 19.3632 20.2344 19.5896 19.9117C19.8159 19.589 19.9764 19.2248 20.062 18.84C20.14 18.4928 20.1549 18.1345 20.106 17.782C19.9974 17.1614 19.6836 16.5951 19.215 16.174C18.9856 15.9648 18.7155 15.8052 18.4216 15.7053C18.1277 15.6053 17.8163 15.5671 17.507 15.593C16.9581 15.6035 16.4359 15.8314 16.0549 16.2267C15.6739 16.6219 15.4653 17.1521 15.475 17.701C15.4935 18.0686 15.6274 18.4209 15.8575 18.7081C16.0876 18.9953 16.4023 19.2028 16.757 19.301C17.0221 19.383 17.3072 19.3728 17.5658 19.272C17.8244 19.1712 18.0413 18.9858 18.181 18.746C18.2192 18.688 18.2453 18.6229 18.2577 18.5545C18.2701 18.4862 18.2685 18.416 18.253 18.3483C18.2375 18.2806 18.2084 18.2167 18.1676 18.1606C18.1267 18.1044 18.0749 18.0571 18.0152 18.0215C17.9556 17.9859 17.8893 17.9628 17.8204 17.9535C17.7516 17.9443 17.6816 17.9491 17.6146 17.9676C17.5477 17.9862 17.4852 18.0181 17.431 18.0615C17.3767 18.1049 17.3318 18.1588 17.299 18.22C17.27 18.269 17.215 18.361 17.022 18.309C16.8824 18.2699 16.7579 18.1895 16.6649 18.0783C16.5719 17.9671 16.5148 17.8303 16.501 17.686C16.5031 17.5437 16.5332 17.4032 16.5896 17.2725C16.646 17.1419 16.7276 17.0236 16.8298 16.9245C16.932 16.8254 17.0527 16.7474 17.185 16.695C17.3173 16.6426 17.4587 16.6168 17.601 16.619C17.9732 16.6191 18.3323 16.7568 18.6092 17.0056C18.8861 17.2545 19.0612 17.5969 19.101 17.967C19.137 18.283 19.0963 18.603 18.9821 18.8998C18.868 19.1967 18.6838 19.4616 18.4453 19.672C18.2068 19.8824 17.9211 20.0321 17.6123 20.1083C17.3036 20.1846 16.981 20.1852 16.672 20.11C16.228 20.0434 15.8129 19.8493 15.4772 19.5512C15.1415 19.2532 14.8996 18.864 14.781 18.431C14.6347 17.957 14.6194 17.4522 14.7366 16.9702C14.8539 16.4882 15.0993 16.0469 15.447 15.693C15.924 15.1864 16.5587 14.8564 17.2474 14.7571C17.9361 14.6577 18.6382 14.7948 19.239 15.146C19.9013 15.5394 20.4178 16.1373 20.7107 16.8498C21.0036 17.5622 21.0571 18.3506 20.863 19.096C20.7137 19.6965 20.4171 20.2502 20 20.7071C19.5829 21.1641 19.0584 21.5098 18.474 21.713C17.8094 21.9573 17.0949 22.0343 16.3935 21.9374C15.6921 21.8404 15.0254 21.5724 14.452 21.157C13.626 20.5694 13.0581 19.6863 12.866 18.691C12.6811 17.7354 12.7766 16.7466 13.141 15.844C13.3704 15.25 13.7221 14.7109 14.1733 14.2616C14.6244 13.8124 15.165 13.4629 15.76 13.236C16.7796 12.849 17.8732 12.6959 18.96 12.788C19.9926 12.858 21.0065 13.0993 21.96 13.502L22.005 13.521V11.591L22 11.589ZM12 13.801C11.6242 13.801 11.2568 13.6896 10.9444 13.4808C10.6319 13.272 10.3884 12.9753 10.2446 12.6281C10.1008 12.2809 10.0632 11.8989 10.1365 11.5304C10.2098 11.1618 10.3907 10.8232 10.6565 10.5575C10.9222 10.2918 11.2607 10.1108 11.6293 10.0375C11.9979 9.96421 12.3799 10.0018 12.7271 10.1456C13.0742 10.2895 13.371 10.533 13.5798 10.8454C13.7885 11.1579 13.9 11.5252 13.9 11.901C13.9 12.4049 13.6998 12.8882 13.3435 13.2445C12.9872 13.6008 12.5039 13.801 12 13.801Z" fill="black"/>
</svg>
