<svg width="24" height="24" viewBox="0 0 24 24" fill="none" xmlns="http://www.w3.org/2000/svg">
<path d="M16.756 5.75601C16.7454 5.74593 16.7366 5.73409 16.73 5.72101C16.3863 5.01801 15.9296 4.37616 15.3781 3.82101L15.338 3.78101C14.7828 3.22953 14.141 2.77281 13.438 2.42902C13.4262 2.42277 13.4153 2.41468 13.406 2.40503L12.006 1.005L10.606 2.40503C10.5961 2.41516 10.5846 2.4236 10.572 2.43002C9.86727 2.77172 9.22338 3.22676 8.66602 3.77701L8.62701 3.81601C8.07512 4.37107 7.61808 5.01293 7.27405 5.716C7.26751 5.72796 7.25905 5.73878 7.24902 5.74802L5.75806 7.23901C5.74812 7.24883 5.73658 7.25692 5.724 7.263C5.01919 7.60663 4.37565 8.06375 3.81903 8.61603L3.78003 8.65503C3.22814 9.21009 2.77104 9.85195 2.427 10.555C2.42063 10.5665 2.41255 10.577 2.40302 10.586L1.00305 11.986L2.40302 13.386C2.41228 13.3954 2.42004 13.4062 2.42603 13.418C2.77032 14.1246 3.2288 14.7696 3.78302 15.327L3.81305 15.357C4.37044 15.9112 5.01543 16.3697 5.72205 16.714C5.73522 16.7209 5.74705 16.73 5.75702 16.741L7.24805 18.232C7.25732 18.2414 7.26509 18.2522 7.27106 18.264C7.61532 18.9706 8.07381 19.6156 8.62805 20.173L8.65802 20.203C9.21381 20.7632 9.85855 21.2275 10.566 21.577C10.5791 21.5836 10.591 21.5924 10.601 21.603L12.001 23.003L13.401 21.603C13.4104 21.5937 13.4212 21.586 13.433 21.58C14.1361 21.2363 14.7779 20.7796 15.333 20.228L15.374 20.187C15.9255 19.6318 16.3822 18.99 16.726 18.287C16.7328 18.2746 16.7415 18.2635 16.752 18.254L18.243 16.763C18.2525 16.7537 18.2632 16.746 18.275 16.74C18.978 16.3962 19.6199 15.9395 20.175 15.388L20.216 15.347C20.7675 14.7918 21.2243 14.15 21.5681 13.447C21.5748 13.4346 21.5836 13.4235 21.5941 13.414L22.994 12.014L21.5941 10.614C21.5838 10.6038 21.5753 10.592 21.569 10.579C21.2253 9.87601 20.7686 9.23417 20.217 8.67902L20.177 8.63901C19.6218 8.08754 18.98 7.63083 18.277 7.28702C18.2652 7.28077 18.2544 7.27265 18.2451 7.263L16.754 5.772L16.756 5.75601ZM15.411 16.73C15.4325 16.7407 15.4506 16.7572 15.4633 16.7776C15.4759 16.798 15.4826 16.8215 15.4826 16.8455C15.4826 16.8695 15.4759 16.893 15.4633 16.9135C15.4506 16.9339 15.4325 16.9503 15.411 16.961C13.9727 17.6607 12.8107 18.8227 12.111 20.261C12.1003 20.2825 12.0839 20.3006 12.0635 20.3132C12.0431 20.3259 12.0195 20.3326 11.9955 20.3326C11.9715 20.3326 11.948 20.3259 11.9276 20.3132C11.9072 20.3006 11.8907 20.2825 11.88 20.261C11.1803 18.8227 10.0183 17.6607 8.58002 16.961C8.55821 16.9506 8.5398 16.9342 8.52692 16.9138C8.51403 16.8933 8.5072 16.8697 8.5072 16.8455C8.5072 16.8214 8.51403 16.7977 8.52692 16.7773C8.5398 16.7568 8.55821 16.7404 8.58002 16.73C10.0182 16.0301 11.1801 14.8682 11.88 13.43C11.8904 13.4082 11.9068 13.3898 11.9272 13.3769C11.9477 13.364 11.9714 13.3572 11.9955 13.3572C12.0197 13.3572 12.0433 13.364 12.0638 13.3769C12.0842 13.3898 12.1006 13.4082 12.111 13.43C12.8111 14.8684 13.9734 16.0304 15.412 16.73H15.411ZM7.26904 8.58801C7.96879 10.0263 9.13076 11.1883 10.569 11.888C10.5908 11.8984 10.6092 11.9148 10.6221 11.9352C10.635 11.9557 10.6418 11.9793 10.6418 12.0035C10.6418 12.0277 10.635 12.0513 10.6221 12.0718C10.6092 12.0922 10.5908 12.1086 10.569 12.119C9.13076 12.8188 7.96879 13.9807 7.26904 15.419C7.25835 15.4405 7.24184 15.4586 7.22144 15.4712C7.20103 15.4839 7.17751 15.4906 7.1535 15.4906C7.1295 15.4906 7.10598 15.4839 7.08557 15.4712C7.06517 15.4586 7.04871 15.4405 7.03802 15.419C6.33834 13.9807 5.17635 12.8187 3.73804 12.119C3.71655 12.1083 3.69843 12.0918 3.68579 12.0714C3.67315 12.051 3.6665 12.0275 3.6665 12.0035C3.6665 11.9795 3.67315 11.956 3.68579 11.9356C3.69843 11.9152 3.71655 11.8987 3.73804 11.888C5.17613 11.188 6.33802 10.0261 7.03802 8.58801C7.04871 8.56652 7.06517 8.54844 7.08557 8.5358C7.10598 8.52316 7.1295 8.51648 7.1535 8.51648C7.17751 8.51648 7.20103 8.52316 7.22144 8.5358C7.24184 8.54844 7.25835 8.56652 7.26904 8.58801ZM20.257 11.888C20.2785 11.8987 20.2966 11.9152 20.3093 11.9356C20.3219 11.956 20.3286 11.9795 20.3286 12.0035C20.3286 12.0275 20.3219 12.051 20.3093 12.0714C20.2966 12.0918 20.2785 12.1083 20.257 12.119C18.8187 12.8188 17.6568 13.9807 16.957 15.419C16.9463 15.4405 16.9299 15.4586 16.9095 15.4712C16.8891 15.4839 16.8656 15.4906 16.8416 15.4906C16.8176 15.4906 16.794 15.4839 16.7736 15.4712C16.7532 15.4586 16.7367 15.4405 16.726 15.419C16.0263 13.9807 14.8643 12.8188 13.426 12.119C13.4045 12.1083 13.3865 12.0918 13.3738 12.0714C13.3612 12.051 13.3545 12.0275 13.3545 12.0035C13.3545 11.9795 13.3612 11.956 13.3738 11.9356C13.3865 11.9152 13.4045 11.8987 13.426 11.888C14.8642 11.1881 16.0261 10.0262 16.726 8.58801C16.7367 8.56652 16.7532 8.54844 16.7736 8.5358C16.794 8.52316 16.8176 8.51648 16.8416 8.51648C16.8656 8.51648 16.8891 8.52316 16.9095 8.5358C16.9299 8.54844 16.9463 8.56652 16.957 8.58801C17.6574 10.0248 18.8193 11.1853 20.257 11.884V11.888ZM12.1151 3.746C12.8148 5.18427 13.9768 6.34627 15.415 7.04602C15.4365 7.05671 15.4546 7.07316 15.4672 7.09357C15.4799 7.11397 15.4866 7.1375 15.4866 7.1615C15.4866 7.1855 15.4799 7.20906 15.4672 7.22946C15.4546 7.24987 15.4365 7.26632 15.415 7.27701C13.9768 7.97676 12.8148 9.13875 12.1151 10.577C12.1044 10.5985 12.0878 10.6166 12.0674 10.6292C12.047 10.6419 12.0235 10.6486 11.9995 10.6486C11.9755 10.6486 11.952 10.6419 11.9316 10.6292C11.9112 10.6166 11.8947 10.5985 11.884 10.577C11.1843 9.13871 10.0224 7.97669 8.58405 7.27701C8.56224 7.26659 8.54383 7.25024 8.53094 7.2298C8.51806 7.20936 8.51117 7.18566 8.51117 7.1615C8.51117 7.13734 8.51806 7.11367 8.53094 7.09323C8.54383 7.07279 8.56224 7.05644 8.58405 7.04602C10.0222 6.34608 11.1841 5.18414 11.884 3.746C11.8944 3.7242 11.9108 3.70579 11.9313 3.6929C11.9517 3.68001 11.9753 3.67319 11.9995 3.67319C12.0237 3.67319 12.0474 3.68001 12.0678 3.6929C12.0882 3.70579 12.1046 3.7242 12.1151 3.746Z" fill="black"/>
</svg>
