<svg xmlns="http://www.w3.org/2000/svg" width="24" height="24" viewBox="0 0 24 24">
  <g id="eban" transform="translate(-233 -263)">
    <rect id="Rectangle_149" data-name="Rectangle 149" width="24" height="24" transform="translate(233 263)" fill="none"/>
    <path id="Path_281" data-name="Path 281" d="M683.89,284.379a.127.127,0,0,1-.026-.035,7.156,7.156,0,0,0-1.352-1.9l-.04-.04a7.159,7.159,0,0,0-1.9-1.352.126.126,0,0,1-.032-.024h0l-1.4-1.4-1.4,1.4h0a.13.13,0,0,1-.034.025A7.158,7.158,0,0,0,675.8,282.4l-.039.039a7.155,7.155,0,0,0-1.353,1.9.125.125,0,0,1-.025.032h0l-1.491,1.491h0a.127.127,0,0,1-.034.024,7.159,7.159,0,0,0-1.905,1.353l-.039.039a7.155,7.155,0,0,0-1.353,1.9.129.129,0,0,1-.024.031h0l-1.4,1.4,1.4,1.4h0a.129.129,0,0,1,.023.032,7.148,7.148,0,0,0,1.357,1.909l.03.03a7.148,7.148,0,0,0,1.909,1.357h0a.125.125,0,0,1,.035.027h0l1.491,1.491h0a.128.128,0,0,1,.023.032,7.146,7.146,0,0,0,1.357,1.909l.03.03A7.147,7.147,0,0,0,677.7,300.2h0a.125.125,0,0,1,.035.026h0l1.4,1.4,1.4-1.4h0a.127.127,0,0,1,.032-.023,7.155,7.155,0,0,0,1.9-1.352l.041-.041a7.159,7.159,0,0,0,1.352-1.9.125.125,0,0,1,.026-.033h0l1.491-1.491h0a.128.128,0,0,1,.032-.023,7.158,7.158,0,0,0,1.9-1.352l.041-.041a7.159,7.159,0,0,0,1.352-1.9.126.126,0,0,1,.026-.033h0l1.4-1.4-1.4-1.4h0a.128.128,0,0,1-.025-.035,7.156,7.156,0,0,0-1.352-1.9l-.04-.04a7.16,7.16,0,0,0-1.9-1.352.126.126,0,0,1-.032-.024h0l-1.491-1.491Zm-1.345,10.974h0a.129.129,0,0,1,0,.231,7.146,7.146,0,0,0-3.3,3.3.129.129,0,0,1-.231,0,7.146,7.146,0,0,0-3.3-3.3.128.128,0,0,1,0-.231,7.15,7.15,0,0,0,3.3-3.3.128.128,0,0,1,.231,0A7.148,7.148,0,0,0,682.546,295.353Zm-8.142-8.142a7.147,7.147,0,0,0,3.3,3.3h0a.128.128,0,0,1,0,.231,7.147,7.147,0,0,0-3.3,3.3.129.129,0,0,1-.231,0,7.146,7.146,0,0,0-3.3-3.3.129.129,0,0,1,0-.231,7.151,7.151,0,0,0,3.3-3.3.129.129,0,0,1,.231,0Zm12.988,3.3h0a.129.129,0,0,1,0,.231,7.147,7.147,0,0,0-3.3,3.3.129.129,0,0,1-.231,0,7.147,7.147,0,0,0-3.3-3.3.129.129,0,0,1,0-.231,7.149,7.149,0,0,0,3.3-3.3.129.129,0,0,1,.231,0A7.146,7.146,0,0,0,687.391,290.507Zm-8.142-8.142a7.147,7.147,0,0,0,3.3,3.3h0a.129.129,0,0,1,0,.231,7.147,7.147,0,0,0-3.3,3.3.129.129,0,0,1-.231,0,7.146,7.146,0,0,0-3.3-3.3.128.128,0,0,1,0-.231,7.15,7.15,0,0,0,3.3-3.3.128.128,0,0,1,.231,0Z" transform="translate(-434.134 -15.623)"/>
  </g>
</svg>
