<svg width="24" height="24" viewBox="0 0 24 24" fill="none" xmlns="http://www.w3.org/2000/svg">
<path d="M8.44294 8.44306C9.20693 7.67906 9.20693 6.44039 8.44294 5.67639C7.67895 4.9124 6.44027 4.9124 5.67627 5.67639C4.91228 6.44038 4.91228 7.67906 5.67627 8.44306C6.44027 9.20705 7.67895 9.20705 8.44294 8.44306Z" fill="black"/>
<path d="M18.3239 5.67639C17.5599 4.9124 16.3212 4.9124 15.5572 5.67639C14.7932 6.44038 14.7932 7.67906 15.5572 8.44306C16.3212 9.20705 17.5599 9.20705 18.3239 8.44306C19.0879 7.67906 19.0879 6.44038 18.3239 5.67639Z" fill="black"/>
<path d="M18.3239 18.324C19.0879 17.56 19.0879 16.3213 18.3239 15.5573C17.5599 14.7933 16.3212 14.7933 15.5572 15.5573C14.7932 16.3213 14.7932 17.56 15.5572 18.324C16.3212 19.088 17.5599 19.088 18.3239 18.324Z" fill="black"/>
<path d="M8.44294 15.5573C7.67895 14.7933 6.44027 14.7933 5.67627 15.5573C4.91228 16.3213 4.91228 17.56 5.67627 18.324C6.44027 19.088 7.67895 19.088 8.44294 18.324C9.20693 17.56 9.20693 16.3213 8.44294 15.5573Z" fill="black"/>
<path fill-rule="evenodd" clip-rule="evenodd" d="M9.85005 4.88079C9.76204 4.76838 9.66629 4.66006 9.56278 4.55655C8.18032 3.17409 5.9389 3.17409 4.55643 4.55655C3.17397 5.93902 3.17397 8.18043 4.55643 9.5629C4.6612 9.66767 4.7709 9.7645 4.88479 9.85339C3.17377 10.8175 1.50216 11.4829 1.2731 11.5727C1.2534 11.5804 1.23698 11.5879 1.21913 11.5992C0.926944 11.7853 0.926959 12.2154 1.21916 12.4014C1.23701 12.4128 1.25343 12.4203 1.27313 12.428C1.50218 12.5177 3.17378 13.1831 4.88479 14.147C4.7709 14.2359 4.6612 14.3327 4.55643 14.4375C3.17397 15.82 3.17397 18.0614 4.55643 19.4438C5.9389 20.8263 8.18032 20.8263 9.56278 19.4438C9.66632 19.3403 9.76211 19.2319 9.85014 19.1195C10.8174 20.8334 11.483 22.4997 11.5725 22.7272C11.5802 22.7467 11.5876 22.7629 11.5989 22.7806C11.7848 23.0731 12.2151 23.0731 12.4012 22.7808C12.4125 22.763 12.42 22.7466 12.4278 22.7269C12.5175 22.4978 13.1828 20.8262 14.1467 19.1152C14.2356 19.2292 14.3325 19.339 14.4374 19.4438C15.8198 20.8263 18.0613 20.8263 19.4437 19.4438C20.8262 18.0614 20.8262 15.82 19.4437 14.4375C19.3401 14.3339 19.2317 14.2381 19.1192 14.15C20.8332 13.1828 22.4997 12.5173 22.7271 12.4279C22.7466 12.4203 22.7629 12.4128 22.7806 12.4016C23.0731 12.2156 23.0732 11.7851 22.7806 11.5991C22.7629 11.5878 22.7466 11.5804 22.7271 11.5727C22.4995 11.4833 20.8328 10.8179 19.1187 9.85078C19.2314 9.76261 19.34 9.66665 19.4437 9.5629C20.8262 8.18043 20.8262 5.93901 19.4437 4.55655C18.0613 3.17409 15.8198 3.17409 14.4374 4.55655C14.3324 4.66153 14.2354 4.77145 14.1464 4.88558C13.1826 3.17433 12.5175 1.50238 12.4278 1.2732C12.4201 1.25348 12.4125 1.23704 12.4012 1.21918C12.2151 0.926861 11.7847 0.926938 11.5988 1.21943C11.5876 1.23711 11.5802 1.25334 11.5725 1.27284C11.4831 1.50028 10.8174 3.16678 9.85005 4.88079ZM10.6238 7.33123L11.9999 9.82821L13.376 7.33122L12 4.83356L10.6238 7.33123ZM16.6688 10.624L14.1718 12.0002L16.6688 13.3762L19.1664 12.0002L16.6688 10.624ZM4.83293 12.0002L7.32999 13.3762L9.82766 12.0002L7.32999 10.624L4.83293 12.0002ZM13.376 16.67L12 19.1671L10.6238 16.67L12 14.1723L13.376 16.67ZM8.7723 8.77242C9.7182 7.82653 9.7182 6.29292 8.7723 5.34703C7.82641 4.40113 6.29281 4.40113 5.34691 5.34703C4.40101 6.29292 4.40101 7.82653 5.34691 8.77242C6.29281 9.71832 7.82641 9.71832 8.7723 8.77242ZM18.6533 5.34703C17.7074 4.40113 16.1738 4.40113 15.2279 5.34703C14.282 6.29292 14.282 7.82653 15.2279 8.77242C16.1738 9.71832 17.7074 9.71832 18.6533 8.77242C19.5992 7.82653 19.5992 6.29292 18.6533 5.34703ZM18.6533 18.6534C19.5992 17.7075 19.5992 16.1739 18.6533 15.228C17.7074 14.2821 16.1738 14.2821 15.2279 15.228C14.282 16.1739 14.282 17.7075 15.2279 18.6534C16.1738 19.5993 17.7074 19.5993 18.6533 18.6534ZM8.7723 15.228C7.82641 14.2821 6.29281 14.2821 5.34691 15.228C4.40101 16.1739 4.40101 17.7075 5.34691 18.6534C6.29281 19.5993 7.82641 19.5993 8.7723 18.6534C9.7182 17.7075 9.7182 16.1739 8.7723 15.228Z" fill="black"/>
</svg>
