<svg width="24" height="24" viewBox="0 0 24 24" fill="none" xmlns="http://www.w3.org/2000/svg">
<path d="M22.7979 16.084C22.6622 15.4197 22.4184 14.7822 22.076 14.197C23.011 11.774 23.02 7.72898 21.713 6.50998C21.328 6.15076 20.8684 5.881 20.367 5.72006C19.8657 5.55912 19.3352 5.51093 18.8131 5.57895C18.5981 5.57895 18.376 5.58795 18.15 5.57895C17.463 5.55495 17.2221 5.53103 16.7831 5.48703C16.4601 5.45503 16.058 5.414 15.328 5.358C14.8564 5.33316 14.3899 5.46501 14.0011 5.733C13.9472 5.39169 13.8243 5.06495 13.64 4.77267C13.4557 4.4804 13.2138 4.22863 12.929 4.03293V3.306C13.262 2.912 13.7159 2.57992 14.9149 2.72592C14.9609 2.73256 15.0078 2.73009 15.0528 2.7186C15.0978 2.7071 15.1402 2.6869 15.1773 2.65903C15.2145 2.63116 15.2457 2.59623 15.2694 2.55624C15.293 2.51625 15.3085 2.47199 15.315 2.42599C15.3203 2.38045 15.3165 2.33431 15.3038 2.29025C15.2911 2.24619 15.2699 2.20508 15.2413 2.16928C15.2127 2.13348 15.1773 2.10365 15.1371 2.08163C15.0968 2.05961 15.0525 2.04583 15.0069 2.04098C14.5677 1.93538 14.1089 1.94268 13.6732 2.0621C13.2375 2.18152 12.839 2.40916 12.515 2.72397H11.4989C11.1749 2.40908 10.7766 2.18128 10.3409 2.06186C9.90518 1.94243 9.44619 1.93529 9.00693 2.04098C8.96134 2.04583 8.91726 2.05961 8.87705 2.08163C8.83684 2.10365 8.80144 2.13348 8.7728 2.16928C8.74416 2.20508 8.72271 2.24619 8.71005 2.29025C8.6974 2.33431 8.69379 2.38045 8.69907 2.42599C8.70556 2.47199 8.72109 2.51625 8.74472 2.55624C8.76836 2.59623 8.7996 2.63116 8.83676 2.65903C8.87392 2.6869 8.91627 2.7071 8.96127 2.7186C9.00628 2.73009 9.053 2.73256 9.09897 2.72592C10.252 2.58592 10.716 2.88695 11.046 3.26095V4.04599C10.768 4.24122 10.5317 4.48998 10.3512 4.7778C10.1707 5.06562 10.0496 5.38671 9.99497 5.72201C9.60926 5.46026 9.14842 5.33206 8.68295 5.35702C7.95295 5.41302 7.55088 5.45693 7.22788 5.48593C6.78888 5.52993 6.54693 5.55397 5.86093 5.57797C5.63393 5.58597 5.41309 5.57797 5.19809 5.57797C4.67598 5.51003 4.14521 5.55827 3.64389 5.71921C3.14258 5.88015 2.68294 6.14984 2.29794 6.509C0.990945 7.728 0.997861 11.7779 1.93686 14.1999C1.59564 14.7844 1.35245 15.4209 1.21689 16.084C0.90689 17.643 0.799945 19.767 2.04794 21.031C2.34904 21.3271 2.70633 21.5601 3.09873 21.7162C3.49113 21.8723 3.91063 21.9484 4.33286 21.94C4.52433 21.9399 4.71554 21.9254 4.90488 21.8969C5.45205 21.8262 5.977 21.6356 6.44199 21.3386C6.90698 21.0416 7.30073 20.6456 7.59506 20.1789C8.26226 18.9586 8.74675 17.647 9.03305 16.286C9.19827 15.6853 9.4094 15.0982 9.66489 14.53C9.48701 15.2904 9.39911 16.069 9.40293 16.8499C9.38064 18.0427 9.60196 19.2276 10.0531 20.332C10.5341 21.408 11.227 22 12.004 22C12.781 22 13.4749 21.407 13.9549 20.332C14.406 19.2276 14.6274 18.0427 14.6051 16.8499C14.6095 16.0321 14.5124 15.2169 14.316 14.4229C14.5922 15.0239 14.8193 15.6464 14.995 16.284C15.2813 17.645 15.7658 18.9566 16.433 20.177C16.7273 20.6436 17.1211 21.0396 17.586 21.3365C18.051 21.6335 18.5757 21.8241 19.1229 21.895C19.3122 21.9235 19.5034 21.9378 19.6949 21.938C20.1172 21.9462 20.5369 21.87 20.9293 21.7137C21.3217 21.5574 21.6791 21.3242 21.9801 21.0279C23.2151 19.7629 23.1079 17.639 22.7979 16.084ZM11.9901 4.79696C12.5251 4.79696 12.995 5.53697 12.995 6.37997C12.995 7.22297 12.5251 7.96298 11.9901 7.96298C11.4551 7.96298 10.985 7.22297 10.985 6.37997C10.985 5.53697 11.4551 4.79294 11.9911 4.79294L11.9901 4.79696ZM12.828 9.97592C12.8265 10.0832 12.804 10.1892 12.7616 10.2878C12.7192 10.3864 12.6578 10.4757 12.5809 10.5505C12.504 10.6254 12.4132 10.6842 12.3136 10.724C12.2139 10.7637 12.1071 10.7834 11.9998 10.7819C11.8926 10.7834 11.7861 10.7637 11.6864 10.724C11.5867 10.6842 11.4959 10.6254 11.419 10.5505C11.3421 10.4757 11.2808 10.3864 11.2384 10.2878C11.196 10.1892 11.1734 10.0832 11.172 9.97592C11.1734 9.86863 11.196 9.76273 11.2384 9.66415C11.2808 9.56558 11.3421 9.4763 11.419 9.40146C11.4959 9.32661 11.5867 9.26772 11.6864 9.228C11.7861 9.18828 11.8926 9.16856 11.9998 9.17001C12.216 9.16707 12.4247 9.24985 12.5799 9.40036C12.7351 9.55087 12.8243 9.75683 12.828 9.97299V9.97592ZM9.44809 12.57C8.82752 13.6595 8.33811 14.8184 7.99008 16.0229C7.72319 17.2776 7.28319 18.4893 6.68295 19.623C6.47125 19.9638 6.18592 20.2529 5.84799 20.4692C5.51007 20.6855 5.12822 20.8235 4.73007 20.873C4.38721 20.9346 4.03453 20.916 3.70004 20.8187C3.36556 20.7214 3.05813 20.5479 2.80185 20.312C2.06385 19.565 1.8719 18.171 2.2479 16.28C2.45247 15.3587 2.88117 14.502 3.49594 13.786C3.69594 13.5453 3.90886 13.3149 4.13486 13.0949C4.27786 12.9569 4.41807 12.83 4.55307 12.714C5.01743 12.3191 5.5144 11.9645 6.03891 11.654C6.77118 11.236 7.54511 10.8955 8.34799 10.638C8.70058 10.5314 9.06573 10.4722 9.43393 10.462C9.60334 10.4442 9.77411 10.4791 9.92295 10.562C10.2389 10.859 10.2161 11.126 9.44907 12.566L9.44809 12.57ZM8.37607 9.54294L8.33798 9.55295L8.02695 9.65292L7.84287 9.707C7.14594 9.92779 6.47336 10.2185 5.83505 10.5749C4.89711 11.072 4.03852 11.7064 3.28794 12.457C3.07594 12.667 2.87198 12.887 2.68198 13.117C2.06798 10.871 2.28187 7.949 3.01987 7.259C3.25185 7.02811 3.53139 6.85052 3.83896 6.73862C4.14653 6.62671 4.47476 6.58309 4.80087 6.61093C4.91687 6.61093 5.03786 6.61093 5.16586 6.61093C5.39486 6.61093 5.63203 6.61993 5.88803 6.61093C6.61003 6.58593 6.87902 6.55895 7.32602 6.51095C7.64302 6.47895 8.03795 6.44 8.75595 6.384C9.11001 6.42235 9.44137 6.57724 9.69785 6.82431C9.95433 7.07138 10.1214 7.39662 10.1729 7.74899C10.3119 8.60299 9.67307 9.23703 8.37607 9.53903V9.54294ZM11.9901 20.968C11.3631 20.968 10.453 19.368 10.453 16.853C10.453 14.338 11.3631 12.738 11.9901 12.738C12.6171 12.738 13.5269 14.338 13.5269 16.853C13.5269 19.368 12.6171 20.964 11.9911 20.964L11.9901 20.968ZM13.8241 7.75595C13.8771 7.41374 14.0372 7.09712 14.2813 6.85153C14.5255 6.60594 14.8411 6.44408 15.183 6.38901H15.2411C15.9591 6.44401 16.354 6.48396 16.671 6.51596C17.118 6.56096 17.387 6.58793 18.109 6.61593C18.365 6.62493 18.6019 6.61593 18.8309 6.61593C19.2139 6.55098 19.6068 6.57528 19.9789 6.68698C20.3509 6.79868 20.6921 6.99481 20.9759 7.25998C21.7149 7.94898 21.928 10.868 21.315 13.113C21.0424 12.7863 20.7479 12.4783 20.4339 12.191C19.8091 11.6103 19.1168 11.1067 18.3719 10.691C17.6721 10.2821 16.9294 9.95175 16.1571 9.70602C16.0821 9.68302 15.9999 9.65895 15.9129 9.63595L15.6581 9.55502L15.62 9.54501C14.324 9.23701 13.6861 8.60292 13.8241 7.75192V7.75595ZM21.1991 20.312C20.9426 20.548 20.635 20.7215 20.3004 20.8188C19.9657 20.9161 19.6129 20.9347 19.2699 20.873C18.8718 20.8234 18.4899 20.6854 18.1519 20.4691C17.814 20.2528 17.5288 19.9637 17.317 19.623C16.7167 18.4893 16.2767 17.2777 16.0099 16.0229C15.6617 14.8185 15.1723 13.6595 14.5519 12.57C13.8519 11.27 13.729 10.8939 14.078 10.5639C14.2271 10.4809 14.3982 10.446 14.568 10.464C14.9171 10.4731 15.2636 10.5272 15.599 10.625C16.5289 10.9178 17.4191 11.3238 18.2498 11.834C18.6454 12.0847 19.0239 12.3613 19.3829 12.662C19.8602 13.0678 20.2958 13.5204 20.683 14.013C21.2072 14.6783 21.5732 15.4542 21.753 16.2819C22.129 18.167 21.937 19.562 21.2 20.308L21.1991 20.312Z" fill="black"/>
</svg>
