<svg xmlns="http://www.w3.org/2000/svg" width="24" height="24" viewBox="0 0 24 24">
  <g id="fafanto" transform="translate(-185 -407)">
    <rect id="Rectangle_149" data-name="Rectangle 149" width="24" height="24" transform="translate(185 407)" fill="none"/>
    <path id="Path_520" data-name="Path 520" d="M-3052.051,1054.1a6.192,6.192,0,0,0-.722-1.887c.935-2.423.944-6.468-.363-7.687a3.574,3.574,0,0,0-2.9-.931c-.215,0-.437.009-.663,0-.687-.024-.928-.048-1.367-.092-.323-.032-.725-.073-1.455-.129a2.14,2.14,0,0,0-1.327.375,2.544,2.544,0,0,0-1.072-1.7v-.727c.333-.394.787-.726,1.986-.58a.353.353,0,0,0,.4-.3.347.347,0,0,0-.308-.385,2.678,2.678,0,0,0-2.492.683h-1.016a2.677,2.677,0,0,0-2.492-.683.347.347,0,0,0-.308.385.353.353,0,0,0,.4.3c1.153-.14,1.617.161,1.947.535v.785a2.549,2.549,0,0,0-1.051,1.676,2.133,2.133,0,0,0-1.312-.365c-.73.056-1.132.1-1.455.129-.439.044-.681.068-1.367.092-.227.008-.448,0-.663,0a3.575,3.575,0,0,0-2.9.931c-1.307,1.219-1.3,5.269-.361,7.691a6.2,6.2,0,0,0-.72,1.884c-.31,1.559-.417,3.683.831,4.947a3.169,3.169,0,0,0,2.285.909,3.863,3.863,0,0,0,.572-.043,3.749,3.749,0,0,0,2.69-1.718,14.215,14.215,0,0,0,1.438-3.893,12.12,12.12,0,0,1,.632-1.756,9.972,9.972,0,0,0-.262,2.32,8.775,8.775,0,0,0,.65,3.482c.481,1.076,1.174,1.668,1.951,1.668s1.471-.593,1.951-1.668a8.775,8.775,0,0,0,.65-3.482,9.887,9.887,0,0,0-.289-2.427,12.245,12.245,0,0,1,.679,1.861,14.219,14.219,0,0,0,1.438,3.893,3.75,3.75,0,0,0,2.69,1.718,3.858,3.858,0,0,0,.572.043,3.169,3.169,0,0,0,2.285-.91C-3051.634,1057.779-3051.741,1055.655-3052.051,1054.1Zm-10.808-11.287c.535,0,1.005.74,1.005,1.583s-.47,1.583-1.005,1.583-1.005-.74-1.005-1.583S-3063.394,1042.809-3062.858,1042.809Zm.838,5.179a.817.817,0,0,1-.828.806.817.817,0,0,1-.828-.806.817.817,0,0,1,.828-.806A.817.817,0,0,1-3062.021,1047.989Zm-3.38,2.594a15.885,15.885,0,0,0-1.458,3.453,13.854,13.854,0,0,1-1.307,3.6,2.69,2.69,0,0,1-1.953,1.25,2.257,2.257,0,0,1-1.928-.561c-.738-.747-.93-2.141-.554-4.032a5.738,5.738,0,0,1,1.248-2.494q.3-.361.639-.691c.143-.138.283-.265.418-.381a10.74,10.74,0,0,1,1.486-1.06,12.133,12.133,0,0,1,2.309-1.016,4.151,4.151,0,0,1,1.086-.176.828.828,0,0,1,.489.1C-3064.61,1048.875-3064.633,1049.142-3065.4,1050.582Zm-1.072-3.027h0l-.038.01-.311.1-.184.054a10.825,10.825,0,0,0-2.008.868,10.663,10.663,0,0,0-2.547,1.882c-.212.21-.416.43-.606.66-.614-2.246-.4-5.168.338-5.858a2.253,2.253,0,0,1,1.781-.648c.116,0,.237,0,.365,0,.229,0,.466.009.722,0,.722-.025.991-.052,1.438-.1.317-.032.712-.071,1.43-.127a1.607,1.607,0,0,1,1.417,1.365C-3064.537,1046.619-3065.176,1047.253-3066.473,1047.555Zm3.614,11.425h0c-.627,0-1.537-1.6-1.537-4.115s.91-4.115,1.537-4.115,1.537,1.6,1.537,4.115S-3062.232,1058.98-3062.858,1058.98Zm1.834-13.212h0a1.639,1.639,0,0,1,1.359-1.367l.058,0c.718.055,1.113.095,1.43.127.447.045.716.072,1.438.1.256.009.493,0,.722,0a2.524,2.524,0,0,1,2.145.644c.739.689.952,3.608.339,5.853a9.5,9.5,0,0,0-.881-.922,10.664,10.664,0,0,0-2.062-1.5,11,11,0,0,0-2.215-.985c-.075-.023-.157-.047-.244-.07l-.255-.081-.038-.01C-3060.525,1047.253-3061.163,1046.619-3061.025,1045.768Zm7.375,12.556h0a2.258,2.258,0,0,1-1.929.561,2.692,2.692,0,0,1-1.953-1.25,13.851,13.851,0,0,1-1.307-3.6,15.9,15.9,0,0,0-1.458-3.453c-.7-1.3-.823-1.676-.474-2.006a.828.828,0,0,1,.49-.1,4.065,4.065,0,0,1,1.031.161,11.892,11.892,0,0,1,2.651,1.209,10.613,10.613,0,0,1,1.133.828,9.388,9.388,0,0,1,1.3,1.351,5.58,5.58,0,0,1,1.07,2.269C-3052.72,1056.183-3052.912,1057.578-3053.649,1058.324Z" transform="translate(3259.849 -631.016)"/>
  </g>
</svg>
