<svg width="24" height="24" viewBox="0 0 24 24" fill="none" xmlns="http://www.w3.org/2000/svg">
<path d="M1.07303 20.6188C1.08403 20.5278 1.09598 20.4351 1.10898 20.3381C1.12698 20.2047 1.14734 20.0651 1.17001 19.9191L1.18301 19.8361C1.55937 16.9355 2.87136 14.2367 4.92001 12.1491C4.94129 12.1303 4.95832 12.1071 4.97 12.0812C4.98167 12.0554 4.9877 12.0276 4.9877 11.9992C4.9877 11.9708 4.98167 11.9426 4.97 11.9167C4.95832 11.8908 4.94129 11.8676 4.92001 11.8488C4.74701 11.6898 4.58399 11.5261 4.42599 11.3571L4.35501 11.2839C4.32801 11.2549 4.30199 11.223 4.27499 11.194C4.21399 11.126 4.15198 11.057 4.09298 10.988C3.94898 10.818 3.812 10.643 3.681 10.467C3.658 10.437 3.63397 10.4072 3.61197 10.3762C3.58997 10.3452 3.56697 10.3121 3.54397 10.2761C3.34397 9.99473 3.1583 9.70789 2.98697 9.41522C2.96197 9.37422 2.93901 9.32978 2.91501 9.28778C2.79234 9.07112 2.67731 8.85362 2.56997 8.63495C2.44797 8.38695 2.33498 8.13483 2.23098 7.88983C2.19698 7.80883 2.16401 7.72818 2.13101 7.64618C2.03234 7.39818 1.94164 7.15159 1.85898 6.90692C1.81998 6.79192 1.78298 6.67717 1.74698 6.56317C1.63598 6.20917 1.54001 5.86299 1.45901 5.52899C1.37401 5.17999 1.30498 4.84699 1.24698 4.52899C1.13113 3.90386 1.04904 3.27281 1.001 2.63886C0.994944 2.55644 1.00599 2.47365 1.03341 2.39569C1.06084 2.31774 1.10404 2.24668 1.16037 2.18622C1.2167 2.12576 1.28493 2.07749 1.36075 2.04462C1.43657 2.01175 1.51834 1.99459 1.60098 1.99481H7.98898L8.126 2.13104L12 5.96991L15.874 2.13104L16.011 1.99481H22.399C22.4817 1.99459 22.5634 2.01175 22.6392 2.04462C22.7151 2.07749 22.7833 2.12576 22.8396 2.18622C22.896 2.24668 22.9392 2.31774 22.9666 2.39569C22.994 2.47365 23.0051 2.55644 22.999 2.63886C22.951 3.27281 22.8689 3.90386 22.753 4.52899C22.695 4.84299 22.626 5.17599 22.541 5.52899C22.3661 6.24933 22.1416 6.95688 21.869 7.64618C21.837 7.72818 21.804 7.80883 21.769 7.88983C21.669 8.13783 21.552 8.38995 21.43 8.63495C21.3227 8.85362 21.2077 9.07112 21.085 9.28778C21.061 9.32978 21.038 9.37422 21.013 9.41522C20.8423 9.70789 20.6567 9.99473 20.456 10.2761C20.433 10.3091 20.411 10.3412 20.388 10.3762C20.365 10.4112 20.342 10.437 20.319 10.467C20.188 10.644 20.051 10.819 19.907 10.988C19.848 11.057 19.787 11.126 19.726 11.194C19.699 11.223 19.674 11.2549 19.646 11.2839L19.575 11.3571C19.417 11.5261 19.253 11.6898 19.081 11.8488C19.0597 11.8676 19.0426 11.8908 19.031 11.9167C19.0193 11.9426 19.0133 11.9708 19.0133 11.9992C19.0133 12.0276 19.0193 12.0554 19.031 12.0812C19.0426 12.1071 19.0597 12.1303 19.081 12.1491C20.9979 14.0755 22.2661 16.5518 22.709 19.2331C22.828 19.8331 22.903 20.3732 22.951 20.8112C22.973 21.0162 22.989 21.2001 23.001 21.3581C23.0071 21.4405 22.996 21.5233 22.9686 21.6013C22.9412 21.6792 22.8979 21.7508 22.8416 21.8112C22.7852 21.8717 22.7171 21.9195 22.6413 21.9523C22.5654 21.9852 22.4836 22.0024 22.401 22.0021H16.013L12.002 18.028L7.99099 22.0021H1.60299C1.52036 22.0024 1.43858 21.9852 1.36276 21.9523C1.28694 21.9195 1.21871 21.8717 1.16238 21.8112C1.10605 21.7508 1.06279 21.6792 1.03537 21.6013C1.00794 21.5233 0.996958 21.4405 1.00302 21.3581C1.01702 21.1511 1.03903 20.9018 1.07303 20.6188ZM11.573 16.4728C11.6855 16.3605 11.838 16.2975 11.997 16.2975C12.156 16.2975 12.3085 16.3605 12.421 16.4728L16.586 20.5998H21.056C21.1139 20.6004 21.1712 20.5888 21.224 20.5651C21.2768 20.5414 21.3239 20.5062 21.3619 20.4626C21.3999 20.4189 21.4281 20.3678 21.4443 20.3122C21.4605 20.2566 21.4646 20.1981 21.456 20.1408C21.144 18.1108 20.256 14.8918 17.745 12.8698L17.204 12.4899C17.1254 12.4345 17.0612 12.3609 17.0169 12.2756C16.9727 12.1902 16.9496 12.0959 16.9496 11.9997C16.9496 11.9035 16.9727 11.8087 17.0169 11.7233C17.0612 11.638 17.1254 11.5644 17.204 11.509L17.745 11.1291C20.258 9.10809 21.145 5.8901 21.456 3.8581C21.4647 3.80077 21.4608 3.74191 21.4447 3.68622C21.4285 3.63053 21.4004 3.5791 21.3624 3.53534C21.3243 3.49159 21.2772 3.45655 21.2243 3.4328C21.1714 3.40906 21.114 3.39748 21.056 3.39813H16.587L12.422 7.52606C12.3093 7.63788 12.1568 7.70028 11.998 7.69989C11.8392 7.70028 11.6867 7.63788 11.574 7.52606L7.40902 3.39813H2.93997C2.88199 3.39748 2.8246 3.40906 2.7717 3.4328C2.71879 3.45655 2.67168 3.49159 2.63363 3.53534C2.59558 3.5791 2.56746 3.63053 2.5513 3.68622C2.53513 3.74191 2.5313 3.80077 2.54001 3.8581C2.85201 5.8891 3.74 9.10809 6.251 11.1291L6.79202 11.509C6.87063 11.5644 6.93475 11.638 6.97903 11.7233C7.02331 11.8087 7.04641 11.9035 7.04641 11.9997C7.04641 12.0959 7.02331 12.1902 6.97903 12.2756C6.93475 12.3609 6.87063 12.4345 6.79202 12.4899L6.251 12.8698C3.738 14.8908 2.85101 18.1098 2.54001 20.1408C2.53146 20.1981 2.53542 20.2566 2.55166 20.3122C2.5679 20.3678 2.59603 20.4189 2.63406 20.4626C2.67209 20.5062 2.71912 20.5414 2.77194 20.5651C2.82476 20.5888 2.88209 20.6004 2.93997 20.5998H7.41L11.01 17.0329L11.573 16.4728Z" fill="black"/>
<path d="M4.77798 5.20001C5.11958 6.83103 6.03705 8.28476 7.36251 9.29474C8.68797 10.3047 10.3328 10.8034 11.996 10.7C13.6591 10.8032 15.3038 10.3042 16.6292 9.29425C17.9547 8.28431 18.8722 6.83093 19.214 5.20001H17.362L12.762 9.66827L12.552 9.86798C12.4024 10.0149 12.2011 10.0975 11.9915 10.0975C11.7818 10.0975 11.5806 10.0149 11.431 9.86798L11.221 9.66827L6.62097 5.20001H4.76898H4.77798ZM4.39498 4.09991H7.06997L11.707 8.60822C11.7818 8.68181 11.8825 8.72296 11.9875 8.72296C12.0924 8.72296 12.1932 8.68181 12.268 8.60822L16.905 4.09991H19.58C19.6992 4.09947 19.817 4.12563 19.9248 4.17657C20.0326 4.22752 20.1277 4.30194 20.203 4.39435C20.2783 4.48675 20.3321 4.59491 20.3603 4.71075C20.3885 4.8266 20.3904 4.94758 20.366 5.06427C20.044 7.02146 19.0112 8.79105 17.4654 10.034C15.9197 11.2769 13.9697 11.9057 11.989 11.8001C10.0083 11.9057 8.05826 11.2769 6.51251 10.034C4.96675 8.79105 3.93395 7.02146 3.61196 5.06427C3.58724 4.94701 3.58919 4.8257 3.61764 4.70929C3.64609 4.59287 3.70033 4.48406 3.77636 4.39142C3.85239 4.29878 3.94828 4.22426 4.05691 4.17364C4.16554 4.12303 4.28415 4.09756 4.40399 4.09894L4.39498 4.09991Z" fill="black"/>
<path d="M4.77799 18.8007C5.11959 17.1697 6.03706 15.7165 7.36252 14.7065C8.68798 13.6965 10.3328 13.1973 11.996 13.3007C13.6592 13.1973 15.304 13.6965 16.6295 14.7065C17.9549 15.7165 18.8724 17.1697 19.214 18.8007H17.362L12.762 14.332L12.552 14.1318C12.4024 13.9849 12.2011 13.9028 11.9915 13.9028C11.7818 13.9028 11.5806 13.9849 11.431 14.1318L11.221 14.332L6.62098 18.8007H4.76899H4.77799ZM4.39499 19.9008H7.06998L11.707 15.3915C11.7818 15.3179 11.8825 15.2768 11.9875 15.2768C12.0924 15.2768 12.1932 15.3179 12.268 15.3915L16.905 19.9008H19.58C19.6992 19.9013 19.817 19.8751 19.9248 19.8242C20.0326 19.7732 20.1277 19.6988 20.203 19.6064C20.2783 19.514 20.3321 19.4058 20.3603 19.29C20.3885 19.1741 20.3904 19.0536 20.366 18.9369C20.0442 16.9797 19.0114 15.2097 17.4656 13.9667C15.9198 12.7237 13.9697 12.0948 11.989 12.2006C10.0082 12.0948 8.05811 12.7237 6.5123 13.9667C4.9665 15.2097 3.93375 16.9797 3.61197 18.9369C3.58742 19.0541 3.58948 19.1751 3.61802 19.2914C3.64655 19.4077 3.70082 19.5163 3.77683 19.6088C3.85284 19.7013 3.94865 19.7755 4.05719 19.8261C4.16574 19.8767 4.28427 19.9022 4.404 19.9008H4.39499Z" fill="black"/>
</svg>
