<svg xmlns="http://www.w3.org/2000/svg" width="24" height="24" viewBox="0 0 24 24">
  <g id="fihankra" transform="translate(-377 -215)">
    <rect id="Rectangle_149" data-name="Rectangle 149" width="24" height="24" transform="translate(377 215)" fill="none"/>
    <path id="Path_223" data-name="Path 223" d="M1519.618,2347.069c-.1-5.875,3.189-7.535,1.881-8.677-.461-.4-1.707.461-2.819,1.576h0l-.774.774a.528.528,0,1,1-.747-.747l.8-.8h0c1.116-1.112,1.98-2.359,1.577-2.82-1.142-1.308-2.8,1.984-8.677,1.881-5.875.1-7.535-3.189-8.677-1.881-.4.456.44,1.677,1.536,2.778h0l.8.8a.534.534,0,0,1-.756.756l-.821-.821v0c-1.114-1.119-2.365-1.988-2.827-1.584-1.308,1.142,1.984,2.8,1.881,8.677.1,5.875-3.189,7.535-1.881,8.677.453.4,1.663-.43,2.759-1.516l.895-.895a.565.565,0,0,1,.8.8l-.857.857h0c-1.133,1.121-2.019,2.388-1.612,2.854,1.142,1.308,2.8-1.984,8.677-1.881,5.875-.1,7.535,3.189,8.677,1.881.4-.46-.457-1.7-1.568-2.811l-.858-.858a.557.557,0,0,1,.786-.786l.84.84h0c1.119,1.128,2.381,2.01,2.846,1.6C1522.807,2354.6,1519.516,2352.944,1519.618,2347.069Zm-3.231,4.229-.776-.776a.987.987,0,0,0-1.341-.067.965.965,0,0,0-.047,1.408l.784.783a.1.1,0,0,1-.105.157,13.19,13.19,0,0,0-8.288.016.1.1,0,0,1-.106-.157l.8-.8a.987.987,0,0,0,.067-1.341.965.965,0,0,0-1.408-.047l-.744.744a.1.1,0,0,1-.157-.105,10.123,10.123,0,0,0,.66-4.126,10.346,10.346,0,0,0-.618-4.026.1.1,0,0,1,.158-.1l.705.705a.987.987,0,0,0,1.341.067.965.965,0,0,0,.047-1.408l-.733-.733a.1.1,0,0,1,.105-.157,10.119,10.119,0,0,0,4.127.66,10.43,10.43,0,0,0,3.987-.6.1.1,0,0,1,.105.157l-.679.679a.987.987,0,0,0-.067,1.341.965.965,0,0,0,1.408.047l.774-.774a.1.1,0,0,1,.157.105,13.229,13.229,0,0,0,0,8.251A.1.1,0,0,1,1516.387,2351.3Z" transform="translate(-1121.807 -2120.065)"/>
  </g>
</svg>
