<svg width="24" height="24" viewBox="0 0 24 24" fill="none" xmlns="http://www.w3.org/2000/svg">
<path d="M20.8111 12.0041C20.7111 6.12911 24 4.46911 22.692 3.32711C22.231 2.92711 20.9851 3.78804 19.8731 4.90304L19.099 5.67696C19 5.77602 18.8656 5.83175 18.7255 5.83175C18.5854 5.83175 18.4511 5.77602 18.3521 5.67696C18.253 5.5779 18.1973 5.44352 18.1973 5.30343C18.1973 5.16334 18.253 5.02919 18.3521 4.93014L19.152 4.13009C20.268 3.01809 21.132 1.77102 20.729 1.31002C19.587 0.00201893 17.929 3.29412 12.052 3.19112C6.17703 3.29112 4.51703 0.00201893 3.37503 1.31002C2.97503 1.76602 3.81504 2.9871 4.91104 4.0881L5.71097 4.8879C5.81122 4.98815 5.86758 5.1243 5.86758 5.26607C5.86758 5.40785 5.81122 5.54375 5.71097 5.644C5.61072 5.74426 5.47482 5.8005 5.33304 5.8005C5.19126 5.8005 5.05524 5.74426 4.95499 5.644L4.13406 4.82296C3.02006 3.70396 1.76904 2.83497 1.30704 3.23897C-0.000962734 4.38097 3.29102 6.03898 3.18802 11.916C3.28802 17.791 -0.000962734 19.451 1.30704 20.593C1.76004 20.993 2.97007 20.1631 4.06607 19.0771L4.96097 18.1821C5.06705 18.076 5.21096 18.0163 5.36099 18.0163C5.51102 18.0163 5.65493 18.076 5.76102 18.1821C5.8671 18.2882 5.92667 18.432 5.92667 18.582C5.92667 18.732 5.8671 18.8761 5.76102 18.9821L4.90408 19.8391C3.77108 20.9601 2.88502 22.2271 3.29202 22.6931C4.43402 24.0011 6.09202 20.709 11.969 20.812C17.844 20.712 19.504 24.0011 20.646 22.6931C21.046 22.2331 20.189 20.993 19.078 19.882L18.22 19.0241C18.1269 18.9178 18.0776 18.7799 18.0823 18.6386C18.087 18.4973 18.1452 18.3631 18.2451 18.2631C18.3451 18.1632 18.4794 18.105 18.6206 18.1003C18.7619 18.0956 18.8997 18.1449 19.006 18.238L19.846 19.0781C20.965 20.2061 22.227 21.0879 22.692 20.6779C24 19.5349 20.7091 17.8791 20.8111 12.0041ZM17.58 16.2331L16.804 15.457C16.6301 15.2787 16.3953 15.1728 16.1466 15.1604C15.8979 15.1479 15.6538 15.23 15.463 15.3901C15.3637 15.4771 15.2833 15.5835 15.2267 15.7028C15.1702 15.8222 15.1387 15.952 15.1343 16.0839C15.1299 16.2159 15.1526 16.3473 15.2011 16.4702C15.2495 16.593 15.3227 16.7046 15.416 16.7981L16.2 17.581C16.2125 17.5976 16.2195 17.6176 16.2201 17.6384C16.2207 17.6591 16.2148 17.6795 16.2033 17.6967C16.1917 17.714 16.1752 17.7274 16.1558 17.7348C16.1364 17.7422 16.1151 17.7432 16.095 17.738C13.4024 16.8527 10.4962 16.8584 7.80704 17.7541C7.78687 17.7596 7.76548 17.7587 7.74588 17.7514C7.72628 17.7442 7.70948 17.7309 7.69778 17.7136C7.68609 17.6963 7.6801 17.6756 7.68069 17.6547C7.68129 17.6338 7.68842 17.6138 7.70108 17.5971L8.50101 16.7971C8.67927 16.6232 8.78521 16.3883 8.79764 16.1396C8.81006 15.8909 8.72807 15.6468 8.56802 15.456C8.48103 15.3567 8.37462 15.2762 8.25528 15.2197C8.13594 15.1631 8.00616 15.1316 7.87418 15.1272C7.74219 15.1228 7.61079 15.1456 7.48795 15.1941C7.3651 15.2425 7.2535 15.3158 7.16006 15.4091L6.41605 16.153C6.39947 16.1655 6.37943 16.1725 6.35867 16.1731C6.33792 16.1736 6.31746 16.1678 6.3002 16.1562C6.28294 16.1447 6.26974 16.1283 6.26236 16.1088C6.25498 16.0894 6.25384 16.0681 6.25906 16.0481C6.76361 14.7336 6.98831 13.3283 6.91898 11.9221C6.98179 10.5524 6.7718 9.18375 6.30106 7.89596C6.29699 7.87608 6.29909 7.85554 6.30704 7.83687C6.31498 7.81821 6.32835 7.80231 6.34549 7.79146C6.36263 7.78061 6.38271 7.77528 6.40298 7.77608C6.42326 7.77689 6.44279 7.78392 6.45901 7.7961L7.16397 8.50094C7.33782 8.6792 7.57263 8.78514 7.82132 8.79757C8.07001 8.80999 8.31428 8.72812 8.50504 8.56808C8.60439 8.48108 8.68482 8.37467 8.74136 8.25533C8.79791 8.13599 8.82936 8.00621 8.83377 7.87423C8.83818 7.74224 8.81546 7.61084 8.767 7.488C8.71854 7.36515 8.64536 7.25355 8.55203 7.16012L7.819 6.42696C7.8065 6.41039 7.79945 6.39034 7.79886 6.36959C7.79827 6.34884 7.80416 6.3285 7.8157 6.31124C7.82725 6.29398 7.84391 6.28078 7.86331 6.2734C7.88272 6.26602 7.90389 6.26476 7.92398 6.26998C9.23873 6.77477 10.6445 6.99972 12.0511 6.93014C13.4064 6.99136 14.7607 6.78745 16.038 6.33004C16.0581 6.32481 16.0794 6.32608 16.0988 6.33346C16.1182 6.34084 16.1347 6.35404 16.1463 6.3713C16.1578 6.38856 16.1637 6.4089 16.1631 6.42965C16.1625 6.4504 16.1555 6.47045 16.143 6.48702L15.464 7.16598C15.2858 7.33983 15.1798 7.57475 15.1674 7.82345C15.155 8.07214 15.237 8.31629 15.397 8.50704C15.484 8.60639 15.5905 8.68682 15.7099 8.74337C15.8292 8.79991 15.9589 8.83125 16.0909 8.83565C16.2228 8.84006 16.3544 8.81747 16.4772 8.769C16.6 8.72054 16.7117 8.64725 16.8051 8.55392L17.579 7.77999C17.5956 7.76749 17.6156 7.76056 17.6364 7.75997C17.6571 7.75938 17.6776 7.76528 17.6949 7.77682C17.7121 7.78836 17.7253 7.80502 17.7327 7.82442C17.7401 7.84383 17.7412 7.86488 17.736 7.88497C16.8564 10.565 16.8564 13.4559 17.736 16.1359C17.7394 16.1554 17.7369 16.1755 17.7289 16.1936C17.7209 16.2116 17.7078 16.2269 17.6911 16.2375C17.6744 16.2481 17.6549 16.2536 17.6352 16.2531C17.6154 16.2527 17.5962 16.2464 17.58 16.2351V16.2331Z" fill="black"/>
</svg>
