<svg width="24" height="24" viewBox="0 0 24 24" fill="none" xmlns="http://www.w3.org/2000/svg">
<path d="M21.337 12.68C21.8652 12.5817 22.3331 12.2785 22.6386 11.8366C22.9442 11.3947 23.0626 10.8499 22.968 10.321C22.9244 10.0601 22.8299 9.81043 22.6899 9.58612C22.5498 9.36182 22.3669 9.16733 22.1517 9.01373C21.9364 8.86013 21.6929 8.75047 21.4352 8.69098C21.1776 8.63148 20.9108 8.62338 20.65 8.66705H20.6379C20.2741 8.7333 19.9356 8.89819 19.6592 9.14386C19.3829 9.38953 19.1794 9.70648 19.071 10.06L16.071 10.596C15.9345 10.627 15.7918 10.6177 15.6605 10.5693C15.5291 10.5208 15.4147 10.4353 15.331 10.3231C15.108 9.93606 15.493 9.52899 15.493 9.52899L17.4389 7.17999C17.7986 7.25988 18.1734 7.23884 18.5219 7.1192C18.8704 6.99956 19.1791 6.78599 19.4139 6.50201C19.757 6.08679 19.9233 5.55342 19.8769 5.01678C19.8305 4.48015 19.5752 3.98319 19.166 3.633C18.9667 3.46322 18.736 3.33442 18.4869 3.25385C18.2378 3.17327 17.9752 3.1425 17.7143 3.16339C17.4534 3.18429 17.1991 3.25637 16.966 3.37555C16.7329 3.49473 16.5256 3.65865 16.3559 3.85797L16.3339 3.88495C16.0972 4.17177 15.9427 4.5175 15.8869 4.88519C15.8311 5.25289 15.876 5.6288 16.0169 5.97296L14.087 8.30304C14.087 8.30304 13.742 8.74901 13.321 8.59601C12.9 8.44301 12.9349 7.88397 12.9349 7.88397V4.84003C13.2627 4.66613 13.5369 4.40598 13.7277 4.08771C13.9186 3.76944 14.0189 3.4051 14.0179 3.034C14.0196 2.76825 13.969 2.50477 13.8688 2.25861C13.7687 2.01244 13.621 1.78838 13.4343 1.5993C13.2475 1.41023 13.0254 1.25986 12.7805 1.15668C12.5356 1.0535 12.2726 0.999557 12.0069 0.997986C11.4703 1.00142 10.957 1.21787 10.5799 1.59967C10.2028 1.98147 9.99272 2.49737 9.99591 3.034C9.99489 3.4051 10.0952 3.76944 10.2861 4.08771C10.4769 4.40598 10.7511 4.66613 11.0789 4.84003V7.89203V7.88007C11.0789 7.88007 11.1019 8.44299 10.6789 8.59698C10.2559 8.75098 9.92499 8.29706 9.92499 8.29706L7.99799 5.97101C8.13907 5.62693 8.18413 5.25105 8.12848 4.88336C8.07283 4.51567 7.91853 4.16992 7.68195 3.883C7.51574 3.6807 7.31126 3.51309 7.08026 3.38983C6.84927 3.26657 6.59634 3.19006 6.33576 3.16461C6.07517 3.13917 5.81206 3.16539 5.56159 3.24164C5.31111 3.31789 5.07812 3.44262 4.87592 3.60895L4.84894 3.63104C4.43991 3.98138 4.18475 4.47828 4.13837 5.01483C4.09199 5.55139 4.25805 6.08473 4.60089 6.50006C4.83569 6.78404 5.14447 6.99761 5.49298 7.11725C5.84149 7.23689 6.21628 7.25793 6.57599 7.17804L8.5279 9.534L8.50898 9.51898C8.50898 9.51898 8.88798 9.93704 8.66498 10.324C8.44198 10.711 7.89691 10.58 7.89691 10.58H7.9029L4.93793 10.05C4.82934 9.69639 4.62572 9.37952 4.34918 9.13385C4.07265 8.88818 3.73386 8.72323 3.36994 8.65704C3.10946 8.61193 2.84269 8.61857 2.58478 8.67657C2.32687 8.73458 2.08285 8.84277 1.86676 8.99506C1.65068 9.14734 1.46674 9.34076 1.32538 9.56415C1.18403 9.78754 1.08802 10.0366 1.04291 10.2971V10.309C0.948306 10.8379 1.06671 11.3827 1.37226 11.8246C1.6778 12.2666 2.14568 12.5698 2.67389 12.668C3.03705 12.732 3.4109 12.6942 3.75397 12.559C4.09704 12.4238 4.39606 12.1965 4.61798 11.902L7.59394 12.433H7.58795C7.58795 12.433 8.14692 12.509 8.22492 12.949C8.30292 13.389 7.80097 13.64 7.80097 13.64H7.81293L5.18793 15.175C4.87884 14.9748 4.52019 14.8644 4.15204 14.8561C3.78389 14.8478 3.42076 14.942 3.10297 15.128C2.63971 15.4023 2.3028 15.8477 2.1651 16.3682C2.02741 16.8887 2.09988 17.4425 2.36689 17.91C2.62686 18.3711 3.05912 18.7103 3.56879 18.8533C4.07846 18.9964 4.62395 18.9316 5.08588 18.673L5.11396 18.657C5.43308 18.4682 5.69474 18.1961 5.87091 17.8698C6.04709 17.5435 6.13113 17.1754 6.11396 16.805L8.71393 15.283C8.71393 15.283 9.191 14.983 9.534 15.269C9.877 15.555 9.6529 16.069 9.6529 16.069L8.62091 18.941C8.25464 18.9908 7.9091 19.1404 7.62213 19.3734C7.33517 19.6063 7.1179 19.9138 6.99396 20.262C6.8102 20.7674 6.83315 21.3249 7.0578 21.8135C7.28245 22.3022 7.69063 22.6825 8.19391 22.872C8.44134 22.9626 8.70424 23.0033 8.96747 22.992C9.23071 22.9807 9.48913 22.9175 9.72785 22.806C9.96657 22.6945 10.1809 22.5368 10.3586 22.3422C10.5362 22.1476 10.6735 21.9199 10.7629 21.6721L10.77 21.6511C10.8959 21.3011 10.9245 20.9235 10.8526 20.5585C10.7807 20.1936 10.6111 19.8551 10.3619 19.579L11.39 16.7191V16.731C11.39 16.731 11.562 16.194 12.009 16.194C12.456 16.194 12.6149 16.731 12.6149 16.731V16.715L13.644 19.579C13.3949 19.8552 13.2252 20.1936 13.1534 20.5585C13.0815 20.9234 13.1101 21.3011 13.2359 21.6511C13.3229 21.8996 13.4582 22.1284 13.6339 22.3245C13.8095 22.5206 14.0222 22.6802 14.2597 22.7939C14.4972 22.9076 14.7548 22.9733 15.0178 22.9872C15.2807 23.0012 15.5438 22.9631 15.7919 22.8751L15.8129 22.867C16.3162 22.6775 16.7245 22.2971 16.9492 21.8085C17.1738 21.3199 17.1966 20.7624 17.0129 20.257C16.8889 19.9088 16.6717 19.6013 16.3847 19.3683C16.0977 19.1354 15.7522 18.9858 15.3859 18.936L14.3549 16.0681C14.3549 16.0681 14.142 15.546 14.484 15.258C14.826 14.97 15.2939 15.28 15.2939 15.28L15.285 15.272L17.895 16.798C17.8777 17.1685 17.9616 17.5366 18.1378 17.8629C18.3139 18.1891 18.5758 18.4612 18.895 18.65C19.3527 18.9163 19.8974 18.9902 20.4096 18.8554C20.9218 18.7206 21.3595 18.3881 21.6269 17.931L21.6419 17.904C21.9086 17.4366 21.9809 16.8831 21.8432 16.3629C21.7055 15.8426 21.3689 15.3973 20.9059 15.123C20.5882 14.9368 20.2249 14.8427 19.8568 14.851C19.4886 14.8593 19.13 14.9697 18.821 15.17L16.1979 13.636H16.2049C16.2049 13.636 15.7049 13.374 15.7829 12.936C15.8609 12.498 16.4169 12.436 16.4169 12.436L19.394 11.904C19.6146 12.2001 19.913 12.4294 20.2559 12.5663C20.5989 12.7033 20.973 12.7426 21.337 12.68Z" fill="black"/>
</svg>
