<svg width="24" height="24" viewBox="0 0 24 24" fill="none" xmlns="http://www.w3.org/2000/svg">
<path d="M22.937 11.111C22.705 10.919 22.137 11.728 21.06 11.703C20.2134 11.6629 19.3883 11.423 18.652 11.003C18.1808 10.8338 17.6837 10.7476 17.183 10.748C17.1373 10.7471 17.0924 10.7372 17.0505 10.7188C17.0087 10.7005 16.9709 10.6741 16.9393 10.6411C16.9078 10.6081 16.883 10.5692 16.8665 10.5266C16.8499 10.4841 16.842 10.4386 16.843 10.393C16.8482 10.1629 16.9039 9.93669 17.006 9.73039C17.1081 9.52409 17.2542 9.34268 17.434 9.19899C18.369 8.41399 19.534 9.63599 19.88 8.97099C20.226 8.30599 19.28 7.06599 17.226 7.69799C16.7027 7.88787 16.2442 8.22271 15.904 8.66345C15.5638 9.10418 15.3561 9.6326 15.305 10.187C15.039 9.52124 14.6053 8.93561 14.046 8.48699C14.2255 8.45392 14.4008 8.40161 14.569 8.33099C15.4339 8.04265 16.1856 7.48867 16.7171 6.748C16.9113 6.46382 17.0292 6.13448 17.0595 5.79161C17.0898 5.44873 17.0314 5.10382 16.89 4.78999C16.483 3.96899 15.432 3.358 15.29 4.166C15.148 4.974 16.076 5.49799 15.328 6.21099C14.7506 6.73571 14.0075 7.04143 13.228 7.07499L13.249 6.414C13.5307 5.65756 13.6939 4.86221 13.733 4.05599C13.695 3.11699 12.243 0.874992 11.999 1.00599C11.755 0.874992 10.299 3.11699 10.265 4.05599C10.3038 4.86215 10.4667 5.6575 10.748 6.414L10.769 7.07499C9.98948 7.04151 9.2464 6.73578 8.66902 6.21099C7.92102 5.49799 8.85304 4.975 8.70704 4.166C8.56104 3.357 7.50701 3.96599 7.10701 4.78999C6.96551 5.10379 6.90709 5.44872 6.93739 5.79162C6.96769 6.13452 7.08571 6.46386 7.28004 6.748C7.81145 7.48872 8.5632 8.04271 9.42805 8.33099C9.59628 8.40161 9.77157 8.45392 9.951 8.48699C9.2397 9.06293 8.73271 9.85254 8.50502 10.739C8.56241 10.295 8.50134 9.84375 8.32801 9.43099C8.0398 8.56611 7.48577 7.81435 6.74501 7.28298C6.46087 7.08865 6.13154 6.97068 5.78865 6.94038C5.44575 6.91008 5.1008 6.9685 4.787 7.11C3.966 7.517 3.35504 8.56799 4.16304 8.70999C4.97104 8.85199 5.49502 7.92399 6.20802 8.67199C6.73273 9.24942 7.03847 9.9925 7.07203 10.772L6.41102 10.751C5.65459 10.4694 4.85926 10.3061 4.05305 10.267C3.11405 10.305 0.872001 11.757 1.003 12.001C0.872001 12.245 3.11405 13.701 4.05305 13.735C4.85921 13.6962 5.65453 13.5333 6.41102 13.252L7.07203 13.231C7.03855 14.0105 6.7328 14.7536 6.20802 15.331C5.49502 16.079 4.97204 15.147 4.16304 15.293C3.35404 15.439 3.963 16.493 4.787 16.893C5.1008 17.0345 5.44575 17.0929 5.78865 17.0626C6.13154 17.0323 6.46087 16.9143 6.74501 16.72C7.48577 16.1886 8.0398 15.4369 8.32801 14.572C8.50139 14.1592 8.56245 13.708 8.50502 13.264C8.71753 14.0844 9.16771 14.8236 9.79902 15.389C9.31797 15.4836 8.87041 15.7036 8.50166 16.0267C8.13291 16.3498 7.85607 16.7646 7.69905 17.229C7.06705 19.284 8.307 20.229 8.972 19.883C9.637 19.537 8.41502 18.372 9.20002 17.437C9.37716 17.2174 9.6092 17.0486 9.87263 16.9476C10.1361 16.8466 10.4215 16.8171 10.7 16.862C10.7772 16.873 10.8485 16.9093 10.9028 16.9653C10.9571 17.0212 10.9913 17.0935 11 17.171C11.0273 17.3997 11.0467 17.629 11.058 17.859C11.122 19.18 10.716 20.219 11.166 21.5C11.616 22.781 12.703 23.17 12.896 22.938C13.089 22.706 12.279 22.138 12.304 21.061C12.3442 20.2143 12.584 19.3892 13.004 18.653C13.1731 18.1817 13.2594 17.6847 13.259 17.184C13.2611 17.0919 13.2997 17.0043 13.3662 16.9406C13.4328 16.8769 13.5219 16.8421 13.614 16.844C13.8442 16.8492 14.0703 16.9048 14.2766 17.0069C14.4829 17.1091 14.6643 17.2552 14.808 17.435C15.593 18.37 14.371 19.535 15.035 19.881C15.699 20.227 16.935 19.281 16.308 17.227C16.1511 16.7625 15.8742 16.3477 15.5054 16.0246C15.1367 15.7015 14.6891 15.4815 14.208 15.387C14.6936 14.9556 15.0725 14.4175 15.315 13.815C15.3661 14.3694 15.5738 14.8978 15.914 15.3385C16.2541 15.7793 16.7127 16.1141 17.236 16.304C19.291 16.936 20.236 15.696 19.89 15.031C19.544 14.366 18.379 15.588 17.444 14.803C17.2245 14.6259 17.0556 14.3938 16.9546 14.1304C16.8536 13.867 16.8241 13.5815 16.869 13.303C16.8802 13.2259 16.9166 13.1547 16.9725 13.1004C17.0284 13.0462 17.1007 13.0119 17.178 13.003C17.4067 12.9757 17.636 12.9563 17.866 12.945C19.187 12.881 20.226 13.287 21.507 12.837C22.788 12.387 23.168 11.303 22.937 11.111ZM10.851 9.55999L10.894 10.894L9.93501 10.863C10.1047 10.3479 10.4241 9.89452 10.851 9.55999ZM9.93501 13.138L10.965 13.105L11.012 14.551C10.5024 14.2162 10.1223 13.7173 9.93501 13.137V13.138ZM12.989 14.551L13.038 13.038L14.11 13.004C13.9356 13.6382 13.537 14.1876 12.988 14.55L12.989 14.551ZM13.104 10.966L13.149 9.55999C13.6132 9.92553 13.9494 10.4291 14.109 10.998L13.104 10.966Z" fill="black"/>
</svg>
