<svg xmlns="http://www.w3.org/2000/svg" width="24" height="24" viewBox="0 0 24 24">
  <g id="gye-nyame" transform="translate(-137 -311)">
    <rect id="Rectangle_149" data-name="Rectangle 149" width="24" height="24" transform="translate(137 311)" fill="none"/>
    <path id="Path_367" data-name="Path 367" d="M873.532,469.433c-.031,3.914-.527,6.591-2.446,9.448s-5.2,3.564-5.586,1.963,3.788-1.183,4.383-2.59a1.5,1.5,0,0,0-1.9-2.03c-1.182.333-2.776,1.311-2.09-.2s4.607-1.135,4.061-3.537-3.18.648-3.8.247c-.552-.357-.1-1.024.6-1.885,1.37-1.476,2.791-1.352,2.974-2.65s-.935-2.453-2.774-2.164-1.809,2.249-2.776,2.164-.386-2.308-1.765-2.768a1.953,1.953,0,0,0-2.7,1.426,1.924,1.924,0,0,0,.5,1.624c-1.616.423-3.859,1.728-4.955,5.345a13.762,13.762,0,0,0,.74,9.339c.031-3.914.527-6.59,2.446-9.448s5.2-3.565,5.586-1.963-3.788,1.182-4.383,2.59a1.5,1.5,0,0,0,1.9,2.03c1.182-.333,2.776-1.312,2.09.2s-4.606,1.135-4.061,3.538,3.18-.648,3.8-.247c.551.357.1,1.024-.6,1.884-1.371,1.477-2.792,1.353-2.975,2.651s.935,2.452,2.774,2.164,1.81-2.249,2.776-2.164.386,2.308,1.765,2.768a1.953,1.953,0,0,0,2.7-1.426,1.925,1.925,0,0,0-.5-1.624c1.616-.423,3.859-1.729,4.955-5.346A13.762,13.762,0,0,0,873.532,469.433Z" transform="translate(-715.769 -153.3)"/>
  </g>
</svg>
