<svg width="24" height="24" viewBox="0 0 24 24" fill="none" xmlns="http://www.w3.org/2000/svg">
<path fill-rule="evenodd" clip-rule="evenodd" d="M10.4369 2.57632C10.4369 1.70574 11.1367 1 12 1C12.8633 1 13.5631 1.70574 13.5631 2.57632V3.74143C13.5631 3.78761 13.5611 3.83333 13.5573 3.8785H16.2816C16.4692 3.8785 16.6214 4.03194 16.6214 4.22118V4.42428C16.6214 4.55172 16.5508 4.66801 16.4408 4.73065C15.2482 5.40968 14.2816 6.45435 13.6859 7.71651H16.4866C17.095 7.71651 17.678 7.03115 18.2864 7.03115C18.6805 7.03115 19 7.35335 19 7.75078V17.4486H17.9126V23H6.08738V17.4486H5V7.75078C5 7.35335 5.31948 7.03115 5.71359 7.03115C6.32197 7.03115 6.90498 7.71651 7.51336 7.71651H10.3141C9.71836 6.45435 8.75182 5.40968 7.5592 4.73065C7.44916 4.66801 7.37864 4.55172 7.37864 4.42428V4.22118C7.37864 4.03194 7.53077 3.8785 7.71845 3.8785H10.4427C10.4389 3.83333 10.4369 3.78761 10.4369 3.74143V2.57632ZM8.26214 17.4486V20.8069H15.7379V17.4486H8.26214ZM15.7379 16.1346V10.3894H13.0347L13.0337 10.4186L13.0327 10.4503L13.0317 10.4843L13.0311 10.5114C13.03 10.562 13.0294 10.6127 13.0294 10.6636C13.0294 12.909 14.0954 14.8996 15.7379 16.1346ZM10.9653 10.3894C10.9688 10.4804 10.9706 10.5717 10.9706 10.6636C10.9706 12.909 9.90457 14.8996 8.26214 16.1346V10.3894H10.9653Z" fill="black"/>
</svg>
