<svg width="24" height="24" viewBox="0 0 24 24" fill="none" xmlns="http://www.w3.org/2000/svg">
<path d="M20.763 5.13303C20.732 9.04703 20.236 11.724 18.317 14.581C16.398 17.438 13.117 18.145 12.731 16.544C12.345 14.943 16.519 15.361 17.114 13.954C17.2395 13.683 17.2812 13.3807 17.2338 13.0858C17.1864 12.791 17.052 12.517 16.8479 12.2989C16.6438 12.0809 16.3794 11.9287 16.0883 11.8619C15.7972 11.7951 15.4927 11.8168 15.214 11.924C14.032 12.257 12.438 13.235 13.124 11.724C13.81 10.213 17.731 10.589 17.185 8.18702C16.639 5.78502 14.005 8.83503 13.385 8.43403C12.833 8.07703 13.2851 7.41002 13.9851 6.54902C15.3551 5.07302 16.7761 5.19703 16.9591 3.89903C17.1421 2.60103 16.024 1.44602 14.185 1.73502C12.346 2.02402 12.376 3.98403 11.409 3.89903C10.442 3.81403 11.0231 1.59102 9.64406 1.13102C9.3752 1.01368 9.08332 0.958399 8.79017 0.969307C8.49703 0.980215 8.21015 1.05704 7.95076 1.19404C7.69137 1.33104 7.46617 1.5247 7.29188 1.76066C7.1176 1.99662 6.99871 2.26881 6.94404 2.55701C6.89749 2.84792 6.91833 3.14566 7.00502 3.42722C7.09171 3.70879 7.24193 3.96666 7.44404 4.18101C5.82804 4.60401 3.58503 5.90901 2.48903 9.52601C1.63593 12.6298 1.89777 15.9344 3.22902 18.865C3.26002 14.951 3.756 12.275 5.675 9.41703C7.594 6.55903 10.8751 5.85202 11.2611 7.45402C11.6471 9.05602 7.473 8.63601 6.878 10.044C6.75255 10.315 6.71091 10.6173 6.75831 10.9122C6.80572 11.2071 6.94004 11.4811 7.14412 11.6991C7.3482 11.9172 7.61273 12.0693 7.90382 12.1361C8.19491 12.2029 8.4993 12.1813 8.77803 12.074C9.96003 11.741 11.5541 10.762 10.8681 12.274C10.1821 13.786 6.26202 13.409 6.80702 15.812C7.35202 18.215 9.98701 15.164 10.607 15.565C11.158 15.922 10.707 16.589 10.007 17.449C8.63603 18.926 7.21506 18.802 7.03206 20.1C6.84906 21.398 7.96704 22.552 9.80604 22.264C11.645 21.976 11.616 20.015 12.582 20.1C13.548 20.185 12.9681 22.408 14.3471 22.868C14.6159 22.9854 14.9077 23.0406 15.2009 23.0297C15.494 23.0188 15.7809 22.942 16.0403 22.805C16.2997 22.668 16.5249 22.4743 16.6992 22.2384C16.8735 22.0024 16.9923 21.7302 17.047 21.442C17.0935 21.1511 17.0726 20.8534 16.9859 20.5719C16.8992 20.2903 16.7491 20.0324 16.547 19.818C18.163 19.395 20.406 18.089 21.502 14.472C22.3554 11.3684 22.0939 8.06382 20.763 5.13303Z" fill="black"/>
</svg>
