<svg width="24" height="24" viewBox="0 0 24 24" fill="none" xmlns="http://www.w3.org/2000/svg">
<path d="M22 7.12C22 4.189 18.82 2.13401 16.911 2.14301C15.002 2.15201 14.181 3.367 13.578 3.368C12.975 3.369 12 1 12 1C12 1 11.025 3.37 10.423 3.368C9.82098 3.366 8.99798 2.15101 7.08898 2.14301C5.17998 2.13501 2.00198 4.189 1.99998 7.12C1.99175 8.85548 2.49997 10.5542 3.45998 12C2.49982 13.4454 1.99158 15.1438 1.99998 16.879C1.99998 19.81 5.17998 21.866 7.08898 21.857C8.99798 21.848 9.81998 20.633 10.423 20.631C11.026 20.629 12 23 12 23C12 23 12.975 20.63 13.578 20.631C14.181 20.632 15.002 21.848 16.911 21.857C18.82 21.866 21.999 19.81 22 16.879C22.0089 15.1437 21.5006 13.4451 20.54 12C21.5005 10.5544 22.0088 8.85556 22 7.12ZM9.07098 17.736C8.04598 19.582 6.71198 20.101 5.89398 20.088C5.07598 20.075 4.32798 18.902 4.11398 17.726C3.89998 16.55 4.02798 15.38 5.03298 15.357C6.03798 15.334 6.22497 16.542 6.92797 16.516C7.63097 16.49 8.30898 15.425 8.30798 14.18C8.30698 12.935 6.55298 12.01 6.53398 12C6.55298 11.99 8.30698 11.057 8.30798 9.819C8.30898 8.581 7.63097 7.51101 6.92797 7.48401C6.22497 7.45701 6.03798 8.665 5.03298 8.642C4.02798 8.619 3.89998 7.448 4.11398 6.27299C4.32798 5.09799 5.07698 3.924 5.89398 3.911C6.71098 3.898 8.04598 4.417 9.07098 6.263C10.096 8.109 10.134 11.979 10.134 12C10.134 12.021 10.092 15.895 9.07098 17.736ZM12 17.149C11.632 17.149 11.333 14.843 11.333 12C11.333 9.157 11.633 6.851 12 6.851C12.367 6.851 12.667 9.156 12.667 12C12.667 14.844 12.368 17.152 12 17.152V17.149ZM17.466 12C17.447 12.01 15.694 12.942 15.692 14.18C15.69 15.418 16.369 16.489 17.072 16.516C17.775 16.543 17.962 15.335 18.972 15.357C19.982 15.379 20.106 16.551 19.891 17.726C19.676 18.901 18.928 20.076 18.111 20.088C17.294 20.1 15.959 19.582 14.935 17.736C13.911 15.89 13.871 12.02 13.871 12C13.871 11.98 13.913 8.1 14.935 6.263C15.957 4.426 17.293 3.898 18.111 3.911C18.929 3.924 19.677 5.09799 19.891 6.27299C20.105 7.448 19.977 8.62 18.972 8.642C17.967 8.664 17.78 7.45701 17.072 7.48401C16.364 7.51101 15.691 8.574 15.692 9.819C15.693 11.064 17.447 11.99 17.466 12Z" fill="black"/>
</svg>
