<svg xmlns="http://www.w3.org/2000/svg" width="24" height="24" viewBox="0 0 24 24">
  <g id="kete-pa" transform="translate(-137 -71)">
    <rect id="Rectangle_149" data-name="Rectangle 149" width="24" height="24" transform="translate(137 71)" fill="none"/>
    <path id="Path_83" data-name="Path 83" d="M163.215,98.042a.5.5,0,1,0,0-1h-.6v-1.1h.6a.5.5,0,1,0,0-1h-.6v-.647a.548.548,0,1,0-1.1,0v.647h-1v-.647a.548.548,0,1,0-1.1,0v.647h-1v-.7a.5.5,0,0,0-1,0v.7h-1.1v-.7a.5.5,0,1,0-1,0v.7h-1.1v-.7a.5.5,0,1,0-1,0v.7h-1v-.647a.548.548,0,1,0-1.1,0v.647h-1v-.647a.548.548,0,1,0-1.1,0v.647h-1v-.647a.548.548,0,1,0-1.1,0v.647h-1v-.7a.5.5,0,1,0-1,0v.7h-1.1v-.7a.5.5,0,0,0-1,0v.7h-.7a.5.5,0,1,0,0,1h.7v1.1h-.7a.5.5,0,1,0,0,1h.7v1h-.647a.548.548,0,1,0,0,1.1h.647v1h-.647a.548.548,0,1,0,0,1.1h.647v1h-.647a.548.548,0,1,0,0,1.1h.647v1h-.7a.5.5,0,1,0,0,1h.7v1.1h-.7a.5.5,0,1,0,0,1h.7v1.1h-.7a.5.5,0,1,0,0,1h.7v1h-.647a.548.548,0,1,0,0,1.1h.647v1h-.647a.548.548,0,1,0,0,1.1h.647v.6a.5.5,0,0,0,1,0v-.6H145v.6a.5.5,0,1,0,1,0v-.6h1v.548a.548.548,0,1,0,1.1,0v-.548h1v.548a.548.548,0,1,0,1.1,0v-.548h1v.548a.548.548,0,1,0,1.1,0v-.548h1v.6a.5.5,0,1,0,1,0v-.6h1.1v.6a.5.5,0,1,0,1,0v-.6h1.1v.6a.5.5,0,0,0,1,0v-.6h1v.548a.548.548,0,1,0,1.1,0v-.548h1v.548a.548.548,0,1,0,1.1,0v-.548h.548a.548.548,0,1,0,0-1.1h-.548v-1h.548a.548.548,0,1,0,0-1.1h-.548v-1h.6a.5.5,0,1,0,0-1h-.6v-1.1h.6a.5.5,0,1,0,0-1h-.6v-1.1h.6a.5.5,0,1,0,0-1h-.6v-1h.548a.548.548,0,1,0,0-1.1h-.548v-1h.548a.548.548,0,1,0,0-1.1h-.548v-1h.548a.548.548,0,1,0,0-1.1h-.548v-1Zm-1.692-2.09v1.1h-1v-1.1Zm-2.09,0v1.1h-1v-1.1Zm-7.167,7.267v-1h1v1Zm1,1.1v1h-1v-1Zm-2.09-1.1h-1v-1h1Zm0,1.1v1h-1v-1Zm0,1.991v1.1h-1v-1.1Zm1.1,0h1v1.1h-1Zm1.991,0h1.1v1.1h-1.1Zm0-1v-1h1.1v1Zm0-2.09v-1h1.1v1Zm0-2.09v-1h1.1v1Zm-1,0h-1v-1h1Zm-2.09,0h-1v-1h1Zm-2.09,0h-1v-1h1Zm0,1.1v1h-1v-1Zm0,2.09v1h-1v-1Zm0,1.991v1.1h-1v-1.1Zm0,2.09v1.1h-1v-1.1Zm1.1,0h1v1.1h-1Zm2.09,0h1v1.1h-1Zm1.991,0h1.1v1.1h-1.1Zm2.09,0h1.1v1.1h-1.1Zm0-1v-1.1h1.1v1.1Zm0-2.09v-1h1.1v1Zm0-2.09v-1h1.1v1Zm0-2.09v-1h1.1v1Zm0-2.09v-1h1.1v1Zm-1,0h-1.1v-1h1.1Zm-2.09,0h-1v-1h1Zm-2.09,0h-1v-1h1Zm-2.09,0h-1v-1h1Zm-2.09,0h-1v-1h1Zm0,1.1v1h-1v-1Zm0,2.09v1h-1v-1Zm0,2.09v1h-1v-1Zm0,1.991v1.1h-1v-1.1Zm0,2.09v1.1h-1v-1.1Zm0,2.09v1h-1v-1Zm1.1,0h1v1h-1Zm2.09,0h1v1h-1Zm2.09,0h1v1h-1Zm1.991,0h1.1v1h-1.1Zm2.09,0h1.1v1h-1.1Zm2.09,0h1v1h-1Zm0-1v-1.1h1v1.1Zm0-2.09v-1.1h1v1.1Zm0-2.09v-1h1v1Zm0-2.09v-1h1v1Zm0-2.09v-1h1v1Zm0-2.09v-1h1v1Zm-1-3.086v1.1h-1.1v-1.1Zm-2.09,0v1.1h-1.1v-1.1Zm-2.09,0v1.1h-1v-1.1Zm-2.09,0v1.1h-1v-1.1Zm-2.09,0v1.1h-1v-1.1Zm-2.09,0v1.1h-1v-1.1Zm-3.086,0H145v1.1h-1.1Zm0,2.09H145v1h-1.1Zm0,2.09H145v1h-1.1Zm0,2.09H145v1h-1.1Zm0,2.09H145v1h-1.1Zm0,1.991H145v1.1h-1.1Zm0,2.09H145v1.1h-1.1Zm0,2.09H145v1h-1.1Zm0,3.086v-1H145v1Zm2.09,0v-1h1v1Zm2.09,0v-1h1v1Zm2.09,0v-1h1v1Zm2.09,0v-1h1v1Zm1.991,0v-1h1.1v1Zm2.09,0v-1h1.1v1Zm2.09,0v-1h1v1Zm3.086,0h-1v-1h1Zm0-2.09h-1v-1h1Zm0-1.991h-1v-1.1h1Zm0-2.09h-1v-1.1h1Zm0-2.09h-1v-1h1Zm0-2.09h-1v-1h1Zm0-2.09h-1v-1h1Zm0-2.09h-1v-1h1Z" transform="translate(-3.713 -21.761)"/>
  </g>
</svg>
