<svg width="24" height="24" viewBox="0 0 24 24" fill="none" xmlns="http://www.w3.org/2000/svg">
<path d="M22.502 5.28102C22.6346 5.28102 22.7618 5.22834 22.8555 5.13457C22.9493 5.04081 23.002 4.91363 23.002 4.78102C23.002 4.64841 22.9493 4.52124 22.8555 4.42747C22.7618 4.3337 22.6346 4.28102 22.502 4.28102H21.902V3.18102H22.502C22.6346 3.18102 22.7618 3.12834 22.8555 3.03458C22.9493 2.94081 23.002 2.81363 23.002 2.68102C23.002 2.54841 22.9493 2.42124 22.8555 2.32747C22.7618 2.2337 22.6346 2.18102 22.502 2.18102H21.902V1.53402C21.902 1.38815 21.844 1.24826 21.7409 1.14511C21.6377 1.04197 21.4978 0.984024 21.352 0.984024C21.2061 0.984024 21.0662 1.04197 20.9631 1.14511C20.8599 1.24826 20.802 1.38815 20.802 1.53402V2.18102H19.802V1.53402C19.802 1.38815 19.744 1.24826 19.6409 1.14511C19.5377 1.04197 19.3978 0.984024 19.252 0.984024C19.1061 0.984024 18.9662 1.04197 18.8631 1.14511C18.7599 1.24826 18.702 1.38815 18.702 1.53402V2.18102H17.702V1.48102C17.702 1.34841 17.6493 1.22123 17.5555 1.12746C17.4618 1.0337 17.3346 0.981018 17.202 0.981018C17.0694 0.981018 16.9422 1.0337 16.8484 1.12746C16.7547 1.22123 16.702 1.34841 16.702 1.48102V2.18102H15.602V1.48102C15.602 1.34841 15.5493 1.22123 15.4555 1.12746C15.3618 1.0337 15.2346 0.981018 15.102 0.981018C14.9694 0.981018 14.8422 1.0337 14.7484 1.12746C14.6546 1.22123 14.602 1.34841 14.602 1.48102V2.18102H13.502V1.48102C13.502 1.34841 13.4493 1.22123 13.3555 1.12746C13.2618 1.0337 13.1346 0.981018 13.002 0.981018C12.8694 0.981018 12.7422 1.0337 12.6484 1.12746C12.5547 1.22123 12.502 1.34841 12.502 1.48102V2.18102H11.502V1.53402C11.502 1.38815 11.444 1.24826 11.3409 1.14511C11.2377 1.04197 11.0978 0.984024 10.952 0.984024C10.8061 0.984024 10.6662 1.04197 10.5631 1.14511C10.4599 1.24826 10.402 1.38815 10.402 1.53402V2.18102H9.40198V1.53402C9.40198 1.38815 9.34402 1.24826 9.24088 1.14511C9.13773 1.04197 8.99784 0.984024 8.85197 0.984024C8.70611 0.984024 8.5662 1.04197 8.46306 1.14511C8.35991 1.24826 8.30197 1.38815 8.30197 1.53402V2.18102H7.30197V1.53402C7.30197 1.38815 7.24403 1.24826 7.14088 1.14511C7.03774 1.04197 6.89784 0.984024 6.75197 0.984024C6.6061 0.984024 6.46621 1.04197 6.36307 1.14511C6.25992 1.24826 6.20197 1.38815 6.20197 1.53402V2.18102H5.20197V1.48102C5.20197 1.34841 5.14929 1.22123 5.05553 1.12746C4.96176 1.0337 4.83457 0.981018 4.70197 0.981018C4.56936 0.981018 4.44219 1.0337 4.34842 1.12746C4.25465 1.22123 4.20197 1.34841 4.20197 1.48102V2.18102H3.10197V1.48102C3.10197 1.34841 3.04929 1.22123 2.95552 1.12746C2.86175 1.0337 2.73458 0.981018 2.60197 0.981018C2.46937 0.981018 2.34218 1.0337 2.24841 1.12746C2.15464 1.22123 2.10197 1.34841 2.10197 1.48102V2.18102H1.40198C1.26937 2.18102 1.14218 2.2337 1.04842 2.32747C0.954648 2.42124 0.901978 2.54841 0.901978 2.68102C0.901978 2.81363 0.954648 2.94081 1.04842 3.03458C1.14218 3.12834 1.26937 3.18102 1.40198 3.18102H2.10197V4.28102H1.40198C1.26937 4.28102 1.14218 4.3337 1.04842 4.42747C0.954648 4.52124 0.901978 4.64841 0.901978 4.78102C0.901978 4.91363 0.954648 5.04081 1.04842 5.13457C1.14218 5.22834 1.26937 5.28102 1.40198 5.28102H2.10197V6.28102H1.45497C1.3091 6.28102 1.16922 6.33897 1.06607 6.44212C0.962926 6.54526 0.904968 6.68515 0.904968 6.83102C0.904968 6.97689 0.962926 7.11679 1.06607 7.21993C1.16922 7.32308 1.3091 7.38102 1.45497 7.38102H2.10197V8.38102H1.45497C1.3091 8.38102 1.16922 8.43897 1.06607 8.54211C0.962926 8.64526 0.904968 8.78515 0.904968 8.93102C0.904968 9.07689 0.962926 9.21679 1.06607 9.31993C1.16922 9.42308 1.3091 9.48102 1.45497 9.48102H2.10197V10.481H1.45497C1.3091 10.481 1.16922 10.539 1.06607 10.6421C0.962926 10.7453 0.904968 10.8852 0.904968 11.031C0.904968 11.1769 0.962926 11.3168 1.06607 11.4199C1.16922 11.5231 1.3091 11.581 1.45497 11.581H2.10197V12.581H1.40198C1.26937 12.581 1.14218 12.6337 1.04842 12.7275C0.954648 12.8212 0.901978 12.9484 0.901978 13.081C0.901978 13.2136 0.954648 13.3408 1.04842 13.4346C1.14218 13.5283 1.26937 13.581 1.40198 13.581H2.10197V14.681H1.40198C1.26937 14.681 1.14218 14.7337 1.04842 14.8275C0.954648 14.9212 0.901978 15.0484 0.901978 15.181C0.901978 15.3136 0.954648 15.4408 1.04842 15.5346C1.14218 15.6283 1.26937 15.681 1.40198 15.681H2.10197V16.781H1.40198C1.26937 16.781 1.14218 16.8337 1.04842 16.9275C0.954648 17.0212 0.901978 17.1484 0.901978 17.281C0.901978 17.4136 0.954648 17.5408 1.04842 17.6346C1.14218 17.7283 1.26937 17.781 1.40198 17.781H2.10197V18.781H1.45497C1.3091 18.781 1.16922 18.839 1.06607 18.9421C0.962926 19.0453 0.904968 19.1852 0.904968 19.331C0.904968 19.4769 0.962926 19.6168 1.06607 19.7199C1.16922 19.8231 1.3091 19.881 1.45497 19.881H2.10197V20.881H1.45497C1.3091 20.881 1.16922 20.939 1.06607 21.0421C0.962926 21.1453 0.904968 21.2852 0.904968 21.431C0.904968 21.5769 0.962926 21.7168 1.06607 21.8199C1.16922 21.9231 1.3091 21.981 1.45497 21.981H2.10197V22.581C2.10197 22.7136 2.15464 22.8408 2.24841 22.9346C2.34218 23.0283 2.46937 23.081 2.60197 23.081C2.73458 23.081 2.86175 23.0283 2.95552 22.9346C3.04929 22.8408 3.10197 22.7136 3.10197 22.581V21.981H4.28697V22.581C4.28697 22.7136 4.33966 22.8408 4.43343 22.9346C4.52719 23.0283 4.65436 23.081 4.78697 23.081C4.91958 23.081 5.04675 23.0283 5.14052 22.9346C5.23429 22.8408 5.28697 22.7136 5.28697 22.581V21.981H6.28697V22.529C6.28697 22.6749 6.34491 22.8148 6.44806 22.9179C6.5512 23.0211 6.69111 23.079 6.83698 23.079C6.98284 23.079 7.12273 23.0211 7.22588 22.9179C7.32902 22.8148 7.38698 22.6749 7.38698 22.529V21.981H8.38698V22.529C8.38698 22.6749 8.44492 22.8148 8.54807 22.9179C8.65121 23.0211 8.7911 23.079 8.93697 23.079C9.08284 23.079 9.22274 23.0211 9.32588 22.9179C9.42903 22.8148 9.48697 22.6749 9.48697 22.529V21.981H10.487V22.529C10.487 22.6749 10.5449 22.8148 10.6481 22.9179C10.7512 23.0211 10.8911 23.079 11.037 23.079C11.1828 23.079 11.3227 23.0211 11.4259 22.9179C11.529 22.8148 11.587 22.6749 11.587 22.529V21.981H12.587V22.581C12.587 22.7136 12.6396 22.8408 12.7334 22.9346C12.8272 23.0283 12.9544 23.081 13.087 23.081C13.2196 23.081 13.3468 23.0283 13.4405 22.9346C13.5343 22.8408 13.587 22.7136 13.587 22.581V21.981H14.687V22.581C14.687 22.7136 14.7397 22.8408 14.8334 22.9346C14.9272 23.0283 15.0544 23.081 15.187 23.081C15.3196 23.081 15.4468 23.0283 15.5405 22.9346C15.6343 22.8408 15.687 22.7136 15.687 22.581V21.981H16.787V22.581C16.787 22.7136 16.8397 22.8408 16.9334 22.9346C17.0272 23.0283 17.1544 23.081 17.287 23.081C17.4196 23.081 17.5467 23.0283 17.6405 22.9346C17.7343 22.8408 17.787 22.7136 17.787 22.581V21.981H18.787V22.529C18.787 22.6749 18.8449 22.8148 18.9481 22.9179C19.0512 23.0211 19.1911 23.079 19.337 23.079C19.4828 23.079 19.6227 23.0211 19.7259 22.9179C19.829 22.8148 19.887 22.6749 19.887 22.529V21.981H20.887V22.529C20.887 22.6749 20.9449 22.8148 21.0481 22.9179C21.1512 23.0211 21.2911 23.079 21.437 23.079C21.5828 23.079 21.7227 23.0211 21.8259 22.9179C21.929 22.8148 21.987 22.6749 21.987 22.529V21.981H22.535C22.6808 21.981 22.8207 21.9231 22.9239 21.8199C23.027 21.7168 23.085 21.5769 23.085 21.431C23.085 21.2852 23.027 21.1453 22.9239 21.0421C22.8207 20.939 22.6808 20.881 22.535 20.881H21.987V19.881H22.535C22.6808 19.881 22.8207 19.8231 22.9239 19.7199C23.027 19.6168 23.085 19.4769 23.085 19.331C23.085 19.1852 23.027 19.0453 22.9239 18.9421C22.8207 18.839 22.6808 18.781 22.535 18.781H21.987V17.781H22.587C22.7196 17.781 22.8468 17.7283 22.9405 17.6346C23.0343 17.5408 23.087 17.4136 23.087 17.281C23.087 17.1484 23.0343 17.0212 22.9405 16.9275C22.8468 16.8337 22.7196 16.781 22.587 16.781H21.987V15.681H22.587C22.7196 15.681 22.8468 15.6283 22.9405 15.5346C23.0343 15.4408 23.087 15.3136 23.087 15.181C23.087 15.0484 23.0343 14.9212 22.9405 14.8275C22.8468 14.7337 22.7196 14.681 22.587 14.681H21.987V13.581H22.587C22.7196 13.581 22.8468 13.5283 22.9405 13.4346C23.0343 13.3408 23.087 13.2136 23.087 13.081C23.087 12.9484 23.0343 12.8212 22.9405 12.7275C22.8468 12.6337 22.7196 12.581 22.587 12.581H21.987V11.581H22.535C22.6808 11.581 22.8207 11.5231 22.9239 11.4199C23.027 11.3168 23.085 11.1769 23.085 11.031C23.085 10.8852 23.027 10.7453 22.9239 10.6421C22.8207 10.539 22.6808 10.481 22.535 10.481H21.987V9.48102H22.535C22.6808 9.48102 22.8207 9.42308 22.9239 9.31993C23.027 9.21679 23.085 9.07689 23.085 8.93102C23.085 8.78515 23.027 8.64526 22.9239 8.54211C22.8207 8.43897 22.6808 8.38102 22.535 8.38102H21.987V7.38102H22.535C22.6808 7.38102 22.8207 7.32308 22.9239 7.21993C23.027 7.11679 23.085 6.97689 23.085 6.83102C23.085 6.68515 23.027 6.54526 22.9239 6.44212C22.8207 6.33897 22.6808 6.28102 22.535 6.28102H21.987V5.28102H22.502ZM20.81 3.19102V4.29102H19.81V3.19102H20.81ZM18.72 3.19102V4.29102H17.72V3.19102H18.72ZM11.553 10.458V9.45802H12.553V10.458H11.553ZM12.553 11.558V12.558H11.553V11.558H12.553ZM10.463 10.458H9.46297V9.45802H10.463V10.458ZM10.463 11.558V12.558H9.46297V11.558H10.463ZM10.463 13.549V14.649H9.46297V13.549H10.463ZM11.563 13.549H12.563V14.649H11.563V13.549ZM13.554 13.549H14.654V14.649H13.554V13.549ZM13.554 12.549V11.549H14.654V12.549H13.554ZM13.554 10.459V9.45902H14.654V10.459H13.554ZM13.554 8.36902V7.36902H14.654V8.36902H13.554ZM12.554 8.36902H11.554V7.36902H12.554V8.36902ZM10.464 8.36902H9.46397V7.36902H10.464V8.36902ZM8.37398 8.36902H7.37398V7.36902H8.37398V8.36902ZM8.37398 9.46902V10.469H7.37398V9.46902H8.37398ZM8.37398 11.559V12.559H7.37398V11.559H8.37398ZM8.37398 13.55V14.65H7.37398V13.55H8.37398ZM8.37398 15.64V16.74H7.37398V15.64H8.37398ZM9.47397 15.64H10.474V16.74H9.47397V15.64ZM11.564 15.64H12.564V16.74H11.564V15.64ZM13.555 15.64H14.655V16.74H13.555V15.64ZM15.645 15.64H16.745V16.74H15.645V15.64ZM15.645 14.64V13.54H16.745V14.64H15.645ZM15.645 12.55V11.55H16.745V12.55H15.645ZM15.645 10.46V9.46002H16.745V10.46H15.645ZM15.645 8.37002V7.37002H16.745V8.37002H15.645ZM15.645 6.28002V5.28002H16.745V6.28002H15.645ZM14.645 6.28002H13.545V5.28002H14.645V6.28002ZM12.555 6.28002H11.555V5.28002H12.555V6.28002ZM10.465 6.28002H9.46497V5.28002H10.465V6.28002ZM8.37497 6.28002H7.37497V5.28002H8.37497V6.28002ZM6.28497 6.28002H5.28497V5.28002H6.28497V6.28002ZM6.28497 7.38002V8.38002H5.28497V7.38002H6.28497ZM6.28497 9.47002V10.47H5.28497V9.47002H6.28497ZM6.28497 11.56V12.56H5.28497V11.56H6.28497ZM6.28497 13.551V14.651H5.28497V13.551H6.28497ZM6.28497 15.641V16.741H5.28497V15.641H6.28497ZM6.28497 17.731V18.731H5.28497V17.731H6.28497ZM7.38498 17.731H8.38498V18.731H7.38498V17.731ZM9.47498 17.731H10.475V18.731H9.47498V17.731ZM11.565 17.731H12.565V18.731H11.565V17.731ZM13.556 17.731H14.656V18.731H13.556V17.731ZM15.646 17.731H16.746V18.731H15.646V17.731ZM17.736 17.731H18.736V18.731H17.736V17.731ZM17.736 16.731V15.631H18.736V16.731H17.736ZM17.736 14.641V13.541H18.736V14.641H17.736ZM17.736 12.551V11.551H18.736V12.551H17.736ZM17.736 10.461V9.46102H18.736V10.461H17.736ZM17.736 8.37103V7.37103H18.736V8.37103H17.736ZM17.736 6.28102V5.28102H18.736V6.28102H17.736ZM16.736 3.19502V4.29502H15.636V3.19502H16.736ZM14.646 3.19502V4.29502H13.546V3.19502H14.646ZM12.556 3.19502V4.29502H11.556V3.19502H12.556ZM10.466 3.19502V4.29502H9.46597V3.19502H10.466ZM8.37598 3.19502V4.29502H7.37598V3.19502H8.37598ZM6.28596 3.19502V4.29502H5.28596V3.19502H6.28596ZM3.19997 3.19502H4.28697V4.29502H3.18697L3.19997 3.19502ZM3.19997 5.28502H4.28697V6.28502H3.18697L3.19997 5.28502ZM3.19997 7.37502H4.28697V8.37502H3.18697L3.19997 7.37502ZM3.19997 9.46502H4.28697V10.465H3.18697L3.19997 9.46502ZM3.19997 11.555H4.28697V12.555H3.18697L3.19997 11.555ZM3.19997 13.546H4.28697V14.646H3.18697L3.19997 13.546ZM3.19997 15.636H4.28697V16.736H3.18697L3.19997 15.636ZM3.19997 17.726H4.28697V18.726H3.18697L3.19997 17.726ZM3.19997 20.812V19.812H4.28697V20.812H3.19997ZM5.28998 20.812V19.812H6.28998V20.812H5.28998ZM7.37997 20.812V19.812H8.37997V20.812H7.37997ZM9.46997 20.812V19.812H10.47V20.812H9.46997ZM11.56 20.812V19.812H12.56V20.812H11.56ZM13.551 20.812V19.812H14.651V20.812H13.551ZM15.641 20.812V19.812H16.741V20.812H15.641ZM17.731 20.812V19.812H18.731V20.812H17.731ZM20.817 20.812H19.817V19.812H20.817V20.812ZM20.817 18.722H19.817V17.722H20.817V18.722ZM20.817 16.731H19.817V15.631H20.817V16.731ZM20.817 14.641H19.817V13.541H20.817V14.641ZM20.817 12.551H19.817V11.551H20.817V12.551ZM20.817 10.461H19.817V9.46102H20.817V10.461ZM20.817 8.37103H19.817V7.37103H20.817V8.37103ZM20.817 6.28102H19.817V5.28102H20.817V6.28102Z" fill="black"/>
</svg>
