<svg width="24" height="24" viewBox="0 0 24 24" fill="none" xmlns="http://www.w3.org/2000/svg">
<path d="M19.491 12.006L19.519 11.995C20.3855 11.6292 21.1485 11.0556 21.7408 10.3249C22.3331 9.59424 22.7363 8.72898 22.9148 7.80553C23.0934 6.88209 23.0418 5.92888 22.7647 5.03009C22.4875 4.1313 21.9933 3.31459 21.3256 2.6521C20.658 1.9896 19.8375 1.50171 18.9366 1.23151C18.0357 0.961305 17.0821 0.917106 16.16 1.10282C15.238 1.28852 14.3759 1.69843 13.6498 2.29632C12.9238 2.89422 12.3561 3.6617 11.997 4.531V4.52199C11.6356 3.65576 11.0666 2.8918 10.34 2.29754C9.61354 1.70329 8.75192 1.29702 7.83123 1.11458C6.91054 0.932137 5.95909 0.979146 5.06087 1.25145C4.16265 1.52376 3.34527 2.01299 2.68087 2.67596C2.01648 3.33894 1.5255 4.15527 1.25128 5.05291C0.977051 5.95055 0.928008 6.90189 1.10848 7.82297C1.28895 8.74404 1.69338 9.60653 2.28608 10.3343C2.87878 11.0621 3.64152 11.6328 4.50698 11.996H4.49998C3.63113 12.3587 2.86506 12.9299 2.26958 13.6591C1.67409 14.3884 1.26755 15.2532 1.08592 16.177C0.904299 17.1009 0.953195 18.0552 1.22828 18.9556C1.50337 19.856 1.99617 20.6748 2.66306 21.3394C3.32996 22.0039 4.1504 22.4939 5.05177 22.7658C5.95314 23.0378 6.90765 23.0834 7.83083 22.8986C8.75401 22.7137 9.6174 22.3042 10.3446 21.7062C11.0718 21.1082 11.6403 20.3401 12 19.47C12.3603 20.3369 12.9285 21.1017 13.6545 21.6969C14.3805 22.2921 15.2418 22.6993 16.1625 22.8827C17.0832 23.066 18.0349 23.0199 18.9335 22.7482C19.8321 22.4765 20.65 21.9878 21.3149 21.3251C21.9798 20.6624 22.4713 19.8461 22.746 18.9484C23.0206 18.0507 23.07 17.0992 22.8897 16.1779C22.7095 15.2566 22.3051 14.3939 21.7123 13.6659C21.1196 12.938 20.3567 12.3672 19.491 12.004V12.006ZM11.991 15.077C11.4132 13.6899 10.3119 12.5865 8.92598 12.006L8.95398 11.995C10.3329 11.4081 11.4259 10.3026 11.997 8.917C12.5765 10.3048 13.6769 11.4102 15.062 11.996H15.055C13.6691 12.584 12.5706 13.6941 11.997 15.086L11.991 15.077ZM13.491 8.186C13.527 8.2 13.563 8.21299 13.599 8.22899C14.1017 8.44127 14.5566 8.75226 14.9369 9.14355C15.3172 9.53485 15.6151 9.99848 15.813 10.507C15.2877 10.3009 14.8107 9.98825 14.4122 9.5888C14.0136 9.18936 13.702 8.71174 13.497 8.186H13.491ZM8.20898 10.506C8.41469 9.97943 8.72733 9.50123 9.12716 9.10157C9.52699 8.70191 10.0053 8.38948 10.532 8.184C10.3267 8.71031 10.0145 9.18836 9.6152 9.58801C9.2159 9.98766 8.73812 10.3002 8.21198 10.506H8.20898ZM8.31798 13.506C8.82065 13.7183 9.27561 14.0293 9.65591 14.4206C10.0362 14.8118 10.3341 15.2755 10.532 15.784C10.0055 15.5788 9.52724 15.2667 9.12742 14.8674C8.72759 14.4681 8.41487 13.9902 8.20898 13.464C8.24798 13.478 8.28498 13.491 8.31998 13.506H8.31798ZM15.818 13.462C15.6125 13.9884 15.3002 14.4665 14.9008 14.8662C14.5013 15.2658 14.0233 15.5783 13.497 15.784C13.7022 15.2578 14.0143 14.7799 14.4134 14.3802C14.8125 13.9806 15.2901 13.6679 15.816 13.462H15.818ZM17.292 2.629C18.3516 2.62294 19.372 3.0298 20.1368 3.76333C20.9015 4.49685 21.3505 5.49938 21.3886 6.55836C21.4267 7.61735 21.0509 8.64955 20.3409 9.43614C19.6308 10.2227 18.6423 10.7019 17.585 10.772C17.3506 9.70567 16.8159 8.72874 16.044 7.95665C15.2721 7.18456 14.2952 6.6496 13.229 6.415C13.303 5.38811 13.7626 4.42721 14.5157 3.72516C15.2687 3.02311 16.2594 2.63188 17.289 2.63L17.292 2.629ZM2.65298 6.712C2.6657 5.66526 3.08027 4.66345 3.81092 3.91381C4.54158 3.16417 5.53242 2.72405 6.57849 2.68448C7.62456 2.64492 8.64581 3.00895 9.431 3.70126C10.2162 4.39358 10.7052 5.36121 10.797 6.404C9.72173 6.62964 8.73499 7.16228 7.95634 7.93738C7.17768 8.71249 6.64054 9.69678 6.40998 10.771C5.38819 10.6905 4.43418 10.2282 3.73795 9.47599C3.04172 8.72379 2.65435 7.73695 2.65298 6.712ZM6.73798 21.339C5.68254 21.3434 4.66655 20.9382 3.9038 20.2087C3.14105 19.4792 2.69101 18.4822 2.64839 17.4276C2.60577 16.3731 2.97388 15.343 3.67527 14.5544C4.37666 13.7657 5.35663 13.2798 6.40898 13.199C6.64135 14.2754 7.1787 15.2621 7.95681 16.0413C8.73493 16.8205 9.72092 17.3592 10.797 17.593C10.7137 18.6127 10.2501 19.5639 9.49824 20.2578C8.74636 20.9517 7.76112 21.3376 6.73798 21.339ZM17.3 21.339C16.2746 21.3403 15.2864 20.9554 14.5321 20.2608C13.7779 19.5662 13.313 18.613 13.23 17.591C14.3044 17.3594 15.2884 16.821 16.0627 16.041C16.837 15.261 17.3683 14.273 17.592 13.197C18.6466 13.271 19.6312 13.7518 20.3379 14.5379C21.0447 15.3241 21.4184 16.3541 21.3801 17.4106C21.3419 18.4671 20.8946 19.4673 20.1328 20.2003C19.371 20.9333 18.3541 21.3415 17.297 21.339H17.3Z" fill="black"/>
</svg>
