<svg width="24" height="24" viewBox="0 0 24 24" fill="none" xmlns="http://www.w3.org/2000/svg">
<path d="M13.1976 2.76774C16.172 2.58817 18.6657 4.48901 19.1308 7.3468C19.2284 7.94669 19.2242 8.6307 19.1406 9.31452C18.9887 10.5567 18.3649 11.6783 17.6621 12.7222L13.1974 19.3531L4.95469 7.80245L3 9.14542L12.8869 23L19.3344 13.4242C19.9996 12.4363 20.5876 11.3818 20.8145 10.2189C21.0173 9.17885 21.0667 8.10662 20.898 7.06995C20.282 3.28445 16.9453 0.782116 13.0877 1.01498C9.45965 1.23402 6.7746 4.14497 6.9858 7.72614C7.16463 10.7586 9.24668 13.2357 12.4236 13.5779C15.7594 13.9372 17.9363 11.1741 17.8386 8.29291C17.7929 6.94569 17.1016 5.6854 16.1193 4.86107C15.1316 4.03221 13.7482 3.57023 12.3415 4.04243C11.5234 4.31703 10.8889 4.81359 10.4827 5.48804C10.0831 6.15152 9.93937 6.92772 9.9831 7.72275C10.0419 8.79269 10.5634 9.7452 11.3431 10.3029C12.1479 10.8786 13.251 11.0289 14.2297 10.3782C14.9256 9.91548 15.1666 9.16168 15.1619 8.51792C15.1573 7.87998 14.9179 7.20078 14.4527 6.71497C14.1143 6.3616 13.548 6.34427 13.1878 6.67631C12.8276 7.00836 12.81 7.56401 13.1484 7.91742C13.268 8.04236 13.3705 8.27926 13.3723 8.53046C13.3741 8.77587 13.2862 8.8843 13.2257 8.92452C12.9616 9.10012 12.6846 9.08937 12.3973 8.88387C12.085 8.66047 11.8023 8.21185 11.7702 7.62811C11.7408 7.09389 11.8431 6.68081 12.0234 6.38146C12.1971 6.09304 12.4764 5.8531 12.9208 5.70394C13.5871 5.48025 14.3238 5.66496 14.9561 6.19561C15.5938 6.73083 16.0225 7.54294 16.0499 8.35129C16.1204 10.4284 14.6197 12.0478 12.6189 11.8323C10.4124 11.5947 8.90702 9.90622 8.77249 7.62471C8.61914 5.02456 10.5379 2.92829 13.1976 2.76774Z" fill="black"/>
</svg>
