<svg xmlns="http://www.w3.org/2000/svg" width="24" height="24" viewBox="0 0 24 24">
  <g id="kramo-bone-amma-yeanhu-kramo-pa" transform="translate(-233 -407)">
    <rect id="Rectangle_149" data-name="Rectangle 149" width="24" height="24" transform="translate(233 407)" fill="none"/>
    <path id="Path_521" data-name="Path 521" d="M-239.274,190.421l-.644.644-.644-.644a6.075,6.075,0,0,0-8.582,0,6.075,6.075,0,0,0,0,8.582l.644.644-.644.644a6.075,6.075,0,0,0,0,8.582,6.075,6.075,0,0,0,8.582,0l.644-.644.644.644a6.075,6.075,0,0,0,8.582,0,6.075,6.075,0,0,0,0-8.582l-.644-.644.644-.644a6.075,6.075,0,0,0,0-8.582A6.075,6.075,0,0,0-239.274,190.421Zm-8.8,7.509a4.556,4.556,0,0,1,0-6.436,4.556,4.556,0,0,1,6.436,0l.644.644,1.073,1.073,1.609,1.609,1.073,1.073,1.073,1.073-1.609,1.609-1.073-1.073-1.073-1.073-1.609-1.609-1.073-1.073-.751-.751a2.278,2.278,0,0,0-3.218,0,2.278,2.278,0,0,0,0,3.218l.751.751-1.609,1.609Zm11.907-3.111.751-.751a.759.759,0,0,1,1.073,0,.76.76,0,0,1,0,1.073l-.751.751Zm-2.682,4.827-1.073,1.073-1.073-1.073,1.073-1.073Zm-4.827-4.827-1.073,1.073-.751-.751a.759.759,0,0,1,0-1.073.759.759,0,0,1,1.073,0Zm2.038,12.98a4.556,4.556,0,0,1-6.436,0,4.556,4.556,0,0,1,0-6.436l.644-.644,1.073-1.073,1.609-1.609,1.073-1.073,1.073-1.073,1.609,1.609-1.073,1.073-1.073,1.073-1.609,1.609-1.073,1.073-.751.751a2.278,2.278,0,0,0,0,3.218,2.278,2.278,0,0,0,3.218,0l.751-.751,1.609,1.609Zm-3.111-4.4,1.073,1.073-.751.751a.76.76,0,0,1-1.073,0,.759.759,0,0,1,0-1.073Zm12.98-2.038a4.556,4.556,0,0,1,0,6.436,4.556,4.556,0,0,1-6.436,0l-.644-.644-1.073-1.073-1.609-1.609L-242.6,203.4l-1.073-1.073,1.609-1.609,1.073,1.073,1.073,1.073,1.609,1.609,1.073,1.073.751.751a2.278,2.278,0,0,0,3.218,0,2.278,2.278,0,0,0,0-3.218l-.751-.751,1.609-1.609Zm-4.4,3.111,1.073-1.073.751.751a.76.76,0,0,1,0,1.073.76.76,0,0,1-1.073,0Zm4.4-6.544-.644.644-1.073,1.073-1.609,1.609-1.073,1.073-1.073,1.073-1.609-1.609,1.073-1.073,1.073-1.073,1.609-1.609,1.073-1.073.751-.751a2.278,2.278,0,0,0,0-3.218,2.278,2.278,0,0,0-3.218,0l-.751.751-1.609-1.609.644-.644a4.556,4.556,0,0,1,6.436,0A4.556,4.556,0,0,1-231.765,197.93Z" transform="translate(484.918 219.354)"/>
  </g>
</svg>
