<svg width="24" height="24" viewBox="0 0 24 24" fill="none" xmlns="http://www.w3.org/2000/svg">
<path d="M12.644 2.77499L12 3.41899L11.356 2.77499C10.2171 1.63857 8.67389 1.00034 7.06499 1.00034C5.45609 1.00034 3.91289 1.63857 2.77399 2.77499C1.63756 3.9139 0.999329 5.45709 0.999329 7.06599C0.999329 8.6749 1.63756 10.2181 2.77399 11.357L3.41798 12.001L2.77399 12.645C1.63756 13.7839 0.999329 15.3271 0.999329 16.936C0.999329 18.5449 1.63756 20.0881 2.77399 21.227C3.91289 22.3634 5.45609 23.0016 7.06499 23.0016C8.67389 23.0016 10.2171 22.3634 11.356 21.227L12 20.583L12.644 21.227C13.7829 22.3634 15.3261 23.0016 16.935 23.0016C18.5439 23.0016 20.0871 22.3634 21.226 21.227C22.3624 20.0881 23.0006 18.5449 23.0006 16.936C23.0006 15.3271 22.3624 13.7839 21.226 12.645L20.582 12.001L21.226 11.357C22.3624 10.2181 23.0006 8.6749 23.0006 7.06599C23.0006 5.45709 22.3624 3.9139 21.226 2.77499C20.0871 1.63857 18.5439 1.00034 16.935 1.00034C15.3261 1.00034 13.7829 1.63857 12.644 2.77499ZM3.84398 10.284C2.99175 9.42986 2.51314 8.27257 2.51314 7.06599C2.51314 5.85942 2.99175 4.70212 3.84398 3.84799C4.6981 2.99576 5.85541 2.51714 7.06198 2.51714C8.26855 2.51714 9.42586 2.99576 10.28 3.84799L15.752 9.31999L14.143 10.929L8.56398 5.34999C8.13692 4.92388 7.55827 4.68457 6.95499 4.68457C6.3517 4.68457 5.77304 4.92388 5.34598 5.34999C4.91986 5.77705 4.68056 6.3557 4.68056 6.95898C4.68056 7.56227 4.91986 8.14093 5.34598 8.56799L6.09698 9.31898L4.48799 10.928L3.84398 10.284ZM15.751 7.17299L16.502 6.42198C16.6443 6.27976 16.8373 6.19987 17.0385 6.19987C17.2397 6.19987 17.4327 6.27976 17.575 6.42198C17.717 6.56444 17.7967 6.75737 17.7967 6.9585C17.7967 7.15962 17.717 7.35254 17.575 7.495L16.824 8.24599L15.751 7.17299ZM13.069 12L11.996 13.073L10.923 12L11.996 10.927L13.069 12ZM8.24199 7.17299L7.16899 8.24599L6.41798 7.495C6.27576 7.35267 6.19588 7.1597 6.19588 6.9585C6.19588 6.75729 6.27576 6.56431 6.41798 6.42198C6.56031 6.27976 6.75328 6.19987 6.95448 6.19987C7.15569 6.19987 7.34866 6.27976 7.49098 6.42198L8.24199 7.17299ZM10.28 20.153C9.42586 21.0052 8.26855 21.4838 7.06198 21.4838C5.85541 21.4838 4.6981 21.0052 3.84398 20.153C2.99175 19.2989 2.51314 18.1416 2.51314 16.935C2.51314 15.7284 2.99175 14.5711 3.84398 13.717L9.31598 8.245L10.925 9.85399L5.34598 15.433C4.91986 15.86 4.68056 16.4387 4.68056 17.042C4.68056 17.6453 4.91986 18.2239 5.34598 18.651C5.77304 19.0771 6.3517 19.3164 6.95499 19.3164C7.55827 19.3164 8.13692 19.0771 8.56398 18.651L9.31499 17.9L10.924 19.509L10.28 20.153ZM7.16899 15.753L8.24199 16.826L7.49098 17.577C7.34853 17.719 7.15561 17.7987 6.95448 17.7987C6.75336 17.7987 6.56044 17.719 6.41798 17.577C6.27576 17.4347 6.19588 17.2417 6.19588 17.0405C6.19588 16.8393 6.27576 16.6463 6.41798 16.504L7.16899 15.753ZM20.149 13.715C21.0012 14.5691 21.4798 15.7264 21.4798 16.933C21.4798 18.1396 21.0012 19.2969 20.149 20.151C19.2949 21.0032 18.1376 21.4818 16.931 21.4818C15.7244 21.4818 14.5671 21.0032 13.713 20.151L8.24498 14.681L9.85399 13.072L15.433 18.651C15.86 19.0771 16.4387 19.3164 17.042 19.3164C17.6453 19.3164 18.2239 19.0771 18.651 18.651C19.0771 18.2239 19.3164 17.6453 19.3164 17.042C19.3164 16.4387 19.0771 15.86 18.651 15.433L17.9 14.682L19.509 13.073L20.149 13.715ZM15.749 16.826L16.822 15.753L17.573 16.504C17.715 16.6464 17.7947 16.8394 17.7947 17.0405C17.7947 17.2416 17.715 17.4345 17.573 17.577C17.4305 17.719 17.2376 17.7987 17.0365 17.7987C16.8354 17.7987 16.6424 17.719 16.5 17.577L15.749 16.826ZM20.149 10.282L14.677 15.754L13.068 14.145L18.647 8.56599C19.0731 8.13893 19.3124 7.56027 19.3124 6.95699C19.3124 6.3537 19.0731 5.77505 18.647 5.34799C18.2199 4.92188 17.6413 4.68257 17.038 4.68257C16.4347 4.68257 15.856 4.92188 15.429 5.34799L14.678 6.09898L13.069 4.48999L13.713 3.84599C14.5671 2.99376 15.7244 2.51514 16.931 2.51514C18.1376 2.51514 19.2949 2.99376 20.149 3.84599C21.0024 4.69967 21.4821 5.8571 21.4828 7.06416C21.4836 8.27123 21.0053 9.42925 20.153 10.284L20.149 10.282Z" fill="black"/>
</svg>
