<svg width="24" height="24" viewBox="0 0 24 24" fill="none" xmlns="http://www.w3.org/2000/svg">
<path d="M1 1V23H23V1H1ZM12.687 14.979H13.604V15.896H12.687V14.979ZM15.895 17.042H14.978V16.125H15.895V17.042ZM16.124 16.125H17.041V17.042H16.124V16.125ZM14.749 17.042H13.832V16.125H14.749V17.042ZM14.749 17.271V18.188H13.832V17.271H14.749ZM14.978 17.271H15.895V18.188H14.978V17.271ZM16.124 17.271H17.041V18.188H16.124V17.271ZM17.27 17.271H18.187V18.188H17.27V17.271ZM17.27 17.042V16.125H18.187V17.042H17.27ZM17.27 15.896V14.979H18.187V15.896H17.27ZM17.041 15.896H16.124V14.979H17.041V15.896ZM15.895 15.896H14.978V14.979H15.895V15.896ZM14.749 15.896H13.832V14.979H14.749V15.896ZM12.687 16.125H13.604V17.042H12.687V16.125ZM12.687 17.271H13.604V18.188H12.687V17.271ZM12.687 18.417H13.604V19.334H12.687V18.417ZM13.833 18.417H14.75V19.334H13.833V18.417ZM14.979 18.417H15.896V19.334H14.979V18.417ZM16.125 18.417H17.042V19.334H16.125V18.417ZM17.271 18.417H18.188V19.334H17.271V18.417ZM18.417 18.417H19.334V19.334H18.417V18.417ZM18.417 18.188V17.271H19.334V18.188H18.417ZM18.417 17.042V16.125H19.334V17.042H18.417ZM18.417 15.896V14.979H19.334V15.896H18.417ZM18.417 14.75V13.833H19.334V14.75H18.417ZM18.188 14.75H17.271V13.833H18.188V14.75ZM17.042 14.75H16.125V13.833H17.042V14.75ZM15.896 14.75H14.979V13.833H15.896V14.75ZM14.75 14.75H13.833V13.833H14.75V14.75ZM13.604 14.75H12.687V13.833H13.604V14.75ZM12.687 19.563H13.604V20.48H12.687V19.563ZM13.833 19.563H14.75V20.48H13.833V19.563ZM14.979 19.563H15.896V20.48H14.979V19.563ZM16.125 19.563H17.042V20.48H16.125V19.563ZM17.271 19.563H18.188V20.48H17.271V19.563ZM18.417 19.563H19.334V20.48H18.417V19.563ZM19.563 19.563H20.48V20.48H19.563V19.563ZM19.563 19.334V18.417H20.48V19.334H19.563ZM19.563 18.188V17.271H20.48V18.188H19.563ZM19.563 17.042V16.125H20.48V17.042H19.563ZM19.563 15.896V14.979H20.48V15.896H19.563ZM19.563 14.75V13.833H20.48V14.75H19.563ZM19.563 13.604V12.687H20.48V13.604H19.563ZM19.334 13.604H18.417V12.687H19.334V13.604ZM18.188 13.604H17.271V12.687H18.188V13.604ZM17.042 13.604H16.125V12.687H17.042V13.604ZM15.896 13.604H14.979V12.687H15.896V13.604ZM14.75 13.604H13.833V12.687H14.75V13.604ZM13.604 13.604H12.687V12.687H13.604V13.604ZM6.729 5.81201V6.729H5.812V5.81201H6.729ZM5.812 5.58301V4.66602H6.729V5.58301H5.812ZM5.583 6.729H4.666V5.81201H5.583V6.729ZM5.583 6.95801V7.875H4.666V6.95801H5.583ZM5.812 6.95801H6.729V7.875H5.812V6.95801ZM6.958 6.95801H7.875V7.875H6.958V6.95801ZM6.958 6.729V5.81201H7.875V6.729H6.958ZM6.958 5.58301V4.66602H7.875V5.58301H6.958ZM6.958 4.43701V3.52002H7.875V4.43701H6.958ZM6.729 4.43701H5.812V3.52002H6.729V4.43701ZM5.583 4.43701H4.666V3.52002H5.583V4.43701ZM5.583 4.66602V5.58301H4.666V4.66602H5.583ZM4.437 5.58301H3.52V4.66602H4.437V5.58301ZM4.437 5.81201V6.729H3.52V5.81201H4.437ZM4.437 6.95801V7.875H3.52V6.95801H4.437ZM4.437 8.104V9.021H3.52V8.104H4.437ZM4.666 8.104H5.583V9.021H4.666V8.104ZM5.812 8.104H6.729V9.021H5.812V8.104ZM6.958 8.104H7.875V9.021H6.958V8.104ZM8.104 8.104H9.021V9.021H8.104V8.104ZM8.104 7.875V6.95801H9.021V7.875H8.104ZM8.104 6.729V5.81201H9.021V6.729H8.104ZM8.104 5.58301V4.66602H9.021V5.58301H8.104ZM8.104 4.43701V3.52002H9.021V4.43701H8.104ZM8.104 3.29102V2.37402H9.021V3.29102H8.104ZM7.875 3.29102H6.958V2.37402H7.875V3.29102ZM6.729 3.29102H5.812V2.37402H6.729V3.29102ZM5.583 3.29102H4.666V2.37402H5.583V3.29102ZM4.437 3.29102H3.52V2.37402H4.437V3.29102ZM4.437 3.52002V4.43701H3.52V3.52002H4.437ZM3.291 4.43701H2.374V3.52002H3.291V4.43701ZM3.291 4.66602V5.58301H2.374V4.66602H3.291ZM3.291 5.81201V6.729H2.374V5.81201H3.291ZM3.291 6.95801V7.875H2.374V6.95801H3.291ZM3.291 8.104V9.021H2.374V8.104H3.291ZM3.291 9.25V10.167H2.374V9.25H3.291ZM3.52 9.25H4.437V10.167H3.52V9.25ZM4.666 9.25H5.583V10.167H4.666V9.25ZM5.812 9.25H6.729V10.167H5.812V9.25ZM6.958 9.25H7.875V10.167H6.958V9.25ZM8.104 9.25H9.021V10.167H8.104V9.25ZM9.25 9.25H10.167V10.167H9.25V9.25ZM9.25 9.021V8.104H10.167V9.021H9.25ZM9.25 7.875V6.95801H10.167V7.875H9.25ZM9.25 6.729V5.81201H10.167V6.729H9.25ZM9.25 5.58301V4.66602H10.167V5.58301H9.25ZM9.25 4.43701V3.52002H10.167V4.43701H9.25ZM9.25 3.29102V2.37402H10.167V3.29102H9.25ZM3.292 2.37402V3.29102H2.375V2.37402H3.292ZM2.375 10.395H3.292V11.312H3.521V10.395H4.438V11.312H4.667V10.395H5.584V11.312H5.813V10.395H6.73V11.312H6.959V10.395H7.876V11.312H8.105V10.395H9.022V11.312H9.251V10.395H10.168V11.312H10.397V10.395H11.314V10.166H10.397V9.24902H11.314V9.02002H10.397V8.10303H11.314V7.87402H10.397V6.95703H11.314V6.72803H10.397V5.81104H11.314V5.58203H10.397V4.66504H11.314V4.43604H10.397V3.51904H11.314V3.29004H10.397V2.37305H11.314V11.311H2.377L2.375 10.395ZM11.313 21.624H2.376V12.687H11.314L11.313 21.624ZM21.626 21.624H12.687V20.707H13.604V21.624H13.833V20.707H14.75V21.624H14.979V20.707H15.896V21.624H16.125V20.707H17.042V21.624H17.271V20.707H18.188V21.624H18.417V20.707H19.334V21.624H19.563V20.707H20.48V21.624H20.709V20.707H21.626V20.478H20.709V19.561H21.626V19.332H20.709V18.415H21.626V18.186H20.709V17.269H21.626V17.04H20.709V16.123H21.626V15.894H20.709V14.9771H21.626V14.748H20.709V13.8311H21.626V13.6021H20.709V12.6851H21.626V21.624ZM12.688 11.312V2.375H21.626V11.313L12.688 11.312Z" fill="black"/>
</svg>
