<svg xmlns="http://www.w3.org/2000/svg" width="24" height="24" viewBox="0 0 24 24">
  <g id="kwatakye-atiko" transform="translate(-281 -263)">
    <rect id="Rectangle_149" data-name="Rectangle 149" width="24" height="24" transform="translate(281 263)" fill="none"/>
    <path id="Path_290" data-name="Path 290" d="M51.041,199.362H34.262l0,0a4.414,4.414,0,0,0-3.561,1.979,3.831,3.831,0,0,0-.115,4.135,3.448,3.448,0,0,0,5.617.715,2.925,2.925,0,0,0,0-3.916,2.4,2.4,0,0,0-3.375-.225,2.013,2.013,0,0,0-.46,2.334,1.437,1.437,0,0,0,1.507.865.648.648,0,0,0,.589-.669.627.627,0,0,0-.728-.579c-.059.01-.149.024-.232-.152a.776.776,0,0,1,.149-.854,1.139,1.139,0,0,1,1.668.173,1.67,1.67,0,0,1-.08,2.222,2.2,2.2,0,0,1-3.561-.536,2.584,2.584,0,0,1,.072-2.821,3.119,3.119,0,0,1,2.82-1.4,3.448,3.448,0,0,1,3.207,2.855,4.073,4.073,0,0,1-3.936,4.673h-2.8a1,1,0,0,0-1,1v.1a1,1,0,0,0,1,1h6.432a.5.5,0,0,1,0,1H31.041a1,1,0,0,0-1,1v.1a1,1,0,0,0,1,1H47.819l0,0a4.415,4.415,0,0,0,3.561-1.979,3.831,3.831,0,0,0,.116-4.135,3.449,3.449,0,0,0-5.617-.715,2.925,2.925,0,0,0,0,3.916,2.4,2.4,0,0,0,3.375.225,2.013,2.013,0,0,0,.46-2.334,1.437,1.437,0,0,0-1.507-.865.648.648,0,0,0-.589.669.627.627,0,0,0,.728.579c.059-.01.149-.025.232.152a.776.776,0,0,1-.149.854,1.139,1.139,0,0,1-1.668-.173,1.67,1.67,0,0,1,.079-2.222,2.2,2.2,0,0,1,3.561.536,2.584,2.584,0,0,1-.072,2.821,3.119,3.119,0,0,1-2.82,1.4,3.448,3.448,0,0,1-3.207-2.855,4.074,4.074,0,0,1,3.936-4.673h2.8a1,1,0,0,0,1-1v-.1a1,1,0,0,0-1-1H44.609a.5.5,0,0,1,0-1h6.432a1,1,0,0,0,1-1v-.1A1,1,0,0,0,51.041,199.362Z" transform="translate(251.959 68.638)"/>
  </g>
</svg>
