<svg width="24" height="24" viewBox="0 0 24 24" fill="none" xmlns="http://www.w3.org/2000/svg">
<path d="M22 5H5.22104C4.51216 5.01955 3.81843 5.20961 3.19857 5.55409C2.57871 5.89857 2.05098 6.38734 1.66004 6.979C1.24717 7.58496 1.01686 8.29668 0.996476 9.02965C0.976092 9.76261 1.16648 10.486 1.54504 11.114C1.80234 11.6072 2.17516 12.0308 2.63167 12.3487C3.08818 12.6666 3.61483 12.8694 4.16666 12.9396C4.7185 13.0099 5.27914 12.9455 5.80073 12.7521C6.32233 12.5587 6.78938 12.242 7.16204 11.829C7.64614 11.2917 7.91406 10.5942 7.91406 9.871C7.91406 9.14781 7.64614 8.45025 7.16204 7.91299C6.74313 7.43753 6.15319 7.14704 5.52092 7.10489C4.88864 7.06274 4.26535 7.27236 3.78704 7.688C3.47234 7.9777 3.25809 8.36012 3.17538 8.77979C3.09267 9.19945 3.14579 9.63456 3.32704 10.022C3.44936 10.3109 3.66287 10.5519 3.93499 10.7081C4.2071 10.8643 4.52286 10.9271 4.83404 10.887C4.99917 10.872 5.15227 10.7943 5.26183 10.6699C5.3714 10.5454 5.42909 10.3837 5.42304 10.218C5.4175 10.1305 5.39369 10.0452 5.35313 9.96748C5.31258 9.88978 5.25618 9.82145 5.18758 9.76689C5.11898 9.71233 5.0397 9.67275 4.95487 9.65073C4.87003 9.6287 4.78152 9.62471 4.69504 9.63901C4.63604 9.64901 4.54604 9.663 4.46304 9.487C4.40008 9.34598 4.38063 9.18938 4.40717 9.03725C4.43371 8.88511 4.50505 8.74436 4.61204 8.633C4.73012 8.52859 4.86859 8.44982 5.01869 8.40169C5.16878 8.35355 5.32723 8.3371 5.48402 8.35336C5.6408 8.36962 5.7925 8.41824 5.92952 8.49615C6.06654 8.57407 6.1859 8.67958 6.28004 8.806C6.54182 9.1216 6.67833 9.52248 6.66358 9.93225C6.64883 10.342 6.48384 10.732 6.20004 11.028C5.95632 11.2837 5.65463 11.4769 5.32047 11.5913C4.98631 11.7057 4.62952 11.738 4.28024 11.6855C3.93097 11.6329 3.59948 11.497 3.31382 11.2893C3.02815 11.0815 2.79671 10.8081 2.63904 10.492C2.37627 10.0654 2.24317 9.57165 2.25595 9.0708C2.26874 8.56995 2.42685 8.08362 2.71104 7.67101C3.01468 7.20851 3.43587 6.83509 3.93143 6.58907C4.42699 6.34304 4.97906 6.23327 5.53104 6.271C6.30968 6.31409 7.05071 6.61987 7.63317 7.1384C8.21563 7.65693 8.60511 8.35759 8.73804 9.12601C8.82332 9.69757 8.78599 10.2807 8.62854 10.8368C8.47109 11.3928 8.19713 11.9089 7.82484 12.3509C7.45255 12.7929 6.99047 13.1506 6.46929 13.4003C5.94812 13.65 5.37978 13.7859 4.80204 13.799H2.00204C1.73682 13.799 1.48247 13.9044 1.29493 14.0919C1.1074 14.2794 1.00204 14.5338 1.00204 14.799V14.899C1.00204 15.1642 1.1074 15.4186 1.29493 15.6061C1.48247 15.7936 1.73682 15.899 2.00204 15.899H8.43404C8.56665 15.899 8.69382 15.9517 8.78759 16.0454C8.88136 16.1392 8.93404 16.2664 8.93404 16.399C8.93404 16.5316 8.88136 16.6588 8.78759 16.7525C8.69382 16.8463 8.56665 16.899 8.43404 16.899H2.00004C1.73482 16.899 1.48047 17.0044 1.29293 17.1919C1.1054 17.3794 1.00004 17.6338 1.00004 17.899V17.999C1.00004 18.2642 1.1054 18.5186 1.29293 18.7061C1.48047 18.8936 1.73482 18.999 2.00004 18.999H18.778C19.4869 18.9794 20.1806 18.7893 20.8004 18.4448C21.4203 18.1003 21.948 17.6116 22.339 17.02C22.7521 16.4141 22.9825 15.7025 23.0031 14.9695C23.0237 14.2365 22.8335 13.5131 22.455 12.885C22.1976 12.392 21.8247 11.9685 21.3682 11.6508C20.9117 11.333 20.3851 11.1304 19.8333 11.0602C19.2816 10.9899 18.721 11.0542 18.1995 11.2474C17.6779 11.4407 17.2108 11.7572 16.838 12.17C16.3539 12.7073 16.086 13.4048 16.086 14.128C16.086 14.8512 16.3539 15.5487 16.838 16.086C17.2569 16.5615 17.8469 16.852 18.4792 16.8941C19.1114 16.9363 19.7347 16.7267 20.213 16.311C20.5277 16.0213 20.742 15.6389 20.8247 15.2192C20.9074 14.7996 20.8543 14.3644 20.673 13.977C20.5507 13.6881 20.3372 13.4471 20.0651 13.2909C19.793 13.1347 19.4772 13.0719 19.166 13.112C19.0009 13.127 18.8478 13.2047 18.7382 13.3291C18.6287 13.4536 18.571 13.6153 18.577 13.781C18.5826 13.8685 18.6064 13.9538 18.6469 14.0315C18.6875 14.1092 18.7439 14.1776 18.8125 14.2321C18.8811 14.2867 18.9604 14.3262 19.0452 14.3483C19.1301 14.3703 19.2186 14.3743 19.305 14.36C19.364 14.35 19.454 14.335 19.537 14.512C19.6 14.653 19.6195 14.8096 19.5929 14.9617C19.5664 15.1139 19.495 15.2546 19.388 15.366C19.27 15.4704 19.1315 15.5492 18.9814 15.5973C18.8313 15.6454 18.6728 15.6619 18.5161 15.6456C18.3593 15.6294 18.2076 15.5808 18.0706 15.5028C17.9335 15.4249 17.8142 15.3194 17.72 15.193C17.4581 14.8775 17.3214 14.4767 17.336 14.0669C17.3506 13.6572 17.5154 13.2671 17.799 12.971C18.0428 12.7153 18.3445 12.5221 18.6786 12.4077C19.0128 12.2933 19.3696 12.261 19.7188 12.3135C20.0681 12.3661 20.3996 12.502 20.6853 12.7097C20.9709 12.9175 21.2024 13.1909 21.36 13.507C21.6228 13.9336 21.7559 14.4273 21.7431 14.9282C21.7303 15.429 21.5722 15.9154 21.288 16.328C20.9844 16.7905 20.5632 17.1639 20.0677 17.4099C19.5721 17.6559 19.02 17.7657 18.468 17.728C17.6894 17.6849 16.9484 17.3791 16.3659 16.8606C15.7835 16.3421 15.394 15.6414 15.261 14.873C15.1759 14.3015 15.2134 13.7184 15.3709 13.1624C15.5284 12.6064 15.8024 12.0903 16.1746 11.6484C16.5469 11.2064 17.0089 10.8487 17.53 10.599C18.0511 10.3493 18.6194 10.2133 19.197 10.2H21.997C22.2623 10.2 22.5166 10.0946 22.7041 9.9071C22.8917 9.71957 22.997 9.46521 22.997 9.2V9.10001C22.997 8.83479 22.8917 8.58044 22.7041 8.3929C22.5166 8.20536 22.2623 8.10001 21.997 8.10001H15.568C15.4354 8.10001 15.3083 8.04732 15.2145 7.95355C15.1207 7.85978 15.068 7.73261 15.068 7.60001C15.068 7.4674 15.1207 7.34021 15.2145 7.24644C15.3083 7.15268 15.4354 7.10001 15.568 7.10001H22C22.2653 7.10001 22.5196 6.99465 22.7071 6.80711C22.8947 6.61958 23 6.36522 23 6.10001V6C23 5.73478 22.8947 5.48043 22.7071 5.29289C22.5196 5.10536 22.2653 5 22 5Z" fill="black"/>
</svg>
