<svg xmlns="http://www.w3.org/2000/svg" width="24" height="24" viewBox="0 0 24 24">
  <g id="mako" transform="translate(-281 -407)">
    <rect id="Rectangle_149" data-name="Rectangle 149" width="24" height="24" transform="translate(281 407)" fill="none"/>
    <g id="Group_219" data-name="Group 219" transform="translate(807.623 22.471)">
      <path id="Path_523" data-name="Path 523" d="M-514.623,385.529c-2.564,0,0,5.7,0,5.7S-512.058,385.529-514.623,385.529Z"/>
      <path id="Path_524" data-name="Path 524" d="M-514.623,407.529c2.565,0,0-5.7,0-5.7S-517.187,407.529-514.623,407.529Z"/>
      <path id="Path_525" data-name="Path 525" d="M-519.924,396.529s-5.7-2.564-5.7,0S-519.924,396.529-519.924,396.529Z"/>
      <path id="Path_526" data-name="Path 526" d="M-509.322,396.529s5.7,2.565,5.7,0S-509.322,396.529-509.322,396.529Z"/>
      <path id="Path_527" data-name="Path 527" d="M-504.161,393.13c-.793-2.439-5.42,1.761-5.42,1.761S-503.369,395.569-504.161,393.13Z"/>
      <path id="Path_528" data-name="Path 528" d="M-525.084,399.928c.792,2.439,5.42-1.761,5.42-1.761S-525.877,397.489-525.084,399.928Z"/>
      <path id="Path_529" data-name="Path 529" d="M-519.664,394.891s-4.628-4.2-5.42-1.761S-519.664,394.891-519.664,394.891Z"/>
      <path id="Path_530" data-name="Path 530" d="M-509.581,398.167s4.627,4.2,5.42,1.761S-509.581,398.167-509.581,398.167Z"/>
      <path id="Path_531" data-name="Path 531" d="M-510.334,393.413s6.118-1.275,4.611-3.349S-510.334,393.413-510.334,393.413Z"/>
      <path id="Path_532" data-name="Path 532" d="M-518.911,399.645s-6.118,1.275-4.611,3.35S-518.911,399.645-518.911,399.645Z"/>
      <path id="Path_533" data-name="Path 533" d="M-518.911,393.413s-3.1-5.424-4.611-3.349S-518.911,393.413-518.911,393.413Z"/>
      <path id="Path_534" data-name="Path 534" d="M-510.334,399.645s3.1,5.425,4.611,3.35S-510.334,399.645-510.334,399.645Z"/>
      <path id="Path_535" data-name="Path 535" d="M-508.157,387.63c-2.075-1.507-3.35,4.611-3.35,4.611S-506.082,389.137-508.157,387.63Z"/>
      <path id="Path_536" data-name="Path 536" d="M-521.088,405.428c2.074,1.508,3.35-4.61,3.35-4.61S-523.163,403.921-521.088,405.428Z"/>
      <path id="Path_537" data-name="Path 537" d="M-517.739,392.241s-1.275-6.118-3.349-4.611S-517.739,392.241-517.739,392.241Z"/>
      <path id="Path_538" data-name="Path 538" d="M-511.507,400.818s1.275,6.118,3.35,4.61S-511.507,400.818-511.507,400.818Z"/>
      <path id="Path_539" data-name="Path 539" d="M-511.223,386.068c-2.44-.793-1.762,5.42-1.762,5.42S-508.784,386.86-511.223,386.068Z"/>
      <path id="Path_540" data-name="Path 540" d="M-518.022,406.991c2.439.792,1.761-5.42,1.761-5.42S-520.461,406.2-518.022,406.991Z"/>
      <path id="Path_541" data-name="Path 541" d="M-518.022,386.068c-2.439.792,1.761,5.42,1.761,5.42S-515.583,385.275-518.022,386.068Z"/>
      <path id="Path_542" data-name="Path 542" d="M-511.223,406.991c2.439-.793-1.762-5.42-1.762-5.42S-513.662,407.783-511.223,406.991Z"/>
      <circle id="Ellipse_86" data-name="Ellipse 86" cx="1.596" cy="1.596" r="1.596" transform="translate(-516.218 394.933)"/>
      <path id="Path_543" data-name="Path 543" d="M-514.623,391.286a5.249,5.249,0,0,0-5.243,5.243,5.249,5.249,0,0,0,5.243,5.243,5.249,5.249,0,0,0,5.243-5.243A5.249,5.249,0,0,0-514.623,391.286Zm0,9.119a3.88,3.88,0,0,1-3.875-3.876,3.879,3.879,0,0,1,3.875-3.875,3.88,3.88,0,0,1,3.876,3.875A3.881,3.881,0,0,1-514.623,400.4Z"/>
    </g>
  </g>
</svg>
