<svg width="24" height="24" viewBox="0 0 24 24" fill="none" xmlns="http://www.w3.org/2000/svg">
<path d="M12 1C9.43603 1 12 6.70001 12 6.70001C12 6.70001 14.565 1 12 1Z" fill="black"/>
<path d="M12 23C14.565 23 12 17.3 12 17.3C12 17.3 9.43603 23 12 23Z" fill="black"/>
<path d="M6.69897 12C6.69897 12 0.998962 9.436 0.998962 12C0.998962 14.564 6.69897 12 6.69897 12Z" fill="black"/>
<path d="M17.301 12C17.301 12 23.001 14.565 23.001 12C23.001 9.43499 17.301 12 17.301 12Z" fill="black"/>
<path d="M22.462 8.601C21.669 6.162 17.042 10.362 17.042 10.362C17.042 10.362 23.254 11.04 22.462 8.601Z" fill="black"/>
<path d="M1.53899 15.399C2.33099 17.838 6.95897 13.638 6.95897 13.638C6.95897 13.638 0.745986 12.96 1.53899 15.399Z" fill="black"/>
<path d="M6.95899 10.362C6.95899 10.362 2.33101 6.162 1.53901 8.601C0.74701 11.04 6.95899 10.362 6.95899 10.362Z" fill="black"/>
<path d="M17.042 13.638C17.042 13.638 21.669 17.838 22.462 15.399C23.255 12.96 17.042 13.638 17.042 13.638Z" fill="black"/>
<path d="M16.289 8.88399C16.289 8.88399 22.407 7.60899 20.9 5.53499C19.393 3.46099 16.289 8.88399 16.289 8.88399Z" fill="black"/>
<path d="M7.71196 15.116C7.71196 15.116 1.594 16.391 3.101 18.466C4.608 20.541 7.71196 15.116 7.71196 15.116Z" fill="black"/>
<path d="M7.71197 8.884C7.71197 8.884 4.61201 3.46 3.10101 5.535C1.59001 7.61 7.71197 8.884 7.71197 8.884Z" fill="black"/>
<path d="M16.289 15.116C16.289 15.116 19.389 20.541 20.9 18.466C22.411 16.391 16.289 15.116 16.289 15.116Z" fill="black"/>
<path d="M18.466 3.101C16.391 1.594 15.116 7.71199 15.116 7.71199C15.116 7.71199 20.541 4.608 18.466 3.101Z" fill="black"/>
<path d="M5.53496 20.899C7.60895 22.407 8.88499 16.289 8.88499 16.289C8.88499 16.289 3.45995 19.392 5.53496 20.899Z" fill="black"/>
<path d="M8.88399 7.71199C8.88399 7.71199 7.60899 1.594 5.53499 3.101C3.46099 4.608 8.88399 7.71199 8.88399 7.71199Z" fill="black"/>
<path d="M15.116 16.289C15.116 16.289 16.391 22.407 18.466 20.899C20.541 19.391 15.116 16.289 15.116 16.289Z" fill="black"/>
<path d="M15.4 1.53902C12.96 0.746016 13.638 6.95903 13.638 6.95903C13.638 6.95903 17.839 2.33102 15.4 1.53902Z" fill="black"/>
<path d="M8.60103 22.462C11.04 23.254 10.362 17.042 10.362 17.042C10.362 17.042 6.16203 21.671 8.60103 22.462Z" fill="black"/>
<path d="M8.60103 1.53902C6.16203 2.33102 10.362 6.95903 10.362 6.95903C10.362 6.95903 11.04 0.746016 8.60103 1.53902Z" fill="black"/>
<path d="M15.4 22.462C17.839 21.669 13.638 17.042 13.638 17.042C13.638 17.042 12.961 23.254 15.4 22.462Z" fill="black"/>
<path d="M12.001 13.596C12.8824 13.596 13.597 12.8815 13.597 12C13.597 11.1186 12.8824 10.404 12.001 10.404C11.1195 10.404 10.405 11.1186 10.405 12C10.405 12.8815 11.1195 13.596 12.001 13.596Z" fill="black"/>
<path d="M12 6.75702C10.61 6.75861 9.27728 7.31149 8.29437 8.2944C7.31146 9.27731 6.75855 10.61 6.75696 12C6.75855 13.39 7.31146 14.7227 8.29437 15.7056C9.27728 16.6885 10.61 17.2414 12 17.243C13.39 17.2414 14.7227 16.6885 15.7056 15.7056C16.6885 14.7227 17.2414 13.39 17.243 12C17.2414 10.61 16.6885 9.27731 15.7056 8.2944C14.7227 7.31149 13.39 6.75861 12 6.75702ZM12 15.876C10.9725 15.8747 9.98749 15.4659 9.26105 14.7392C8.5346 14.0126 8.12606 13.0275 8.125 12C8.12606 10.9726 8.53463 9.98761 9.26111 9.26114C9.98758 8.53467 10.9726 8.12606 12 8.125C13.0275 8.12606 14.0126 8.53463 14.7392 9.26108C15.4658 9.98752 15.8747 10.9725 15.876 12C15.8733 13.0267 15.464 14.0105 14.7375 14.7361C14.0111 15.4616 13.0267 15.8697 12 15.871V15.876Z" fill="black"/>
</svg>
