<svg width="24" height="24" viewBox="0 0 24 24" fill="none" xmlns="http://www.w3.org/2000/svg">
<path d="M19.579 12.004C20.4352 11.6275 21.1867 11.0477 21.7682 10.315C22.3497 9.58234 22.7436 8.7188 22.9158 7.79939C23.0879 6.87997 23.0331 5.93243 22.7562 5.03898C22.4792 4.14553 21.9884 3.33316 21.3264 2.67234C20.6643 2.01153 19.851 1.52223 18.9571 1.24691C18.0631 0.971594 17.1155 0.918567 16.1964 1.09243C15.2773 1.2663 14.4145 1.66181 13.6829 2.24464C12.9512 2.82747 12.3729 3.58002 11.998 4.43699C11.6226 3.58241 11.0445 2.83223 10.3138 2.25143C9.58311 1.67062 8.72186 1.27671 7.80462 1.10378C6.88738 0.930862 5.94181 0.984155 5.04981 1.25904C4.1578 1.53393 3.34626 2.02212 2.68546 2.68135C2.02467 3.34057 1.53454 4.15096 1.25753 5.04231C0.980522 5.93365 0.924985 6.87908 1.09573 7.79673C1.26647 8.71438 1.65834 9.57657 2.23741 10.3086C2.81648 11.0407 3.56528 11.6206 4.41896 11.998C3.56354 12.3749 2.81294 12.9547 2.23223 13.6872C1.65152 14.4197 1.25823 15.2828 1.08643 16.2017C0.914639 17.1205 0.969526 18.0674 1.24635 18.9603C1.52317 19.8531 2.01356 20.665 2.67503 21.3255C3.33649 21.986 4.14906 22.4752 5.04231 22.7507C5.93555 23.0262 6.88251 23.0798 7.80111 22.9066C8.71971 22.7335 9.58223 22.3389 10.3139 21.7572C11.0456 21.1754 11.6243 20.424 12 19.568C12.3759 20.4221 12.9543 21.1717 13.6851 21.7519C14.4159 22.3321 15.2772 22.7255 16.1942 22.898C17.1113 23.0704 18.0566 23.0168 18.9483 22.7417C19.8399 22.4666 20.6511 21.9783 21.3116 21.3191C21.9721 20.6599 22.462 19.8497 22.7389 18.9586C23.0157 18.0674 23.0713 17.1223 22.9006 16.2048C22.73 15.2874 22.3383 14.4254 21.7595 13.6935C21.1807 12.9615 20.4323 12.3816 19.579 12.004ZM17.26 2.763C18.2083 2.76158 19.1259 3.09962 19.8467 3.71597C20.5674 4.33232 21.0438 5.18627 21.1897 6.12336C21.3355 7.06045 21.1411 8.01879 20.6417 8.82502C20.1423 9.63126 19.3709 10.2321 18.467 10.519C18.8518 10.2606 19.1435 9.88556 19.2993 9.44898C19.455 9.01241 19.4665 8.53737 19.3321 8.09376C19.1977 7.65015 18.9245 7.26139 18.5526 6.98467C18.1808 6.70796 17.7299 6.5579 17.2664 6.55656C16.8029 6.55522 16.3512 6.70268 15.9777 6.97724C15.6043 7.25181 15.3288 7.63899 15.1918 8.08181C15.0549 8.52464 15.0636 8.99972 15.2168 9.43719C15.3701 9.87466 15.6596 10.2514 16.043 10.512C15.1423 10.222 14.3747 9.61988 13.8787 8.81408C13.3827 8.00828 13.1908 7.05182 13.3376 6.11704C13.4844 5.18227 13.9603 4.33068 14.6794 3.71572C15.3986 3.10077 16.3137 2.76289 17.26 2.763ZM2.78096 6.74299C2.7799 6.00909 2.98218 5.28924 3.36538 4.66332C3.74857 4.0374 4.2977 3.52989 4.95181 3.19709C5.60592 2.86429 6.33944 2.71923 7.07098 2.77799C7.80253 2.83676 8.5035 3.09704 9.0961 3.52998C9.6887 3.96292 10.1498 4.55159 10.4281 5.23065C10.7065 5.90971 10.7913 6.65261 10.6731 7.37693C10.5549 8.10126 10.2383 8.77867 9.75854 9.33401C9.27873 9.88935 8.65446 10.3009 7.95496 10.523C8.33949 10.2646 8.63095 9.88972 8.7865 9.45336C8.94205 9.01701 8.95347 8.54226 8.81907 8.09893C8.68467 7.65561 8.41155 7.26712 8.03989 6.9906C7.66822 6.71407 7.21764 6.56411 6.75439 6.56277C6.29114 6.56143 5.83969 6.70879 5.46644 6.98316C5.09318 7.25754 4.81783 7.64444 4.68087 8.08699C4.54391 8.52953 4.55259 9.00434 4.70561 9.44158C4.85864 9.87883 5.14794 10.2554 5.53096 10.516C4.73295 10.258 4.03708 9.75396 3.54308 9.0762C3.04908 8.39843 2.7823 7.58168 2.78096 6.74299ZM7.95396 21.03C8.33872 20.7718 8.63044 20.3969 8.7862 19.9606C8.94197 19.5242 8.95355 19.0493 8.81924 18.6058C8.68494 18.1624 8.41185 17.7737 8.04015 17.4971C7.66844 17.2205 7.21775 17.0704 6.7544 17.0691C6.29104 17.0677 5.8395 17.2152 5.4662 17.4897C5.0929 17.7642 4.81757 18.1512 4.6807 18.5939C4.54384 19.0366 4.55268 19.5115 4.70592 19.9488C4.85916 20.386 5.14871 20.7626 5.53196 21.023C4.63095 20.7316 3.86372 20.1278 3.36869 19.3206C2.87366 18.5133 2.6834 17.5557 2.83225 16.6205C2.9811 15.6853 3.45925 14.8341 4.18045 14.2204C4.90165 13.6067 5.81841 13.271 6.76537 13.2737C7.71232 13.2764 8.62713 13.6175 9.34477 14.2353C10.0624 14.8532 10.5356 15.7071 10.6791 16.6432C10.8225 17.5792 10.6267 18.5357 10.127 19.3401C9.62735 20.1445 8.85665 20.7438 7.95396 21.03ZM11.998 14.948C11.423 13.636 10.3772 12.587 9.06696 12.008C10.3785 11.4286 11.425 10.3785 12 9.065C12.579 10.3736 13.6236 11.4203 14.931 12.002C13.6211 12.5824 12.5754 13.6314 11.999 14.943L11.998 14.948ZM18.466 21.03C18.8507 20.7718 19.1424 20.3969 19.2982 19.9606C19.454 19.5242 19.4655 19.0493 19.3312 18.6058C19.1969 18.1624 18.9238 17.7737 18.5521 17.4971C18.1804 17.2205 17.7297 17.0704 17.2664 17.0691C16.803 17.0677 16.3515 17.2152 15.9782 17.4897C15.6049 17.7642 15.3296 18.1512 15.1927 18.5939C15.0558 19.0366 15.0647 19.5115 15.2179 19.9488C15.3712 20.386 15.6607 20.7626 16.044 21.023C15.1429 20.7316 14.3757 20.1278 13.8807 19.3206C13.3857 18.5133 13.1954 17.5557 13.3443 16.6205C13.4931 15.6853 13.9713 14.8341 14.6925 14.2204C15.4136 13.6067 16.3304 13.271 17.2774 13.2737C18.2243 13.2764 19.1391 13.6175 19.8568 14.2353C20.5744 14.8532 21.0476 15.7071 21.1911 16.6432C21.3345 17.5792 21.1387 18.5357 20.639 19.3401C20.1393 20.1445 19.3686 20.7438 18.466 21.03Z" fill="black"/>
</svg>
