<svg xmlns="http://www.w3.org/2000/svg" width="24" height="24" viewBox="0 0 24 24">
  <g id="mate-masie" transform="translate(-281 -71)">
    <rect id="Rectangle_149" data-name="Rectangle 149" width="24" height="24" transform="translate(281 71)" fill="none"/>
    <path id="Path_88" data-name="Path 88" d="M117.563,176.961a5.749,5.749,0,1,0-7.581-7.567,5.742,5.742,0,1,0-7.579,7.561,5.748,5.748,0,1,0,7.581,7.57,5.742,5.742,0,1,0,7.579-7.564Zm-2.319-9.241a3.971,3.971,0,0,1,1.207,7.756,2.165,2.165,0,1,0-2.424-.007,3.97,3.97,0,0,1,1.217-7.749ZM100.765,171.7a3.972,3.972,0,1,1,5.174,3.78,2.164,2.164,0,1,0-2.424-.007A3.972,3.972,0,0,1,100.765,171.7Zm5.173,14.287a2.164,2.164,0,1,0-2.422-.007,3.971,3.971,0,1,1,2.422.007Zm4.044-6.082a5.728,5.728,0,0,0-2.931-2.94,5.729,5.729,0,0,0,2.933-2.943,5.77,5.77,0,0,0,2.931,2.937A5.745,5.745,0,0,0,109.983,179.9Zm6.468,6.082a2.164,2.164,0,1,0-2.422-.007,3.971,3.971,0,1,1,2.422.007Z" transform="translate(183.016 -93.957)"/>
  </g>
</svg>
