<svg width="24" height="24" viewBox="0 0 24 24" fill="none" xmlns="http://www.w3.org/2000/svg">
<path d="M17.308 12.248V11.748C18.2116 11.6286 19.0704 11.2823 19.8042 10.7415C20.538 10.2007 21.123 9.48293 21.5046 8.6551C21.8862 7.82726 22.052 6.9163 21.9866 6.0071C21.9212 5.0979 21.6267 4.22004 21.1305 3.45534C20.6344 2.69064 19.9527 2.064 19.1491 1.63378C18.3454 1.20356 17.446 0.983779 16.5345 0.994924C15.623 1.00607 14.7292 1.24778 13.9363 1.69751C13.1434 2.14725 12.4773 2.79038 12 3.56698C11.5227 2.79032 10.8565 2.14714 10.0636 1.69738C9.27062 1.24761 8.37674 1.00591 7.4652 0.994787C6.55366 0.983666 5.65414 1.20349 4.85047 1.63378C4.0468 2.06407 3.36516 2.6908 2.86904 3.45559C2.37293 4.22037 2.0785 5.09831 2.0132 6.00757C1.9479 6.91684 2.11386 7.82783 2.4956 8.65566C2.87734 9.48349 3.46244 10.2012 4.19637 10.7419C4.93031 11.2826 5.78919 11.6287 6.69296 11.748V12.248C5.78909 12.3671 4.9301 12.7132 4.19605 13.2539C3.46201 13.7946 2.87681 14.5123 2.495 15.3402C2.1132 16.1681 1.94722 17.0792 2.01253 17.9885C2.07785 18.8979 2.37233 19.7759 2.86854 20.5407C3.36474 21.3055 4.0465 21.9323 4.85029 22.3625C5.65407 22.7928 6.5537 23.0125 7.46532 23.0013C8.37694 22.99 9.27087 22.7481 10.0638 22.2982C10.8567 21.8482 11.5228 21.2048 12 20.428C12.4771 21.2048 13.1432 21.8481 13.936 22.298C14.7289 22.748 15.6228 22.9898 16.5344 23.0011C17.4459 23.0124 18.3455 22.7927 19.1493 22.3625C19.953 21.9324 20.6348 21.3057 21.131 20.541C21.6273 19.7762 21.9218 18.8983 21.9873 17.989C22.0527 17.0797 21.8868 16.1687 21.5052 15.3408C21.1235 14.5129 20.5384 13.7951 19.8045 13.2543C19.0706 12.7135 18.2117 12.3673 17.308 12.248ZM12 14.774C11.5802 14.0898 11.0129 13.5079 10.3396 13.0709C9.66623 12.6339 8.90381 12.3528 8.10795 12.248V11.748C8.90337 11.643 9.6654 11.3621 10.3386 10.9256C11.0119 10.4892 11.5794 9.90824 12 9.22498C12.4206 9.90836 12.9883 10.4894 13.6617 10.9258C14.3351 11.3623 15.0974 11.6431 15.893 11.748V12.248C15.0967 12.353 14.3339 12.6346 13.6604 13.0721C12.9869 13.5097 12.4196 14.0922 12 14.777V14.774ZM15.893 2.76798V4.23998C15.7675 4.31432 15.6628 4.41907 15.5885 4.54456C15.5143 4.67005 15.4728 4.81224 15.468 4.95798C15.5224 5.21809 15.6646 5.45153 15.8709 5.6191C16.0771 5.78667 16.3347 5.87813 16.6005 5.87813C16.8662 5.87813 17.1238 5.78667 17.3301 5.6191C17.5363 5.45153 17.6786 5.21809 17.733 4.95798C17.7281 4.81224 17.6867 4.67005 17.6124 4.54456C17.5381 4.41907 17.4334 4.31432 17.308 4.23998V2.76798C18.2108 2.94386 19.0157 3.44969 19.5658 4.18683C20.1159 4.92398 20.3717 5.83958 20.2834 6.7551C20.195 7.67062 19.7688 8.52041 19.0879 9.13877C18.407 9.75712 17.5202 10.0997 16.6005 10.0997C15.6807 10.0997 14.7939 9.75712 14.113 9.13877C13.4321 8.52041 13.0059 7.67062 12.9176 6.7551C12.8292 5.83958 13.085 4.92398 13.6351 4.18683C14.1852 3.44969 14.9902 2.94386 15.893 2.76798ZM3.69996 6.39998C3.70106 5.54165 4.00007 4.7103 4.54594 4.0479C5.0918 3.3855 5.85066 2.93312 6.69296 2.76798V4.23998C6.56751 4.31432 6.46281 4.41907 6.38853 4.54456C6.31425 4.67005 6.27278 4.81224 6.26796 4.95798C6.32235 5.21809 6.46462 5.45153 6.67086 5.6191C6.8771 5.78667 7.13473 5.87813 7.40046 5.87813C7.66619 5.87813 7.92382 5.78667 8.13006 5.6191C8.33629 5.45153 8.47856 5.21809 8.53296 4.95798C8.52813 4.81224 8.48666 4.67005 8.41238 4.54456C8.3381 4.41907 8.23341 4.31432 8.10795 4.23998V2.76798C8.79646 2.90221 9.43262 3.22938 9.94228 3.71137C10.4519 4.19336 10.8141 4.81029 10.9865 5.49024C11.1589 6.17019 11.1344 6.88514 10.916 7.55173C10.6976 8.21832 10.2942 8.80908 9.7528 9.25515C9.21143 9.70121 8.55441 9.98421 7.85835 10.0711C7.16229 10.158 6.45587 10.0453 5.82144 9.74599C5.18702 9.44673 4.65073 8.97329 4.27512 8.38086C3.8995 7.78844 3.70003 7.10145 3.69996 6.39998ZM7.39996 21.3C6.47999 21.3002 5.59292 20.9577 4.91182 20.3393C4.23072 19.7208 3.80444 18.8708 3.71614 17.9551C3.62784 17.0394 3.88385 16.1236 4.43423 15.3864C4.98462 14.6492 5.78989 14.1435 6.69296 13.968V15.437C6.56751 15.5113 6.46281 15.6161 6.38853 15.7416C6.31425 15.8671 6.27278 16.0092 6.26796 16.155C6.32235 16.4151 6.46462 16.6485 6.67086 16.8161C6.8771 16.9837 7.13473 17.0751 7.40046 17.0751C7.66619 17.0751 7.92382 16.9837 8.13006 16.8161C8.33629 16.6485 8.47856 16.4151 8.53296 16.155C8.52813 16.0092 8.48666 15.8671 8.41238 15.7416C8.3381 15.6161 8.23341 15.5113 8.10795 15.437V13.969C9.00998 14.1457 9.81396 14.6518 10.3633 15.3887C10.9126 16.1257 11.168 17.0408 11.0796 17.9557C10.9912 18.8706 10.5655 19.7198 9.8853 20.3381C9.20509 20.9563 8.31913 21.2992 7.39996 21.3ZM16.6 21.3C15.68 21.3002 14.7929 20.9577 14.1118 20.3393C13.4307 19.7208 13.0044 18.8708 12.9161 17.9551C12.8278 17.0394 13.0839 16.1236 13.6342 15.3864C14.1846 14.6492 14.9899 14.1435 15.893 13.968V15.437C15.7675 15.5113 15.6628 15.6161 15.5885 15.7416C15.5143 15.8671 15.4728 16.0092 15.468 16.155C15.5224 16.4151 15.6646 16.6485 15.8709 16.8161C16.0771 16.9837 16.3347 17.0751 16.6005 17.0751C16.8662 17.0751 17.1238 16.9837 17.3301 16.8161C17.5363 16.6485 17.6786 16.4151 17.733 16.155C17.7281 16.0092 17.6867 15.8671 17.6124 15.7416C17.5381 15.6161 17.4334 15.5113 17.308 15.437V13.969C18.21 14.1457 19.014 14.6518 19.5633 15.3887C20.1126 16.1257 20.368 17.0408 20.2796 17.9557C20.1912 18.8706 19.7655 19.7198 19.0853 20.3381C18.4051 20.9563 17.5191 21.2992 16.6 21.3Z" fill="black"/>
</svg>
