<svg width="24" height="24" viewBox="0 0 24 24" fill="none" xmlns="http://www.w3.org/2000/svg">
<path fill-rule="evenodd" clip-rule="evenodd" d="M9.45268 4.804L8.67534 1.54402C8.60908 1.26613 8.82311 1 9.11287 1H14.8871C15.1769 1 15.3909 1.26613 15.3246 1.54402L13.6546 8.54796C13.6049 8.75638 13.7654 8.95598 13.9827 8.95598H16.5506C16.7988 8.95598 17 9.15421 17 9.39874V15.044H16.9995C16.9934 15.9145 16.9285 16.5972 16.4814 17.4428C16.0894 18.1841 15.4205 18.9443 14.5588 19.2444L15.3246 22.456C15.3909 22.7339 15.1769 23 14.8871 23H9.11287C8.82311 23 8.60908 22.7339 8.67534 22.456L10.3454 15.452C10.3951 15.2436 10.2346 15.044 10.0173 15.044H7.44944C7.20122 15.044 7 14.8458 7 14.6013V8.95598H7.00102C7.0096 8.11234 7.08085 7.44113 7.51588 6.61403C7.90948 5.8657 8.58383 5.09812 9.45268 4.804ZM13.6546 15.452C13.6049 15.2436 13.7654 15.044 13.9827 15.044H15.5302C15.7174 15.044 15.8698 15.1945 15.8629 15.3787C15.8403 15.9862 15.7561 16.4084 15.4785 16.9335C15.2541 17.3578 14.963 17.707 14.6495 17.942C14.4801 18.069 14.2529 17.9616 14.2043 17.7574L13.6546 15.452ZM9.8051 6.28198C9.75691 6.07987 9.53336 5.97186 9.36408 6.09552C9.04243 6.3305 8.74287 6.68721 8.5135 7.12328C8.24618 7.63154 8.15918 8.04343 8.13344 8.6203C8.1252 8.80496 8.27793 8.95598 8.46556 8.95598H10.0173C10.2346 8.95598 10.3951 8.75638 10.3454 8.54796L9.8051 6.28198ZM12.9551 4.08553C12.9551 4.81913 12.5275 5.41383 12 5.41383C11.4725 5.41383 11.0449 4.81913 11.0449 4.08553C11.0449 3.35193 11.4725 2.75722 12 2.75722C12.5275 2.75722 12.9551 3.35193 12.9551 4.08553ZM12 21.2428C12.5275 21.2428 12.9551 20.6481 12.9551 19.9145C12.9551 19.1809 12.5275 18.5862 12 18.5862C11.4725 18.5862 11.0449 19.1809 11.0449 19.9145C11.0449 20.6481 11.4725 21.2428 12 21.2428ZM12 13.2176C13.3031 13.2176 14.3596 12.6725 14.3596 12C14.3596 11.3275 13.3031 10.7824 12 10.7824C10.6969 10.7824 9.64045 11.3275 9.64045 12C9.64045 12.6725 10.6969 13.2176 12 13.2176Z" fill="black"/>
</svg>
