<svg width="24" height="24" viewBox="0 0 24 24" fill="none" xmlns="http://www.w3.org/2000/svg">
<path d="M21 6.50403H15L12 1.00403L9 6.50403H3L6 12.004L3 17.504H9L12 23.004L15 17.504H21L18 12.004L21 6.50403ZM19.846 16.804H14.612L14.419 17.157L12 21.593L9.581 17.157L9.388 16.804H4.154L6.771 12.006L4.154 7.20398H9.386L9.579 6.85095L11.998 2.41504L14.417 6.85095L14.61 7.20398H19.846L17.229 12.002L19.846 16.804Z" fill="black"/>
<path d="M18.101 8.255H14.034L12 4.51001L9.966 8.255H5.899L7.933 12L5.899 15.745H9.966L12 19.489L14.034 15.745H18.101L16.067 12L18.101 8.255ZM16.95 15.042H13.645L13.453 15.397L12 18.0709L10.355 15.042H7.05L8.703 12L7.05 8.95703H10.355L10.548 8.60303L12 5.92798L13.645 8.95703H16.95L15.297 12L16.95 15.042Z" fill="black"/>
<path d="M15.425 9.89294H13.142L12 7.78699L10.858 9.89294H8.575L9.717 12L8.575 14.106H10.858L12 16.213L13.142 14.106H15.425L14.286 12.004L15.425 9.89294ZM14.275 13.4039H12.753L12.56 13.759L12 14.793L11.248 13.4039H9.725L10.486 12L9.725 10.5959H11.248L12 9.20703L12.56 10.241L12.753 10.5959H14.275L13.514 12L14.275 13.4039Z" fill="black"/>
</svg>
