<svg width="24" height="24" viewBox="0 0 24 24" fill="none" xmlns="http://www.w3.org/2000/svg">
<path d="M1 1V23H23V1H1ZM22.487 22.487H1.513V1.513H22.486L22.487 22.487Z" fill="black"/>
<path d="M21.086 2.916H2.91403V21.083H21.086V2.916ZM18.678 3.429L17.953 4.15401H5.95303L5.22803 3.429H18.678ZM7.76303 18.157L8.43002 17.49H15.471L16.138 18.157H7.76303ZM16.614 18.633L17.376 19.395H6.52502L7.28702 18.633H16.614ZM8.90604 17.014L9.57303 16.347H14.327L14.994 17.014H8.90604ZM10.145 15.776L10.812 15.109H13.089L13.756 15.776H10.145ZM11.384 14.538L11.951 13.972L12.518 14.538H11.384ZM10.767 12.063L11.95 10.88L13.133 12.063L11.95 13.246L10.767 12.063ZM11.189 9.394H12.712L11.95 10.155L11.189 9.394ZM10.617 8.82201L9.95001 8.155H13.95L13.283 8.82201H10.617ZM9.47403 7.679L8.80704 7.01201H15.095L14.428 7.679H9.47403ZM8.33102 6.53601L7.66403 5.869H16.238L15.571 6.53601H8.33102ZM7.09204 5.298L6.42502 4.631H17.477L16.81 5.298H7.09204ZM3.42703 3.43001H4.49802L11.588 10.518L10.405 11.701L3.42703 4.72501V3.43001ZM3.42703 5.45L10.042 12.063L3.42703 18.676V5.45ZM3.42703 20.571V19.402L10.405 12.426L11.588 13.609L9.42001 15.776H9.40503V15.791L4.62402 20.571H3.42703ZM5.34903 20.571L6.04901 19.871H17.854L18.554 20.571H5.34903ZM20.573 20.571H19.273L12.309 13.609L13.492 12.426L20.568 19.5L20.573 20.571ZM20.573 18.771L13.86 12.059L20.573 5.347V18.771ZM20.573 4.623L13.497 11.697L12.313 10.514L19.403 3.42601H20.573V4.623Z" fill="black"/>
</svg>
