<svg width="24" height="24" viewBox="0 0 24 24" fill="none" xmlns="http://www.w3.org/2000/svg">
<path fill-rule="evenodd" clip-rule="evenodd" d="M14.0221 3.02206C14.0221 3.26747 13.9783 3.50269 13.8982 3.7203C17.0644 4.44319 19.5568 6.93553 20.2797 10.1017C20.4973 10.0216 20.7325 9.97794 20.9779 9.97794C22.0947 9.97794 23 10.8833 23 12C23 13.1167 22.0947 14.0221 20.9779 14.0221C20.7325 14.0221 20.4973 13.9784 20.2797 13.8983C19.5568 17.0645 17.0644 19.5568 13.8982 20.2797C13.9783 20.4973 14.0221 20.7325 14.0221 20.9779C14.0221 22.0947 13.1168 23 12 23C10.8832 23 9.97794 22.0947 9.97794 20.9779C9.97794 20.7325 10.0217 20.4973 10.1018 20.2797C6.93557 19.5568 4.44319 17.0645 3.7203 13.8983C3.50269 13.9784 3.26747 14.0221 3.02206 14.0221C1.90531 14.0221 1 13.1167 1 12C1 10.8833 1.90531 9.97794 3.02206 9.97794C3.26747 9.97794 3.50269 10.0216 3.7203 10.1017C4.44319 6.93553 6.93557 4.44319 10.1018 3.7203C10.0217 3.50269 9.97794 3.26747 9.97794 3.02206C9.97794 1.90535 10.8832 1 12 1C13.1168 1 14.0221 1.90535 14.0221 3.02206ZM18.9559 12C18.9559 9.8112 18.1592 8.03677 17.1765 8.03677C16.1937 8.03677 15.3971 9.8112 15.3971 12C15.3971 14.1888 16.1937 15.9632 17.1765 15.9632C18.1592 15.9632 18.9559 14.1888 18.9559 12ZM6.82353 15.9632C5.84078 15.9632 5.04412 14.1888 5.04412 12C5.04412 9.8112 5.84078 8.03677 6.82353 8.03677C7.80628 8.03677 8.60294 9.8112 8.60294 12C8.60294 14.1888 7.80628 15.9632 6.82353 15.9632ZM12 18.9559C14.1888 18.9559 15.9632 18.1592 15.9632 17.1765C15.9632 16.1937 14.1888 15.3971 12 15.3971C9.81116 15.3971 8.03677 16.1937 8.03677 17.1765C8.03677 18.1592 9.81116 18.9559 12 18.9559ZM8.03677 6.82353C8.03677 5.84078 9.81116 5.04412 12 5.04412C14.1888 5.04412 15.9632 5.84078 15.9632 6.82353C15.9632 7.80628 14.1888 8.60294 12 8.60294C9.81116 8.60294 8.03677 7.80628 8.03677 6.82353ZM12 14.1838C13.2061 14.1838 14.1838 13.2061 14.1838 12C14.1838 10.7939 13.2061 9.81618 12 9.81618C10.7939 9.81618 9.81618 10.7939 9.81618 12C9.81618 13.2061 10.7939 14.1838 12 14.1838Z" fill="black"/>
</svg>
