<svg width="24" height="24" viewBox="0 0 24 24" fill="none" xmlns="http://www.w3.org/2000/svg">
<path d="M18.294 10.5181C19.5406 10.5181 20.736 10.0228 21.6174 9.14142C22.4989 8.26 22.994 7.06457 22.994 5.81805C22.994 5.20084 22.8725 4.58964 22.6363 4.01941C22.4001 3.44918 22.0539 2.93106 21.6174 2.49463C21.181 2.05819 20.6629 1.71203 20.0926 1.47583C19.5224 1.23963 18.9112 1.11804 18.294 1.11804C17.6768 1.11804 17.0657 1.23963 16.4954 1.47583C15.9252 1.71203 15.4071 2.05819 14.9706 2.49463C14.5342 2.93106 14.188 3.44918 13.9518 4.01941C13.7156 4.58964 13.594 5.20084 13.594 5.81805V6.91803H10.409V5.81805C10.409 5.20084 10.2875 4.58964 10.0513 4.01941C9.81507 3.44918 9.46887 2.93106 9.03243 2.49463C8.596 2.05819 8.07788 1.71203 7.50765 1.47583C6.93742 1.23963 6.32624 1.11804 5.70903 1.11804C5.09182 1.11804 4.48065 1.23963 3.91042 1.47583C3.34019 1.71203 2.82207 2.05819 2.38563 2.49463C1.9492 2.93106 1.603 3.44918 1.3668 4.01941C1.1306 4.58964 1.00903 5.20084 1.00903 5.81805C1.00903 7.06457 1.50421 8.26 2.38563 9.14142C3.26705 10.0228 4.46251 10.5181 5.70903 10.5181H6.80903V13.699H5.70903C4.46251 13.699 3.26705 14.1942 2.38563 15.0756C1.50421 15.957 1.00903 17.1525 1.00903 18.399C1.00903 19.6456 1.50421 20.841 2.38563 21.7224C3.26705 22.6038 4.46251 23.0991 5.70903 23.0991C6.95555 23.0991 8.15101 22.6038 9.03243 21.7224C9.91386 20.841 10.409 19.6456 10.409 18.399V17.299H13.59V18.399C13.59 19.0163 13.7116 19.6274 13.9478 20.1976C14.184 20.7679 14.5302 21.286 14.9666 21.7224C15.4031 22.1588 15.9212 22.5051 16.4914 22.7413C17.0617 22.9775 17.6728 23.0991 18.29 23.0991C19.5366 23.0991 20.732 22.6038 21.6134 21.7224C22.4949 20.841 22.99 19.6456 22.99 18.399C22.99 17.1525 22.4949 15.957 21.6134 15.0756C20.732 14.1942 19.5366 13.699 18.29 13.699H17.19V10.5181H18.294ZM17.194 6.91803V5.81805C17.194 5.60049 17.2585 5.3878 17.3794 5.20691C17.5003 5.02602 17.6721 4.88501 17.8731 4.80176C18.0741 4.7185 18.2953 4.69675 18.5086 4.7392C18.722 4.78164 18.918 4.88638 19.0719 5.04022C19.2257 5.19406 19.3305 5.39008 19.3729 5.60345C19.4153 5.81683 19.3936 6.03801 19.3103 6.23901C19.227 6.44001 19.0861 6.6118 18.9052 6.73267C18.7243 6.85354 18.5116 6.91803 18.294 6.91803H17.194ZM10.409 8.11804H13.59V9.31805H10.409V8.11804ZM10.409 10.5181H13.591V13.699H10.409V10.5181ZM5.70903 9.31805C5.0168 9.31805 4.34011 9.1128 3.76454 8.72821C3.18897 8.34363 2.74036 7.79695 2.47545 7.15741C2.21055 6.51787 2.14124 5.81413 2.27629 5.13519C2.41133 4.45626 2.74468 3.83262 3.23416 3.34314C3.72364 2.85366 4.34728 2.52036 5.02622 2.38531C5.70515 2.25027 6.40888 2.31957 7.04843 2.58447C7.68797 2.84938 8.23459 3.29796 8.61918 3.87354C9.00376 4.44911 9.20903 5.12582 9.20903 5.81805V13.699H8.00904V5.81604C8.00904 5.20604 7.76671 4.62103 7.33538 4.1897C6.90405 3.75836 6.31903 3.51605 5.70903 3.51605C5.09903 3.51605 4.51402 3.75836 4.08269 4.1897C3.65135 4.62103 3.40903 5.20604 3.40903 5.81604C3.40903 6.42604 3.65135 7.01105 4.08269 7.44238C4.51402 7.87372 5.09903 8.11603 5.70903 8.11603H6.80903V9.31604L5.70903 9.31805ZM6.80903 5.81805V6.91803H5.70903C5.49147 6.91803 5.2788 6.85354 5.09791 6.73267C4.91701 6.6118 4.77602 6.44001 4.69277 6.23901C4.60951 6.03801 4.58773 5.81683 4.63017 5.60345C4.67261 5.39008 4.77738 5.19406 4.93122 5.04022C5.08505 4.88638 5.28105 4.78164 5.49443 4.7392C5.70781 4.69675 5.92899 4.7185 6.12998 4.80176C6.33098 4.88501 6.50278 5.02602 6.62365 5.20691C6.74452 5.3878 6.80903 5.60049 6.80903 5.81805ZM18.298 14.905C18.9903 14.905 19.667 15.1103 20.2425 15.4949C20.8181 15.8795 21.2667 16.4261 21.5316 17.0657C21.7965 17.7052 21.8658 18.4089 21.7308 19.0878C21.5957 19.7668 21.2624 20.3904 20.7729 20.8799C20.2834 21.3694 19.6598 21.7027 18.9808 21.8378C18.3019 21.9728 17.5982 21.9035 16.9586 21.6386C16.3191 21.3737 15.7725 20.9251 15.3879 20.3495C15.0033 19.774 14.798 19.0973 14.798 18.405V17.3051H15.998V18.405C15.998 19.015 16.2404 19.6 16.6717 20.0314C17.103 20.4627 17.688 20.705 18.298 20.705C18.908 20.705 19.493 20.4627 19.9244 20.0314C20.3557 19.6 20.598 19.015 20.598 18.405C20.598 17.795 20.3557 17.21 19.9244 16.7787C19.493 16.3474 18.908 16.105 18.298 16.105H5.70503C5.09504 16.105 4.51002 16.3474 4.07869 16.7787C3.64735 17.21 3.40503 17.795 3.40503 18.405C3.40503 19.015 3.64735 19.6 4.07869 20.0314C4.51002 20.4627 5.09504 20.705 5.70503 20.705C6.31503 20.705 6.90005 20.4627 7.33138 20.0314C7.76271 19.6 8.00503 19.015 8.00503 18.405V17.3051H9.20503V18.405C9.20503 19.0973 8.99976 19.774 8.61518 20.3495C8.23059 20.9251 7.68397 21.3737 7.04442 21.6386C6.40488 21.9035 5.70115 21.9728 5.02222 21.8378C4.34328 21.7027 3.71964 21.3694 3.23016 20.8799C2.74068 20.3904 2.40733 19.7668 2.27229 19.0878C2.13724 18.4089 2.20655 17.7052 2.47145 17.0657C2.73636 16.4261 3.18497 15.8795 3.76054 15.4949C4.33611 15.1103 5.0128 14.905 5.70503 14.905H18.298ZM17.198 18.405V17.3051H18.298C18.5156 17.3051 18.7283 17.3695 18.9092 17.4904C19.0901 17.6113 19.231 17.7831 19.3143 17.9841C19.3976 18.1851 19.4193 18.4062 19.3769 18.6196C19.3345 18.833 19.2297 19.029 19.0758 19.1829C18.922 19.3367 18.726 19.4414 18.5126 19.4839C18.2993 19.5263 18.0781 19.5046 17.8771 19.4213C17.6761 19.3381 17.5043 19.1971 17.3834 19.0162C17.2625 18.8353 17.198 18.6226 17.198 18.405ZM6.80903 17.3051V18.405C6.80903 18.6226 6.74452 18.8353 6.62365 19.0162C6.50278 19.1971 6.33098 19.3381 6.12998 19.4213C5.92899 19.5046 5.70781 19.5263 5.49443 19.4839C5.28105 19.4414 5.08505 19.3367 4.93122 19.1829C4.77738 19.029 4.67261 18.833 4.63017 18.6196C4.58773 18.4062 4.60951 18.1851 4.69277 17.9841C4.77602 17.7831 4.91701 17.6113 5.09791 17.4904C5.2788 17.3695 5.49147 17.3051 5.70903 17.3051H6.80903ZM15.996 5.81506V13.696H14.796V5.81506C14.796 5.12283 15.0013 4.44612 15.3859 3.87054C15.7705 3.29497 16.3171 2.84639 16.9566 2.58148C17.5962 2.31658 18.2999 2.24721 18.9788 2.38226C19.6578 2.51731 20.2814 2.85067 20.7709 3.34015C21.2604 3.82963 21.5937 4.45327 21.7288 5.1322C21.8638 5.81114 21.7945 6.51488 21.5296 7.15442C21.2647 7.79396 20.8161 8.34057 20.2405 8.72516C19.665 9.10974 18.9883 9.31506 18.296 9.31506H17.196V8.11505H18.296C18.906 8.11505 19.491 7.87274 19.9224 7.44141C20.3537 7.01007 20.596 6.42506 20.596 5.81506C20.596 5.20507 20.3537 4.62005 19.9224 4.18872C19.491 3.75739 18.906 3.51501 18.296 3.51501C17.9938 3.51462 17.6945 3.5738 17.4152 3.68915C17.1358 3.80449 16.882 3.97375 16.6681 4.18726C16.4542 4.40076 16.2845 4.65434 16.1687 4.93347C16.0529 5.2126 15.9932 5.51182 15.993 5.81403L15.996 5.81506Z" fill="black"/>
</svg>
