<svg width="24" height="24" viewBox="0 0 24 24" fill="none" xmlns="http://www.w3.org/2000/svg">
<path d="M21.593 14.831C20.9283 14.1695 20.0848 13.7165 19.1662 13.5276C18.2476 13.3388 17.2938 13.4223 16.422 13.768C16.8746 12.6314 16.8746 11.3646 16.422 10.228C17.4444 10.6309 18.5744 10.6691 19.6215 10.336C20.6687 10.003 21.5691 9.31907 22.1708 8.3996C22.7726 7.48012 23.0389 6.3813 22.925 5.28835C22.811 4.1954 22.3237 3.17515 21.5453 2.39957C20.7668 1.624 19.7447 1.14054 18.6514 1.03066C17.558 0.920786 16.4602 1.19122 15.5429 1.79639C14.6257 2.40156 13.9452 3.30445 13.616 4.35287C13.2869 5.4013 13.3293 6.53115 13.736 7.55197C12.6385 7.11846 11.4203 7.10138 10.311 7.50397C10.6908 6.47602 10.7082 5.34919 10.3602 4.31005C10.0122 3.27091 9.31967 2.38179 8.39737 1.78993C7.47508 1.19807 6.3783 0.938954 5.28865 1.0555C4.199 1.17205 3.18183 1.65726 2.40558 2.4308C1.62933 3.20434 1.14055 4.2198 1.02019 5.30903C0.899828 6.39827 1.1551 7.49595 1.74372 8.42031C2.33235 9.34467 3.21904 10.0403 4.25695 10.3919C5.29487 10.7436 6.42176 10.7302 7.45103 10.354C7.06298 11.4153 7.06298 12.5797 7.45103 13.641C6.42865 13.2709 5.3106 13.2606 4.28161 13.6119C3.25262 13.9632 2.37426 14.655 1.79165 15.5731C1.20904 16.4911 0.957052 17.5804 1.07731 18.6611C1.19757 19.7417 1.68289 20.749 2.45308 21.5165C3.22326 22.284 4.23223 22.7657 5.31328 22.8822C6.39433 22.9987 7.48277 22.7429 8.39876 22.1571C9.31476 21.5713 10.0035 20.6905 10.3512 19.6603C10.6989 18.63 10.6847 17.512 10.311 16.491C11.4203 16.8935 12.6385 16.8765 13.736 16.443C13.4153 17.2477 13.3183 18.1241 13.4554 18.9795C13.5924 19.8348 13.9584 20.6371 14.5145 21.3013C15.0705 21.9655 15.796 22.4669 16.6139 22.7522C17.4318 23.0376 18.3117 23.0962 19.1602 22.922C20.0088 22.7478 20.7944 22.3472 21.4337 21.7627C22.073 21.1783 22.5423 20.4316 22.7917 19.6021C23.0411 18.7725 23.0613 17.8909 22.8503 17.0507C22.6393 16.2106 22.2048 15.4442 21.593 14.831ZM16.066 3.65996C16.6325 3.09645 17.399 2.78012 18.198 2.78012C18.997 2.78012 19.7636 3.09645 20.33 3.65996C20.75 4.08133 21.0356 4.61767 21.1509 5.20128C21.2663 5.78488 21.206 6.38957 20.9779 6.93898C20.7498 7.48839 20.364 7.95788 19.8692 8.28818C19.3745 8.61847 18.7929 8.79474 18.198 8.79474C17.6031 8.79474 17.0216 8.61847 16.5268 8.28818C16.0321 7.95788 15.6462 7.48839 15.4181 6.93898C15.19 6.38957 15.1298 5.78488 15.2451 5.20128C15.3604 4.61767 15.6461 4.08133 16.066 3.65996ZM3.66603 7.98697C3.24609 7.56561 2.96043 7.02926 2.84512 6.44565C2.7298 5.86205 2.79001 5.25736 3.01813 4.70795C3.24625 4.15854 3.63205 3.68905 4.12682 3.35876C4.62159 3.02846 5.20314 2.85219 5.79803 2.85219C6.39291 2.85219 6.97446 3.02846 7.46923 3.35876C7.964 3.68905 8.34981 4.15854 8.57793 4.70795C8.80605 5.25736 8.86625 5.86205 8.75093 6.44565C8.63562 7.02926 8.34996 7.56561 7.93003 7.98697C7.36369 8.54957 6.59781 8.86532 5.79953 8.86532C5.00124 8.86532 4.23536 8.54957 3.66903 7.98697H3.66603ZM7.93003 20.261C7.50951 20.683 6.9732 20.9708 6.38902 21.0878C5.80483 21.2049 5.19906 21.1459 4.64841 20.9184C4.09777 20.6909 3.62702 20.3051 3.29579 19.8099C2.96456 19.3146 2.78775 18.7323 2.78775 18.1365C2.78775 17.5407 2.96456 16.9583 3.29579 16.4631C3.62702 15.9678 4.09777 15.582 4.64841 15.3545C5.19906 15.127 5.80483 15.0681 6.38902 15.1851C6.9732 15.3021 7.50951 15.5899 7.93003 16.012C8.20975 16.2905 8.43177 16.6214 8.58335 16.9859C8.73494 17.3503 8.81311 17.7411 8.81339 18.1358C8.81367 18.5306 8.73605 18.9215 8.58498 19.2861C8.43391 19.6508 8.21236 19.9821 7.93303 20.261H7.93003ZM9.83002 14.124C9.27716 13.5564 8.97041 12.7936 8.97631 12.0013C8.98222 11.209 9.30032 10.4509 9.86159 9.89161C10.4229 9.33232 11.182 9.01689 11.9744 9.01378C12.7667 9.01066 13.5284 9.3201 14.094 9.87497C14.6397 10.444 14.9403 11.2043 14.9313 11.9927C14.9223 12.781 14.6044 13.5343 14.0459 14.0907C13.4874 14.6471 12.7329 14.9621 11.9445 14.9682C11.1562 14.9742 10.397 14.6717 9.83002 14.124ZM20.33 20.34C19.9095 20.762 19.3732 21.0498 18.789 21.1668C18.2048 21.2839 17.5991 21.2249 17.0484 20.9974C16.4978 20.7699 16.027 20.3841 15.6958 19.8889C15.3646 19.3936 15.1878 18.8113 15.1878 18.2155C15.1878 17.6197 15.3646 17.0373 15.6958 16.5421C16.027 16.0468 16.4978 15.661 17.0484 15.4335C17.5991 15.206 18.2048 15.1471 18.789 15.2641C19.3732 15.3811 19.9095 15.6689 20.33 16.091C20.8889 16.6566 21.2024 17.4198 21.2024 18.215C21.2024 19.0102 20.8889 19.7743 20.33 20.34Z" fill="black"/>
</svg>
