<svg xmlns="http://www.w3.org/2000/svg" width="24" height="24" viewBox="0 0 24 24">
  <g id="mpuannum" transform="translate(-377 -71)">
    <rect id="Rectangle_149" data-name="Rectangle 149" width="24" height="24" transform="translate(377 71)" fill="none"/>
    <path id="Path_95" data-name="Path 95" d="M63.876,107.8a4.815,4.815,0,0,0-5.171-1.063,4.785,4.785,0,0,0,0-3.54,4.777,4.777,0,1,0-2.686-2.676,4.834,4.834,0,0,0-3.425-.048,4.809,4.809,0,1,0-2.86,2.85,4.786,4.786,0,0,0,0,3.287,4.777,4.777,0,1,0,2.86,2.85,4.834,4.834,0,0,0,3.425-.048,4.8,4.8,0,1,0,7.857-1.613ZM58.349,96.629a3.023,3.023,0,0,1,4.264,0h0a3.01,3.01,0,1,1-4.264,0Zm-12.4,4.327a3.01,3.01,0,1,1,4.264,0h0A3.023,3.023,0,0,1,45.952,100.956Zm4.264,12.274a3.01,3.01,0,1,1,0-4.249h0A3,3,0,0,1,50.216,113.23Zm1.9-6.137a3.01,3.01,0,0,1,4.264-4.249h0a3.01,3.01,0,0,1-4.264,4.248Zm10.5,6.216h0a3.01,3.01,0,1,1,0-4.249A3.022,3.022,0,0,1,62.613,113.308Z" transform="translate(334.717 -21.969)"/>
  </g>
</svg>
