<svg width="24" height="24" viewBox="0 0 24 24" fill="none" xmlns="http://www.w3.org/2000/svg">
<path fill-rule="evenodd" clip-rule="evenodd" d="M3.95122 3H5.29268V5.98578H6.90244V3H8.2439V5.98578H9.85366V3H11.1951V5.98578H12.8049V3H14.1463V5.98578H15.7561V3H17.0976V5.98578H18.7073V3H20.0488V5.98578H21.6585V3H23V7.2654H20.0488V8.67299H23V9.95261H20.0488V11.3602H23V12.6398H20.0488V14.0474H23V15.327H20.0488V16.7346H23V21H21.6585V18.0142H20.0488V21H18.7073V18.0142H17.0976V21H15.7561V18.0142H14.1463V21H12.8049V18.0142H11.1951V21H9.85366V18.0142H8.2439V21H6.90244V18.0142H5.29268V21H3.95122V18.0142H2.34146V21H1V16.7346H3.95122V15.327H1V14.0474H3.95122V12.6398H1V11.3602H3.95122V9.95261H1V8.67299H3.95122V7.2654H1V3H2.34146V5.98578H3.95122V3ZM17.1036 16.7346L12 12.9211L6.89641 16.7346H17.1036ZM17.1036 7.2654L12 11.0789L6.89641 7.2654H17.1036ZM18.7073 16.0908L13.2327 12L18.7073 7.90923V16.0908ZM5.29268 16.0907L10.7673 12L5.29268 7.90925V16.0907Z" fill="black"/>
</svg>
