<svg width="24" height="24" viewBox="0 0 24 24" fill="none" xmlns="http://www.w3.org/2000/svg">
<path fill-rule="evenodd" clip-rule="evenodd" d="M8.09434 1C5.28082 1 3 3.24997 3 6.02538V17.9746C3 20.75 5.28082 23 8.09434 23C9.66269 23 11.0655 22.3009 12 21.2013C12.9345 22.3009 14.3373 23 15.9057 23C18.7192 23 21 20.75 21 17.9746V6.02538C21 3.24997 18.7192 1 15.9057 1C14.3373 1 12.9345 1.69911 12 2.79869C11.0655 1.69911 9.66269 1 8.09434 1ZM10.8113 6.02538C10.8113 5.19278 10.4265 4.4489 9.82274 3.95732L9.82053 3.95552C9.58757 3.76789 9.25378 3.82072 9.04077 4.03082L8.41453 4.64858C8.2377 4.82307 7.95098 4.82307 7.77415 4.64858L7.14791 4.03082C6.9349 3.82072 6.60111 3.76789 6.36815 3.95552L6.36593 3.95732C5.76217 4.4489 5.37736 5.19278 5.37736 6.02538V17.9746C5.37736 18.7147 5.68144 19.3848 6.17313 19.8698C6.20367 19.9 6.23496 19.9294 6.26691 19.9581C6.29991 19.9877 6.33365 20.0165 6.36812 20.0445C6.60108 20.2321 6.9349 20.1793 7.14791 19.9692L7.77415 19.3514C7.95098 19.1769 8.2377 19.1769 8.41453 19.3514L9.04077 19.9692C9.25378 20.1793 9.5876 20.2321 9.82056 20.0445L9.82274 20.0427C10.4264 19.5511 10.8113 18.8071 10.8113 17.9746V14.6802L9.63715 15.8385C9.21716 16.2528 8.5362 16.2528 8.1162 15.8385C7.69621 15.4241 7.69621 14.7525 8.1162 14.3381L10.4791 12.0073L8.11897 9.67909C7.69897 9.26478 7.69897 8.59309 8.11897 8.17878C8.53896 7.76442 9.21992 7.76442 9.63992 8.17878L10.8113 9.3343V6.02538ZM13.521 12.0073L15.881 9.67909C16.301 9.26478 16.301 8.59309 15.881 8.17878C15.461 7.76442 14.7801 7.76442 14.3601 8.17878L13.1887 9.3343V6.02538C13.1887 5.19278 13.5735 4.4489 14.1773 3.95732L14.1795 3.95552C14.4124 3.76789 14.7462 3.82072 14.9592 4.03082L15.5855 4.64858C15.7623 4.82307 16.049 4.82307 16.2259 4.64858L16.8521 4.03082C17.0651 3.82072 17.3989 3.76789 17.6319 3.95552L17.6341 3.95732C18.2378 4.4489 18.6226 5.19278 18.6226 6.02538V17.9746C18.6226 18.8071 18.2377 19.5511 17.6341 20.0427L17.6319 20.0445C17.3989 20.2321 17.0651 20.1793 16.8521 19.9692L16.2259 19.3514C16.049 19.1769 15.7623 19.1769 15.5855 19.3514L14.9592 19.9692C14.7462 20.1793 14.4124 20.2321 14.1794 20.0445C14.1116 19.9894 14.0465 19.9311 13.9844 19.8698C13.4928 19.3848 13.1887 18.7147 13.1887 17.9746V14.6802L14.3628 15.8385C14.7828 16.2528 15.4638 16.2528 15.8838 15.8385C16.3038 15.4241 16.3038 14.7525 15.8838 14.3381L13.521 12.0073Z" fill="black"/>
</svg>
