<svg width="24" height="24" viewBox="0 0 24 24" fill="none" xmlns="http://www.w3.org/2000/svg">
<path d="M22.9999 2.02405V1.00098H14.984V7.99304H12.5109V1.00098H11.4879V7.99304H9.01501V1.00098H0.999878V2.02405H7.99207V4.49707H0.999878V5.52002H7.99207V7.99304H0.999878V16.009H7.99207V18.4821H0.999878V19.505H7.99207V21.978H0.999878V23.001H9.01501V16.009H11.4879V23.001H12.5109V16.009H14.984V23.001H22.9999V21.978H16.0079V19.505H22.9999V18.4821H16.0079V16.009H22.9999V7.99304H16.0079V5.52002H22.9999V4.49707H16.0079V2.02405H22.9999ZM14.984 9.01599V11.6591H9.01501V9.01599H14.984ZM7.99207 9.01599V14.985H5.51892V9.01599H7.99207ZM2.02307 9.01599H4.49597V14.985H2.02307V9.01599ZM11.4879 14.985H9.01501V12.6851H14.984V14.985H11.484H11.4879ZM21.9769 9.01599V14.985H19.504V9.01599H21.9769ZM18.4769 14.985H16.004V9.01599H18.4769V14.985Z" fill="black"/>
</svg>
