<svg width="24" height="24" viewBox="0 0 24 24" fill="none" xmlns="http://www.w3.org/2000/svg">
<path d="M21.533 21.533V2.46698H2.46701V21.533H21.533ZM20.946 7.69995L20.683 8.06799C20.5 7.66581 20.2891 7.27687 20.052 6.90399L20.946 5.65295V7.69995ZM20.946 3.05396V3.88696L19.42 6.02301C18.3371 4.6795 16.9111 3.65361 15.293 3.05396H20.946ZM19.979 9.05396L19.398 9.867C19.2663 9.41153 19.0926 8.96925 18.879 8.54596L19.402 7.81396C19.6273 8.21043 19.8203 8.62448 19.979 9.052V9.05396ZM18.798 6.89398L18.304 7.586C17.597 6.57514 16.6572 5.74911 15.564 5.17761C14.4708 4.60612 13.2562 4.30587 12.0226 4.30225C10.789 4.29862 9.57269 4.59174 8.47614 5.1568C7.37958 5.72186 6.43498 6.54227 5.72202 7.54895L5.23102 6.85699C6.02624 5.80974 7.0536 4.96125 8.23227 4.3783C9.41094 3.79534 10.7088 3.49379 12.0237 3.49738C13.3387 3.50096 14.6349 3.80961 15.8103 4.39899C16.9858 4.98836 18.0085 5.84241 18.798 6.89398ZM5.41403 10.928C5.49511 10.4281 5.63334 9.93929 5.82602 9.47101L11.999 18.171L13.499 16.071H13.537V16.017L18.187 9.50897C18.3792 9.98456 18.5155 10.4809 18.593 10.988L13.176 18.569C12.4004 18.7065 11.6066 18.7065 10.831 18.569L5.41403 10.928ZM9.21402 18.065C8.15023 17.5751 7.23378 16.8143 6.55637 15.8589C5.87895 14.9035 5.46434 13.787 5.35403 12.621L9.21402 18.065ZM6.35403 8.44397C7.28619 6.9687 8.75714 5.91537 10.454 5.508V14.231L6.35403 8.44397ZM11.484 15.679V5.34601C11.6533 5.33334 11.8243 5.32666 11.997 5.32599C12.1697 5.32532 12.3407 5.33201 12.51 5.34601V15.687L11.998 16.403L11.484 15.679ZM13.537 14.252V5.50696C15.2489 5.91695 16.7307 6.9842 17.662 8.47797L13.537 14.252ZM18.637 12.698C18.5147 13.8442 18.0983 14.9394 17.4281 15.8773C16.758 16.8151 15.8568 17.5639 14.812 18.051L18.637 12.698ZM3.05402 3.05396H8.70703C7.10514 3.64743 5.69124 4.65875 4.61203 5.98297L3.05402 3.78296V3.05396ZM5.14102 8.50397C4.92763 8.92042 4.75289 9.35557 4.61902 9.80396L4.04303 8.99097C4.20282 8.56856 4.39611 8.15963 4.62103 7.76801L5.14102 8.50397ZM3.05402 5.56L3.97504 6.85999C3.73863 7.22808 3.52779 7.61197 3.34402 8.00897L3.05301 7.599L3.05402 5.56ZM3.05402 20.946V15.293C3.53371 16.5867 4.28716 17.7615 5.26282 18.7372C6.23847 19.7128 7.41332 20.4663 8.70703 20.946H3.05402ZM3.49402 12C3.49404 11.4119 3.55504 10.8255 3.67603 10.25L4.34402 11.191C4.14791 13.0539 4.63762 14.9244 5.72147 16.4523C6.80531 17.9801 8.40894 19.0604 10.232 19.491L10.899 20.432C8.8527 20.1621 6.97396 19.1584 5.61197 17.6075C4.24998 16.0567 3.49737 14.064 3.49402 12ZM12.002 20.217L11.629 19.69C11.7524 19.696 11.8763 19.699 12.001 19.699C12.1257 19.699 12.2517 19.696 12.379 19.69L12.002 20.217ZM13.783 19.491C15.467 19.0878 16.9663 18.1296 18.0396 16.7708C19.1129 15.412 19.6978 13.7316 19.7 12C19.7 11.75 19.688 11.5 19.664 11.26L20.339 10.316C20.5694 11.4591 20.5623 12.6374 20.3183 13.7776C20.0743 14.9179 19.5986 15.9959 18.9207 16.9446C18.2427 17.8934 17.377 18.6927 16.3773 19.2929C15.3775 19.8932 14.2651 20.2815 13.109 20.434L13.783 19.491ZM20.947 15.291V20.944H15.294C16.5875 20.4644 17.7622 19.7113 18.7378 18.736C19.7135 17.7607 20.467 16.5863 20.947 15.293V15.291Z" fill="black"/>
<path d="M15.299 1V2.02698H21.972V8.70001H22.999V1H15.299Z" fill="black"/>
<path d="M2.02701 2.02698H8.70001V1H1V8.70001H2.02701V2.02698Z" fill="black"/>
<path d="M2.02701 15.299H1V22.999H8.70001V21.972H2.02701V15.299Z" fill="black"/>
<path d="M21.972 21.972H15.299V22.999H22.999V15.299H21.972V21.972Z" fill="black"/>
</svg>
