<svg width="24" height="24" viewBox="0 0 24 24" fill="none" xmlns="http://www.w3.org/2000/svg">
<path d="M16.026 1C14.475 1 13.062 2.088 12 3.873C10.938 2.089 9.525 1 7.974 1C4.674 1 2 5.925 2 12C2 18.075 4.675 23 7.974 23C9.525 23 10.938 21.912 12 20.127C13.062 21.912 14.475 23 16.026 23C19.326 23 22 18.075 22 12C22 5.925 19.325 1 16.026 1ZM10.552 13.192C10.331 13.563 9.765 14.348 9.317 14.956C9.08698 15.2924 8.87856 15.6431 8.693 16.006C8.52206 16.277 8.44493 16.5966 8.47348 16.9157C8.50203 17.2348 8.63468 17.5357 8.851 17.772C9.01057 17.9169 9.20657 18.0156 9.41798 18.0575C9.62938 18.0994 9.84822 18.083 10.051 18.01C10.351 17.945 10.605 17.881 10.77 18.096C11.133 18.566 9.741 21.026 8.49 21.044H8.473C7.223 21.044 5.373 19.117 5.373 16.839C5.373 14.839 7.255 12.548 7.731 12C7.255 11.452 5.373 9.16 5.373 7.161C5.373 4.873 7.235 2.938 8.485 2.956C9.735 2.974 11.127 5.434 10.765 5.904C10.599 6.118 10.346 6.054 10.046 5.989C9.84322 5.91599 9.62438 5.89957 9.41298 5.9415C9.20157 5.98343 9.00557 6.08212 8.846 6.227C8.62968 6.46332 8.49703 6.76419 8.46848 7.08329C8.43993 7.40239 8.51706 7.72203 8.688 7.993C8.87558 8.35778 9.08634 8.71017 9.319 9.048C9.767 9.657 10.333 10.441 10.554 10.812C11.085 11.6801 11.077 12.3337 10.552 13.192ZM18.494 16.839C18.494 19.117 16.649 21.044 15.394 21.044H15.377C14.127 21.026 12.734 18.566 13.097 18.096C13.263 17.881 13.516 17.946 13.816 18.01C14.0188 18.083 14.2376 18.0994 14.449 18.0575C14.6604 18.0156 14.8564 17.9169 15.016 17.772C15.2326 17.5359 15.3656 17.235 15.3943 16.9159C15.423 16.5968 15.346 16.277 15.175 16.006C14.9894 15.6431 14.781 15.2924 14.551 14.956C14.103 14.347 13.537 13.563 13.316 13.192C12.7944 12.3392 12.7972 11.6585 13.318 10.807C13.539 10.436 14.105 9.652 14.553 9.043C14.7831 8.70661 14.9915 8.3559 15.177 7.993C15.3477 7.72213 15.4247 7.4027 15.3961 7.08381C15.3676 6.76492 15.2351 6.46424 15.019 6.228C14.8594 6.08322 14.6634 5.98459 14.452 5.94267C14.2406 5.90074 14.0218 5.9171 13.819 5.99C13.519 6.055 13.266 6.119 13.1 5.905C12.737 5.435 14.129 2.974 15.38 2.957C16.631 2.94 18.492 4.874 18.492 7.162C18.492 9.162 16.61 11.453 16.134 12.001C16.612 12.548 18.494 14.84 18.494 16.839Z" fill="black"/>
</svg>
