<svg width="24" height="24" viewBox="0 0 24 24" fill="none" xmlns="http://www.w3.org/2000/svg">
<path d="M20.7634 10.2641C18.0851 7.23551 13.3336 6.67482 11.2089 9.25869C10.9421 9.58315 10.5586 9.61274 10.4445 9.20842C10.1225 8.06679 10.1065 5.75189 13.0799 4.0057C15.4627 2.60689 19.2639 2.50514 22.3376 4.51808C19.9957 0.309206 14.0678 -0.129982 10.2623 3.23712C7.2351 5.91586 6.67401 10.6659 9.25498 12.7923C9.57997 13.0601 9.60942 13.4454 9.20405 13.5593C8.06092 13.8803 5.74723 13.8925 4.00511 10.9214C2.61023 8.53957 2.50485 4.73328 4.51739 1.65897C0.309341 4.0013 -0.12976 9.93033 3.23668 13.7366C5.91456 16.764 10.6628 17.3255 12.7892 14.7451C13.0573 14.4198 13.4431 14.3904 13.5571 14.7963C13.8783 15.9394 13.8916 18.2507 10.9202 19.9943C8.53736 21.3938 4.73621 21.4949 1.6625 19.4819C4.00437 23.6908 9.93223 24.13 13.7378 20.7629C16.7633 18.0863 17.3254 13.34 14.7493 11.2119C14.4231 10.9424 14.3941 10.5546 14.8016 10.4409C15.9461 10.1216 18.2532 10.1128 19.9942 13.0786C21.3935 15.4619 21.4945 19.2638 19.4819 22.3381C23.6907 19.9994 24.1298 14.0704 20.7634 10.2641Z" fill="black"/>
</svg>
