<svg width="24" height="24" viewBox="0 0 24 24" fill="none" xmlns="http://www.w3.org/2000/svg">
<path fill-rule="evenodd" clip-rule="evenodd" d="M3 6.43678C3 3.43413 5.31021 1 8.16 1C9.56912 1 10.8463 1.59513 11.7775 2.55986C12.9215 1.652 14.3049 1 15.84 1C18.6898 1 21 3.43413 21 6.43678V17.5632C21 20.5659 18.6898 23 15.84 23C14.4309 23 13.1537 22.4049 12.2225 21.4401C11.0785 22.348 9.69513 23 8.16 23C5.31021 23 3 20.5659 3 17.5632V6.43678ZM11.5192 7.60339C11.677 7.58445 11.8374 7.57471 12 7.57471C14.3196 7.57471 16.2 9.55597 16.2 12C16.2 13.8329 15.9619 15.8898 15.24 17.5632C14.9912 18.14 14.6047 18.8135 14.1022 19.4861C14.5543 19.9398 15.1663 20.2184 15.84 20.2184C17.2318 20.2184 18.36 19.0296 18.36 17.5632V6.43678C18.36 4.97037 17.2318 3.78161 15.84 3.78161C14.4482 3.78161 13.32 4.28736 12.48 5.23563C11.5343 6.3032 11.518 7.40964 11.5192 7.60339ZM12.4294 16.4024C12.2882 16.4175 12.145 16.4253 12 16.4253C9.68039 16.4253 7.8 14.444 7.8 12C7.8 10.1671 8.03806 8.11023 8.76 6.43678C9.00884 5.85997 9.39529 5.18649 9.89778 4.51391C9.44565 4.06016 8.8337 3.78161 8.16 3.78161C6.76824 3.78161 5.64 4.97037 5.64 6.43678V17.5632C5.64 19.0296 6.76824 20.2184 8.16 20.2184C9.55176 20.2184 10.68 19.7126 11.52 18.7644C12.4657 17.6968 12.482 16.5904 12.4808 16.3966C12.4637 16.3987 12.4466 16.4006 12.4294 16.4024ZM9.72 12C9.72 10.6733 10.7408 9.5977 12 9.5977C13.2592 9.5977 14.28 10.6733 14.28 12C14.28 13.3267 13.2592 14.4023 12 14.4023C10.7408 14.4023 9.72 13.3267 9.72 12Z" fill="black"/>
</svg>
