<svg width="24" height="24" viewBox="0 0 24 24" fill="none" xmlns="http://www.w3.org/2000/svg">
<path d="M1 1V23H23V1H1ZM20.6 20.7L16.127 16.227L16.491 15.863L20.697 20.069V20.7H20.6ZM6.231 20.7L3.302 17.771V17.043L6.959 20.7H6.231ZM3.931 3.3L7.941 7.31L7.577 7.674L3.3 3.398V3.298L3.931 3.3ZM8.67 20.59L8.306 20.226L8.67 19.862L9.034 20.226L8.67 20.59ZM15.582 13.678L15.218 14.042L14.854 13.678L15.218 13.314L15.582 13.678ZM15.491 13.041L19.857 8.675L20.221 9.039L15.856 13.404L15.491 13.041ZM14.582 13.405L10.398 9.221L10.762 8.857L14.947 13.041L14.582 13.405ZM14.309 13.678L13.945 14.042L9.761 9.858L10.125 9.494L14.309 13.678ZM9.489 9.586L9.125 9.222L9.489 8.858L9.853 9.222L9.489 9.586ZM9.216 9.859L8.852 10.223L8.488 9.859L8.852 9.495L9.216 9.859ZM8.852 8.95L8.488 8.586L8.852 8.222L9.216 8.586L8.852 8.95ZM8.579 9.223L8.215 9.587L7.851 9.223L8.215 8.859L8.579 9.223ZM7.942 9.86L3.577 14.224L3.302 13.949V13.771L7.578 9.495L7.942 9.86ZM3.304 15.224V15.046L3.579 14.771L3.943 15.135L3.579 15.499L3.304 15.224ZM3.85 14.499L8.215 10.134L8.579 10.498L4.214 14.86L3.85 14.499ZM8.85 10.77L13.036 14.95L8.671 19.315L4.487 15.133L8.85 10.77ZM9.123 10.497L9.487 10.133L13.671 14.317L13.307 14.681L9.123 10.497ZM13.943 14.59L14.307 14.954L13.943 15.318L13.579 14.954L13.943 14.59ZM14.216 14.317L14.58 13.953L14.944 14.317L14.58 14.681L14.216 14.317ZM15.216 14.59L15.58 14.954L15.216 15.318L14.852 14.954L15.216 14.59ZM15.489 14.317L15.853 13.953L16.217 14.317L15.853 14.681L15.489 14.317ZM16.126 13.68L20.492 9.314L20.692 9.514V9.833L16.486 14.039L16.126 13.68ZM20.696 8.565L20.496 8.765L20.132 8.401L20.496 8.037L20.696 8.237V8.565ZM19.855 8.133L15.673 3.95L16.037 3.586L20.221 7.77L19.855 8.133ZM19.582 8.406L15.217 12.771L11.033 8.587L15.399 4.221L19.582 8.406ZM10.76 8.315L10.396 7.951L14.762 3.585L15.126 3.949L10.76 8.315ZM10.487 8.588L10.123 8.952L9.759 8.588L10.123 8.224L10.487 8.588ZM9.487 8.315L9.123 7.951L9.487 7.587L9.851 7.951L9.487 8.315ZM9.123 6.678L12.496 3.305H13.224L9.487 7.042L9.123 6.678ZM9.214 7.315L8.85 7.679L8.486 7.315L8.85 6.951L9.214 7.315ZM8.577 7.952L8.213 8.316L7.847 7.95L8.211 7.586L8.577 7.952ZM7.94 8.589L7.576 8.953L7.212 8.589L7.576 8.225L7.94 8.589ZM7.303 9.226L3.303 13.226V12.498L6.943 8.858L7.303 9.226ZM3.303 16.326L3.578 16.051L7.762 20.235L7.398 20.599L3.303 16.504V16.326ZM3.851 15.778L4.215 15.414L8.399 19.598L8.035 19.962L3.851 15.778ZM8.947 19.59L13.312 15.225L13.676 15.589L9.307 19.95L8.947 19.59ZM13.947 15.861L14.311 16.225L9.947 20.59L9.583 20.226L13.947 15.861ZM14.22 15.588L14.584 15.224L14.948 15.588L14.584 15.952L14.22 15.588ZM15.22 15.861L15.584 16.225L15.22 16.589L14.856 16.225L15.22 15.861ZM15.493 15.588L15.857 15.224L16.221 15.588L15.857 15.952L15.493 15.588ZM16.13 14.951L16.494 14.587L16.858 14.951L16.494 15.315L16.13 14.951ZM16.767 14.314L20.7 10.381V11.109L17.131 14.678L16.767 14.314ZM20.7 6.424L17.577 3.301H18.305L20.705 5.701L20.7 6.424ZM20.7 6.97V7.289L20.5 7.489L16.31 3.31L16.318 3.302H17.029L20.7 6.97ZM15.767 3.31L15.403 3.674L15.039 3.31L15.047 3.302H15.759L15.767 3.31ZM14.494 3.31L10.129 7.675L9.765 7.311L13.775 3.301H14.487L14.494 3.31ZM8.855 6.402L5.755 3.302H11.955L8.855 6.402ZM8.582 6.675L8.218 7.039L4.481 3.302H5.209L8.582 6.675ZM7.306 7.95L6.942 8.314L3.302 4.674V3.946L7.306 7.95ZM6.669 8.587L3.302 11.95V5.218L6.669 8.587ZM8.033 20.501L8.233 20.701H7.833L8.033 20.501ZM9.108 20.701L9.308 20.501L9.508 20.701H9.108ZM10.381 20.701L14.581 16.501L14.945 16.865L11.109 20.701H10.381ZM15.218 17.137L18.782 20.701H11.655L15.218 17.137ZM15.491 16.864L15.855 16.5L20.055 20.7H19.327L15.491 16.864ZM16.764 15.591L17.128 15.227L20.697 18.796V19.524L16.764 15.591ZM17.401 14.954L20.701 11.654V18.25L17.401 14.954ZM20.701 5.154L18.847 3.302H20.696L20.701 5.154ZM3.301 18.317L5.684 20.7H3.302L3.301 18.317Z" fill="black"/>
</svg>
