<svg xmlns="http://www.w3.org/2000/svg" width="24" height="24" viewBox="0 0 24 24">
  <g id="nkyimu" transform="translate(-329 -119)">
    <rect id="Rectangle_149" data-name="Rectangle 149" width="24" height="24" transform="translate(329 119)" fill="none"/>
    <path id="Path_116" data-name="Path 116" d="M13.653,28.45v22h22v-22Zm19.6,19.7-4.473-4.473.364-.364,4.206,4.206v.631Zm-14.369,0-2.929-2.929v-.728l3.657,3.657Zm-2.3-17.4,4.01,4.01-.364.364-4.277-4.276v-.1ZM21.323,48.04l-.364-.364.364-.364.364.364Zm6.912-6.912-.364.364-.364-.364.364-.364Zm-.091-.637,4.366-4.366.364.364-4.365,4.365Zm-.909.364-4.184-4.184.364-.364L27.6,40.491Zm-.273.273-.364.364-4.184-4.184.364-.364Zm-4.82-4.092-.364-.364.364-.364.364.364Zm-.273.273-.364.364-.364-.364.364-.364Zm-.364-.909-.364-.364.364-.364.364.364Zm-.273.273-.364.364-.364-.364.364-.364Zm-.637.637L16.23,41.674l-.275-.275v-.178l4.276-4.276Zm-4.638,4.638,0,0v0Zm0,.726v-.178l.275-.275.364.364-.364.364Zm0,.548,0,0v0Zm.546-1.273,4.365-4.365.364.364L16.867,42.31Zm5-3.729L25.689,42.4l-4.365,4.365L17.14,42.583Zm.273-.273.364-.364,4.184,4.184-.364.364Zm4.82,4.093.364.364-.364.364-.364-.364Zm.273-.273.364-.364.364.364-.364.364Zm1,.273.364.364-.364.364-.364-.364Zm.273-.273.364-.364.364.364-.364.364Zm.637-.637,4.366-4.366.2.2v.319l-4.206,4.206Zm4.57-5.115-.2.2-.364-.364.364-.364.2.2Zm-.841-.432L28.326,31.4l.364-.364,4.184,4.184Zm-.273.273-4.365,4.365-4.184-4.184,4.366-4.366Zm-8.822-.091-.364-.364,4.366-4.366.364.364Zm-.273.273-.364.364-.364-.364.364-.364Zm-1-.273-.364-.364.364-.364.364.364Zm-.364-1.637,3.373-3.373h.728l-3.737,3.737Zm.091.637-.364.364-.364-.364.364-.364Zm-.637.637-.364.364L20.5,35.4l.364-.364Zm-.637.637-.364.364-.364-.364.364-.364Zm-.637.637-4,4v-.728l3.64-3.64Zm-4,7.1.275-.275,4.184,4.184-.364.364-4.095-4.095Zm.548-.548.364-.364,4.184,4.184-.364.364ZM21.6,47.04l4.365-4.365.364.364L21.96,47.4Zm5-3.729.364.364L22.6,48.04l-.364-.364Zm.273-.273.364-.364.364.364-.364.364Zm1,.273.364.364-.364.364-.364-.364Zm.273-.273.364-.364.364.364-.364.364Zm.637-.637.364-.364.364.364-.364.364Zm.637-.637,3.933-3.933v.728l-3.569,3.569Zm3.933-7.89-3.123-3.123h.728l2.4,2.4Zm0,.546v.319l-.2.2L28.963,30.76l.008-.008h.711Zm-4.933-3.66-.364.364-.364-.364.008-.008h.712Zm-1.273,0-4.365,4.365-.364-.364,4.01-4.01h.712Zm-5.639,3.092-3.1-3.1h6.2Zm-.273.273-.364.364-3.737-3.737h.728ZM19.959,35.4l-.364.364-3.64-3.64v-.728Zm-.637.637L15.955,39.4V32.668Zm1.364,11.914.2.2h-.4Zm1.075.2.2-.2.2.2Zm1.273,0,4.2-4.2.364.364-3.836,3.836Zm4.837-3.564,3.564,3.564H24.308Zm.273-.273.364-.364,4.2,4.2h-.728Zm1.273-1.273.364-.364,3.569,3.569v.728Zm.637-.637,3.3-3.3V45.7Zm3.3-9.8L31.5,30.752h1.849Zm-17.4,13.163,2.383,2.383H15.955Z" transform="translate(316.347 91.55)"/>
  </g>
</svg>
