<svg width="24" height="24" viewBox="0 0 24 24" fill="none" xmlns="http://www.w3.org/2000/svg">
<path fill-rule="evenodd" clip-rule="evenodd" d="M8.53543 1C6.03057 1 4 3.11065 4 5.71429V18.2857C4 20.8894 6.03057 23 8.53543 23C9.92467 23 11.1681 22.3508 12 21.3282C12.8319 22.3508 14.0753 23 15.4646 23C17.9694 23 20 20.8894 20 18.2857V5.71429C20 3.11065 17.9694 1 15.4646 1C14.0753 1 12.8319 1.64923 12 2.67175C11.1681 1.64923 9.92467 1 8.53543 1ZM10.9291 5.71429C10.9291 4.34015 9.85744 3.22619 8.53543 3.22619C7.21343 3.22619 6.14173 4.34015 6.14173 5.71429V6.36905H10.9291V5.71429ZM10.9291 9.05357C10.9291 8.80043 10.7317 8.59524 10.4882 8.59524H9.85827C9.61473 8.59524 9.41732 8.80043 9.41732 9.05357V14.9464C9.41732 15.1996 9.61473 15.4048 9.85827 15.4048H10.4882C10.7317 15.4048 10.9291 15.1996 10.9291 14.9464V9.05357ZM10.9291 17.631H6.14173V18.2857C6.14173 19.6599 7.21343 20.7738 8.53543 20.7738C9.85744 20.7738 10.9291 19.6599 10.9291 18.2857V17.631ZM13.0709 18.2857C13.0709 19.6599 14.1426 20.7738 15.4646 20.7738C16.7866 20.7738 17.8583 19.6599 17.8583 18.2857V17.631H13.0709V18.2857ZM13.0709 14.9464C13.0709 15.1996 13.2683 15.4048 13.5118 15.4048H14.1417C14.3853 15.4048 14.5827 15.1996 14.5827 14.9464V9.05357C14.5827 8.80043 14.3853 8.59524 14.1417 8.59524H13.5118C13.2683 8.59524 13.0709 8.80043 13.0709 9.05357V14.9464ZM13.0709 6.36905H17.8583V5.71429C17.8583 4.34015 16.7866 3.22619 15.4646 3.22619C14.1426 3.22619 13.0709 4.34015 13.0709 5.71429V6.36905ZM7.65354 9.05357C7.65354 8.80043 7.45614 8.59524 7.2126 8.59524H6.58268C6.33914 8.59524 6.14173 8.80043 6.14173 9.05357V14.9464C6.14173 15.1996 6.33914 15.4048 6.58268 15.4048H7.2126C7.45614 15.4048 7.65354 15.1996 7.65354 14.9464V9.05357ZM17.8583 9.05357C17.8583 8.80043 17.6609 8.59524 17.4173 8.59524H16.7874C16.5439 8.59524 16.3465 8.80043 16.3465 9.05357V14.9464C16.3465 15.1996 16.5439 15.4048 16.7874 15.4048H17.4173C17.6609 15.4048 17.8583 15.1996 17.8583 14.9464V9.05357Z" fill="black"/>
</svg>
