<svg width="24" height="24" viewBox="0 0 24 24" fill="none" xmlns="http://www.w3.org/2000/svg">
<path fill-rule="evenodd" clip-rule="evenodd" d="M20 5.13566C20 6.56499 18.5973 7.825 16.4648 8.56783C18.5973 9.31066 20 10.5707 20 12C20 13.4293 18.5973 14.6893 16.4648 15.4322C18.5973 16.175 20 17.435 20 18.8643C20 21.1484 16.4183 23 12 23C7.58173 23 4 21.1484 4 18.8643C4 17.435 5.40267 16.175 7.53522 15.4322C5.40267 14.6893 4 13.4293 4 12C4 10.5707 5.40267 9.31066 7.53522 8.56783C5.40267 7.825 4 6.56499 4 5.13566C4 2.85161 7.58173 1 12 1C16.4183 1 20 2.85161 20 5.13566ZM7.53591 5.11434L12.0221 2.9186L16.5083 5.11434L12.0221 7.31008L7.53591 5.11434ZM12.0221 16.6473L7.53591 18.843L12.0221 21.0388L16.5083 18.843L12.0221 16.6473ZM10.232 12C10.232 12.9183 9.82638 13.6628 9.32597 13.6628C8.82556 13.6628 8.41989 12.9183 8.41989 12C8.41989 11.0817 8.82556 10.3372 9.32597 10.3372C9.82638 10.3372 10.232 11.0817 10.232 12ZM14.674 13.6628C15.1744 13.6628 15.5801 12.9183 15.5801 12C15.5801 11.0817 15.1744 10.3372 14.674 10.3372C14.1736 10.3372 13.768 11.0817 13.768 12C13.768 12.9183 14.1736 13.6628 14.674 13.6628Z" fill="black"/>
</svg>
