<svg width="24" height="24" viewBox="0 0 24 24" fill="none" xmlns="http://www.w3.org/2000/svg">
<path d="M23 10.565V1H13.434V6.739H10.564V1H1V10.565H6.739V13.435H1V23H10.565V17.261H13.434V23H22.999V13.435H17.261V10.565H23ZM8.652 15.348V21.087H2.913V15.348H8.652V13.004H11.044V15.347L8.652 15.348ZM21.087 15.348V21.087H15.348V15.348H12.957V13.004H15.348V15.348H21.087ZM15.348 8.648V11.091H12.957V8.652H11.044V11.091H8.652V8.652H2.913V2.911H8.652V8.65H15.352V2.911H21.091V8.65L15.348 8.648Z" fill="black"/>
</svg>
