<svg width="24" height="24" viewBox="0 0 24 24" fill="none" xmlns="http://www.w3.org/2000/svg">
<path fill-rule="evenodd" clip-rule="evenodd" d="M1.02429 2.0132C0.993411 1.84551 0.990823 1.67354 1.0232 1.50618C1.07053 1.26166 1.26166 1.07053 1.50618 1.0232C1.67354 0.990823 1.84551 0.993411 2.0132 1.02429C2.65972 1.14336 3.3446 1.20453 4.05285 1.25161C4.15766 1.25858 4.26341 1.26528 4.3698 1.27179C4.47619 1.27831 4.58325 1.28471 4.69068 1.29109L4.69412 1.29132L4.70105 1.29174C5.28777 1.32685 5.88574 1.36264 6.45117 1.42495C7.98758 1.59417 9.58305 1.98106 10.5304 3.3614C10.9506 3.97377 11.1609 4.74425 11.2627 5.49724C11.3657 6.25915 11.3651 7.06094 11.3223 7.78021C11.2853 8.4011 11.2161 9.02056 11.1174 9.63494C11.0708 9.92503 11.1615 10.2216 11.3693 10.4293C11.7176 10.7776 12.2824 10.7777 12.6307 10.4294C12.8385 10.2216 12.9291 9.92497 12.8825 9.63481C12.7837 9.02046 12.7146 8.40102 12.6777 7.7802C12.6349 7.06094 12.6342 6.25914 12.7373 5.49725C12.8391 4.74428 13.0494 3.9738 13.4696 3.36139C14.417 1.98105 16.0124 1.59417 17.5488 1.42493C18.1165 1.36243 18.717 1.32652 19.3059 1.29135C19.4125 1.28496 19.5187 1.27859 19.6243 1.27212C19.7327 1.26547 19.8404 1.25871 19.9471 1.25161C20.6554 1.20453 21.3403 1.14334 21.9868 1.02429C22.1545 0.993398 22.3265 0.990823 22.4938 1.0232C22.7383 1.07054 22.9295 1.26167 22.9768 1.50618C23.0092 1.67354 23.0066 1.84552 22.9757 2.01323C22.8567 2.65972 22.7955 3.34457 22.7484 4.05285C22.7413 4.15937 22.7345 4.26681 22.7279 4.37497C22.7226 4.46196 22.7173 4.54936 22.7121 4.63707L22.7089 4.69061L22.7087 4.69401C22.6735 5.283 22.6376 5.88351 22.5751 6.45117C22.4058 7.98758 22.0189 9.58304 20.6386 10.5304C20.0262 10.9506 19.2557 11.1609 18.5027 11.2627C17.7409 11.3658 16.9391 11.3651 16.2198 11.3223C15.599 11.2854 14.9795 11.2162 14.3651 11.1175C14.075 11.0708 13.7784 11.1615 13.5706 11.3693C13.2223 11.7176 13.2224 12.2825 13.5707 12.6308C13.7784 12.8385 14.0749 12.9293 14.365 12.8827C14.9794 12.784 15.5989 12.7147 16.2198 12.6777C16.9391 12.6349 17.7408 12.6343 18.5028 12.7373C19.2557 12.8391 20.0262 13.0494 20.6386 13.4696C22.0189 14.4169 22.4058 16.0124 22.575 17.5488C22.6374 18.1143 22.6731 18.7122 22.7083 19.299L22.7087 19.3054L22.7089 19.3093C22.7217 19.5242 22.7344 19.7375 22.7484 19.9471C22.7955 20.6554 22.8566 21.3403 22.9757 21.9868C23.0066 22.1545 23.0092 22.3265 22.9768 22.4938C22.9295 22.7383 22.7383 22.9295 22.4938 22.9768C22.3265 23.0092 22.1545 23.0066 21.9868 22.9757C21.3403 22.8566 20.6554 22.7955 19.9471 22.7484C19.8224 22.7401 19.6963 22.7322 19.5693 22.7245L19.306 22.7087C18.7173 22.6735 18.1162 22.6376 17.5488 22.575C16.0124 22.4058 14.4169 22.0189 13.4696 20.6386C13.0494 20.0262 12.8391 19.2557 12.7373 18.5028C12.6343 17.7408 12.6349 16.9391 12.6777 16.2198C12.7147 15.599 12.7838 14.9795 12.8825 14.3651C12.9292 14.075 12.8385 13.7784 12.6307 13.5706C12.2824 13.2223 11.7176 13.2223 11.3693 13.5706C11.1615 13.7784 11.0708 14.075 11.1175 14.3651C11.2162 14.9795 11.2854 15.599 11.3223 16.2198C11.3651 16.9391 11.3658 17.7409 11.2627 18.5027C11.1609 19.2557 10.9506 20.0262 10.5304 20.6386C9.58304 22.0189 7.98758 22.4058 6.45117 22.5751C5.88351 22.6376 5.283 22.6735 4.69411 22.7087C4.4782 22.7216 4.26332 22.7344 4.05285 22.7484C3.34457 22.7955 2.65972 22.8567 2.01323 22.9757C1.84552 23.0066 1.67354 23.0092 1.50618 22.9768C1.26167 22.9295 1.07054 22.7383 1.0232 22.4938C0.990823 22.3265 0.993398 22.1545 1.02429 21.9868C1.14334 21.3403 1.20453 20.6554 1.25161 19.9471C1.26525 19.7415 1.2778 19.5322 1.29039 19.3214L1.29135 19.3059C1.32652 18.717 1.36243 18.1165 1.42493 17.5488C1.59417 16.0124 1.98105 14.417 3.36139 13.4696C3.9738 13.0494 4.74428 12.8391 5.49725 12.7373C6.25914 12.6342 7.06094 12.6349 7.7802 12.6777C8.401 12.7146 9.02053 12.7838 9.63488 12.8825C9.925 12.9292 10.2216 12.8385 10.4294 12.6307C10.7777 12.2824 10.7777 11.7176 10.4293 11.3693C10.2216 11.1615 9.92501 11.0708 9.63491 11.1174C9.02054 11.2162 8.40108 11.2853 7.78021 11.3223C7.06094 11.3651 6.25915 11.3657 5.49724 11.2627C4.74425 11.1609 3.97377 10.9506 3.3614 10.5304C1.98106 9.58305 1.59417 7.98758 1.42495 6.45117C1.36245 5.88395 1.32656 5.28388 1.29141 4.69541L1.29134 4.69411C1.27843 4.478 1.26561 4.26354 1.25161 4.05285C1.20453 3.3446 1.14336 2.65972 1.02429 2.0132ZM8.93846 14.1216C8.57366 14.0733 8.14972 14.0281 7.70019 14.0013C7.03079 13.9615 6.32128 13.9637 5.6737 14.0513C5.01718 14.1401 4.47999 14.3094 4.11099 14.5627C3.25078 15.153 2.90721 16.2014 2.74291 17.6928C2.68433 18.2248 2.65143 18.7747 2.61694 19.3514L2.61633 19.3625L2.61124 19.4472C2.60641 19.5275 2.60156 19.6084 2.59656 19.6899C2.58957 19.8034 2.58233 19.9181 2.57463 20.0338C2.54117 20.5372 2.49938 21.0542 2.43134 21.5687C2.94578 21.5006 3.46279 21.4588 3.96618 21.4254C4.19779 21.41 4.42489 21.3964 4.648 21.3831C5.22492 21.3486 5.77505 21.3157 6.30724 21.2571C7.79862 21.0928 8.847 20.7492 9.43734 19.889C9.69058 19.52 9.85994 18.9828 9.94874 18.3263C10.0363 17.6787 10.0385 16.9692 9.99867 16.2998C9.97191 15.8503 9.92671 15.4263 9.87839 15.0615L5.10714 19.8328C4.84759 20.0923 4.42677 20.0924 4.16721 19.8328C3.90765 19.5732 3.90766 19.1524 4.16721 18.8929L8.93846 14.1216ZM15.0615 9.87839C15.4263 9.92671 15.8503 9.97191 16.2998 9.99867C16.9692 10.0385 17.6787 10.0363 18.3263 9.94874C18.9828 9.85994 19.52 9.69058 19.889 9.43734C20.7492 8.847 21.0928 7.79862 21.2571 6.30724C21.3157 5.77505 21.3486 5.22492 21.3831 4.648C21.3964 4.42489 21.41 4.19779 21.4254 3.96618C21.4588 3.46279 21.5006 2.94578 21.5687 2.43134C21.0542 2.49938 20.5372 2.54117 20.0338 2.57463C19.8891 2.58426 19.7462 2.59315 19.6048 2.60175L19.352 2.61694C18.7753 2.65143 18.2248 2.68433 17.6928 2.74291C16.2014 2.90721 15.153 3.25078 14.5627 4.11099C14.3094 4.47999 14.1401 5.01718 14.0513 5.6737C13.9637 6.32128 13.9615 7.03079 14.0013 7.70019C14.0281 8.14972 14.0733 8.57366 14.1216 8.93846L18.8929 4.16721C19.1524 3.90766 19.5732 3.90765 19.8328 4.16721C20.0924 4.42677 20.0923 4.84759 19.8328 5.10714L15.0615 9.87839ZM9.99869 7.7002C9.97195 8.14973 9.92669 8.57368 9.87839 8.93846L5.10714 4.16721C4.84758 3.90765 4.42676 3.90766 4.16721 4.16721C3.90766 4.42676 3.90765 4.84758 4.16721 5.10714L8.93846 9.87839C8.57368 9.92669 8.14973 9.97195 7.7002 9.99869C7.03079 10.0385 6.32128 10.0363 5.6737 9.94874C5.01719 9.85996 4.47999 9.69058 4.11099 9.43734C3.2508 8.84698 2.90719 7.79863 2.74294 6.30724C2.68431 5.77505 2.65143 5.2249 2.61694 4.64801C2.60361 4.42489 2.59002 4.19778 2.57463 3.96615C2.54118 3.46278 2.49938 2.94578 2.43132 2.43132C2.94578 2.49938 3.46278 2.54118 3.96615 2.57463C4.19629 2.58993 4.42199 2.60344 4.64369 2.61668L4.64801 2.61694C5.22492 2.65142 5.77505 2.68431 6.30724 2.74294C7.79863 2.90719 8.84698 3.2508 9.43734 4.11099C9.69058 4.47999 9.85996 5.01719 9.94874 5.6737C10.0363 6.32128 10.0385 7.03079 9.99869 7.7002ZM18.8929 19.8328L14.1216 15.0615C14.0733 15.4263 14.028 15.8503 14.0013 16.2998C13.9615 16.9692 13.9637 17.6787 14.0513 18.3263C14.14 18.9828 14.3094 19.52 14.5627 19.889C15.153 20.7492 16.2014 21.0928 17.6928 21.2571C18.2248 21.3157 18.7748 21.3486 19.3515 21.3831C19.5747 21.3964 19.8022 21.41 20.0339 21.4254C20.5372 21.4588 21.0542 21.5006 21.5687 21.5687C21.5006 21.0542 21.4588 20.5372 21.4254 20.0339C21.4196 19.9476 21.4142 19.862 21.4089 19.777L21.3831 19.352C21.3486 18.7751 21.3157 18.225 21.2571 17.6928C21.0928 16.2014 20.7492 15.153 19.889 14.5627C19.52 14.3094 18.9828 14.14 18.3263 14.0513C17.6787 13.9637 16.9692 13.9615 16.2998 14.0013C15.8503 14.028 15.4263 14.0733 15.0615 14.1216L19.8328 18.8929C20.0924 19.1524 20.0923 19.5732 19.8328 19.8328C19.5732 20.0923 19.1524 20.0924 18.8929 19.8328Z" fill="black"/>
</svg>
