<svg width="24" height="24" viewBox="0 0 24 24" fill="none" xmlns="http://www.w3.org/2000/svg">
<path d="M22.765 11.723L18.074 10.961C17.8039 10.918 17.5493 10.8065 17.3346 10.6371C17.1199 10.4678 16.9522 10.2462 16.8475 9.99353C16.7428 9.74088 16.7046 9.46558 16.7366 9.19397C16.7685 8.92235 16.8695 8.66347 17.03 8.44202L19.809 4.586C19.8484 4.53192 19.8672 4.46557 19.8621 4.39886C19.8569 4.33216 19.8281 4.26948 19.7808 4.22211C19.7336 4.17474 19.671 4.14578 19.6043 4.14044C19.5376 4.13511 19.4712 4.15374 19.417 4.19299L15.561 6.97101C15.3397 7.13148 15.0809 7.23258 14.8093 7.26459C14.5378 7.2966 14.2625 7.25847 14.0099 7.15387C13.7573 7.04927 13.5356 6.88165 13.3662 6.66705C13.1968 6.45245 13.0851 6.19804 13.042 5.92804L12.28 1.23602C12.2695 1.16999 12.2358 1.10987 12.1849 1.06647C12.1341 1.02307 12.0694 0.999207 12.0026 0.999207C11.9357 0.999207 11.8709 1.02307 11.8201 1.06647C11.7692 1.10987 11.7355 1.16999 11.725 1.23602L10.963 5.92804C10.9199 6.19804 10.8082 6.45245 10.6388 6.66705C10.4694 6.88165 10.2477 7.04927 9.99512 7.15387C9.74249 7.25847 9.46735 7.2966 9.1958 7.26459C8.92425 7.23258 8.66535 7.13148 8.44397 6.97101L4.58801 4.19299C4.53389 4.15299 4.46727 4.13379 4.40015 4.13879C4.33303 4.1438 4.26988 4.17268 4.22229 4.22028C4.1747 4.26787 4.14575 4.33095 4.14075 4.39807C4.13574 4.46519 4.15506 4.53188 4.19507 4.586L6.974 8.44202C7.13449 8.66347 7.2355 8.92235 7.26746 9.19397C7.29941 9.46558 7.2612 9.74088 7.15649 9.99353C7.05178 10.2462 6.88416 10.4678 6.66943 10.6371C6.45471 10.8065 6.20014 10.918 5.93005 10.961L1.23901 11.723C1.17298 11.7335 1.11286 11.7673 1.06946 11.8181C1.02606 11.869 1.0022 11.9337 1.0022 12.0005C1.0022 12.0674 1.02606 12.1321 1.06946 12.1829C1.11286 12.2338 1.17298 12.2675 1.23901 12.278L5.93005 13.04C6.20006 13.0832 6.45447 13.1948 6.66907 13.3642C6.88367 13.5336 7.05128 13.7552 7.15588 14.0079C7.26048 14.2605 7.29861 14.5357 7.2666 14.8073C7.23459 15.0788 7.1335 15.3376 6.97302 15.559L4.19397 19.415C4.15396 19.4692 4.13477 19.5358 4.13977 19.603C4.14477 19.6701 4.17372 19.7332 4.22131 19.7808C4.26891 19.8284 4.33193 19.8573 4.39905 19.8623C4.46617 19.8673 4.53291 19.8481 4.58704 19.808L8.44299 17.029C8.66437 16.8685 8.92316 16.7675 9.1947 16.7355C9.46625 16.7035 9.74151 16.7416 9.99414 16.8462C10.2468 16.9508 10.4684 17.1184 10.6378 17.333C10.8073 17.5476 10.9189 17.802 10.962 18.072L11.724 22.764C11.7345 22.8301 11.7682 22.8902 11.8191 22.9336C11.87 22.977 11.9346 23.0008 12.0015 23.0008C12.0683 23.0008 12.1331 22.977 12.184 22.9336C12.2348 22.8902 12.2685 22.8301 12.2791 22.764L13.041 18.073C13.0842 17.803 13.1958 17.5486 13.3652 17.334C13.5347 17.1194 13.7563 16.9518 14.0089 16.8472C14.2615 16.7426 14.5367 16.7044 14.8082 16.7365C15.0798 16.7685 15.3387 16.8696 15.5601 17.03L19.416 19.808C19.4701 19.8467 19.5362 19.8649 19.6025 19.8594C19.6688 19.854 19.731 19.8251 19.7781 19.7781C19.8251 19.731 19.854 19.6688 19.8594 19.6025C19.8649 19.5362 19.8467 19.4701 19.808 19.416L17.0291 15.56C16.8686 15.3386 16.7675 15.0798 16.7355 14.8083C16.7035 14.5367 16.7416 14.2615 16.8462 14.0089C16.9508 13.7563 17.1184 13.5347 17.333 13.3652C17.5476 13.1958 17.802 13.0842 18.072 13.041L22.764 12.279C22.8308 12.2693 22.8918 12.236 22.9359 12.185C22.9801 12.134 23.0045 12.0689 23.0046 12.0015C23.0047 11.934 22.9806 11.8688 22.9366 11.8177C22.8926 11.7666 22.8317 11.733 22.765 11.723ZM12.001 15.268C11.1346 15.2677 10.3038 14.9235 9.69116 14.3109C9.07854 13.6982 8.73427 12.8674 8.73401 12.001C8.73401 11.1346 9.07824 10.3036 9.69092 9.69092C10.3036 9.07824 11.1345 8.73401 12.001 8.73401C12.8674 8.73401 13.6985 9.07824 14.3112 9.69092C14.9238 10.3036 15.2681 11.1346 15.2681 12.001C15.2682 12.4303 15.1837 12.8553 15.0195 13.252C14.8554 13.6486 14.6146 14.0089 14.3112 14.3125C14.0077 14.6161 13.6474 14.8569 13.2509 15.0212C12.8543 15.1855 12.4292 15.27 12 15.27L12.001 15.268Z" fill="black"/>
</svg>
