<svg width="24" height="24" viewBox="0 0 24 24" fill="none" xmlns="http://www.w3.org/2000/svg">
<path d="M12 4.14286C12.8679 4.14286 13.5714 3.43931 13.5714 2.57143C13.5714 1.70355 12.8679 1 12 1C11.1321 1 10.4286 1.70355 10.4286 2.57143C10.4286 3.43931 11.1321 4.14286 12 4.14286Z" fill="black"/>
<path d="M12.034 8.65187L8.65217 12.034L12.034 15.4162L15.4158 12.034L12.034 8.65187Z" fill="black"/>
<path fill-rule="evenodd" clip-rule="evenodd" d="M19.8571 12C19.8571 7.66062 16.3394 4.14286 12 4.14286C7.66062 4.14286 4.14286 7.66062 4.14286 12C4.14286 11.1321 3.43931 10.4286 2.57143 10.4286C1.70355 10.4286 1 11.1321 1 12C1 12.8679 1.70355 13.5714 2.57143 13.5714C3.43931 13.5714 4.14286 12.8679 4.14286 12C4.14286 16.3394 7.66062 19.8571 12 19.8571C11.1321 19.8571 10.4286 20.5607 10.4286 21.4286C10.4286 22.2965 11.1321 23 12 23C12.8679 23 13.5714 22.2965 13.5714 21.4286C13.5714 20.5607 12.8679 19.8571 12 19.8571C16.3394 19.8571 19.8571 16.3394 19.8571 12ZM9.36666 18.0835L12.034 15.4162L14.6806 18.0628C17.0054 17.0334 18.6273 14.7061 18.6273 12C18.6273 9.31215 17.0272 6.99804 14.7276 5.95822L12.034 8.65187L9.31932 5.9372C6.99457 6.96662 5.37267 9.2939 5.37267 12C5.37267 14.7244 7.01663 17.0649 9.36666 18.0835Z" fill="black"/>
<path d="M19.8571 12C19.8571 12.8679 20.5607 13.5714 21.4286 13.5714C22.2965 13.5714 23 12.8679 23 12C23 11.1321 22.2965 10.4286 21.4286 10.4286C20.5607 10.4286 19.8571 11.1321 19.8571 12Z" fill="black"/>
</svg>
