<svg width="24" height="24" viewBox="0 0 24 24" fill="none" xmlns="http://www.w3.org/2000/svg">
<path d="M22.1871 12.591C22.0765 12.4154 22.0177 12.2121 22.0177 12.0045C22.0177 11.7969 22.0765 11.5936 22.1871 11.418L22.8299 10.393C22.9073 10.2694 22.9595 10.1318 22.9835 9.98795C23.0075 9.84412 23.0029 9.69697 22.9698 9.55496C22.9368 9.41295 22.876 9.27887 22.7909 9.16046C22.7058 9.04205 22.598 8.94163 22.474 8.86499L21.4371 8.21201C21.2605 8.10235 21.1182 7.94536 21.0262 7.75888C20.9343 7.5724 20.8965 7.36389 20.9171 7.15701L21.0421 5.957C21.0701 5.66232 20.9808 5.36847 20.7936 5.13916C20.6064 4.90985 20.3364 4.76356 20.0421 4.73199L18.8121 4.58401C18.6047 4.5597 18.4078 4.47882 18.2433 4.35025C18.0787 4.22168 17.9528 4.05037 17.879 3.85501L17.4571 2.71899C17.3519 2.44198 17.1433 2.21654 16.8754 2.08994C16.6074 1.96333 16.301 1.94544 16.0201 2.04001L14.8419 2.42902C14.643 2.49498 14.43 2.50564 14.2255 2.45984C14.021 2.41404 13.8328 2.31351 13.681 2.16901L12.7931 1.32001C12.5778 1.11582 12.2922 1.00201 11.9955 1.00201C11.6987 1.00201 11.4134 1.11582 11.1981 1.32001L10.3099 2.16901C10.158 2.31323 9.96993 2.41357 9.76549 2.45935C9.56106 2.50513 9.34799 2.49465 9.14904 2.42902L7.97106 2.04001C7.6902 1.9456 7.3836 1.96345 7.11559 2.08981C6.84758 2.21618 6.63894 2.44127 6.53307 2.71802L6.11193 3.85501C6.0383 4.05064 5.9122 4.22216 5.74743 4.35077C5.58265 4.47938 5.38574 4.56009 5.17809 4.58401L3.94909 4.733C3.65485 4.76432 3.38484 4.91041 3.19762 5.13956C3.01041 5.36871 2.9211 5.66243 2.94909 5.957L3.07409 7.15701C3.09504 7.36382 3.05745 7.57233 2.96569 7.75885C2.87393 7.94537 2.73166 8.10239 2.55504 8.21201L1.51793 8.86499C1.39389 8.94163 1.28638 9.04205 1.20128 9.16046C1.11619 9.27887 1.05517 9.41295 1.02209 9.55496C0.988999 9.69697 0.984415 9.84412 1.00841 9.98795C1.03241 10.1318 1.08458 10.2694 1.16198 10.393L1.80504 11.418C1.91572 11.5936 1.97448 11.7969 1.97448 12.0045C1.97448 12.2121 1.91572 12.4154 1.80504 12.591L1.16198 13.615C1.08442 13.7386 1.03225 13.8764 1.00817 14.0203C0.984086 14.1642 0.988505 14.3115 1.0216 14.4536C1.05469 14.5957 1.11561 14.7299 1.2008 14.8484C1.28598 14.9669 1.39375 15.0674 1.51793 15.144L2.55504 15.796C2.73166 15.9059 2.87395 16.0631 2.96569 16.2497C3.05743 16.4364 3.095 16.6451 3.07409 16.852L2.94909 18.052C2.92135 18.3466 3.01073 18.6403 3.19787 18.8696C3.38501 19.0988 3.65487 19.2452 3.94909 19.277L5.17809 19.426C5.38556 19.4501 5.58246 19.5307 5.74718 19.6591C5.91191 19.7875 6.03795 19.9587 6.11193 20.154L6.53307 21.291C6.63894 21.5677 6.84758 21.7928 7.11559 21.9192C7.3836 22.0456 7.6902 22.0634 7.97106 21.969L9.14806 21.58C9.34716 21.5143 9.5604 21.5037 9.76501 21.5495C9.96961 21.5953 10.1578 21.6957 10.3099 21.84L11.1981 22.689C11.4133 22.8931 11.6984 23.0069 11.995 23.0069C12.2916 23.0069 12.5769 22.8931 12.7921 22.689L13.68 21.84C13.8322 21.6957 14.0206 21.5953 14.2252 21.5495C14.4298 21.5037 14.6428 21.5143 14.8419 21.58L16.0189 21.969C16.2998 22.0634 16.6064 22.0456 16.8744 21.9192C17.1424 21.7928 17.3513 21.5677 17.4571 21.291L17.878 20.154C17.952 19.9587 18.0783 19.7875 18.243 19.6591C18.4078 19.5307 18.6047 19.4501 18.8121 19.426L20.0411 19.277C20.3354 19.2457 20.6054 19.0996 20.7926 18.8705C20.9798 18.6413 21.0691 18.3476 21.0411 18.053L20.9161 16.853C20.8952 16.6461 20.9328 16.4374 21.0245 16.2507C21.1163 16.0641 21.2583 15.9069 21.4349 15.797L22.472 15.145C22.5962 15.0683 22.704 14.9679 22.7892 14.8494C22.8744 14.7309 22.9353 14.5967 22.9684 14.4546C23.0015 14.3125 23.0061 14.1652 22.982 14.0213C22.958 13.8774 22.9056 13.7396 22.828 13.616L22.1871 12.591ZM11.9769 20.548C9.67088 20.5699 7.45056 19.6752 5.80382 18.0608C4.15709 16.4463 3.21869 14.244 3.19494 11.938C3.21895 9.63214 4.1576 7.43016 5.80431 5.81589C7.45102 4.20162 9.67105 3.30715 11.9769 3.32901C14.283 3.30688 16.5036 4.20125 18.1505 5.81555C19.7974 7.42985 20.7361 9.63196 20.7601 11.938C20.7353 14.2435 19.7964 16.4449 18.1495 18.0585C16.5027 19.6722 14.2824 20.5661 11.9769 20.544V20.548Z" fill="black"/>
<path d="M16.2911 13.754C14.9911 15.695 12.7589 16.175 12.4969 15.087C12.2349 13.999 15.07 14.287 15.474 13.328C15.5583 13.1438 15.586 12.9386 15.5533 12.7386C15.5207 12.5386 15.4292 12.3529 15.2906 12.205C15.1521 12.0571 14.9727 11.9538 14.7752 11.9082C14.5778 11.8627 14.3713 11.8768 14.182 11.949C13.382 12.175 12.2961 12.84 12.7621 11.813C13.2281 10.786 15.8911 11.042 15.5211 9.41301C15.1511 7.78401 13.36 9.85401 12.94 9.58101C12.565 9.33801 12.8709 8.88103 13.3499 8.30003C14.2809 7.30003 15.2499 7.38201 15.3709 6.50001C15.4919 5.61801 14.7359 4.83402 13.4859 5.03102C12.2359 5.22802 12.2569 6.55901 11.5999 6.50001C10.9429 6.44101 11.338 4.93301 10.4 4.62001C10.2175 4.54056 10.0193 4.50325 9.8204 4.51082C9.62147 4.51838 9.4268 4.57063 9.25082 4.66371C9.07484 4.75679 8.92201 4.88829 8.8038 5.04847C8.68559 5.20866 8.60502 5.3934 8.56796 5.589C8.53648 5.78623 8.55082 5.98808 8.60995 6.17884C8.66909 6.36961 8.77151 6.54417 8.90903 6.68901C8.07424 6.93758 7.32133 7.40562 6.72909 8.04429C6.13686 8.68297 5.72705 9.46888 5.54208 10.32C4.96177 12.4281 5.13869 14.6729 6.04208 16.664C5.89211 14.4017 6.47476 12.1512 7.70395 10.246C9.00395 8.30501 11.2359 7.82501 11.4979 8.91301C11.7599 10.001 8.92511 9.71301 8.52011 10.672C8.4363 10.8563 8.4089 11.0613 8.44174 11.261C8.47458 11.4607 8.56604 11.6462 8.70444 11.7939C8.84283 11.9416 9.02191 12.0449 9.21908 12.0907C9.41626 12.1365 9.62279 12.1226 9.8121 12.051C10.6121 11.825 11.698 11.16 11.232 12.187C10.766 13.214 8.10299 12.958 8.47299 14.587C8.84299 16.216 10.634 14.147 11.055 14.419C11.429 14.662 11.1229 15.119 10.6439 15.699C9.71289 16.699 8.74411 16.618 8.62411 17.499C8.50411 18.38 9.2589 19.164 10.5079 18.968C11.7569 18.772 11.7379 17.44 12.3939 17.499C13.0499 17.558 12.6561 19.066 13.5941 19.379C13.7766 19.4585 13.9746 19.4958 14.1734 19.4883C14.3723 19.4808 14.5668 19.4286 14.7428 19.3357C14.9187 19.2427 15.0715 19.1113 15.1898 18.9512C15.3081 18.7912 15.3889 18.6065 15.4261 18.411C15.4571 18.2139 15.4426 18.0123 15.3836 17.8216C15.3247 17.6309 15.2229 17.4563 15.086 17.311C15.9206 17.0622 16.6729 16.5941 17.265 15.9554C17.857 15.3168 18.267 14.531 18.452 13.68C19.0328 11.572 18.8559 9.32702 17.952 7.33601C18.1022 9.59823 17.5199 11.8487 16.2911 13.754Z" fill="black"/>
</svg>
