<svg width="24" height="24" viewBox="0 0 24 24" fill="none" xmlns="http://www.w3.org/2000/svg">
<path d="M22.96 17.105C22.9032 16.7234 22.7252 16.3703 22.4525 16.0975C22.1797 15.8247 21.8265 15.6468 21.445 15.59C21.0121 15.5199 20.5693 15.541 20.145 15.652C19.643 15.7776 19.1624 15.9771 18.719 16.244C18.589 16.322 18.462 16.405 18.337 16.491L13.845 11.999L18.337 7.50796C18.461 7.59396 18.588 7.67696 18.718 7.75496C19.1618 8.02194 19.6427 8.22178 20.145 8.34796C20.5694 8.45859 21.0122 8.47937 21.445 8.40896C21.8265 8.3521 22.1797 8.17417 22.4525 7.90141C22.7252 7.62865 22.9032 7.27549 22.96 6.89396C23.0301 6.46104 23.009 6.01825 22.898 5.59396C22.7717 5.09184 22.5723 4.61102 22.306 4.16696C21.6978 3.15168 20.8483 2.30223 19.833 1.69397C19.389 1.42772 18.9081 1.22824 18.406 1.10196C17.9817 0.991021 17.5389 0.969907 17.106 1.03996C16.7245 1.09682 16.3713 1.27474 16.0986 1.5475C15.8258 1.82026 15.6479 2.17343 15.591 2.55496C15.521 2.98789 15.5421 3.43067 15.653 3.85496C15.7793 4.35709 15.9788 4.83791 16.245 5.28197C16.323 5.41197 16.406 5.53896 16.492 5.66296L12.001 10.155L7.51002 5.66296C7.59602 5.53896 7.67902 5.41197 7.75602 5.28197C8.023 4.83815 8.22282 4.35728 8.34902 3.85496C8.45995 3.43067 8.48108 2.98789 8.41102 2.55496C8.35416 2.17343 8.17624 1.82026 7.90348 1.5475C7.63072 1.27474 7.27755 1.09682 6.89602 1.03996C6.4631 0.969907 6.02031 0.991021 5.59602 1.10196C5.09371 1.22815 4.61284 1.42799 4.16902 1.69496C3.15335 2.30228 2.30375 3.15153 1.69602 4.16696C1.42977 4.61102 1.23031 5.09184 1.10402 5.59396C0.993086 6.01825 0.971964 6.46104 1.04202 6.89396C1.09888 7.27549 1.2768 7.62865 1.54956 7.90141C1.82232 8.17417 2.17549 8.3521 2.55702 8.40896C2.9899 8.47885 3.43258 8.45807 3.85702 8.34796C4.35893 8.2215 4.83944 8.02168 5.28302 7.75496C5.41402 7.67696 5.54002 7.59396 5.66502 7.50796L10.157 11.999L5.66502 16.491C5.54002 16.405 5.41302 16.322 5.28302 16.244C4.83935 15.9769 4.35841 15.7774 3.85602 15.652C3.43175 15.5409 2.98893 15.5198 2.55602 15.59C2.17431 15.6466 1.82092 15.8245 1.54796 16.0972C1.27501 16.37 1.09694 16.7233 1.04002 17.105C0.969965 17.5379 0.991087 17.9807 1.10202 18.405C1.22822 18.9073 1.42805 19.3882 1.69502 19.832C2.30302 20.8475 3.15253 21.697 4.16802 22.305C4.61199 22.5714 5.09283 22.7709 5.59502 22.897C6.01929 23.008 6.4621 23.0291 6.89502 22.959C7.27673 22.9023 7.63012 22.7245 7.90308 22.4517C8.17604 22.1789 8.3541 21.8256 8.41102 21.444C8.48108 21.011 8.45995 20.5683 8.34902 20.144C8.22282 19.6417 8.023 19.1608 7.75602 18.717C7.67802 18.587 7.59502 18.46 7.50902 18.336L12.001 13.844L16.493 18.336C16.407 18.46 16.323 18.587 16.246 18.717C15.979 19.1608 15.7792 19.6416 15.653 20.144C15.5421 20.5683 15.521 21.011 15.591 21.444C15.6479 21.8256 15.826 22.1789 16.099 22.4517C16.3719 22.7245 16.7253 22.9023 17.107 22.959C17.5399 23.0291 17.9827 23.008 18.407 22.897C18.9092 22.7709 19.3901 22.5714 19.834 22.305C20.8495 21.697 21.699 20.8475 22.307 19.832C22.5736 19.3879 22.7734 18.9071 22.9 18.405C23.0108 17.9806 23.0312 17.5377 22.96 17.105ZM21.305 18.839C21.1469 19.4299 20.836 19.9688 20.4034 20.4014C19.9709 20.8339 19.432 21.1449 18.841 21.303C18.6185 21.3848 18.3773 21.4013 18.1458 21.3504C17.9142 21.2994 17.7021 21.1833 17.5346 21.0156C17.367 20.8479 17.251 20.6357 17.2002 20.4042C17.1494 20.1726 17.166 19.9314 17.248 19.709C17.3717 19.2122 17.6116 18.7519 17.948 18.366L17.955 18.359L12.005 12.409L6.05502 18.359L6.06202 18.366C6.39805 18.7521 6.63792 19.2123 6.76202 19.709C6.84404 19.9314 6.86065 20.1726 6.80986 20.4042C6.75908 20.6357 6.64304 20.8479 6.47547 21.0156C6.30789 21.1833 6.0958 21.2994 5.86428 21.3504C5.63275 21.4013 5.39149 21.3848 5.16902 21.303C4.57823 21.1449 4.03948 20.834 3.60694 20.4017C3.17441 19.9693 2.86334 19.4307 2.70502 18.84C2.62287 18.6174 2.60621 18.376 2.65702 18.1443C2.70782 17.9126 2.82397 17.7004 2.9917 17.5326C3.15942 17.3649 3.37171 17.2488 3.6034 17.198C3.8351 17.1471 4.0765 17.1638 4.29902 17.246C4.79622 17.3693 5.25692 17.6093 5.64302 17.946L5.64802 17.952L11.598 12.001L5.64902 6.05195L5.64202 6.05896C5.25636 6.39516 4.79643 6.63506 4.30002 6.75896C4.0775 6.84111 3.8361 6.85777 3.6044 6.80696C3.37271 6.75615 3.16042 6.64001 2.99269 6.47229C2.82497 6.30456 2.70882 6.09227 2.65802 5.86058C2.60721 5.62888 2.62387 5.38748 2.70602 5.16496C2.86425 4.57435 3.17517 4.0358 3.60752 3.60345C4.03987 3.1711 4.57842 2.86019 5.16902 2.70196C5.39155 2.61981 5.63295 2.60315 5.86464 2.65396C6.09634 2.70477 6.30862 2.8209 6.47634 2.98863C6.64407 3.15636 6.76022 3.36864 6.81102 3.60034C6.86183 3.83204 6.84517 4.07344 6.76302 4.29596C6.63942 4.79307 6.3995 5.25373 6.06302 5.63997V5.64596L12.013 11.596L17.962 5.64696L17.956 5.64096C17.6193 5.25485 17.3794 4.79416 17.256 4.29696C17.1739 4.07444 17.1572 3.83304 17.208 3.60135C17.2588 3.36965 17.375 3.15736 17.5427 2.98964C17.7104 2.82191 17.9227 2.70576 18.1544 2.65495C18.3861 2.60414 18.6275 2.6208 18.85 2.70296C19.4406 2.86119 19.9792 3.17211 20.4115 3.60446C20.8439 4.03681 21.1548 4.57536 21.313 5.16597C21.3952 5.38849 21.4118 5.62989 21.361 5.86159C21.3102 6.09328 21.1941 6.30555 21.0263 6.47328C20.8586 6.64101 20.6463 6.75716 20.4146 6.80797C20.1829 6.85877 19.9415 6.84211 19.719 6.75996C19.2224 6.63586 18.7622 6.39599 18.376 6.05997L18.369 6.05296L12.419 12.003L18.37 17.953L18.375 17.947C18.7618 17.6107 19.2227 17.3709 19.72 17.247C19.9424 17.1649 20.1837 17.1483 20.4152 17.1991C20.6468 17.2499 20.859 17.3659 21.0266 17.5335C21.1943 17.7011 21.3105 17.9132 21.3614 18.1447C21.4124 18.3762 21.3959 18.6175 21.314 18.84L21.305 18.839Z" fill="black"/>
</svg>
