<svg width="24" height="24" viewBox="0 0 24 24" fill="none" xmlns="http://www.w3.org/2000/svg">
<path d="M16.943 15.5002C16.811 15.3912 16.45 15.5741 15.736 16.3381C15.022 17.1021 15.321 17.2441 14.689 17.8801C14.2841 18.2677 13.8203 18.5887 13.3149 18.831C12.9748 18.2762 12.6715 17.6998 12.407 17.1052C13.0951 16.9854 13.7472 16.7119 14.3149 16.3051C14.8219 15.8541 14.7549 15.305 14.9239 14.873C15.1119 14.395 15.5569 14.1582 15.3749 13.9792C15.2659 13.8712 14.929 14.0041 14.236 14.6281C13.543 15.2521 13.7979 15.4032 13.1859 15.9182C12.8752 16.1654 12.5349 16.3729 12.173 16.5361C11.9569 15.9778 11.7932 15.4008 11.684 14.8122C11.6646 14.7035 11.6476 14.5938 11.6329 14.4831C12.2994 14.4709 12.9532 14.2994 13.5399 13.9831C14.0399 13.6391 14.0399 13.1411 14.2329 12.7771C14.4499 12.3771 14.8719 12.2122 14.7329 12.0322C14.6469 11.9242 14.3329 12.0042 13.6499 12.4802C12.9669 12.9562 13.178 13.1202 12.58 13.5092C12.2699 13.6986 11.9369 13.8473 11.589 13.9521C11.5518 13.1797 11.5853 12.4055 11.689 11.6391C12.2673 11.6952 12.8507 11.6101 13.3889 11.3911C13.8469 11.1431 13.889 10.7161 14.089 10.4211C14.311 10.0951 14.689 9.99608 14.579 9.82808C14.515 9.72808 14.239 9.76604 13.611 10.111C12.983 10.456 13.1499 10.611 12.6029 10.893C12.3313 11.0214 12.0447 11.1155 11.7499 11.1731C11.8339 10.5981 11.9409 10.019 12.0549 9.44405C12.5666 9.48143 13.08 9.39994 13.5549 9.20601C13.9819 8.97501 14.0209 8.57611 14.2069 8.30611C14.4139 8.00611 14.7639 7.90611 14.6639 7.75411C14.6039 7.66011 14.3469 7.69702 13.7639 8.01802C13.1809 8.33903 13.3349 8.48803 12.8249 8.74703C12.6101 8.84831 12.3852 8.92688 12.1539 8.98116C12.2699 8.41616 12.388 7.85922 12.496 7.32222C13.0161 7.38429 13.5434 7.31369 14.0289 7.11715C14.4289 6.90315 14.4609 6.53301 14.6289 6.27901C14.8209 5.99701 15.145 5.91205 15.053 5.76705C14.997 5.68005 14.7589 5.71419 14.2169 6.01119C13.6749 6.30819 13.8169 6.44721 13.3459 6.68721C13.0983 6.80408 12.8363 6.88812 12.5669 6.93721C12.6729 6.38321 12.7669 5.85307 12.8199 5.36007C13.2934 5.25069 13.7335 5.02878 14.1029 4.71309C14.4029 4.39809 14.329 4.05102 14.413 3.76802C14.506 3.45302 14.7769 3.27703 14.6509 3.17403C14.5759 3.11203 14.3689 3.21606 13.9619 3.65206C13.5549 4.08806 13.7249 4.16918 13.3619 4.53218C13.2089 4.67761 13.0414 4.80695 12.8619 4.91817C12.8983 4.5102 12.8906 4.09939 12.839 3.69307C12.825 3.59907 12.8099 3.50812 12.7939 3.42012C13.1755 3.23767 13.5121 2.97349 13.7799 2.6462C14.0089 2.3002 13.8859 1.98821 13.9199 1.70821C13.9579 1.39721 14.1829 1.18611 14.0489 1.10811C13.9689 1.06311 13.792 1.19605 13.48 1.67305C13.168 2.15005 13.3399 2.19808 13.0609 2.59908C12.9554 2.74086 12.8377 2.87306 12.709 2.9941C12.271 1.0771 11.452 0.908232 11.209 1.03023C10.964 1.40023 11.9569 1.81023 12.2239 3.53023C12.0067 3.58732 11.7824 3.61254 11.558 3.60518C11.142 3.57818 11.2059 3.4232 10.7219 3.3752C10.2379 3.3272 10.0549 3.37502 10.0409 3.46602C10.0179 3.60902 10.2789 3.5662 10.5029 3.7192C10.7029 3.8572 10.842 4.13004 11.194 4.16304C11.569 4.15369 11.9361 4.0535 12.2639 3.87105C12.2933 4.22137 12.2949 4.57345 12.2689 4.92403C12.2569 5.10003 12.2403 5.27338 12.219 5.44405C11.9884 5.52193 11.7472 5.56439 11.5039 5.57003C11.0719 5.57003 11.129 5.40113 10.626 5.37813C10.123 5.35513 9.9359 5.42119 9.9259 5.51119C9.9089 5.66019 10.177 5.60103 10.418 5.74703C10.634 5.87903 10.791 6.15417 11.157 6.16817C11.5094 6.14159 11.8513 6.03555 12.157 5.85811C12.0513 6.4983 11.9121 7.13241 11.74 7.75802C11.4408 7.82725 11.1316 7.84328 10.8269 7.80513C10.3639 7.73213 10.449 7.56512 9.91296 7.46212C9.37696 7.35912 9.16596 7.4001 9.14196 7.4941C9.10196 7.6521 9.39888 7.63015 9.63488 7.82515C9.84788 8.00115 9.97594 8.31905 10.3669 8.39205C10.8016 8.4205 11.2365 8.33985 11.632 8.15719C11.483 8.70619 11.3269 9.26217 11.1859 9.84517C10.8573 9.87442 10.5263 9.8535 10.204 9.78316C9.63698 9.64116 9.76088 9.44311 9.10388 9.25411C8.44688 9.06511 8.18392 9.09323 8.14392 9.20723C8.07792 9.39823 8.44392 9.40705 8.72192 9.67305C8.96792 9.91505 9.09392 10.3262 9.57092 10.4602C10.0731 10.5409 10.5873 10.5009 11.0709 10.3432C10.9142 11.049 10.8057 11.7645 10.746 12.4851C10.3847 12.4868 10.0255 12.4291 9.68298 12.3142C9.12798 12.1082 9.27191 11.9231 8.63391 11.6621C7.99591 11.4011 7.72692 11.3992 7.67492 11.5102C7.58992 11.6952 7.96091 11.7422 8.20691 12.0412C8.42891 12.3112 8.51388 12.741 8.97888 12.925C9.54885 13.0781 10.1495 13.0752 10.7179 12.9162C10.7029 13.2162 10.6959 13.5161 10.7009 13.8361C10.7009 14.2151 10.7269 14.5761 10.7599 14.9231C10.3231 14.9282 9.88847 14.8607 9.47387 14.7231C8.80987 14.4771 8.98299 14.2561 8.21899 13.9431C7.45499 13.6301 7.1329 13.6282 7.0719 13.7612C6.9719 13.9822 7.41398 14.0392 7.70898 14.3972C7.97498 14.7202 8.07593 15.2301 8.63293 15.4541C9.34973 15.647 10.1067 15.6315 10.8149 15.4091C10.9234 16.1965 11.0905 16.9746 11.3149 17.737C10.8054 17.7692 10.294 17.7184 9.8009 17.5861C9.0299 17.3541 9.21187 17.1041 8.32287 16.8051C7.43387 16.5061 7.06798 16.5202 7.00598 16.6682C6.90598 16.9142 7.41299 16.9512 7.77099 17.3252C8.09399 17.6622 8.24189 18.211 8.88989 18.425C9.74698 18.6067 10.6383 18.5373 11.4569 18.2251C11.6509 18.8681 11.857 19.4941 12.043 20.1381C11.4831 20.2499 10.9084 20.2671 10.3429 20.1892C9.48089 20.0462 9.64294 19.7541 8.64294 19.5551C7.64294 19.3561 7.25088 19.4211 7.20288 19.5881C7.12388 19.8651 7.67789 19.8362 8.11389 20.1882C8.50589 20.5042 8.73589 21.0711 9.46289 21.2121C10.4023 21.2866 11.3438 21.0967 12.1809 20.664C12.3727 21.3774 12.5065 22.1051 12.5809 22.84C12.5826 22.8641 12.5892 22.8876 12.6003 22.9089C12.6115 22.9302 12.6271 22.949 12.6459 22.9641C12.6647 22.9791 12.6863 22.9901 12.7096 22.9963C12.7328 23.0025 12.7571 23.0039 12.7809 23.0002C13.6788 22.6818 14.5952 22.418 15.5249 22.2102C15.5576 22.206 15.5886 22.1927 15.6144 22.1721C15.6401 22.1514 15.6596 22.1243 15.6708 22.0932C15.6819 22.0622 15.6843 22.0286 15.6776 21.9963C15.6709 21.964 15.6555 21.9342 15.6329 21.9101C14.8994 21.1109 14.2306 20.2545 13.6329 19.3491C14.4968 19.1667 15.3012 18.7711 15.9729 18.1982C16.4949 17.6452 16.3729 17.0392 16.5149 16.5422C16.6889 15.9892 17.163 15.6812 16.943 15.5002Z" fill="black"/>
</svg>
