<svg xmlns="http://www.w3.org/2000/svg" width="24" height="24" viewBox="0 0 24 24">
  <g id="nyame-nti" transform="translate(-473 -311)">
    <rect id="Rectangle_149" data-name="Rectangle 149" width="24" height="24" transform="translate(473 311)" fill="none"/>
    <path id="Path_449" data-name="Path 449" d="M2038.008,3283.111c-.132-.109-.493.074-1.207.838s-.415.906-1.047,1.542a5.3,5.3,0,0,1-1.374.951,14.856,14.856,0,0,1-.908-1.726,4.643,4.643,0,0,0,1.908-.8c.507-.451.44-1,.609-1.432.188-.478.633-.715.451-.894-.109-.108-.446.025-1.139.649s-.438.775-1.05,1.29a4.791,4.791,0,0,1-1.013.618,9.667,9.667,0,0,1-.489-1.724q-.029-.163-.051-.329a4.18,4.18,0,0,0,1.907-.5c.5-.344.5-.842.693-1.206.217-.4.639-.565.5-.745-.086-.108-.4-.028-1.083.448s-.472.64-1.07,1.029a4.258,4.258,0,0,1-.991.443,12.7,12.7,0,0,1,.1-2.313,3.591,3.591,0,0,0,1.7-.248c.458-.248.5-.675.7-.97.222-.326.6-.425.49-.593-.064-.1-.34-.062-.968.283s-.461.5-1.008.782a3.621,3.621,0,0,1-.853.28c.084-.575.191-1.154.305-1.729a3.327,3.327,0,0,0,1.5-.238c.427-.231.466-.63.652-.9.207-.3.557-.4.457-.552-.06-.094-.317-.057-.9.264s-.429.47-.939.729a3.391,3.391,0,0,1-.671.234c.116-.565.234-1.122.342-1.659a3.105,3.105,0,0,0,1.533-.205c.4-.214.432-.584.6-.838.192-.282.516-.367.424-.512-.056-.087-.294-.053-.836.244s-.4.436-.871.676a3.148,3.148,0,0,1-.779.25c.106-.554.2-1.084.253-1.577a3.022,3.022,0,0,0,1.283-.647c.3-.315.226-.662.31-.945.093-.315.364-.491.238-.594-.075-.062-.282.042-.689.478s-.237.517-.6.88a3.086,3.086,0,0,1-.5.386,5.7,5.7,0,0,0-.023-1.225c-.014-.094-.029-.185-.045-.273a2.879,2.879,0,0,0,.986-.774c.229-.346.106-.658.14-.938.038-.311.263-.522.129-.6-.08-.045-.257.088-.569.565s-.14.525-.419.926a3,3,0,0,1-.352.395c-.438-1.917-1.257-2.086-1.5-1.964-.245.37.748.78,1.015,2.5a2.321,2.321,0,0,1-.666.075c-.416-.027-.352-.182-.836-.23s-.667,0-.681.091c-.023.143.238.1.462.253.2.138.339.411.691.444a2.319,2.319,0,0,0,1.07-.292,6.684,6.684,0,0,1,.005,1.053q-.018.264-.05.52a2.409,2.409,0,0,1-.715.126c-.432,0-.375-.169-.878-.192s-.69.043-.7.133c-.017.149.251.09.492.236.216.132.373.407.739.421a2.343,2.343,0,0,0,1-.31,18.562,18.562,0,0,1-.417,1.9,2.611,2.611,0,0,1-.913.047c-.463-.073-.378-.24-.914-.343s-.747-.062-.771.032c-.04.158.257.136.493.331.213.176.341.494.732.567a2.61,2.61,0,0,0,1.265-.235c-.149.549-.305,1.105-.446,1.688a3.253,3.253,0,0,1-.982-.062c-.567-.142-.443-.34-1.1-.529s-.92-.161-.96-.047c-.066.191.3.2.578.466.246.242.372.653.849.787a3.2,3.2,0,0,0,1.5-.117,15.967,15.967,0,0,0-.325,2.142,3.293,3.293,0,0,1-1.063-.171c-.555-.206-.411-.391-1.049-.652s-.907-.263-.959-.152c-.085.185.286.232.532.531.222.27.307.7.772.884a3.288,3.288,0,0,0,1.739-.009c-.015.3-.022.6-.017.92,0,.379.026.74.059,1.087a3.935,3.935,0,0,1-1.286-.2c-.664-.246-.491-.467-1.255-.78s-1.086-.315-1.147-.182c-.1.221.342.278.637.636.266.323.367.833.924,1.057a3.9,3.9,0,0,0,2.182-.045,15.96,15.96,0,0,0,.5,2.328,4.7,4.7,0,0,1-1.514-.151c-.771-.232-.589-.482-1.478-.781s-1.255-.285-1.317-.137c-.1.246.407.283.765.657.323.337.471.886,1.119,1.1a4.554,4.554,0,0,0,2.567-.2c.194.643.4,1.269.586,1.913a5.116,5.116,0,0,1-1.7.051c-.862-.143-.7-.435-1.7-.634s-1.392-.134-1.44.033c-.079.277.475.248.911.6.392.316.622.883,1.349,1.024a5.05,5.05,0,0,0,2.718-.548,13.687,13.687,0,0,1,.4,2.176.174.174,0,0,0,.2.16,23.652,23.652,0,0,1,2.744-.79.179.179,0,0,0,.108-.3,20.447,20.447,0,0,1-2-2.561,5.29,5.29,0,0,0,2.34-1.151c.522-.553.4-1.159.542-1.656C2037.754,3283.6,2038.228,3283.292,2038.008,3283.111Z" transform="translate(-1548.065 -2956.611)"/>
  </g>
</svg>
