<svg width="24" height="24" viewBox="0 0 24 24" fill="none" xmlns="http://www.w3.org/2000/svg">
<path d="M16 1C14.464 1 13.062 2.05899 12 3.79999C10.939 2.05799 9.53701 1 8.00001 1C4.68701 1 2 5.924 2 12C2 18.076 4.68701 23 8.00001 23C9.53701 23 10.939 21.94 12 20.2C13.062 21.942 14.464 23 16 23C19.314 23 22 18.075 22 12C22 5.925 19.314 1 16 1ZM8.04 21.13C6.871 21.124 6.087 19.548 5.496 17.177C4.56802 13.7755 4.56802 10.1875 5.496 6.786C6.087 4.415 6.87 2.83999 8.04 2.83299C9.21 2.82599 10.714 4.554 10.65 7.215C10.586 9.876 7.83 11.98 7.828 11.982C7.826 11.984 10.585 14.082 10.65 16.748C10.715 19.414 9.21 21.137 8.04 21.13ZM18.623 17.177C18.032 19.548 17.248 21.124 16.079 21.131C14.91 21.138 13.404 19.41 13.469 16.748C13.534 14.086 16.29 11.982 16.29 11.982C16.29 11.982 13.533 9.876 13.469 7.215C13.405 4.554 14.909 2.82599 16.079 2.83299C17.249 2.83999 18.032 4.415 18.623 6.786C19.551 10.1875 19.551 13.7755 18.623 17.177Z" fill="black"/>
</svg>
