<svg xmlns="http://www.w3.org/2000/svg" width="24" height="24" viewBox="0 0 24 24">
  <g id="nyame-dua" transform="translate(-473 -215)">
    <rect id="Rectangle_149" data-name="Rectangle 149" width="24" height="24" transform="translate(473 215)" fill="none"/>
    <path id="Path_228" data-name="Path 228" d="M-489.576,386.062a4.536,4.536,0,0,0,1.4-1.866,3.086,3.086,0,0,0-.281-2.821,2.638,2.638,0,0,0-2.154-1.179,6.539,6.539,0,0,0-3.568,1.086,6.539,6.539,0,0,0,1.086-3.568,2.638,2.638,0,0,0-1.179-2.154,3.086,3.086,0,0,0-2.822-.281,4.538,4.538,0,0,0-1.866,1.4,4.537,4.537,0,0,0-1.866-1.4,3.086,3.086,0,0,0-2.822.281,2.638,2.638,0,0,0-1.179,2.154,6.539,6.539,0,0,0,1.086,3.567,6.539,6.539,0,0,0-3.567-1.086,2.638,2.638,0,0,0-2.154,1.179,3.086,3.086,0,0,0-.281,2.822,4.537,4.537,0,0,0,1.4,1.866,4.539,4.539,0,0,0-1.4,1.866,3.086,3.086,0,0,0,.281,2.822,2.637,2.637,0,0,0,2.154,1.179,6.539,6.539,0,0,0,3.567-1.086,6.539,6.539,0,0,0-1.086,3.568,2.638,2.638,0,0,0,1.179,2.154,3.086,3.086,0,0,0,2.822.281,4.537,4.537,0,0,0,1.866-1.4,4.538,4.538,0,0,0,1.866,1.4,3.086,3.086,0,0,0,2.822-.281,2.638,2.638,0,0,0,1.179-2.154,6.539,6.539,0,0,0-1.086-3.568,6.54,6.54,0,0,0,3.568,1.086,2.638,2.638,0,0,0,2.154-1.179,3.086,3.086,0,0,0,.281-2.821A4.536,4.536,0,0,0-489.576,386.062Zm-13.983-8.276a1.367,1.367,0,0,1,.595-1.154,1.8,1.8,0,0,1,1.689-.165,3.68,3.68,0,0,1,1.8,1.706v.513h-.669a.149.149,0,0,0-.149.149v.743a.149.149,0,0,0,.149.149h.669v.669a.149.149,0,0,0,.149.149h.743a.149.149,0,0,0,.149-.149v-.669h.669a.149.149,0,0,0,.149-.149v-.743a.149.149,0,0,0-.149-.149h-.669v-.512a3.68,3.68,0,0,1,1.8-1.707,1.8,1.8,0,0,1,1.689.165,1.37,1.37,0,0,1,.595,1.154c.081,1.454-1.106,4.031-4.6,7.067C-502.453,381.817-503.64,379.239-503.559,377.786Zm-3.677,12.876a1.37,1.37,0,0,1-1.154-.595,1.8,1.8,0,0,1-.165-1.689,3.68,3.68,0,0,1,1.707-1.8h.512v.669a.149.149,0,0,0,.149.149h.743a.149.149,0,0,0,.149-.149v-.669h.669a.149.149,0,0,0,.149-.149v-.743a.149.149,0,0,0-.149-.149h-.669v-.669a.149.149,0,0,0-.149-.149h-.743a.149.149,0,0,0-.149.149v.669h-.513a3.68,3.68,0,0,1-1.706-1.8,1.8,1.8,0,0,1,.165-1.689,1.367,1.367,0,0,1,1.155-.595c1.453-.082,4.031,1.106,7.067,4.6C-503.205,389.556-505.783,390.743-507.236,390.662Zm12.876,3.677a1.37,1.37,0,0,1-.595,1.154,1.8,1.8,0,0,1-1.689.165,3.68,3.68,0,0,1-1.8-1.707v-.512h.669a.149.149,0,0,0,.149-.149v-.743a.149.149,0,0,0-.149-.149h-.669v-.669a.149.149,0,0,0-.149-.149h-.743a.149.149,0,0,0-.149.149v.669h-.669a.149.149,0,0,0-.149.149v.743a.149.149,0,0,0,.149.149h.669v.513a3.68,3.68,0,0,1-1.8,1.706,1.8,1.8,0,0,1-1.689-.165,1.367,1.367,0,0,1-.595-1.155c-.082-1.453,1.106-4.031,4.6-7.067C-495.466,390.308-494.279,392.885-494.36,394.339Zm4.831-4.272a1.37,1.37,0,0,1-1.154.595c-1.453.081-4.031-1.106-7.067-4.6,3.037-3.493,5.614-4.681,7.067-4.6a1.367,1.367,0,0,1,1.154.595,1.8,1.8,0,0,1,.165,1.688,3.68,3.68,0,0,1-1.707,1.8h-.512v-.669a.149.149,0,0,0-.149-.149h-.743a.149.149,0,0,0-.149.149v.669h-.669a.149.149,0,0,0-.149.149v.743a.149.149,0,0,0,.149.149h.669v.669a.149.149,0,0,0,.149.149h.743a.149.149,0,0,0,.149-.149v-.669h.512a3.681,3.681,0,0,1,1.707,1.8A1.8,1.8,0,0,1-489.529,390.067Z" transform="translate(983.96 -159.063)"/>
  </g>
</svg>
