<svg width="24" height="24" viewBox="0 0 24 24" fill="none" xmlns="http://www.w3.org/2000/svg">
<path d="M18 9.733C17.9394 8.60742 17.5175 7.53137 16.797 6.66454C16.0764 5.7977 15.0956 5.18629 14 4.92101V1.50801C13.9993 1.44047 13.9854 1.37372 13.9589 1.3116C13.9323 1.24948 13.8938 1.1932 13.8455 1.146C13.7972 1.0988 13.74 1.06162 13.6773 1.03656C13.6146 1.01151 13.5475 0.999078 13.48 1C13.4125 0.99921 13.3455 1.01174 13.2828 1.03684C13.2202 1.06194 13.1631 1.09913 13.1148 1.1463C13.0665 1.19348 13.028 1.24969 13.0014 1.31175C12.9749 1.37382 12.9608 1.44051 12.96 1.50801V9.80802C12.9613 9.92866 13.0051 10.045 13.0838 10.1365C13.1625 10.2279 13.2709 10.2887 13.39 10.308L13.483 10.331C14.526 10.5782 15.4609 11.1564 16.148 11.979C15.4624 12.8047 14.5271 13.3855 13.483 13.634L13.406 13.653C13.2833 13.6694 13.1707 13.7295 13.0887 13.8222C13.0068 13.915 12.9611 14.0342 12.96 14.158V18.212C12.3238 18.3153 11.6752 18.3153 11.039 18.212V14.157C11.0383 14.0437 11 13.9338 10.9301 13.8446C10.8603 13.7554 10.7628 13.6919 10.653 13.664H10.646L10.523 13.634C9.47873 13.3852 8.54329 12.8045 7.857 11.979C8.54447 11.1563 9.47974 10.5782 10.523 10.331L10.646 10.301C10.7576 10.2748 10.8571 10.2118 10.9285 10.1222C11 10.0326 11.0392 9.9216 11.04 9.80701V1.50701C11.0393 1.43947 11.0254 1.37272 10.9989 1.31059C10.9723 1.24847 10.9338 1.19221 10.8855 1.14501C10.8372 1.09781 10.78 1.06061 10.7173 1.03556C10.6546 1.0105 10.5875 0.998086 10.52 0.999011C10.4525 0.998218 10.3855 1.01073 10.3228 1.03583C10.2602 1.06093 10.2031 1.09812 10.1548 1.1453C10.1065 1.19247 10.068 1.2487 10.0414 1.31076C10.0149 1.37282 10.0008 1.43951 10 1.50701V4.92002C8.90452 5.18544 7.92378 5.7969 7.20325 6.6637C6.48271 7.5305 6.06077 8.60648 6 9.73201C6.00165 10.5209 6.21063 11.2954 6.606 11.978C6.21068 12.6581 6.00165 13.4304 6 14.217C6.06122 15.3411 6.48357 16.4154 7.20424 17.2802C7.92491 18.145 8.90541 18.7541 10 19.017V22.492C10 22.6299 10.0548 22.7622 10.1523 22.8597C10.2498 22.9572 10.3821 23.012 10.52 23.012C10.6579 23.012 10.7902 22.9572 10.8877 22.8597C10.9852 22.7622 11.04 22.6299 11.04 22.492V19.243C11.3594 19.2872 11.6815 19.3096 12.004 19.31C12.3241 19.3099 12.6439 19.2879 12.961 19.244V22.49C12.961 22.6279 13.0158 22.7602 13.1133 22.8577C13.2108 22.9552 13.3431 23.01 13.481 23.01C13.6189 23.01 13.7512 22.9552 13.8487 22.8577C13.9462 22.7602 14.001 22.6279 14.001 22.49V19.019C15.0954 18.7557 16.0756 18.1464 16.7962 17.2817C17.5168 16.417 17.9393 15.3429 18.001 14.219C17.9988 13.4322 17.7891 12.6599 17.393 11.98C17.7892 11.2973 17.9986 10.5223 18 9.733ZM7.04 9.733C7.08886 8.88166 7.39899 8.06607 7.92813 7.39736C8.45727 6.72864 9.1797 6.2393 9.997 5.996V9.41901C8.96903 9.71268 8.03736 10.2738 7.297 11.045C7.12688 10.6285 7.03958 10.1829 7.04 9.733ZM7.04 14.218C7.04051 13.772 7.12816 13.3304 7.298 12.918C8.0378 13.6915 8.96945 14.255 9.998 14.551V17.943C9.18147 17.7021 8.45918 17.2151 7.92977 16.5484C7.40036 15.8817 7.08962 15.0679 7.04 14.218ZM13.997 9.418V5.99701C14.8155 6.23915 15.5393 6.72801 16.0696 7.39684C16.5999 8.06567 16.9109 8.88187 16.96 9.73401C16.9595 10.1849 16.8705 10.6314 16.698 11.048C15.9578 10.275 15.0258 9.71319 13.997 9.418ZM16.96 14.218C16.9098 15.0684 16.5982 15.8826 16.0679 16.5493C15.5375 17.216 14.8143 17.7027 13.997 17.943V14.551C15.0261 14.2542 15.9579 13.6892 16.697 12.914C16.8694 13.3272 16.9587 13.7703 16.96 14.218Z" fill="black"/>
</svg>
