<svg width="24" height="24" viewBox="0 0 24 24" fill="none" xmlns="http://www.w3.org/2000/svg">
<path d="M18.112 17.326C17.9049 17.254 17.6917 17.2011 17.475 17.168C19.389 14.621 20.943 11.751 20.998 9.21301C21.031 8.53448 20.9171 7.85681 20.6641 7.22635C20.411 6.59589 20.0249 6.02749 19.532 5.56C18.4364 4.60754 17.1068 3.96416 15.68 3.69601C15.433 2.9136 14.9431 2.23025 14.2813 1.74521C13.6196 1.26017 12.8205 0.998657 12 0.998657C11.1795 0.998657 10.3804 1.26017 9.71867 1.74521C9.05692 2.23025 8.56698 2.9136 8.32 3.69601C6.89288 3.96404 5.56295 4.60742 4.467 5.56C3.97421 6.02757 3.58813 6.596 3.33513 7.22644C3.08212 7.85688 2.96816 8.53449 3.00101 9.21301C3.05601 11.75 4.609 14.62 6.523 17.166C6.30082 17.1988 6.0822 17.2524 5.87 17.326C5.51675 17.4488 5.19149 17.6407 4.91318 17.8905C4.63487 18.1403 4.40909 18.443 4.249 18.781C4.0524 19.2118 3.96684 19.685 4.00013 20.1573C4.03341 20.6297 4.18448 21.0861 4.43955 21.4851C4.69462 21.8841 5.04556 22.2128 5.46033 22.4413C5.8751 22.6697 6.34048 22.7906 6.814 22.793C7.20257 22.795 7.58665 22.71 7.938 22.544C8.22255 22.4104 8.47412 22.2156 8.6748 21.9736C8.87547 21.7316 9.02032 21.4484 9.09901 21.144C9.14781 20.9607 9.1218 20.7656 9.02672 20.6015C8.93164 20.4374 8.77527 20.3178 8.592 20.269C8.40874 20.2202 8.21359 20.2462 8.0495 20.3413C7.8854 20.4364 7.7658 20.5927 7.717 20.776C7.69137 20.8806 7.64193 20.9779 7.57255 21.0603C7.50318 21.1427 7.41572 21.2079 7.317 21.251C7.14731 21.323 6.96457 21.3591 6.78025 21.357C6.59593 21.355 6.41403 21.3148 6.246 21.239C6.07723 21.1624 5.92535 21.053 5.79918 20.9172C5.67301 20.7814 5.57505 20.6219 5.511 20.448C5.44441 20.2769 5.41292 20.0942 5.41842 19.9107C5.42392 19.7273 5.46629 19.5468 5.54301 19.38C5.62253 19.2145 5.73423 19.0664 5.87158 18.9445C6.00893 18.8226 6.16919 18.7293 6.343 18.67C6.57506 18.5834 6.82231 18.545 7.0697 18.557C7.31709 18.569 7.55945 18.6313 7.782 18.74C9.07316 20.2667 10.4821 21.6898 11.996 22.996C13.5149 21.6858 14.9283 20.2581 16.223 18.726C16.4428 18.6243 16.6805 18.5671 16.9225 18.5576C17.1645 18.5482 17.406 18.5867 17.633 18.671C17.8068 18.7303 17.9671 18.8236 18.1044 18.9455C18.2418 19.0674 18.3535 19.2155 18.433 19.381C18.5097 19.5478 18.5521 19.7283 18.5576 19.9117C18.5631 20.0952 18.5316 20.2779 18.465 20.449C18.401 20.6229 18.303 20.7824 18.1768 20.9182C18.0507 21.054 17.8988 21.1634 17.73 21.24C17.562 21.3158 17.3801 21.356 17.1958 21.358C17.0114 21.3601 16.8287 21.324 16.659 21.252C16.5603 21.209 16.4728 21.1437 16.4034 21.0613C16.3341 20.9789 16.2846 20.8816 16.259 20.777C16.2348 20.6863 16.193 20.6012 16.136 20.5266C16.0789 20.452 16.0078 20.3894 15.9265 20.3423C15.8453 20.2952 15.7555 20.2646 15.6624 20.2522C15.5694 20.2398 15.4747 20.2458 15.384 20.27C15.2933 20.2942 15.2082 20.336 15.1336 20.393C15.059 20.4501 14.9964 20.5213 14.9493 20.6025C14.9022 20.6838 14.8716 20.7735 14.8592 20.8665C14.8468 20.9596 14.8528 21.0542 14.877 21.145C14.9557 21.4494 15.1005 21.7326 15.3012 21.9746C15.5019 22.2166 15.7535 22.4114 16.038 22.545C16.3894 22.711 16.7734 22.796 17.162 22.794C17.8286 22.7996 18.4756 22.5681 18.9873 22.1409C19.4991 21.7136 19.8423 21.1183 19.9558 20.4614C20.0692 19.8044 19.9455 19.1286 19.6066 18.5544C19.2678 17.9803 18.7359 17.5452 18.106 17.327L18.112 17.326ZM12 2.42599C12.3812 2.41567 12.7591 2.49974 13.1 2.67072C13.4409 2.84169 13.7343 3.09428 13.954 3.40601C12.6549 3.26271 11.3441 3.26271 10.045 3.40601C10.2653 3.09488 10.559 2.84297 10.9 2.6727C11.2411 2.50243 11.619 2.41906 12 2.42999V2.42599ZM12.819 9.57401C12.8421 9.54695 12.8632 9.5182 12.882 9.48801C13.032 9.25938 13.2326 9.06832 13.4683 8.9296C13.7039 8.79088 13.9683 8.7082 14.241 8.68799C14.4236 8.66597 14.6087 8.6816 14.7851 8.73386C14.9614 8.78612 15.1251 8.8739 15.2662 8.99185C15.4073 9.10981 15.5228 9.25541 15.6055 9.41968C15.6881 9.58394 15.7363 9.7634 15.747 9.94699C15.7624 10.1316 15.7409 10.3175 15.684 10.4938C15.627 10.6701 15.5355 10.8333 15.415 10.974C15.2947 11.1138 15.1468 11.2272 14.9806 11.3071C14.8143 11.387 14.6333 11.4315 14.449 11.438C14.3416 11.4401 14.2351 11.4176 14.1378 11.3719C14.0405 11.3263 13.9551 11.2589 13.888 11.175C13.7662 11.0297 13.5918 10.9387 13.4029 10.922C13.2141 10.9053 13.0264 10.9643 12.881 11.086C12.8596 11.1041 12.8392 11.1235 12.82 11.144L12.819 9.57401ZM11.181 11.174C11.1551 11.1434 11.1266 11.1149 11.096 11.089C10.9505 10.9674 10.7627 10.9086 10.5739 10.9255C10.385 10.9424 10.2106 11.0335 10.089 11.179C10.0219 11.2629 9.93647 11.3303 9.83919 11.3759C9.7419 11.4216 9.63542 11.4441 9.528 11.442C9.34368 11.4355 9.1627 11.391 8.99644 11.3111C8.83019 11.2312 8.68227 11.1178 8.562 10.978C8.44146 10.8373 8.35004 10.6741 8.29305 10.4978C8.23606 10.3215 8.21463 10.1356 8.23 9.95099C8.24195 9.76791 8.2906 9.58912 8.37306 9.42523C8.45552 9.26134 8.57011 9.11571 8.71001 8.99701C8.85215 8.8805 9.0161 8.79352 9.19228 8.74115C9.36845 8.68878 9.55329 8.67205 9.736 8.69199C10.0087 8.71219 10.2731 8.79487 10.5088 8.93359C10.7444 9.07231 10.945 9.26337 11.095 9.492L11.1 9.50101C11.1239 9.5395 11.1513 9.57566 11.182 9.60901L11.181 11.174ZM7.80701 16.197C5.77501 13.481 4.68 11.053 4.639 9.17599C4.61011 8.70469 4.68465 8.23277 4.85739 7.7933C5.03013 7.35384 5.2969 6.95747 5.639 6.63199C7.053 5.27499 9.68501 4.93701 11.183 4.85901V7.66501C10.7777 7.4483 10.3341 7.31245 9.87701 7.26501C9.50501 7.22692 9.12915 7.26327 8.77135 7.37195C8.41355 7.48063 8.08097 7.65946 7.79301 7.89801C7.43279 8.20534 7.15529 8.59798 6.98584 9.04013C6.81639 9.48228 6.76037 9.95984 6.82292 10.4292C6.88547 10.8986 7.06458 11.3447 7.34391 11.7271C7.62324 12.1094 7.99388 12.4157 8.422 12.618C8.77328 12.7843 9.15736 12.8697 9.546 12.868C9.85872 12.8672 10.1675 12.7978 10.4505 12.6648C10.7335 12.5318 10.9839 12.3383 11.184 12.098V20.065C9.97148 18.8559 8.84318 17.5652 7.80701 16.202V16.197ZM12.819 12.128C13.019 12.3603 13.2667 12.5469 13.5452 12.6751C13.8236 12.8033 14.1264 12.8701 14.433 12.871C14.8216 12.8727 15.2057 12.7873 15.557 12.621C16.163 12.344 16.6509 11.8608 16.9338 11.2575C17.2166 10.6542 17.2759 9.97004 17.1011 9.32706C16.9264 8.68408 16.5289 8.12408 15.9796 7.74695C15.4303 7.36982 14.7648 7.20009 14.102 7.26801C13.6541 7.31391 13.2191 7.44454 12.82 7.65298V4.85999C14.32 4.93899 16.949 5.276 18.363 6.633C18.7051 6.95848 18.9719 7.35485 19.1446 7.79431C19.3174 8.23377 19.3919 8.70569 19.363 9.177C19.322 11.054 18.227 13.477 16.195 16.198C15.1596 17.565 14.0316 18.8594 12.819 20.072V12.128Z" fill="black"/>
</svg>
