<svg xmlns="http://www.w3.org/2000/svg" width="24" height="24" viewBox="0 0 24 24">
  <g id="odo-nyera-fie-kwan" transform="translate(-41 -263)">
    <rect id="Rectangle_149" data-name="Rectangle 149" width="24" height="24" transform="translate(41 263)" fill="none"/>
    <path id="Path_240" data-name="Path 240" d="M114.785,319.339a3.589,3.589,0,0,0-.637-.158c1.914-2.547,3.468-5.417,3.523-7.955a4.719,4.719,0,0,0-1.466-3.653,8.172,8.172,0,0,0-3.852-1.864,3.859,3.859,0,0,0-7.36,0,8.173,8.173,0,0,0-3.853,1.864,4.721,4.721,0,0,0-1.466,3.653c.055,2.537,1.608,5.407,3.522,7.953a3.6,3.6,0,0,0-.653.16,2.817,2.817,0,0,0-1.621,1.455,2.835,2.835,0,0,0,2.565,4.012,2.6,2.6,0,0,0,1.124-.249,2.138,2.138,0,0,0,1.161-1.4.715.715,0,1,0-1.382-.368.7.7,0,0,1-.4.475,1.336,1.336,0,0,1-1.071-.012,1.4,1.4,0,0,1-.735-.791,1.368,1.368,0,0,1,.032-1.068,1.383,1.383,0,0,1,.8-.71,1.825,1.825,0,0,1,1.439.07,38.212,38.212,0,0,0,4.214,4.256,38.206,38.206,0,0,0,4.227-4.27,1.836,1.836,0,0,1,1.41-.055,1.383,1.383,0,0,1,.8.71,1.368,1.368,0,0,1,.032,1.068,1.4,1.4,0,0,1-.735.791,1.336,1.336,0,0,1-1.071.012.7.7,0,0,1-.4-.475.715.715,0,1,0-1.382.368,2.138,2.138,0,0,0,1.161,1.4,2.6,2.6,0,0,0,1.124.249,2.811,2.811,0,0,0,.944-5.467Zm-6.112-14.9h0a2.314,2.314,0,0,1,1.954.98,17.826,17.826,0,0,0-3.909,0A2.314,2.314,0,0,1,108.673,304.443Zm.819,7.148a.714.714,0,0,0,.063-.086,1.783,1.783,0,0,1,1.359-.8,1.347,1.347,0,0,1,1.506,1.259,1.4,1.4,0,0,1-.332,1.027,1.336,1.336,0,0,1-.966.464.7.7,0,0,1-.561-.263.715.715,0,0,0-1.007-.089.733.733,0,0,0-.061.058Zm-1.638,1.6a.723.723,0,0,0-.085-.085.715.715,0,0,0-1.007.09.7.7,0,0,1-.561.263,1.336,1.336,0,0,1-.966-.464,1.4,1.4,0,0,1-.332-1.027,1.368,1.368,0,0,1,.48-.954,1.382,1.382,0,0,1,1.026-.305,1.783,1.783,0,0,1,1.359.8l.005.009a.721.721,0,0,0,.082.108Zm-3.374,5.023c-2.032-2.716-3.127-5.144-3.168-7.021a3.238,3.238,0,0,1,1-2.544c1.414-1.357,4.046-1.695,5.544-1.773v2.806a3.546,3.546,0,0,0-1.306-.4,2.817,2.817,0,0,0-2.084.633,2.835,2.835,0,0,0,.629,4.72,2.6,2.6,0,0,0,1.124.25,2.139,2.139,0,0,0,1.638-.77v7.967A37.509,37.509,0,0,1,104.48,318.215Zm5.012,3.87v-7.939a2.138,2.138,0,0,0,1.614.743,2.6,2.6,0,0,0,1.124-.25,2.811,2.811,0,0,0-1.455-5.353,3.551,3.551,0,0,0-1.282.385v-2.793c1.5.079,4.129.416,5.543,1.773a3.238,3.238,0,0,1,1,2.544h0c-.041,1.877-1.136,4.3-3.168,7.021A37.5,37.5,0,0,1,109.492,322.085Z" transform="translate(-55.673 -39.013)"/>
  </g>
</svg>
