<svg xmlns="http://www.w3.org/2000/svg" width="24" height="24" viewBox="0 0 24 24">
  <g id="okodee-mwowere" transform="translate(-377 -263)">
    <rect id="Rectangle_149" data-name="Rectangle 149" width="24" height="24" transform="translate(377 263)" fill="none"/>
    <path id="Path_303" data-name="Path 303" d="M982.179,457.848h-3.455a.4.4,0,0,1-.4-.417l.042-1a.4.4,0,0,1,.4-.383h2.45a1.3,1.3,0,0,0,1.3-1.363,1.324,1.324,0,0,0-1.335-1.237h-2.271a.4.4,0,0,1-.4-.417l.1-2.4a.3.3,0,0,1,.333-.285c.041,0,.082.006.124.006a1.249,1.249,0,0,0,1.215-.96.3.3,0,0,1,.294-.24h2.042a.9.9,0,0,0,.9-.96.921.921,0,0,0-.929-.84h-3.969a.4.4,0,0,1-.4-.4v-2.325s.207-1.573-1.7-1.575h0c-1.906,0-1.7,1.575-1.7,1.575v2.325a.4.4,0,0,1-.4.4h-3.969a.921.921,0,0,0-.929.84.9.9,0,0,0,.9.96h2.042a.3.3,0,0,1,.294.24,1.249,1.249,0,0,0,1.215.96c.042,0,.083,0,.124-.006a.3.3,0,0,1,.333.285l.1,2.4a.4.4,0,0,1-.4.417h-2.271a1.324,1.324,0,0,0-1.335,1.237,1.3,1.3,0,0,0,1.3,1.363h2.45a.4.4,0,0,1,.4.383l.042,1a.4.4,0,0,1-.4.417h-3.455a1.124,1.124,0,0,0-1.136,1.079,1.1,1.1,0,0,0,1.1,1.121h3.556a.861.861,0,0,1,.778.513,2.086,2.086,0,0,1,.139.652c.048.839-.441,1.006-.214,2.435a1.442,1.442,0,0,0,2.883,0c.227-1.428-.262-1.6-.214-2.435a2.088,2.088,0,0,1,.139-.652.861.861,0,0,1,.778-.513h3.556a1.1,1.1,0,0,0,1.1-1.121A1.124,1.124,0,0,0,982.179,457.848Zm-6.556-10.5h0Z" transform="translate(-587.516 -179.048)"/>
  </g>
</svg>
