<svg width="24" height="24" viewBox="0 0 24 24" fill="none" xmlns="http://www.w3.org/2000/svg">
<path d="M17.6629 15.8H14.2079C14.1539 15.8001 14.1005 15.7892 14.0508 15.768C14.0012 15.7469 13.9563 15.7159 13.9189 15.6769C13.8816 15.6379 13.8524 15.5918 13.8334 15.5413C13.8143 15.4908 13.8056 15.437 13.8079 15.383L13.85 14.383C13.8543 14.2799 13.8984 14.1825 13.9729 14.1111C14.0475 14.0397 14.1467 13.9999 14.2499 14H16.6999C16.8761 14.0002 17.0504 13.9647 17.2124 13.8954C17.3744 13.8262 17.5206 13.7247 17.6422 13.5973C17.7638 13.4698 17.8582 13.3189 17.9197 13.1539C17.9812 12.9888 18.0085 12.813 17.9999 12.637C17.9777 12.2993 17.8269 11.9828 17.5787 11.7528C17.3304 11.5227 17.0034 11.3965 16.665 11.4H14.3939C14.3399 11.4001 14.2865 11.3892 14.2368 11.368C14.1871 11.3469 14.1423 11.3159 14.1049 11.2769C14.0675 11.238 14.0384 11.1918 14.0193 11.1413C14.0003 11.0908 13.9916 11.037 13.9939 10.983L14.0939 8.58304C14.0957 8.54198 14.1059 8.50173 14.1239 8.46478C14.1419 8.42784 14.1674 8.39498 14.1986 8.36826C14.2298 8.34153 14.2662 8.3215 14.3055 8.30942C14.3447 8.29734 14.3861 8.29347 14.4269 8.29803C14.4679 8.29803 14.5089 8.30402 14.5509 8.30402C14.8319 8.30399 15.1047 8.20923 15.3252 8.03503C15.5457 7.86084 15.7009 7.61738 15.7659 7.34402C15.7797 7.27626 15.8166 7.21537 15.8702 7.17163C15.9237 7.1279 15.9908 7.10402 16.0599 7.10403H18.1019C18.2253 7.10431 18.3475 7.07918 18.4608 7.03024C18.5741 6.98131 18.6761 6.90961 18.7605 6.81958C18.845 6.72955 18.9099 6.62311 18.9515 6.5069C18.993 6.39068 19.0102 6.26715 19.0019 6.14401C18.9815 5.91266 18.8745 5.69758 18.7022 5.54181C18.5299 5.38604 18.3052 5.3011 18.0729 5.30402H14.1039C13.9978 5.30402 13.8961 5.26187 13.8211 5.18686C13.7461 5.11184 13.7039 5.01011 13.7039 4.90402V2.57904C13.7039 2.57904 13.911 1.00603 12.004 1.00403C10.098 1.00403 10.3039 2.57904 10.3039 2.57904V4.90402C10.3039 5.01011 10.2618 5.11184 10.1868 5.18686C10.1117 5.26187 10.01 5.30402 9.90392 5.30402H5.93492C5.70269 5.3011 5.47792 5.38604 5.30565 5.54181C5.13338 5.69758 5.02631 5.91266 5.00591 6.14401C4.99768 6.26715 5.01491 6.39068 5.05644 6.5069C5.09797 6.62311 5.16295 6.72955 5.24736 6.81958C5.33177 6.90961 5.43375 6.98131 5.54704 7.03024C5.66034 7.07918 5.78252 7.10431 5.90593 7.10403H7.94792C8.01708 7.10402 8.08411 7.1279 8.13768 7.17163C8.19126 7.21537 8.2281 7.27626 8.24193 7.34402C8.30694 7.61738 8.46225 7.86084 8.68272 8.03503C8.90319 8.20923 9.17597 8.30399 9.45695 8.30402C9.49895 8.30402 9.53992 8.30403 9.58092 8.29803C9.62176 8.29347 9.6631 8.29734 9.70238 8.30942C9.74166 8.3215 9.77809 8.34153 9.80931 8.36826C9.84053 8.39498 9.8659 8.42784 9.8839 8.46478C9.9019 8.50173 9.91212 8.54198 9.91393 8.58304L10.014 10.983C10.0163 11.037 10.0076 11.0908 9.98851 11.1413C9.96944 11.1918 9.94031 11.238 9.90294 11.2769C9.86556 11.3159 9.82071 11.3469 9.77104 11.368C9.72137 11.3892 9.66793 11.4001 9.61394 11.4H7.34294C7.00447 11.3965 6.67747 11.5227 6.42918 11.7528C6.18089 11.9828 6.03014 12.2993 6.00792 12.637C5.99938 12.813 6.02668 12.9888 6.08818 13.1539C6.14968 13.3189 6.24413 13.4698 6.36571 13.5973C6.48728 13.7247 6.63348 13.8262 6.79546 13.8954C6.95743 13.9647 7.13176 14.0002 7.30791 14H9.75792C9.86112 13.9999 9.96041 14.0397 10.035 14.1111C10.1095 14.1825 10.1536 14.2799 10.1579 14.383L10.1999 15.383C10.2022 15.437 10.1936 15.4908 10.1745 15.5413C10.1554 15.5918 10.1263 15.6379 10.089 15.6769C10.0516 15.7159 10.0067 15.7469 9.95702 15.768C9.90734 15.7892 9.8539 15.8001 9.79991 15.8H6.34496C6.05242 15.7967 5.77009 15.9075 5.55797 16.109C5.34585 16.3105 5.2206 16.5867 5.20891 16.879C5.20612 17.0252 5.23252 17.1705 5.28654 17.3064C5.34057 17.4423 5.42118 17.5661 5.52361 17.6704C5.62603 17.7748 5.74826 17.8577 5.8831 17.9143C6.01795 17.9709 6.16271 18.0001 6.30894 18H9.86491C10.0301 18.0019 10.1914 18.0512 10.3293 18.1422C10.4673 18.2331 10.5762 18.3619 10.6429 18.513C10.7239 18.7215 10.7708 18.9417 10.7819 19.165C10.8299 20.004 10.3409 20.171 10.5679 21.6C10.5778 21.9758 10.734 22.3328 11.0033 22.595C11.2725 22.8573 11.6336 23.0041 12.0094 23.0041C12.3853 23.0041 12.7463 22.8573 13.0155 22.595C13.2848 22.3328 13.441 21.9758 13.4509 21.6C13.6779 20.172 13.1889 20 13.2369 19.165C13.248 18.9417 13.295 18.7215 13.376 18.513C13.4427 18.3619 13.5515 18.2331 13.6895 18.1422C13.8275 18.0512 13.9887 18.0019 14.1539 18H17.7099C17.8562 18.0001 18.0009 17.9709 18.1358 17.9143C18.2706 17.8577 18.3929 17.7748 18.4953 17.6704C18.5977 17.5661 18.6783 17.4423 18.7323 17.3064C18.7863 17.1705 18.8127 17.0252 18.8099 16.879C18.7982 16.5848 18.6715 16.3069 18.457 16.1051C18.2425 15.9033 17.9574 15.7938 17.6629 15.8Z" fill="black"/>
</svg>
