<svg width="24" height="24" viewBox="0 0 24 24" fill="none" xmlns="http://www.w3.org/2000/svg">
<path d="M19.9999 15.955C18.5999 17.847 16.716 19.383 14.72 19.324L14.184 17.444L14.2059 17.517C18.7059 18.981 18.1999 14.917 15.7059 14.968C16.8059 14.135 15.8309 13.104 15.2059 13.284C14.5809 13.464 14.477 13.761 14.262 13.777C14.047 13.793 13.4429 13.077 13.3539 13.095C13.2649 13.113 13.208 13.315 13.054 13.495L12.2729 10.755C13.2509 10.408 14.638 11.03 15.66 10.044C16.682 9.05801 17.225 7.07302 17.96 5.32902C16.7074 5.92391 15.3297 6.20761 13.944 6.15601C12.152 6.11101 10.9909 5.87503 10.5909 4.86103L10.512 4.58503C10.463 3.55303 12.521 3.62003 16.049 3.71003C15.474 3.10203 14.67 1.99201 9.97797 2.29401H9.93494C9.85694 1.75301 10.277 1.29401 9.86395 1.08601C9.54969 0.987816 9.21346 0.984209 8.89716 1.0756C8.58085 1.16699 8.29843 1.34935 8.08496 1.60001C7.85296 1.99401 8.33795 2.03901 8.69495 2.60001H8.66992C7.40664 2.87924 6.26788 3.56039 5.42432 4.54133C4.58075 5.52227 4.07788 6.75017 3.99097 8.04102C5.39097 6.14902 7.27594 4.613 9.27094 4.672L9.80695 6.55201L9.78595 6.47901C5.28595 5.01501 5.79195 9.07902 8.28595 9.02802C7.18595 9.86102 8.16095 10.892 8.78595 10.713C9.41095 10.534 9.51492 10.236 9.72992 10.22C9.94492 10.204 10.5489 10.92 10.6379 10.902C10.7269 10.884 10.7839 10.682 10.9379 10.502L11.7189 13.241C10.7409 13.588 9.35397 12.966 8.33197 13.952C7.30997 14.938 6.76692 16.923 6.03192 18.667C7.28451 18.0721 8.66226 17.7884 10.048 17.84C11.84 17.885 13.0009 18.121 13.4009 19.135L13.4799 19.411C13.5279 20.443 11.4709 20.375 7.94293 20.286C8.51793 20.894 9.32192 22.004 14.0139 21.702H14.056C14.134 22.243 13.714 22.702 14.127 22.91C14.4412 23.0082 14.7774 23.0118 15.0937 22.9204C15.41 22.8291 15.6925 22.6467 15.9059 22.396C16.1379 22.002 15.653 21.957 15.296 21.396H15.3209C16.5842 21.1168 17.723 20.4357 18.5665 19.4547C19.4101 18.4738 19.913 17.2459 19.9999 15.955ZM11.179 6.89701L11.0789 6.52402C11.1789 6.48302 12.2089 6.65002 12.3329 6.91602C12.3795 7.86224 12.2628 8.8094 11.988 9.71601L11.179 6.89701ZM11.671 17.085C11.6244 16.1388 11.741 15.1916 12.0159 14.285L12.8159 17.108L12.916 17.481C12.823 17.518 11.796 17.351 11.671 17.081V17.085Z" fill="black"/>
</svg>
