<svg width="24" height="24" viewBox="0 0 24 24" fill="none" xmlns="http://www.w3.org/2000/svg">
<path d="M20.4889 2.00399C19.3164 1.3347 17.987 0.98955 16.637 1.00399C15.3652 0.975858 14.108 1.27913 12.9889 1.884C12.9345 2.10506 12.8076 2.30151 12.6284 2.44195C12.4493 2.58238 12.2282 2.65868 12.0005 2.65868C11.7728 2.65868 11.5517 2.58238 11.3725 2.44195C11.1933 2.30151 11.0664 2.10506 11.012 1.884C9.90207 1.28354 8.65566 0.980381 7.39395 1.00399H7.36392C6.01392 0.98955 4.68448 1.3347 3.51199 2.00399C2.71711 2.47006 2.06372 3.14321 1.62149 3.95159C1.17925 4.75997 0.964789 5.67326 1.001 6.59399C0.981003 9.33899 2.747 12.91 6.251 17.209C7.85706 19.1721 9.58621 21.0312 11.428 22.775C11.5836 22.9199 11.7884 23.0004 12.001 23.0004C12.2136 23.0004 12.4184 22.9199 12.574 22.775C14.4158 21.0312 16.1449 19.1721 17.751 17.209C21.251 12.909 23.021 9.33799 23.001 6.59399C23.0371 5.67316 22.8224 4.7598 22.38 3.95141C21.9376 3.14302 21.284 2.46994 20.4889 2.00399ZM10.168 3.39599C10.5426 3.587 10.8783 3.84609 11.158 4.16C11.265 4.29317 11.3372 4.45091 11.3679 4.61898C11.4005 4.75761 11.4827 4.87956 11.5989 4.96188C11.7151 5.0442 11.8573 5.08121 11.9989 5.06597C12.4989 5.06597 12.612 4.74298 12.628 4.63198C12.713 4.04498 13.4119 3.63798 13.8279 3.39498C14.6599 2.98415 15.572 2.76092 16.4997 2.74105C17.4274 2.72118 18.3481 2.90516 19.1969 3.27999C18.4838 3.57166 17.8007 3.93165 17.157 4.35497C16.2762 4.97525 15.5029 5.73566 14.8679 6.60598C14.0203 6.03244 13.0204 5.72591 11.997 5.72591C10.9736 5.72591 9.97361 6.03244 9.126 6.60598C8.49089 5.73581 7.71762 4.97543 6.83694 4.35497C6.19323 3.93164 5.51 3.57164 4.7969 3.27999C5.64587 2.90461 6.56697 2.72015 7.49502 2.73968C8.42308 2.7592 9.33556 2.98224 10.168 3.393V3.39599ZM12.621 10.228L12.7759 7.74499L15.1039 10.073L12.621 10.228ZM15.1039 11.628L12.7759 13.956L12.621 11.473L15.1039 11.628ZM8.8959 10.076L11.2239 7.74798L11.3789 10.231L8.8959 10.076ZM11.3789 11.476L11.2239 13.959L8.8959 11.631L11.3789 11.476ZM2.70694 6.60598V6.587C2.68977 6.02633 2.80101 5.46916 3.03201 4.958C3.95017 5.24038 4.82503 5.64787 5.63198 6.169C6.40604 6.73094 7.07463 7.42529 7.60696 8.21999C7.0041 9.22547 6.76456 10.4074 6.92837 11.5682C7.09218 12.7291 7.64943 13.7986 8.50698 14.598C8.40849 14.831 8.26931 15.0447 8.09597 15.229L8.08694 15.238C7.85094 15.495 7.61792 15.73 7.42092 15.924C4.31692 12.074 2.68694 8.85399 2.70694 6.59899V6.60598ZM12.22 20.723C12.1615 20.7814 12.0821 20.8143 11.9994 20.8143C11.9167 20.8143 11.8375 20.7814 11.779 20.723C11.063 20.015 9.93795 18.864 8.72195 17.473C8.96095 17.242 9.2599 16.942 9.5679 16.607C9.83286 16.3246 10.057 16.0065 10.2339 15.662C11.3737 16.0784 12.6241 16.0784 13.7639 15.662C13.9408 16.0065 14.165 16.3246 14.43 16.607C14.738 16.942 15.0369 17.241 15.2759 17.473C14.0619 18.858 12.936 20.009 12.22 20.717V20.723ZM21.2919 6.60598C21.3119 8.85998 19.6829 12.08 16.5779 15.925C16.3779 15.731 16.1469 15.495 15.9109 15.239L15.902 15.23C15.7286 15.0457 15.5894 14.8321 15.491 14.599C16.3485 13.7996 16.9058 12.7301 17.0696 11.5692C17.2334 10.4084 16.9938 9.22648 16.3909 8.221C16.9237 7.42631 17.5927 6.73195 18.367 6.16998C19.1739 5.64885 20.0488 5.24135 20.9669 4.95898C21.1979 5.47014 21.309 6.02731 21.2919 6.58798V6.60699V6.60598Z" fill="black"/>
</svg>
