<svg xmlns="http://www.w3.org/2000/svg" width="24" height="24" viewBox="0 0 24 24">
  <g id="osram-ne-nsoromma" transform="translate(-41 -359)">
    <rect id="Rectangle_149" data-name="Rectangle 149" width="24" height="24" transform="translate(41 359)" fill="none"/>
    <g id="Group_162" data-name="Group 162" transform="translate(-3536.487 -2932.24)">
      <path id="Path_456" data-name="Path 456" d="M3600.268,3300.2c-2.736,6.2-5.248,9.346-10.739,9.346s-8.581-3.416-10.74-9.346c-1.645,6.578,3.648,14.043,10.74,14.043S3601.613,3306.872,3600.268,3300.2Z"/>
      <path id="Path_457" data-name="Path 457" d="M3584.126,3298.948a1.148,1.148,0,0,0,1.116-.44l1.041.186a3.225,3.225,0,0,0,.245,1.131l-.959.561a1.142,1.142,0,0,0-1.2-.027,1.178,1.178,0,0,0-.422,1.6,1.146,1.146,0,0,0,1.561.439l.016-.01a1.172,1.172,0,0,0,.576-1.063l1-.586a3.255,3.255,0,0,0,.849.677l-.408,1.134a1.156,1.156,0,0,0-.934.759,1.172,1.172,0,0,0,.69,1.5,1.149,1.149,0,0,0,1.475-.687l0-.011a1.177,1.177,0,0,0-.234-1.19l.414-1.151a3.219,3.219,0,0,0,1.059.008l.41,1.143a1.182,1.182,0,0,0-.234,1.19,1.151,1.151,0,0,0,1.468.7h0l.012-.005a1.173,1.173,0,0,0,.69-1.5,1.16,1.16,0,0,0-.935-.759l-.4-1.112a3.243,3.243,0,0,0,.873-.68l.969.567a1.17,1.17,0,0,0,.576,1.063,1.145,1.145,0,0,0,1.568-.412h0l.009-.016a1.177,1.177,0,0,0-.423-1.6,1.14,1.14,0,0,0-1.2.027l-.92-.538a3.211,3.211,0,0,0,.255-1.163l.993-.178a1.148,1.148,0,0,0,1.116.44,1.168,1.168,0,0,0,.937-1.354,1.155,1.155,0,0,0-1.331-.95h-.007a1.157,1.157,0,0,0-.9.8l-.952.17a3.219,3.219,0,0,0-.594-1.092l.6-.73a1.144,1.144,0,0,0,1.134-.389,1.18,1.18,0,0,0-.143-1.648,1.144,1.144,0,0,0-1.613.129h0l-.013.015a1.181,1.181,0,0,0-.182,1.2l-.6.722a3.218,3.218,0,0,0-1.171-.43v-.944a1.165,1.165,0,1,0-1.688-1.037h0a1.167,1.167,0,0,0,.622,1.037v.953a3.2,3.2,0,0,0-1.155.442l-.615-.742a1.18,1.18,0,0,0-.182-1.2,1.146,1.146,0,0,0-1.612-.158l-.015.013a1.18,1.18,0,0,0-.142,1.648,1.146,1.146,0,0,0,1.134.389l.63.76a3.207,3.207,0,0,0-.573,1.07l-1-.178a1.151,1.151,0,0,0-2.237.141v.007A1.167,1.167,0,0,0,3584.126,3298.948Zm5.361-2.577a2.187,2.187,0,1,1-2.186,2.187A2.187,2.187,0,0,1,3589.487,3296.371Z"/>
    </g>
  </g>
</svg>
