<svg width="24" height="24" viewBox="0 0 24 24" fill="none" xmlns="http://www.w3.org/2000/svg">
<path d="M22.781 8.95996C20.045 15.16 17.5329 18.3059 12.0419 18.3059C6.55094 18.3059 3.46095 14.89 1.30195 8.95996C-0.343052 15.538 4.94994 23.0029 12.0419 23.0029C19.1339 23.0029 24.126 15.632 22.781 8.95996Z" fill="black"/>
<path d="M6.63899 7.70799C6.84749 7.74468 7.06216 7.7229 7.25911 7.64524C7.45606 7.56759 7.6276 7.43716 7.75496 7.26805L8.79597 7.45408C8.80878 7.84277 8.8919 8.2258 9.04109 8.58494L8.08211 9.14598C7.9043 9.03054 7.69785 8.96691 7.48592 8.96214C7.27398 8.95737 7.06473 9.01155 6.88191 9.11888C6.61538 9.27656 6.42183 9.53306 6.34285 9.8325C6.26387 10.1319 6.30594 10.4503 6.46004 10.719C6.53365 10.8504 6.6325 10.9659 6.75081 11.0591C6.86912 11.1522 7.00452 11.2212 7.14949 11.2619C7.29446 11.3027 7.446 11.3147 7.59553 11.2969C7.74507 11.279 7.88977 11.2317 8.02107 11.1579L8.03694 11.1479C8.22049 11.0398 8.37124 10.8838 8.47273 10.6965C8.57422 10.5092 8.62277 10.2977 8.61311 10.0849L9.61311 9.499C9.85621 9.77062 10.1431 9.99947 10.462 10.176L10.054 11.31C9.84366 11.3386 9.6453 11.4244 9.48054 11.5583C9.31579 11.6922 9.19093 11.869 9.11995 12.0691C9.01377 12.3596 9.02683 12.6802 9.15608 12.9612C9.28533 13.2421 9.52048 13.4607 9.81013 13.5691C9.95208 13.621 10.1027 13.6443 10.2537 13.6379C10.4048 13.6315 10.553 13.5953 10.69 13.5315C10.827 13.4677 10.9502 13.3776 11.0523 13.2661C11.1544 13.1546 11.2334 13.0241 11.285 12.8821V12.8711C11.3577 12.6702 11.3743 12.4533 11.3331 12.2436C11.2919 12.034 11.1944 11.8393 11.0511 11.6809L11.4649 10.53C11.8151 10.5911 12.173 10.5939 12.524 10.5381L12.9339 11.6809C12.7911 11.8396 12.6939 12.0341 12.6527 12.2436C12.6115 12.4532 12.6279 12.6701 12.7 12.8711C12.8021 13.1584 13.0139 13.3934 13.2891 13.5246C13.5644 13.6559 13.8805 13.6726 14.168 13.571L14.18 13.5659C14.4695 13.4573 14.7044 13.2389 14.8336 12.958C14.9628 12.6771 14.9758 12.3564 14.8699 12.0659C14.7985 11.8659 14.6735 11.6895 14.5086 11.5556C14.3437 11.4218 14.1455 11.3359 13.9351 11.3071L13.535 10.195C13.8628 10.0201 14.1581 9.78988 14.408 9.51487L15.377 10.082C15.3671 10.2948 15.4157 10.5063 15.5172 10.6936C15.6187 10.8809 15.7693 11.0371 15.953 11.145C16.0829 11.2211 16.2266 11.2708 16.3758 11.2912C16.525 11.3117 16.6769 11.3027 16.8226 11.2644C16.9682 11.2261 17.1048 11.1595 17.2247 11.0683C17.3445 10.9772 17.4453 10.863 17.5211 10.7329L17.5301 10.717C17.6844 10.4483 17.7265 10.1296 17.6473 9.83006C17.5681 9.53052 17.3739 9.27426 17.107 9.11692C16.9243 9.00938 16.7152 8.95493 16.5032 8.9597C16.2913 8.96447 16.0848 9.02837 15.9071 9.14402L14.9871 8.60594C15.1439 8.23756 15.2303 7.84327 15.242 7.4431L16.2349 7.26487C16.3623 7.43399 16.5341 7.56466 16.731 7.64231C16.928 7.71997 17.1424 7.74175 17.3509 7.70506C17.6542 7.64886 17.9232 7.47485 18.0987 7.22117C18.2743 6.96749 18.3422 6.65474 18.2879 6.35105C18.2631 6.20121 18.2089 6.05758 18.1285 5.92869C18.0481 5.79981 17.9433 5.68808 17.8197 5.59983C17.696 5.51159 17.556 5.44866 17.408 5.41453C17.26 5.3804 17.1069 5.37591 16.9571 5.4011H16.95C16.741 5.43899 16.5465 5.53367 16.3878 5.67478C16.229 5.8159 16.1123 5.9978 16.0501 6.20091L15.098 6.37107C14.9728 5.97194 14.7711 5.60098 14.504 5.27903L15.1041 4.54905C15.3106 4.59546 15.5259 4.58355 15.7261 4.51487C15.9264 4.4462 16.1036 4.32329 16.2381 4.15989C16.4351 3.9213 16.5305 3.61486 16.5037 3.30662C16.477 2.99838 16.3302 2.71304 16.095 2.51194C15.9807 2.41448 15.8481 2.34044 15.7052 2.29417C15.5622 2.2479 15.4116 2.23043 15.2618 2.24241C15.112 2.25439 14.9661 2.29559 14.8324 2.36399C14.6986 2.43239 14.5794 2.52669 14.482 2.64109L14.4691 2.65599C14.333 2.82081 14.244 3.0196 14.212 3.23094C14.1799 3.44227 14.2058 3.65817 14.2869 3.85594L13.6871 4.57811C13.3285 4.35976 12.9306 4.21351 12.5159 4.14793V3.20408C12.7014 3.11091 12.8586 2.96992 12.9713 2.79563C13.0839 2.62135 13.1482 2.41997 13.1571 2.21263C13.1659 2.00528 13.119 1.79944 13.0216 1.61619C12.9241 1.43294 12.7797 1.27903 12.6029 1.17039C12.426 1.06176 12.2234 1.00234 12.0159 0.998271C11.8084 0.994201 11.6036 1.04558 11.4227 1.1472C11.2417 1.24881 11.0912 1.39686 10.9866 1.57615C10.8821 1.75544 10.8272 1.95944 10.828 2.16697C10.827 2.38015 10.8846 2.58963 10.9942 2.77244C11.1039 2.95525 11.2615 3.10453 11.45 3.20408V4.15696C11.0399 4.22779 10.6476 4.37807 10.295 4.5991L9.68001 3.85691C9.76121 3.65917 9.78726 3.44327 9.7552 3.23191C9.72315 3.02056 9.63431 2.82174 9.49812 2.65696C9.30521 2.4224 9.02694 2.27399 8.72468 2.24436C8.42243 2.21474 8.12085 2.30637 7.88606 2.499L7.87092 2.51194C7.63594 2.71318 7.48953 2.99863 7.46297 3.30686C7.43641 3.6151 7.53198 3.92142 7.72908 4.15989C7.86376 4.32311 8.04088 4.44597 8.24104 4.51463C8.4412 4.58329 8.65661 4.59523 8.86311 4.54905L9.493 5.30906C9.23563 5.626 9.04115 5.989 8.92 6.37889L7.92 6.20091C7.84504 5.95229 7.68814 5.73634 7.47493 5.58811C7.26172 5.43989 7.00483 5.36817 6.74568 5.3845C6.48653 5.40084 6.24035 5.50438 6.04744 5.6782C5.85453 5.85202 5.72608 6.08596 5.68294 6.34202V6.3491C5.65539 6.50121 5.65845 6.65712 5.69173 6.80809C5.725 6.95905 5.78784 7.10206 5.87678 7.2285C5.96573 7.35493 6.07895 7.46233 6.20979 7.54466C6.34063 7.62699 6.48652 7.68251 6.63899 7.70799ZM12.0001 5.13108C12.4327 5.13089 12.8556 5.25881 13.2154 5.499C13.5752 5.73919 13.8556 6.08084 14.0213 6.48045C14.187 6.88005 14.2303 7.31982 14.1461 7.74412C14.0618 8.16842 13.8537 8.55804 13.5479 8.86399C13.2421 9.16995 12.8523 9.3784 12.4281 9.46287C12.0038 9.54734 11.5641 9.5041 11.1644 9.3386C10.7647 9.1731 10.423 8.89286 10.1827 8.53318C9.94234 8.17351 9.81404 7.75069 9.81404 7.3181C9.81404 6.73824 10.0443 6.18207 10.4542 5.77195C10.8641 5.36184 11.4202 5.13135 12.0001 5.13108Z" fill="black"/>
</svg>
