<svg width="24" height="24" viewBox="0 0 24 24" fill="none" xmlns="http://www.w3.org/2000/svg">
<path d="M21.814 6H1V7.35H21.814V6Z" fill="black"/>
<path d="M23 16.65H2.186V18H23V16.65Z" fill="black"/>
<path d="M21.942 15L18.519 9H21.814V7.65H1V9H1.994L5.417 15H2.186V16.35H23V15H21.942ZM15.942 9L15.477 9.814L15.013 9H15.942ZM15.127 10.429L14.602 11.349L14.077 10.429L14.602 9.508L15.127 10.429ZM14.196 9L13.731 9.815L13.267 9H14.196ZM12.445 9L10.196 12.942L9.671 12.022L11.395 9H12.445ZM10.695 9L9.321 11.408L7.947 9H10.695ZM7.24599 9L8.97 12.022L8.445 12.942L6.196 9H7.24599ZM6.118 15L2.695 9H3.745L7.168 15H6.118ZM4.445 9H5.49599L8.096 13.556L7.571 14.477L4.445 9ZM7.972 15L8.445 14.171L8.919 15H7.972ZM8.796 13.556L9.321 12.636L9.846 13.556L9.321 14.477L8.796 13.556ZM9.723 15L10.196 14.171L10.669 15H9.723ZM10.547 13.556L12.856 9.508L13.381 10.429L11.076 14.477L10.547 13.556ZM11.476 15L13.733 11.043L14.259 11.963L12.524 15H11.476ZM13.227 15L14.609 12.577L15.989 15H13.227ZM16.692 15L14.959 11.963L15.484 11.043L17.74 15H16.692ZM18.443 15L15.835 10.429L16.36 9.508L19.491 15H18.443ZM20.193 15L16.77 9H17.821L21.244 15H20.193Z" fill="black"/>
</svg>
