<svg width="24" height="24" viewBox="0 0 24 24" fill="none" xmlns="http://www.w3.org/2000/svg">
<path d="M18.938 11.9999C20.1104 11.6317 21.1355 10.9006 21.8656 9.91211C22.5956 8.92361 22.9929 7.72876 23 6.49991C23.019 5.47184 22.7535 4.4585 22.233 3.57177C21.7124 2.68503 20.9569 1.95938 20.05 1.47492C19.3157 1.09264 18.4876 0.927845 17.663 0.999913C16.8246 1.04138 16.0102 1.29357 15.2952 1.73317C14.5801 2.17276 13.9874 2.78557 13.572 3.51491C13.4926 3.6593 13.4257 3.81019 13.372 3.96592C12.9166 3.92125 12.4593 3.89792 12 3.89592C11.542 3.89592 11.084 3.92092 10.629 3.96592C10.5748 3.81035 10.5079 3.6595 10.429 3.51491C10.0133 2.78549 9.42048 2.17265 8.70524 1.73305C7.99 1.29346 7.17547 1.0413 6.33696 0.999913C5.51231 0.927957 4.68424 1.09274 3.94996 1.47492C3.04314 1.95956 2.2878 2.68525 1.76725 3.57194C1.2467 4.45864 0.981172 5.47188 0.999955 6.49991C1.00712 7.72889 1.40449 8.92382 2.13474 9.91234C2.86498 10.9009 3.89036 11.6319 5.06296 11.9999C3.89036 12.368 2.86498 13.099 2.13474 14.0875C1.40449 15.076 1.00712 16.2709 0.999955 17.4999C0.981326 18.528 1.24691 19.5414 1.76743 20.4282C2.28796 21.315 3.04321 22.0409 3.94996 22.5259C4.67782 22.9048 5.49831 23.0692 6.31596 22.9999H6.33696C7.17544 22.9589 7.99002 22.707 8.70529 22.2676C9.42057 21.8281 10.0134 21.2153 10.429 20.4859C10.5107 20.3357 10.5796 20.1788 10.635 20.0169C11.5409 20.1432 12.46 20.1432 13.366 20.0169C13.4209 20.1789 13.4898 20.3359 13.572 20.4859C13.9873 21.2153 14.58 21.828 15.2951 22.2675C16.0102 22.7069 16.8246 22.9588 17.663 22.9999H17.684C18.5016 23.0692 19.3221 22.9048 20.05 22.5259C20.9569 22.0411 21.7122 21.3152 22.2328 20.4284C22.7533 19.5415 23.0188 18.5281 23 17.4999C22.9929 16.2711 22.5956 15.0762 21.8656 14.0877C21.1355 13.0992 20.1104 12.3681 18.938 11.9999ZM6.33796 21.2679C5.23796 21.2569 3.24696 20.5169 3.31096 17.4999C3.37496 14.4829 9.20596 11.9999 9.20596 11.9999C9.20596 11.9999 3.37596 9.51691 3.31096 6.49991C3.24596 3.48291 5.23796 2.74491 6.33796 2.73291C6.64019 2.71063 6.94362 2.75481 7.22694 2.86235C7.51027 2.9699 7.7666 3.1382 7.97791 3.35542C8.18923 3.57264 8.35039 3.83351 8.45008 4.11969C8.54977 4.40587 8.58557 4.71042 8.55496 5.01191C8.46596 6.60091 6.33796 6.49891 6.33796 6.49891C6.33796 6.49891 7.47696 8.10791 8.99396 7.63791C9.26417 7.55154 9.51608 7.41593 9.73695 7.23791C10.8579 10.3029 10.8445 13.668 9.69896 16.7239C9.48723 16.5613 9.24861 16.4371 8.99396 16.3569C7.47596 15.8869 6.33796 17.4949 6.33796 17.4949C6.33796 17.4949 8.46596 17.3949 8.55496 18.9829C8.58635 19.2849 8.55111 19.5902 8.45172 19.8771C8.35233 20.164 8.19121 20.4256 7.97971 20.6435C7.76822 20.8614 7.51151 21.0302 7.22767 21.1381C6.94383 21.246 6.64078 21.2903 6.33796 21.2679ZM17.664 21.2679C17.3618 21.2901 17.0585 21.2458 16.7753 21.1381C16.4921 21.0305 16.2359 20.8622 16.0247 20.645C15.8135 20.4278 15.6524 20.167 15.5528 19.8809C15.4531 19.5948 15.4174 19.2903 15.448 18.9889C15.537 17.3999 17.664 17.5009 17.664 17.5009C17.664 17.5009 16.526 15.8929 15.008 16.3629C14.7551 16.4424 14.5182 16.5656 14.308 16.7269C13.1587 13.6738 13.1452 10.3092 14.27 7.24691C14.4902 7.42201 14.7407 7.55521 15.009 7.63991C16.5269 8.10991 17.665 6.50191 17.665 6.50191C17.665 6.50191 15.538 6.60191 15.449 5.01391C15.4184 4.71251 15.4541 4.40806 15.5538 4.12195C15.6534 3.83585 15.8145 3.57503 16.0257 3.35783C16.2369 3.14063 16.4931 2.9723 16.7763 2.86469C17.0595 2.75708 17.3628 2.71278 17.665 2.73491C18.765 2.74591 20.757 3.48591 20.692 6.50191C20.627 9.51791 14.798 12.0019 14.798 12.0019C14.798 12.0019 20.628 14.4859 20.692 17.5019C20.756 20.5179 18.764 21.2559 17.663 21.2679H17.664Z" fill="black"/>
</svg>
