<svg width="24" height="24" viewBox="0 0 24 24" fill="none" xmlns="http://www.w3.org/2000/svg">
<path d="M11.058 10.171C11.507 10.171 11.871 9.82268 11.871 9.393C11.871 8.96332 11.507 8.615 11.058 8.615C10.609 8.615 10.245 8.96332 10.245 9.393C10.245 9.82268 10.609 10.171 11.058 10.171Z" fill="black"/>
<path d="M19.6709 9.689C19.5889 9.289 22.2649 8.92599 22.4889 7.74199C22.7129 6.55799 19.075 9.198 18.668 8.989C18.261 8.78 21.1299 7.18899 20.9369 5.58899C20.7439 3.98899 17.548 9.30299 17.08 8.92699C16.612 8.55099 19.7399 5.554 19.1999 3.766C18.6599 1.978 16.606 7.7 15.053 9.30899C14.2063 10.0785 13.1784 10.6208 12.0653 10.8854C10.9522 11.15 9.79034 11.1282 8.68798 10.822C7.77921 10.6882 6.90711 10.371 6.12475 9.88961C5.34239 9.40826 4.6661 8.77285 4.13696 8.02199C3.38296 6.82999 3.78991 4.95 6.15991 4.903C8.52991 4.856 9.93591 8.765 9.93591 8.765L10.36 7.318L11.37 8.247C11.37 8.247 11.718 7.847 11.688 6.304C11.658 4.761 11.288 1.519 7.20996 2.049C3.13196 2.579 0.366953 7.59099 1.13195 11.363C1.89695 15.135 6.28997 18.754 9.77697 19.106C10.0281 19.1318 10.2805 19.1431 10.533 19.14V21.014H9.02099C8.88871 21.0113 8.76075 21.0612 8.66516 21.1526C8.56956 21.2441 8.51413 21.3697 8.51098 21.502C8.51413 21.6343 8.56956 21.7599 8.66516 21.8514C8.76075 21.9428 8.88871 21.9927 9.02099 21.99H15.7489C15.8812 21.9927 16.0091 21.9428 16.1047 21.8514C16.2003 21.7599 16.2558 21.6343 16.2589 21.502C16.2558 21.3697 16.2003 21.2441 16.1047 21.1526C16.0091 21.0612 15.8812 21.0113 15.7489 21.014H14.2369V18.002H14.1909C14.5114 17.809 14.8712 17.6903 15.2436 17.6549C15.6161 17.6194 15.9917 17.668 16.3429 17.797C16.2258 17.1142 16.1501 16.4249 16.116 15.733C16.17 15.686 17.6159 16.258 17.6809 16.222C17.7459 16.186 17.2629 14.893 17.4619 14.722C17.6609 14.551 18.562 14.81 18.673 14.79C18.784 14.77 18.4659 13.855 18.2439 13.535C18.0219 13.215 19.2939 13.258 19.3009 13.063C19.3079 12.868 18.8559 12.417 18.4299 12.283C18.0039 12.149 19.868 11.892 20.052 11.748C20.236 11.604 19.557 10.914 19.704 10.868C19.851 10.822 22.1039 10.789 22.8979 10.068C23.6919 9.347 19.7499 10.09 19.6709 9.689ZM1.88 10.262C1.64 9.362 2.93899 8.7 3.61499 9.236C3.26556 9.26049 2.92652 9.36594 2.62487 9.54401C2.32323 9.72208 2.06721 9.96789 1.87695 10.262H1.88ZM2.38 11.829C1.865 10.6 3.5699 9.435 4.6289 10.071C4.14096 10.1662 3.68231 10.375 3.29003 10.6804C2.89776 10.9858 2.58294 11.3793 2.37097 11.829H2.38ZM3.328 13.676C2.311 12.294 4.073 10.368 5.583 10.86C5.00855 11.1146 4.50337 11.5031 4.10998 11.9931C3.71659 12.483 3.44635 13.0601 3.32189 13.676H3.328ZM4.78491 15.405C3.37191 13.642 5.57596 11.022 7.58496 11.59C6.84611 11.9542 6.2056 12.4905 5.71728 13.1539C5.22897 13.8173 4.90711 14.5883 4.77893 15.402L4.78491 15.405ZM13.0279 21.023H11.7429V19.002C12.1849 18.8984 12.6155 18.7507 13.0279 18.561V21.023ZM11.88 17.717C9.451 18.375 6.52397 16.017 6.71997 15.823C7.62997 14.553 10.331 17.535 11.606 16.865C12.881 16.195 6.94997 15.23 7.09997 14.248C7.24997 13.266 13.407 16.52 13.808 15.717C14.209 14.914 7.56593 13.952 8.00793 13.112C8.44993 12.272 14.992 15.112 15.292 14.119C15.592 13.126 8.69789 12.757 8.61889 12.119C8.53989 11.481 15.8639 12.071 16.2989 13.019C16.7339 13.967 14.303 17.059 11.871 17.717H11.88ZM16.8199 11.724C16.6649 12.124 15.1739 11.565 15.1659 10.816C15.1579 10.067 16.5399 9.36599 16.7899 9.70499C17.0399 10.044 16.253 10.344 16.231 10.834C16.203 11.36 16.9709 11.327 16.8149 11.724H16.8199ZM18.428 10.978C18.344 11.055 17.737 10.828 17.563 10.618C17.389 10.408 18.1989 9.697 18.2849 10.066C18.3709 10.435 18.507 10.902 18.423 10.978H18.428Z" fill="black"/>
</svg>
