<svg width="24" height="24" viewBox="0 0 24 24" fill="none" xmlns="http://www.w3.org/2000/svg">
<path d="M15.859 12.5899C17.0957 11.2783 18.2263 9.87057 19.24 8.3799C19.6622 7.68753 19.916 6.90558 19.9806 6.09719C20.0452 5.28879 19.919 4.47626 19.612 3.7256C19.3045 3.03209 18.8298 2.4257 18.2306 1.96047C17.6313 1.49523 16.9261 1.18564 16.178 1.05959L16.1369 1.05275C15.4687 0.933336 14.7814 0.979711 14.1351 1.18752C13.4889 1.39532 12.9035 1.75812 12.43 2.24465C12.2714 2.41142 12.1271 2.59149 11.999 2.78273C11.8708 2.59152 11.7266 2.41146 11.568 2.24465C11.0946 1.75812 10.5092 1.39532 9.8629 1.18752C9.21664 0.979711 8.5292 0.933336 7.86094 1.05275L7.82005 1.05959C7.07195 1.18564 6.36669 1.49523 5.76744 1.96047C5.16818 2.4257 4.69352 3.03209 4.38597 3.7256C4.07912 4.47628 3.95295 5.2888 4.01756 6.09719C4.08218 6.90557 4.33585 7.6875 4.75804 8.3799C5.77162 9.87067 6.90217 11.2784 8.13902 12.5899C9.77202 14.4169 10.926 16.132 11.011 16.857C11.094 17.563 11.0039 18.4448 10.1009 18.6338C9.94888 18.6863 9.78788 18.7076 9.62742 18.6963C9.46697 18.685 9.31039 18.6412 9.16722 18.5679C9.02404 18.4946 8.89715 18.3931 8.79417 18.2695C8.69119 18.146 8.61427 18.0027 8.56798 17.8486C8.53856 17.6952 8.55526 17.5366 8.61595 17.3926C8.67664 17.2486 8.77866 17.1257 8.90904 17.0396C9.06004 16.9396 9.11504 16.9947 9.15904 17.0347C9.22652 17.0967 9.30565 17.1446 9.39183 17.1758C9.47801 17.207 9.56945 17.2208 9.66099 17.2163C9.75254 17.2119 9.84229 17.1894 9.92503 17.1499C10.0078 17.1105 10.0819 17.0551 10.143 16.9868C10.2672 16.848 10.3317 16.666 10.3227 16.48C10.3138 16.294 10.2319 16.1189 10.095 15.9927C9.83931 15.7528 9.50944 15.6073 9.15989 15.5806C8.81035 15.5538 8.46211 15.6475 8.17296 15.8457C7.78325 16.0937 7.48206 16.4585 7.31248 16.8882C7.14291 17.3179 7.11369 17.7905 7.22899 18.2378C7.36896 18.7844 7.69273 19.2661 8.14598 19.6021C8.59923 19.938 9.15436 20.1075 9.718 20.0825H9.76597L8.713 21.6006L10.723 21.3008L11.999 23.001L13.274 21.3008L15.284 21.6006L14.2309 20.0835H14.277C14.8406 20.1085 15.3957 19.939 15.849 19.603C16.3022 19.2671 16.626 18.7853 16.766 18.2388C16.8813 17.7915 16.852 17.3193 16.6825 16.8897C16.5129 16.46 16.2117 16.0947 15.822 15.8467C15.5329 15.6485 15.1846 15.5548 14.8351 15.5816C14.4855 15.6083 14.1557 15.7538 13.9 15.9937C13.7631 16.1199 13.6813 16.295 13.6723 16.481C13.6634 16.667 13.7279 16.849 13.852 16.9878C13.9132 17.0561 13.9872 17.1115 14.0699 17.1509C14.1527 17.1903 14.2424 17.2128 14.334 17.2173C14.4255 17.2218 14.5171 17.208 14.6033 17.1768C14.6894 17.1456 14.7686 17.0977 14.836 17.0357C14.88 16.9957 14.936 16.9455 15.086 17.0405C15.2165 17.1265 15.3186 17.2496 15.3793 17.3936C15.44 17.5376 15.4565 17.6962 15.427 17.8496C15.3807 18.0037 15.3038 18.147 15.2008 18.2705C15.0978 18.3941 14.9709 18.4956 14.8277 18.5689C14.6846 18.6422 14.528 18.686 14.3675 18.6973C14.2071 18.7086 14.0461 18.6873 13.894 18.6348C12.994 18.4458 12.901 17.5639 12.984 16.8579C13.072 16.1309 14.226 14.4159 15.859 12.5899ZM12 15.5298C11.2338 14.1165 10.2839 12.811 9.17503 11.647C7.99667 10.3999 6.91766 9.06246 5.94798 7.64699C5.64112 7.14854 5.45563 6.58475 5.40648 6.00148C5.35732 5.41821 5.44591 4.83137 5.66502 4.28859C5.88008 3.80336 6.21377 3.38039 6.63548 3.05812C7.05719 2.73585 7.55331 2.52491 8.07799 2.44484C8.52461 2.35826 8.98576 2.38405 9.4199 2.52004C9.85405 2.65602 10.2476 2.89775 10.565 3.22365C10.9864 3.66475 11.2464 4.23539 11.303 4.84279C11.303 4.94279 11.298 5.0426 11.303 5.1426C11.303 5.1946 11.293 5.24289 11.284 5.29689C11.2342 5.78202 11.0073 6.23156 10.6468 6.56008C10.2864 6.88859 9.8176 7.07284 9.32994 7.07765C9.14378 7.08016 8.95901 7.04612 8.78612 6.97707C8.61322 6.90802 8.45571 6.80537 8.32249 6.67531C8.18928 6.54525 8.08292 6.39045 8.00975 6.21926C7.93657 6.04807 7.89794 5.86392 7.89598 5.67775C7.91475 5.49084 7.98875 5.31359 8.10862 5.16896C8.2285 5.02433 8.38877 4.91887 8.56895 4.86574C8.81195 4.80074 8.87702 4.90963 8.91502 4.97463C8.96133 5.05375 9.02283 5.12307 9.09605 5.17824C9.16927 5.23341 9.25271 5.27322 9.34154 5.29592C9.43036 5.31861 9.5228 5.32385 9.61351 5.31056C9.70422 5.29728 9.79139 5.26598 9.86998 5.21877C10.0291 5.12206 10.1438 4.96677 10.1891 4.78615C10.2344 4.60553 10.2067 4.41428 10.112 4.25392C9.92765 3.93169 9.63895 3.68158 9.29356 3.54543C8.94817 3.40927 8.56669 3.39517 8.21202 3.5049C7.73832 3.63912 7.31861 3.91836 7.01219 4.30373C6.70576 4.68909 6.52807 5.16109 6.50401 5.65285C6.48843 6.38561 6.76373 7.09481 7.26976 7.62502C7.77578 8.15522 8.47127 8.46334 9.20396 8.48195C9.75022 8.51728 10.2962 8.40844 10.7875 8.16701C11.2787 7.92558 11.6982 7.56002 12.004 7.10597C12.3098 7.56002 12.7292 7.92558 13.2204 8.16701C13.7117 8.40844 14.2577 8.51728 14.8039 8.48195C15.5366 8.46334 16.2321 8.15522 16.7381 7.62502C17.2442 7.09481 17.5196 6.38561 17.504 5.65285C17.48 5.16109 17.3021 4.68909 16.9957 4.30373C16.6893 3.91836 16.2697 3.63912 15.796 3.5049C15.4413 3.39498 15.0598 3.40925 14.7143 3.54543C14.3689 3.6816 14.0802 3.93156 13.896 4.25392C13.801 4.41409 13.773 4.60498 13.8181 4.78566C13.8632 4.96635 13.9778 5.12208 14.1369 5.21877C14.2156 5.26614 14.3028 5.29719 14.3937 5.31056C14.4845 5.32394 14.5771 5.31911 14.666 5.2964C14.7549 5.2737 14.8385 5.23399 14.9118 5.17873C14.9851 5.12347 15.0467 5.05389 15.093 4.97463C15.132 4.90963 15.1929 4.79974 15.4389 4.86574C15.6193 4.91893 15.7796 5.02463 15.8995 5.16945C16.0194 5.31428 16.0935 5.49164 16.112 5.67873C16.11 5.86485 16.0711 6.04861 15.9979 6.21974C15.9247 6.39087 15.8185 6.54626 15.6853 6.67629C15.5521 6.80632 15.3945 6.90846 15.2217 6.97756C15.0488 7.04665 14.8641 7.08101 14.678 7.07863C14.1903 7.07381 13.7215 6.88957 13.3611 6.56105C13.0006 6.23253 12.7739 5.78299 12.724 5.29787C12.715 5.24787 12.7089 5.19757 12.7049 5.14357C12.7049 5.04357 12.7049 4.94377 12.7049 4.84377C12.7614 4.23634 13.0215 3.66568 13.443 3.22463C13.7604 2.89865 14.1538 2.65701 14.588 2.52101C15.0222 2.38502 15.4834 2.35915 15.93 2.44582C16.4547 2.52598 16.9507 2.73684 17.3724 3.0591C17.7941 3.38136 18.1279 3.80439 18.343 4.28957C18.5621 4.83235 18.6507 5.41919 18.6015 6.00246C18.5524 6.58573 18.3669 7.14951 18.06 7.64797C17.0905 9.06352 16.0115 10.4009 14.833 11.648C13.721 12.8109 12.7683 14.1161 12 15.5298Z" fill="black"/>
</svg>
