<svg xmlns="http://www.w3.org/2000/svg" width="24" height="24" viewBox="0 0 24 24">
  <g id="sankofa-two" transform="translate(-41 -311)">
    <rect id="Rectangle_149" data-name="Rectangle 149" width="24" height="24" transform="translate(41 311)" fill="none"/>
    <path id="Path_341" data-name="Path 341" d="M-1239,4403.808a34.029,34.029,0,0,0,3.381-4.21,5.176,5.176,0,0,0,.372-4.654,4.591,4.591,0,0,0-3.434-2.666l-.041-.007a4.153,4.153,0,0,0-3.707,1.192,4.056,4.056,0,0,0-.431.538,4.066,4.066,0,0,0-.431-.538,4.153,4.153,0,0,0-3.707-1.192l-.041.007a4.591,4.591,0,0,0-3.434,2.666,5.177,5.177,0,0,0,.372,4.654,33.992,33.992,0,0,0,3.381,4.21c1.633,1.827,2.787,3.542,2.872,4.267.083.706-.007,1.588-.91,1.777a1.194,1.194,0,0,1-1.533-.785.791.791,0,0,1,.341-.809c.151-.1.206-.045.25-.005a.692.692,0,0,0,.984-.048.709.709,0,0,0-.048-.994h0a1.538,1.538,0,0,0-1.922-.147,2.188,2.188,0,0,0-.944,2.392,2.457,2.457,0,0,0,2.489,1.845h.048l-1.053,1.518,2.01-.3,1.276,1.7,1.275-1.7,2.01.3-1.053-1.517h.046a2.457,2.457,0,0,0,2.489-1.845,2.188,2.188,0,0,0-.944-2.392,1.538,1.538,0,0,0-1.922.147.709.709,0,0,0-.048.994h0a.692.692,0,0,0,.984.048c.044-.04.1-.09.25.005a.79.79,0,0,1,.341.809,1.194,1.194,0,0,1-1.533.785c-.9-.189-.993-1.071-.91-1.777C-1241.787,4407.349-1240.633,4405.634-1239,4403.808Zm-3.859,2.94h0a18.219,18.219,0,0,0-2.825-3.883,32.888,32.888,0,0,1-3.227-4,3.737,3.737,0,0,1-.283-3.358,3.161,3.161,0,0,1,2.413-1.844,2.743,2.743,0,0,1,2.487.779,2.707,2.707,0,0,1,.738,1.619c0,.1-.005.2,0,.3,0,.052-.01.1-.019.154a1.984,1.984,0,0,1-1.954,1.781,1.415,1.415,0,0,1-1.434-1.4.945.945,0,0,1,.673-.812c.243-.065.308.044.346.109a.693.693,0,0,0,.955.244h0a.708.708,0,0,0,.242-.965h0a1.633,1.633,0,0,0-1.9-.749,2.352,2.352,0,0,0-1.708,2.148,2.771,2.771,0,0,0,2.7,2.829,3.132,3.132,0,0,0,2.8-1.376,3.132,3.132,0,0,0,2.8,1.376,2.771,2.771,0,0,0,2.7-2.829,2.352,2.352,0,0,0-1.708-2.148,1.632,1.632,0,0,0-1.9.749.707.707,0,0,0,.241.965h0a.693.693,0,0,0,.956-.244h0c.039-.065.1-.175.346-.109a.945.945,0,0,1,.673.813,1.416,1.416,0,0,1-1.434,1.4,1.984,1.984,0,0,1-1.954-1.781c-.009-.05-.015-.1-.019-.154,0-.1,0-.2,0-.3a2.706,2.706,0,0,1,.738-1.619,2.742,2.742,0,0,1,2.487-.779,3.162,3.162,0,0,1,2.413,1.844,3.737,3.737,0,0,1-.283,3.358,32.853,32.853,0,0,1-3.227,4A18.176,18.176,0,0,0-1242.859,4406.748Z" transform="translate(1295.859 -4080.218)"/>
  </g>
</svg>
