<svg width="24" height="24" viewBox="0 0 24 24" fill="none" xmlns="http://www.w3.org/2000/svg">
<path d="M19 13.197L12 1.00204L5 13.197H7.364C6.48292 14.2674 6.00081 15.6106 6 16.997C6.00185 18.5878 6.63458 20.1128 7.7594 21.2376C8.88422 22.3625 10.4093 22.9952 12 22.997C13.5908 22.9955 15.116 22.3628 16.2409 21.2379C17.3658 20.113 17.9984 18.5879 18 16.997C18 15.6107 17.5181 14.2673 16.637 13.197H19ZM12 20.778C10.9983 20.7773 10.0378 20.379 9.32942 19.6706C8.62108 18.9623 8.22279 18.0017 8.222 17C8.22306 15.9983 8.62143 15.038 9.32971 14.3297C10.038 13.6214 10.9983 13.2231 12 13.222C13.002 13.2231 13.9626 13.6217 14.671 14.3304C15.3793 15.0391 15.7775 16 15.778 17.002C15.7767 18.0034 15.3781 18.9633 14.6699 19.6712C13.9616 20.3791 13.0014 20.7773 12 20.778ZM12 5.53806L15.1 10.938H8.89999L12 5.53806Z" fill="black"/>
</svg>
