<svg width="24" height="24" viewBox="0 0 24 24" fill="none" xmlns="http://www.w3.org/2000/svg">
<path d="M20.3047 8.40801C18.1347 7.99001 17.1199 8.62412 16.4849 8.17412C16.3884 8.10527 16.3134 8.01072 16.2681 7.90117C16.2268 7.79287 16.2143 7.67538 16.232 7.56084C16.416 5.80484 20.475 6.94622 20.8321 5.89922C21.2101 4.79222 19.484 3.45896 17.124 4.40996C15.341 5.12796 14.7239 6.0419 14.0879 6.2459C13.9816 6.27955 13.8689 6.2885 13.7588 6.27129C13.6566 6.26691 13.5583 6.23199 13.4761 6.17119C13.3794 6.10757 13.2996 6.02104 13.2446 5.91924C12.4376 4.34224 16.4818 3.09485 16.2178 2.01885C15.9398 0.882847 13.7699 0.698101 12.2969 2.7791C11.0119 4.5941 11.1711 5.787 10.4971 6.179C10.3752 6.23455 10.2417 6.26045 10.1079 6.2542C9.95776 6.24478 9.81599 6.18176 9.70803 6.07695C8.49603 5.07195 11.0211 2.01615 10.2461 1.27715C9.40011 0.477148 7.47495 1.49519 7.35695 4.04619C7.24995 6.34619 8.08202 7.24595 7.62502 7.95195C7.58516 8.0283 7.52636 8.09305 7.45412 8.13994C7.37036 8.18539 7.27809 8.21303 7.18313 8.221C5.34812 8.396 5.92073 4.09699 4.82473 3.88799C3.67973 3.66999 2.61179 5.57589 3.88479 7.78789C4.48876 8.72453 5.20212 9.58585 6.00979 10.3538C6.0917 10.4635 6.14261 10.5932 6.15725 10.7293C6.17188 10.8654 6.15001 11.0031 6.09328 11.1277C6.03656 11.2523 5.94725 11.3595 5.83498 11.4378C5.72271 11.5161 5.59161 11.5628 5.4551 11.573C4.1051 11.647 2.57269 8.6342 1.65969 9.0042C0.578687 9.4422 0.705817 11.6262 2.96682 12.7942C4.01628 13.2519 5.10976 13.6017 6.23 13.8382C6.41134 13.9247 6.55089 14.0795 6.61818 14.2688C6.68548 14.4582 6.67493 14.6664 6.58889 14.8479C6.561 14.9074 6.5254 14.9629 6.48293 15.013C5.53393 16.122 2.35483 14.2031 1.75783 15.0511C1.08483 16.0071 2.36697 17.7741 4.89797 17.5301C6.0257 17.3464 7.13133 17.0471 8.19777 16.637C8.317 16.6219 8.43826 16.6352 8.55129 16.6761C8.66431 16.7169 8.76621 16.7844 8.84816 16.8724C8.93012 16.9603 8.98963 17.0663 9.02248 17.1819C9.05533 17.2975 9.06012 17.419 9.03664 17.5369C8.75164 18.9369 5.13682 19.0569 5.09182 20.0799C5.03982 21.2489 7.07089 22.0403 9.06789 20.4603C10.8259 19.0693 10.9959 17.8698 11.7759 17.7078C11.9064 17.6886 12.0394 17.7111 12.1568 17.7713C12.3077 17.855 12.431 17.9806 12.5117 18.1331C13.2177 19.4461 10.0751 21.5952 10.6011 22.5042C11.1871 23.5162 13.3199 23.0788 14.1499 20.6648C14.4526 19.5587 14.6412 18.4247 14.7129 17.2801C14.7417 17.1856 14.7888 17.0976 14.8516 17.0213C14.9144 16.945 14.9914 16.8817 15.0786 16.8353C15.1658 16.7888 15.2615 16.7603 15.3599 16.7508C15.4582 16.7413 15.5574 16.7512 15.6519 16.7801C15.7167 16.7998 15.7786 16.828 15.836 16.8641C17.055 17.6561 15.6217 21.081 16.5357 21.553C17.5737 22.086 19.1357 20.5599 18.5357 18.0779C18.1949 16.9839 17.7432 15.9279 17.187 14.9261C17.1546 14.8143 17.1483 14.6963 17.169 14.5818C17.1896 14.4673 17.2367 14.3593 17.3062 14.2659C17.3756 14.1726 17.4656 14.0965 17.5694 14.0437C17.6731 13.991 17.7875 13.9633 17.9038 13.9622C19.3568 13.9622 19.995 17.6262 21.023 17.5242C22.182 17.4092 22.673 15.2779 20.8321 13.5179C19.1651 11.9239 17.9369 11.9721 17.7149 11.1561C17.6953 11.057 17.6953 10.9553 17.7149 10.8562C17.7543 10.7416 17.8181 10.6367 17.9019 10.5491C17.9583 10.486 18.0231 10.4311 18.0947 10.386C19.3217 9.62003 21.819 12.3381 22.626 11.6961C23.536 10.9481 22.8017 8.88901 20.3047 8.40801ZM12 6.49101C13.1631 6.49266 14.2954 6.86365 15.2339 7.55059C16.1725 8.23752 16.8685 9.20513 17.2217 10.3133L13.439 10.032L12 6.49101L10.5611 10.032L6.77785 10.3133C7.13108 9.20513 7.82709 8.23752 8.76564 7.55059C9.7042 6.86365 10.8369 6.49266 12 6.49101ZM13.5078 12.1092C13.5064 12.4071 13.417 12.698 13.2505 12.9451C13.084 13.1922 12.848 13.3843 12.5723 13.4974C12.2966 13.6104 11.9933 13.6393 11.7012 13.5804C11.4091 13.5214 11.1414 13.377 10.9312 13.1658C10.721 12.9546 10.5781 12.6862 10.5205 12.3938C10.4629 12.1015 10.4931 11.7984 10.6074 11.5232C10.7218 11.2481 10.9148 11.0133 11.1626 10.8479C11.4105 10.6826 11.7021 10.594 12 10.594C12.4009 10.5951 12.7846 10.7553 13.0674 11.0394C13.3502 11.3234 13.5086 11.7083 13.5078 12.1092ZM6.51467 12.0003C6.51427 11.4306 6.60222 10.864 6.77492 10.3211L9.67482 12.784L8.77492 16.4559C8.07386 15.9441 7.50361 15.2738 7.11086 14.4998C6.7181 13.7258 6.51371 12.8702 6.51467 12.0022V12.0003ZM12 17.5091C10.8511 17.5111 9.73076 17.1493 8.79982 16.4759L12 14.4852L15.1997 16.4759C14.2688 17.1493 13.149 17.5111 12 17.5091ZM15.2237 16.4568L14.3237 12.785L17.2237 10.3221C17.5747 11.4253 17.5708 12.611 17.2119 13.7117C16.8531 14.8125 16.1575 15.7725 15.2237 16.4568Z" fill="black"/>
</svg>
