<svg xmlns="http://www.w3.org/2000/svg" width="24" height="24" viewBox="0 0 24 24">
  <g id="sesa-wo-suban" transform="translate(-137 -359)">
    <rect id="Rectangle_149" data-name="Rectangle 149" width="24" height="24" transform="translate(137 359)" fill="none"/>
    <path id="Path_479" data-name="Path 479" d="M4210.945,5388.606c-2.17-.418-3.185.216-3.82-.234a.632.632,0,0,1-.217-.273.669.669,0,0,1-.036-.34c.184-1.756,4.243-.615,4.6-1.662.378-1.107-1.348-2.44-3.708-1.489-1.783.718-2.4,1.632-3.036,1.836a.721.721,0,0,1-.329.025.513.513,0,0,1-.283-.1.7.7,0,0,1-.231-.252c-.807-1.577,3.237-2.824,2.973-3.9-.278-1.136-2.448-1.321-3.921.76-1.285,1.815-1.126,3.008-1.8,3.4a.843.843,0,0,1-.389.075.631.631,0,0,1-.4-.177c-1.212-1.005,1.313-4.061.538-4.8-.846-.8-2.771.218-2.889,2.769-.107,2.3.725,3.2.268,3.906a.5.5,0,0,1-.171.188.689.689,0,0,1-.271.081c-1.835.175-1.262-4.124-2.358-4.333-1.145-.218-2.213,1.688-.94,3.9a14.04,14.04,0,0,0,2.125,2.566.764.764,0,0,1-.555,1.219c-1.35.074-2.882-2.939-3.795-2.569-1.081.438-.954,2.622,1.307,3.79a16.888,16.888,0,0,0,3.263,1.044.759.759,0,0,1,.359,1.01.743.743,0,0,1-.106.165c-.949,1.109-4.128-.81-4.725.038-.673.956.609,2.723,3.14,2.479a16.647,16.647,0,0,0,3.3-.893.758.758,0,0,1,.839.9c-.285,1.4-3.9,1.52-3.945,2.543-.052,1.169,1.979,1.96,3.976.38,1.758-1.391,1.928-2.59,2.708-2.752a.633.633,0,0,1,.381.063.89.89,0,0,1,.355.362c.706,1.313-2.437,3.462-1.911,4.371.586,1.012,2.719.575,3.549-1.839a16.812,16.812,0,0,0,.563-3.385.752.752,0,0,1,.939-.5.761.761,0,0,1,.184.084c1.219.792-.214,4.217.7,4.689,1.038.533,2.6-.993,2-3.475a16.763,16.763,0,0,0-1.349-3.152.754.754,0,0,1,.717-.964c1.453,0,2.091,3.664,3.119,3.562,1.159-.115,1.65-2.246-.191-4.006-1.667-1.594-2.895-1.546-3.117-2.362a.775.775,0,0,1,0-.3.839.839,0,0,1,.187-.307.907.907,0,0,1,.193-.163c1.227-.766,3.724,1.952,4.531,1.31C4214.176,5391.146,4213.442,5389.087,4210.945,5388.606Zm-8.305-1.917a5.489,5.489,0,0,1,5.222,3.822l-3.783-.281-1.439-3.541-1.439,3.541-3.783.281A5.489,5.489,0,0,1,4202.64,5386.689Zm1.508,5.618a1.508,1.508,0,1,1-1.508-1.515A1.512,1.512,0,0,1,4204.148,5392.307Zm-6.993-.109a5.526,5.526,0,0,1,.26-1.679l2.9,2.463-.9,3.672A5.507,5.507,0,0,1,4197.155,5392.2Zm5.485,5.509a5.444,5.444,0,0,1-3.2-1.033l3.2-1.991,3.2,1.991A5.444,5.444,0,0,1,4202.64,5397.707Zm3.224-1.052-.9-3.672,2.9-2.463a5.528,5.528,0,0,1-2,6.135Z" transform="translate(-4053.64 -5021.198)"/>
  </g>
</svg>
