<svg width="24" height="24" viewBox="0 0 24 24" fill="none" xmlns="http://www.w3.org/2000/svg">
<path fill-rule="evenodd" clip-rule="evenodd" d="M7.37823 2.43771C8.46456 3.52404 8.9506 4.94344 8.7839 6.17875C10.779 5.07526 13.221 5.07526 15.2161 6.17875C15.0494 4.94344 15.5354 3.52404 16.6218 2.43771C18.2941 0.765365 20.7558 0.51563 22.1201 1.87991C23.4844 3.2442 23.2346 5.70588 21.5623 7.37823C20.476 8.46456 19.0566 8.9506 17.8213 8.7839C18.9247 10.779 18.9247 13.221 17.8213 15.2161C19.0566 15.0494 20.476 15.5354 21.5623 16.6218C23.2346 18.2941 23.4844 20.7558 22.1201 22.1201C20.7558 23.4844 18.2941 23.2346 16.6218 21.5623C15.5354 20.476 15.0494 19.0566 15.2161 17.8213C13.221 18.9247 10.779 18.9247 8.7839 17.8213C8.9506 19.0566 8.46456 20.476 7.37823 21.5623C5.70588 23.2346 3.2442 23.4844 1.87991 22.1201C0.51563 20.7558 0.765365 18.2941 2.43771 16.6218C3.52404 15.5354 4.94344 15.0494 6.17875 15.2161C5.07527 13.221 5.07527 10.779 6.17875 8.78391C4.94344 8.9506 3.52404 8.46456 2.43771 7.37823C0.765365 5.70588 0.51563 3.2442 1.87991 1.87991C3.2442 0.51563 5.70588 0.765365 7.37823 2.43771ZM6.82043 6.82043C7.36701 6.27385 7.54191 4.8326 6.26263 3.55331C4.98335 2.27403 3.54209 2.44894 2.99551 2.99551C2.44893 3.5421 2.27403 4.98335 3.55331 6.26263C4.8326 7.54191 6.27385 7.36701 6.82043 6.82043ZM15.7087 12.2756C15.6453 13.1335 15.2856 13.9736 14.6296 14.6296C13.9736 15.2856 13.1335 15.6453 12.2756 15.7087L15.7087 12.2756ZM15.7087 11.7244C15.6453 10.8665 15.2856 10.0264 14.6296 9.37037C13.9736 8.71436 13.1335 8.35467 12.2756 8.29131L15.7087 11.7244ZM11.7244 8.29131L8.29131 11.7244C8.35467 10.8665 8.71436 10.0264 9.37037 9.37037C10.0264 8.71436 10.8665 8.35467 11.7244 8.29131ZM8.29131 12.2756C8.35467 13.1335 8.71436 13.9736 9.37037 14.6296C10.0264 15.2856 10.8665 15.6453 11.7244 15.7087L8.29131 12.2756ZM20.4467 17.7374C21.726 19.0167 21.5511 20.4579 21.0045 21.0045C20.4579 21.5511 19.0167 21.726 17.7374 20.4467C16.4581 19.1674 16.633 17.7262 17.1796 17.1796C17.7262 16.633 19.1674 16.4581 20.4467 17.7374ZM6.82043 17.1796C6.27385 16.633 4.8326 16.4581 3.55331 17.7374C2.27403 19.0167 2.44893 20.4579 2.99551 21.0045C3.54209 21.5511 4.98335 21.726 6.26263 20.4467C7.54191 19.1674 7.36701 17.7262 6.82043 17.1796ZM17.7374 3.55331C19.0167 2.27403 20.4579 2.44893 21.0045 2.99551C21.5511 3.54209 21.726 4.98335 20.4467 6.26263C19.1674 7.54191 17.7262 7.36701 17.1796 6.82043C16.633 6.27385 16.4581 4.8326 17.7374 3.55331Z" fill="black"/>
</svg>
