<svg width="24" height="24" viewBox="0 0 24 24" fill="none" xmlns="http://www.w3.org/2000/svg">
<path d="M15.1429 4.20106C15.1429 5.07794 14.7967 6.47384 14.2359 7.65818C13.983 8.19247 13.8042 8.7662 13.8042 9.35736C13.8042 9.8204 14.1796 10.1958 14.6426 10.1958C15.2338 10.1958 15.8075 10.017 16.3418 9.76407C17.5262 9.20332 18.9221 8.85714 19.7989 8.85714C21.5668 8.85714 23 10.2643 23 12C23 13.7357 21.5668 15.1429 19.7989 15.1429C18.9221 15.1429 17.5262 14.7967 16.3418 14.2359C15.8075 13.983 15.2338 13.8042 14.6426 13.8042C14.1796 13.8042 13.8042 14.1796 13.8042 14.6426C13.8042 15.2338 13.983 15.8075 14.2359 16.3418C14.7967 17.5262 15.1429 18.9221 15.1429 19.7989C15.1429 21.5668 13.7357 23 12 23C10.2643 23 8.85714 21.5668 8.85714 19.7989C8.85714 18.9221 9.20332 17.5262 9.76407 16.3418C10.017 15.8075 10.1958 15.2338 10.1958 14.6426C10.1958 14.1796 9.8204 13.8042 9.35736 13.8042C8.7662 13.8042 8.19247 13.983 7.65818 14.2359C6.47384 14.7967 5.07794 15.1429 4.20106 15.1429C2.43317 15.1429 1 13.7357 1 12C1 10.2643 2.43317 8.85714 4.20106 8.85714C5.07794 8.85714 6.47384 9.20332 7.65818 9.76407C8.19247 10.017 8.7662 10.1958 9.35736 10.1958C9.8204 10.1958 10.1958 9.8204 10.1958 9.35736C10.1958 8.7662 10.017 8.19247 9.76407 7.65818C9.20332 6.47384 8.85714 5.07794 8.85714 4.20106C8.85714 2.43317 10.2643 1 12 1C13.7357 1 15.1429 2.43317 15.1429 4.20106Z" fill="black"/>
</svg>
