<svg width="24" height="24" viewBox="0 0 24 24" fill="none" xmlns="http://www.w3.org/2000/svg">
<path d="M21.95 15.2921C21.8661 14.7909 21.6651 14.3166 21.3633 13.9079C21.0614 13.4992 20.6673 13.1676 20.213 12.94L20.177 12.923C19.5109 12.625 18.7714 12.5315 18.0522 12.6544C17.3329 12.7772 16.6664 13.1108 16.137 13.613C15.8102 13.9244 15.5413 14.2914 15.343 14.697C15.0731 12.9131 15.0731 11.0989 15.343 9.315C15.5406 9.71615 15.8073 10.0794 16.131 10.388C16.8075 11.0358 17.7083 11.397 18.645 11.3961C19.1703 11.3943 19.6897 11.2861 20.172 11.0781L20.208 11.061C20.6623 10.8333 21.0563 10.5015 21.358 10.0926C21.6597 9.68368 21.8604 9.20919 21.9439 8.70795C22.0336 8.19157 22.0095 7.6619 21.8733 7.15582C21.737 6.64974 21.4919 6.17952 21.155 5.77802C20.7482 5.24569 20.149 4.89399 19.4859 4.79828C18.8229 4.70256 18.1487 4.87049 17.6079 5.26605C17.1497 5.64497 16.8532 6.18429 16.7789 6.77423C16.7046 7.36417 16.8581 7.96025 17.208 8.44098C17.4288 8.7788 17.7554 9.03387 18.1366 9.16632C18.5179 9.29877 18.9323 9.30117 19.315 9.17303C19.5833 9.07252 19.809 8.88303 19.9546 8.63629C20.1001 8.38955 20.1567 8.10038 20.115 7.81696C20.1094 7.74729 20.0901 7.6795 20.0581 7.61737C20.0261 7.55525 19.9821 7.50009 19.9286 7.45514C19.8751 7.41019 19.8132 7.37633 19.7464 7.35553C19.6797 7.33473 19.6095 7.32746 19.54 7.33405C19.3987 7.35202 19.2703 7.42519 19.183 7.53766C19.0956 7.65013 19.0564 7.7927 19.074 7.93402C19.089 8.07902 19.045 8.12302 18.954 8.15802C18.7902 8.20047 18.6173 8.19105 18.4591 8.13104C18.301 8.07104 18.1653 7.96344 18.071 7.82306C17.8723 7.56659 17.7829 7.24212 17.8221 6.9201C17.8612 6.59809 18.0257 6.30441 18.28 6.10297C18.6198 5.89235 19.027 5.81875 19.419 5.89691C19.8111 5.97507 20.1589 6.19917 20.392 6.52399C20.6174 6.80038 20.7808 7.12203 20.871 7.4671C20.9612 7.81218 20.9762 8.17261 20.915 8.52399C20.8598 8.85769 20.726 9.17348 20.5246 9.44525C20.3233 9.71703 20.0602 9.93699 19.757 10.087C19.276 10.301 18.7425 10.3683 18.2234 10.2805C17.7043 10.1926 17.2227 9.95341 16.839 9.59296C16.404 9.14668 16.1058 8.58538 15.9795 7.97516C15.8531 7.36493 15.904 6.73127 16.126 6.14899C16.7699 4.28739 17.7248 2.54848 18.95 1.00604C16.7659 1.99283 14.3967 2.50311 12 2.50311C9.60329 2.50311 7.23407 1.99283 5.04996 1.00604C6.28074 2.55545 7.23877 4.30305 7.88297 6.17401C8.09977 6.75349 8.14719 7.38267 8.01969 7.9881C7.8922 8.59352 7.59508 9.15013 7.163 9.59296C6.77927 9.95341 6.29763 10.1926 5.77854 10.2805C5.25945 10.3683 4.72597 10.301 4.24497 10.087C3.94181 9.93699 3.67869 9.71703 3.47733 9.44525C3.27598 9.17348 3.14215 8.85769 3.08695 8.52399C3.02567 8.17261 3.04066 7.81218 3.1309 7.4671C3.22113 7.12203 3.38452 6.80038 3.60996 6.52399C3.84321 6.19936 4.19096 5.97542 4.58298 5.89728C4.975 5.81913 5.38207 5.89259 5.72196 6.10297C5.97622 6.30441 6.14078 6.59809 6.17991 6.9201C6.21904 7.24212 6.12962 7.56659 5.93101 7.82306C5.83652 7.96333 5.70083 8.07081 5.5427 8.1308C5.38457 8.19079 5.21171 8.20032 5.04795 8.15802C4.95695 8.12302 4.91295 8.07802 4.92795 7.93402C4.9455 7.7927 4.90636 7.65013 4.81901 7.53766C4.73165 7.42519 4.60322 7.35202 4.46195 7.33405C4.39241 7.3276 4.32231 7.33493 4.25565 7.35577C4.18899 7.37662 4.12713 7.41058 4.07365 7.45551C4.02017 7.50043 3.97611 7.55543 3.94407 7.61749C3.91203 7.67955 3.89265 7.74734 3.887 7.81696C3.84524 8.10038 3.90183 8.38955 4.0474 8.63629C4.19297 8.88303 4.41872 9.07252 4.68699 9.17303C5.0697 9.30117 5.48409 9.29877 5.86533 9.16632C6.24657 9.03387 6.57315 8.7788 6.79398 8.44098C7.14391 7.96025 7.29732 7.36417 7.223 6.77423C7.14868 6.18429 6.85219 5.64497 6.39396 5.26605C5.85325 4.87049 5.17911 4.70256 4.51603 4.79828C3.85295 4.89399 3.25373 5.24569 2.84696 5.77802C2.51009 6.17952 2.26498 6.64974 2.1287 7.15582C1.99242 7.6619 1.96826 8.19157 2.05796 8.70795C2.14148 9.20919 2.34227 9.68368 2.64396 10.0926C2.94564 10.5015 3.3397 10.8333 3.79398 11.061L3.82999 11.0781C4.31227 11.2862 4.83171 11.3943 5.35697 11.3961C6.29364 11.397 7.19438 11.0358 7.87095 10.388C8.19407 10.0803 8.46052 9.71816 8.658 9.31805C8.92729 11.0999 8.92729 12.9121 8.658 14.694C8.46006 14.2894 8.19191 13.923 7.866 13.612C7.33663 13.1098 6.67003 12.7762 5.95078 12.6534C5.23153 12.5305 4.492 12.6241 3.82596 12.9221L3.78995 12.939C3.33566 13.1666 2.94153 13.4982 2.63969 13.9069C2.33784 14.3156 2.13681 14.7898 2.05295 15.291C1.96341 15.8072 1.98766 16.3368 2.12394 16.8427C2.26021 17.3486 2.50523 17.8186 2.84196 18.22C3.10892 18.5298 3.43759 18.7805 3.80692 18.9561C4.17626 19.1317 4.57817 19.2285 4.98698 19.2401C5.49983 19.2462 5.99745 19.0656 6.387 18.732C6.84516 18.3533 7.14159 17.8141 7.21592 17.2243C7.29024 16.6345 7.13683 16.0386 6.78696 15.558C6.56625 15.2201 6.23972 14.9649 5.85844 14.8325C5.47715 14.7 5.06267 14.6977 4.67997 14.826C4.41189 14.9265 4.1863 15.1157 4.04075 15.3622C3.89519 15.6088 3.83846 15.8977 3.87998 16.181C3.88577 16.2505 3.90527 16.3183 3.93735 16.3803C3.96944 16.4423 4.01348 16.4973 4.06693 16.5422C4.12038 16.5871 4.18215 16.621 4.24876 16.6419C4.31536 16.6628 4.38547 16.6703 4.45499 16.664C4.59626 16.646 4.72464 16.5727 4.81199 16.4603C4.89934 16.3478 4.93855 16.2053 4.921 16.064C4.906 15.919 4.94999 15.875 5.04099 15.84C5.20474 15.7976 5.37764 15.807 5.5358 15.867C5.69397 15.927 5.8296 16.0346 5.92399 16.175C6.12275 16.4315 6.21215 16.7561 6.17283 17.0782C6.1335 17.4003 5.9686 17.6938 5.71397 17.895C5.37414 18.1056 4.96701 18.1793 4.57493 18.1011C4.18284 18.023 3.83506 17.7989 3.60197 17.4741C3.37664 17.1976 3.21339 16.8759 3.12333 16.5308C3.03326 16.1857 3.01851 15.8254 3.07999 15.4741C3.13527 15.1404 3.26909 14.8246 3.47044 14.5528C3.67178 14.281 3.93484 14.061 4.23795 13.9109C4.71892 13.6972 5.25226 13.6303 5.77116 13.7183C6.29005 13.8064 6.77147 14.0455 7.15501 14.4059C7.59758 14.8611 7.89865 15.4349 8.02183 16.0577C8.145 16.6805 8.08496 17.3256 7.84898 17.915C7.84898 17.915 7.84898 17.915 7.84898 17.92C7.20506 19.7547 6.25867 21.4687 5.04899 22.991C7.23312 22.0043 9.60233 21.494 11.999 21.494C14.3957 21.494 16.7648 22.0043 18.949 22.991C17.7422 21.472 16.7975 19.7621 16.154 17.9319C16.154 17.9259 16.154 17.92 16.154 17.915C15.918 17.3256 15.8579 16.6805 15.9811 16.0577C16.1043 15.4349 16.4054 14.8611 16.848 14.4059C17.2315 14.0455 17.7129 13.8064 18.2318 13.7183C18.7507 13.6303 19.284 13.6972 19.765 13.9109C20.0682 14.0609 20.3313 14.281 20.5326 14.5528C20.734 14.8246 20.8678 15.1404 20.923 15.4741C20.9844 15.8254 20.9697 16.1857 20.8796 16.5308C20.7895 16.8759 20.6263 17.1976 20.401 17.4741C20.1679 17.7989 19.8201 18.023 19.428 18.1011C19.0359 18.1793 18.6288 18.1056 18.289 17.895C18.0343 17.6938 17.8694 17.4003 17.8301 17.0782C17.7908 16.7561 17.8802 16.4315 18.079 16.175C18.1733 16.0346 18.309 15.927 18.4671 15.867C18.6253 15.807 18.7982 15.7976 18.962 15.84C19.053 15.875 19.0969 15.92 19.0819 16.064C19.0644 16.2053 19.1036 16.3478 19.191 16.4603C19.2783 16.5727 19.4067 16.646 19.548 16.664C19.6175 16.6703 19.6876 16.6628 19.7542 16.6419C19.8208 16.621 19.8826 16.5871 19.9361 16.5422C19.9895 16.4973 20.0335 16.4423 20.0656 16.3803C20.0977 16.3183 20.1172 16.2505 20.123 16.181C20.1645 15.8977 20.1077 15.6088 19.9622 15.3622C19.8166 15.1157 19.5911 14.9265 19.323 14.826C18.9403 14.6977 18.5259 14.7 18.1446 14.8325C17.7633 14.9649 17.4367 15.2201 17.216 15.558C16.8661 16.0386 16.7127 16.6345 16.787 17.2243C16.8614 17.8141 17.1578 18.3533 17.616 18.732C18.0056 19.0656 18.5031 19.2462 19.016 19.2401C19.4248 19.2285 19.8266 19.1317 20.196 18.9561C20.5653 18.7805 20.894 18.5298 21.161 18.22C21.4976 17.8188 21.7425 17.3488 21.8788 16.8431C22.0151 16.3374 22.0394 15.8081 21.95 15.2921ZM14.607 19.639C12.8928 19.2295 11.1062 19.2295 9.392 19.639C10.9494 14.6657 10.9494 9.33526 9.392 4.362C11.1062 4.77137 12.8927 4.77137 14.607 4.362C13.0494 9.33524 13.0494 14.6657 14.607 19.639Z" fill="black"/>
</svg>
