<svg width="24" height="24" viewBox="0 0 24 24" fill="none" xmlns="http://www.w3.org/2000/svg">
<path d="M23 12.177C23 9.07102 20.327 6.40002 16.491 5.20802C16.574 5.00102 16.867 4.37702 17.428 4.26002C18.102 4.12002 18.563 4.06904 18.769 3.98604C18.975 3.90304 19.731 3.52699 19.701 2.90199C19.671 2.27699 17.778 2.25399 16.556 2.51399C15.449 2.74799 14.775 4.451 14.656 4.769C14.29 4.70633 13.9174 4.65637 13.538 4.61903V2.41902C13.537 2.36229 13.5248 2.3063 13.5021 2.25429C13.4794 2.20227 13.4467 2.15523 13.4058 2.11586C13.365 2.07649 13.3167 2.04553 13.2639 2.02479C13.2111 2.00406 13.1548 1.99395 13.098 1.99501H10.898C10.8413 1.99395 10.7849 2.00406 10.7321 2.02479C10.6792 2.04553 10.631 2.07649 10.5901 2.11586C10.5493 2.15523 10.5166 2.20227 10.4939 2.25429C10.4712 2.3063 10.459 2.36229 10.458 2.41902V4.61903C10.0787 4.6557 9.70634 4.70566 9.341 4.769C9.229 4.463 8.55398 2.74499 7.44098 2.50899C6.21898 2.24999 4.32602 2.27299 4.29602 2.89699C4.26602 3.52099 5.02203 3.89703 5.22803 3.98103C5.43403 4.06503 5.89497 4.11502 6.56897 4.25502C7.13397 4.37302 7.427 5.00398 7.508 5.20698C3.671 6.39898 0.997009 9.07102 0.997009 12.177C0.997009 15.283 3.66998 17.954 7.50598 19.146C7.42298 19.353 7.12997 19.977 6.56897 20.093C5.89497 20.234 5.43403 20.285 5.22803 20.368C5.02203 20.451 4.266 20.827 4.297 21.452C4.328 22.077 6.21898 22.099 7.44098 21.84C8.54798 21.605 9.222 19.903 9.341 19.584C9.707 19.647 10.08 19.698 10.459 19.734V21.576C10.46 21.6327 10.4723 21.6887 10.4949 21.7407C10.5176 21.7928 10.5503 21.8398 10.5912 21.8792C10.632 21.9185 10.6802 21.9495 10.733 21.9702C10.7859 21.991 10.8423 22.0011 10.899 22H13.099C13.1557 22.0011 13.2121 21.991 13.265 21.9702C13.3178 21.9495 13.366 21.9185 13.4069 21.8792C13.4477 21.8398 13.4804 21.7928 13.5031 21.7407C13.5257 21.6887 13.538 21.6327 13.539 21.576V19.734C13.918 19.698 14.29 19.647 14.656 19.585C14.768 19.885 15.443 21.609 16.556 21.844C17.778 22.103 19.67 22.081 19.7 21.456C19.73 20.831 18.975 20.456 18.769 20.373C18.563 20.29 18.102 20.238 17.428 20.098C16.863 19.981 16.57 19.349 16.489 19.146C20.326 17.955 23 15.282 23 12.177ZM3.93298 12.177C3.93298 9.21702 6.74202 6.75204 10.46 6.21004V18.143C6.74202 17.6 3.93298 15.136 3.93298 12.177ZM13.54 18.143V6.21004C17.258 6.75204 20.067 9.21702 20.067 12.177C20.067 15.137 17.258 17.6 13.54 18.143Z" fill="black"/>
</svg>
