<svg width="24" height="24" viewBox="0 0 24 24" fill="none" xmlns="http://www.w3.org/2000/svg">
<path d="M16.04 0.999023C14.481 0.999023 13.062 2.09902 12 3.91202C10.938 2.10402 9.51908 0.999023 7.96008 0.999023C4.66808 0.999023 2 5.92402 2 11.999C2 18.074 4.66808 22.999 7.96008 22.999C9.51908 22.999 10.938 21.899 12 20.086C13.062 21.894 14.481 22.999 16.04 22.999C19.332 22.999 22 18.074 22 11.999C22 5.92402 19.332 0.999023 16.04 0.999023ZM12 13.399C11.6308 13.3959 11.2778 13.247 11.0178 12.9847C10.7579 12.7225 10.612 12.3683 10.6121 11.999C10.612 11.6298 10.7579 11.2755 11.0178 11.0133C11.2778 10.7511 11.6308 10.6022 12 10.599C12.3692 10.6022 12.7222 10.7511 12.9822 11.0133C13.2421 11.2755 13.3881 11.6298 13.3881 11.999C13.3886 12.3686 13.2429 12.7234 12.9829 12.9861C12.7229 13.2487 12.3696 13.3979 12 13.401V13.399ZM8.41504 20.919C6.39804 20.919 4.76306 16.924 4.76306 11.997C4.76306 7.07001 6.39804 3.07501 8.41504 3.07501C9.67304 3.07501 10.7821 4.63101 11.4391 6.99701H8.5L10.5291 9.54803C10.1113 9.80565 9.76642 10.166 9.52747 10.5947C9.28851 11.0234 9.16345 11.5062 9.16406 11.997C9.16345 12.4878 9.28851 12.9706 9.52747 13.3993C9.76642 13.828 10.1113 14.1884 10.5291 14.446L8.5 16.997H11.4391C10.7801 19.368 9.67404 20.921 8.41504 20.921V20.919ZM15.584 20.919C14.326 20.919 13.2171 19.363 12.5601 16.997H15.499L13.535 14.404C13.9347 14.1425 14.2629 13.7854 14.4899 13.3652C14.7169 12.9449 14.8356 12.4747 14.8351 11.997C14.8357 11.5193 14.717 11.0491 14.49 10.6288C14.263 10.2085 13.9348 9.85148 13.535 9.59003L15.499 6.99701H12.5601C13.2171 4.63101 14.325 3.07501 15.584 3.07501C17.601 3.07501 19.2361 7.07001 19.2361 11.997C19.2361 16.924 17.6021 20.921 15.5801 20.921L15.584 20.919Z" fill="black"/>
</svg>
